<svg width="14" height="11" viewBox="0 0 14 11" fill="none" xmlns="http://www.w3.org/2000/svg">
<path d="M0.687542 6.18737C0.307823 6.18737 0 5.87954 0 5.49983C0 5.12011 0.307823 4.81228 0.687542 4.81228H11.4035L7.76439 1.17315C7.49589 0.904644 7.49589 0.46942 7.76439 0.200919C8.03289 -0.0675827 8.46812 -0.0675827 8.73662 0.200919L13.5494 5.01371C13.8179 5.28221 13.8179 5.71744 13.5494 5.98594L8.73662 10.7987L8.68425 10.8457C8.4142 11.066 8.01611 11.0505 7.76439 10.7987C7.51267 10.547 7.49714 10.1489 7.71739 9.87888L7.76439 9.82651L11.4035 6.18737H0.687542Z" fill="#141414"/>
</svg>
