<svg width="21" height="28" viewBox="0 0 21 28" fill="none" xmlns="http://www.w3.org/2000/svg">
<path d="M3.42194 0.739225L5.34374 0.160367C6.21858 -0.103564 7.15956 -0.0401118 7.99104 0.338879C8.82252 0.71787 9.48767 1.3865 9.86231 2.21994L11.0582 4.88038C11.3805 5.59707 11.4703 6.39668 11.3149 7.167C11.1596 7.93731 10.767 8.63966 10.1923 9.1755L8.10258 11.1239C8.07758 11.1488 8.0565 11.1773 8.04007 11.2085C7.82126 11.6553 8.15352 12.8489 9.19431 14.6527C10.3682 16.6856 11.2747 17.4891 11.695 17.3652L14.4376 16.5258C15.1887 16.2965 15.9928 16.3079 16.7371 16.5585C17.4813 16.8091 18.1286 17.2863 18.588 17.9232L20.2875 20.2768C20.8211 21.0159 21.0683 21.9234 20.9831 22.831C20.8979 23.7385 20.4862 24.5842 19.8245 25.211L18.3623 26.5945C17.8538 27.0761 17.2364 27.4276 16.5626 27.6189C15.8889 27.8102 15.1789 27.8357 14.4932 27.6932C10.4215 26.8457 6.77352 23.5671 3.51803 17.929C0.26137 12.2874 -0.753947 7.48292 0.554272 3.53164C0.773261 2.87012 1.14826 2.27104 1.64759 1.78501C2.14692 1.29898 2.75475 0.940281 3.42194 0.739225ZM3.92554 2.40171C3.52521 2.52228 3.15979 2.73745 2.86015 3.02903C2.56052 3.32061 2.33547 3.68003 2.20402 4.07692C1.0764 7.48177 1.98984 11.807 5.02306 17.0607C8.05396 22.311 11.3396 25.2631 14.8486 25.9925C15.26 26.0779 15.686 26.0625 16.0902 25.9476C16.4944 25.8326 16.8648 25.6217 17.1698 25.3326L18.6309 23.9503C18.9873 23.6128 19.2092 23.1575 19.2551 22.6688C19.3011 22.1801 19.1682 21.6913 18.8809 21.2933L17.1814 18.9385C16.934 18.5956 16.5856 18.3387 16.1849 18.2038C15.7842 18.0688 15.3514 18.0626 14.947 18.186L12.1974 19.0277C10.6762 19.4803 9.24525 18.2126 7.69159 15.5198C6.37527 13.2414 5.91913 11.5951 6.48178 10.4455C6.59138 10.2217 6.73725 10.0245 6.9194 9.85393L9.00907 7.90549C9.31869 7.61697 9.53019 7.23873 9.61387 6.82386C9.69754 6.40901 9.6492 5.97836 9.47563 5.59237L8.27855 2.9331C8.07683 2.4842 7.71861 2.12408 7.27079 1.91999C6.82297 1.71589 6.31617 1.68177 5.84503 1.82401L3.92554 2.40171Z" fill="#C4E538"/>
</svg>
