<svg width="90" height="30" viewBox="0 0 90 30" fill="none" xmlns="http://www.w3.org/2000/svg">
<path d="M80.2579 0.843858L79.9784 1.08585L79.8836 0.793154L79.9033 0.417013L80.2808 0.0670735L80.8186 0L80.8955 0.279672L80.8317 0.600168L80.7058 0.765356L80.2579 0.843858ZM82.244 14.5788L82.074 14.5756L81.6784 14.4774L80.884 13.9918L80.0716 13.8201L78.8914 13.8054L78.2245 13.7367L77.9532 13.8086L77.7244 13.8119L77.5592 13.7138L77.3844 13.6647L76.9234 13.9509L76.7092 13.8642L76.4918 13.7432L76.1061 13.7039L75.6386 13.7383L75.1221 14.0327L74.5467 13.7677L74.3833 13.771L74.2737 13.8397L74.0253 14.2027L73.5496 14.4791L73.3143 14.9877L73.1688 15.475L73.0429 15.6434L73.0086 16.5838L72.9333 17.0384L73.0527 17.6385L73.0314 17.8969L72.8206 18.2812L72.7928 18.3695L72.6816 18.9795L72.7241 19.143L72.6964 19.3474L72.5182 19.7759L72.1962 19.8936L71.8579 19.9607L71.5668 19.8151L71.3054 20.0506L70.9735 20.4136L70.8297 20.659L70.8314 20.8862L70.8657 21.0384L70.797 21.1953L70.7889 21.3621L70.8051 21.6025L71.0307 21.7023L71.2661 21.91L71.258 22.1095L71.1288 22.2468L70.833 22.4594L70.2935 22.8944L69.6854 23.2657L69.455 23.3523L69.3717 23.524L69.3292 23.7546L69.4632 24.2599L69.5907 24.4087L69.6577 24.5854L69.576 24.7963L69.5171 24.9778L69.2932 25.0923L69.0742 25.1757L68.9941 25.3196L68.8796 25.9246L68.7472 26.2403L68.4497 26.7096L68.3501 26.9239L68.1964 26.9925L67.621 26.7734L67.1061 26.9058L66.4229 26.9909L65.8442 26.9778L65.398 27.0743L65.0907 27.3212L64.7474 27.6336L64.3861 27.8658L64.1132 27.9786L63.613 27.6483L63.3596 27.6777L62.9053 27.5632L61.8379 27.1936L61.5747 27.0857L61.2902 27.0759L61.2052 26.9696L61.2494 26.7914L61.2052 26.5559L60.9976 26.4676L58.8547 26.5035L58.2369 26.7064L57.8201 26.8666L57.5225 27.0514L57.4375 27.5109L57.2594 27.9426L57.0289 28.4005L56.3163 28.5379L55.7932 29.0007L55.6134 29.0563L55.2537 28.9893L54.8679 28.9516L54.5901 29.0808L54.2975 29.0743L53.3969 28.8584L52.5453 28.8241L52.063 28.9337L51.7966 28.9745L50.3141 29.609L49.8123 29.6826L49.6095 29.591L49.3235 29.331L48.9394 29.071L48.019 28.1863L47.6791 27.9786L47.4536 27.766L47.2394 27.5125L46.9337 27.2395L46.6558 27.0514L46.2799 26.6687L45.9056 26.2501L45.8206 25.5126L45.5231 25.3768L45.4217 25.1839L45.376 24.9663L45.7896 24.3678L46.0902 25.0007L46.2047 25.1414L46.8716 25.5682L47.4208 25.7808L48.0142 25.8674L48.6189 25.8854L48.8576 25.856L49.093 25.7709L49.3235 25.8625L50.587 26.5543L51.0774 26.6786L51.5956 26.6262L51.8015 26.6949L52.5289 27.2264L52.743 27.2902L53.101 27.2493L52.6449 27.0072L52.3442 26.8355L52.2086 26.5117L52.2919 26.1667L52.5829 25.9361L52.7855 25.6859L52.8574 24.9402L52.9865 24.5625L53.2285 24.2043L53.3086 23.8576L53.0356 23.5927L52.9752 23.1381L53.034 22.762L53.1893 22.5052L53.4345 22.6753L53.6895 22.8323L53.9395 22.816L54.1128 22.7538L54.1438 22.5592L54.0981 22.2207L54.1112 21.5992L54.4283 21.1021L54.9367 20.7603L55.4156 20.5968L57.2104 20.3188L60.0479 19.6075L60.8882 19.3327L61.1971 19.1904L61.457 18.9926L61.8967 18.3613L62.7222 17.3654L63.3007 16.5478L64.5202 15.3556L65.4927 14.2502L65.6235 14.0425L65.7853 13.439L65.7984 13.1545L65.769 12.8667L65.8982 12.7326L66.0877 12.6524H66.1335L66.2774 12.7784L66.6157 12.9534L66.8674 13.179L67.0374 13.4701L67.1584 13.7416L67.1682 13.9738L67.3219 14.1635L67.7518 14.1962L67.8907 14.435L68.1898 14.8454L68.4645 15.1414L68.6328 15.2559L68.842 15.1937L69.1673 14.9239L69.4027 14.5936L69.5612 14.1471L69.437 14.0817L69.656 13.7448L69.6969 13.5682L69.5955 13.4063L69.4664 13.2444L69.4174 12.8372L69.3275 12.3189L69.267 12.0834L69.4386 11.9149L69.808 11.7007L70.1775 11.4521L70.5518 11.2526L70.5616 11.6124L70.5518 12.206L70.6646 12.7031L70.9196 13.5829L71.2106 13.7023L71.5604 13.7808L71.763 13.7563L71.8938 13.6974L71.9281 13.6271L71.7107 13.282L71.6535 12.4693L71.4754 11.9362L71.2024 11.4047L71.0732 11.2543L72.1504 11.1038L72.3907 10.937L72.814 10.5724L72.9743 10.3679L73.1002 9.90676L72.5722 9.63367L72.3646 9.28368L72.3515 8.90595L72.9824 8.20277L73.2014 8.03434L73.2963 8.28452L73.5742 8.3483L73.8292 8.35813L74.0858 8.34341L74.4552 7.98853L74.6448 7.47829L75.2921 6.75715L75.5226 6.20439L75.6533 5.62549L77.2879 3.82668L77.4873 3.54701L78.4583 1.73672L78.5793 1.67624L78.8392 1.85121L78.916 2.42682L78.8817 2.67705L78.7231 3.0499L78.6331 3.43906L78.7444 3.43093L79.2069 3.19377L79.6891 2.56092L79.9621 2.0131L80.1942 1.77435L80.6601 1.90845L80.7631 2.00327L80.7303 2.39738L80.7744 2.62634L80.9526 3.11527L81.3482 3.41291L81.8941 3.59936L82.4009 3.8708L82.5676 4.04906L82.6755 4.26331L82.7866 4.61489L82.7948 4.97137L82.4287 5.31971L82.584 5.8839L82.5595 6.21258L82.4353 6.49385L81.9023 6.75061L83.3555 6.4955L83.7135 6.34997L84.2104 5.97872L84.4752 6.29927L84.7236 6.85362L84.5242 6.99261L83.8917 7.19702L83.8605 7.28046L84.0698 7.56827L84.3329 7.54047L84.8544 7.34749L85.3333 7.04331L85.5654 7.04661L85.8107 7.10874L86.2831 7.30497L86.5479 7.46362L86.7734 7.66803L86.9189 8.09153L87.4648 8.24529L88.5829 8.83887L88.7905 8.88958L89.0079 8.90106L89.5963 8.82909L89.8039 8.91249L89.951 9.12673L90.0001 9.39163L89.9837 9.67619L89.9233 9.89204L89.7859 10.0703L89.3854 10.3417L88.3769 10.6966L87.2736 10.9665L86.7195 10.9484L85.9414 10.7179L85.6586 10.7473L85.384 10.8536L85.0408 11.5878L85.6766 12.3189L86.7701 13.0793L86.9205 13.269L86.8813 13.5028L86.708 13.6418L86.4759 13.7187L85.8613 13.8397L85.2402 13.9296L84.7285 14.0605L84.2267 14.2306L83.7118 14.1717L83.0024 13.8315L82.7981 13.807L82.5823 13.982L82.3715 14.4595L82.244 14.5788ZM11.2606 5.09404L12.0533 5.27225L12.3574 5.41618L13.2483 6.83565L14.4219 7.83317L14.9205 8.20602L15.3046 8.38263L15.8292 8.91578L16.287 9.58621L17.2906 11.4718L17.4638 12.2992L17.5325 13.5617L17.3119 15.4652L17.0421 16.4137L17.0945 16.8617L17.4638 17.5486L17.3527 18.1978L17.4246 18.7374L17.3985 20.2321L17.6077 20.6736L17.8463 20.955L19.1066 21.8413L19.1998 22.17L19.8209 23.2983L20.9716 25.7546L21.2921 26.8584L21.2561 27.1561L21.1172 27.2787L20.7788 27.3866L20.496 27.1708L20.4011 27.0171L20.4306 26.8241L20.3194 26.6344L20.0432 26.4087L19.8847 26.206L19.9288 26.5412L19.9304 26.9762L19.579 27.0138L19.1295 26.878L18.5672 27.0007L17.9036 27.5338L17.5848 27.5485L17.3429 27.0906L17.2187 26.7799L17.0208 26.5608L14.9107 25.4374L14.1309 25.1495L13.3104 24.2975L11.4633 23.3572L10.2897 22.4398L9.79113 21.874L8.59133 21.3719L8.07484 20.7799L7.81984 20.6639L7.56483 20.4529L7.8345 19.8772L7.72336 19.2771L7.58439 18.7701L6.73776 17.771L6.32253 17.0743L5.52649 16.3793L5.20774 15.9787L4.90375 15.5142L5.0933 15.3507L5.26989 15.2526L5.10807 14.9141L4.65203 14.327L4.43953 13.6516V12.3761L3.79224 10.5821L3.23804 8.09483L3.3378 7.22322L3.19554 6.27801L2.8278 5.36877L2.34722 4.71955L2.16744 4.17986L2.25404 3.96567L2.36029 3.26409L2.43222 3.1251L2.6137 3.05808L2.81961 3.07605L3.20372 3.686L4.20578 4.06378L4.50817 4.15371L4.90205 4.00325L5.08023 4.09812L5.26001 4.25348L5.36307 4.68845L5.62616 5.08421L6.15253 5.02697L6.33889 5.08421L6.44844 5.09564L6.5514 5.44563L6.59879 6.05398L6.5497 6.40716L6.17049 6.91251L6.11981 7.25591L6.31924 7.46851L6.57754 7.69583L6.72629 7.8708L6.88153 7.84136L7.07767 7.72363L7.25755 7.42599L7.38176 7.17087L8.05678 6.88631L8.75475 6.62959L8.84963 6.65574L8.96237 6.76858L9.18465 7.14143L9.31544 7.21993L9.5034 7.25756L9.83034 7.21828L10.2096 7.00733L10.409 6.61322L10.4973 6.30251L11.0432 5.76452L11.1037 5.36059L11.2606 5.09404ZM0.925139 4.06867L1.24878 4.5609L1.08696 4.78003L1.00525 4.84381L0.810706 4.77185L0.624342 4.95994L0.446258 4.99752L0.268074 4.65741L0.0473893 4.52167L0 4.28616L0.295809 4.24529L0.472397 4.32709L0.804222 4.16354L0.925139 4.06867ZM2.94712 9.4358L2.83268 9.56336L2.49926 9.48975L2.55813 8.73916L2.74768 8.64264L3.04519 8.77839L3.17598 8.90595L2.94712 9.4358ZM83.6661 14.5069L83.027 14.5952L82.584 14.5854L82.6657 14.4251L82.6445 14.2142L82.8553 14.1586L83.0988 14.2044L83.6661 14.5069ZM7.67108 19.977L7.43893 20.0604L7.42586 19.941L7.46676 19.7742L7.63676 19.6156L7.71518 19.7056L7.67108 19.977ZM20.988 21.1495L20.7657 21.197L20.6448 21.1659L20.563 20.9877L20.7493 20.5788L20.818 20.5102L20.9946 20.955L20.988 21.1495ZM53.8709 22.5935L53.7303 22.654L53.5129 22.4921L53.4622 21.107L53.6143 20.9828L53.7139 21.0007L53.8202 21.2526L53.8104 21.8593L53.8301 22.3956L53.8709 22.5935Z" fill="white"/>
</svg>
