<svg width="101" height="119" viewBox="0 0 101 119" fill="none" xmlns="http://www.w3.org/2000/svg">
<path d="M91.8417 8.9226L92.4135 8.95509L92.6685 8.92582L93.1056 9.0217L94.8389 9.98222L95.362 10.1041L95.903 10.1188L96.2831 10.0407L96.6178 9.77748L97.6639 8.61216L98.7654 7.54763L98.8872 7.58825V7.88242L98.806 8.20908L98.3186 9.18264L97.7777 10.4893L97.6624 11.1492L97.8378 11.7911L98.1774 12.321L98.4454 13.0442L98.754 14.047L99.1894 14.1737L99.4266 14.1884L99.8619 13.8877L100.273 13.5057L100.627 13.4586L100.999 13.5236L100.51 13.7902L100.049 14.1152L99.6523 14.7296L99.5045 14.8449L99.048 14.8076L98.7865 14.8303L98.252 15.0871L97.7825 15.378L97.3342 15.7339L96.8452 15.9241L96.3237 15.9696L95.5196 16.2605L94.9981 16.2817L94.0186 16.0281L93.5426 16.0964L92.5046 16.6685L91.559 17.4941L90.7322 18.4189L90.0417 19.5273L89.764 20.1026L89.5966 20.7462L89.5739 21.172L89.5121 21.58L89.353 21.8644L89.1612 22.0951L88.5911 21.9603L87.6553 21.3719L85.8407 20.5154L83.9238 19.2006L82.8451 18.5391L80.8178 18.7374L78.8993 19.9986L78.7286 19.8913L77.996 19.0267L77.6402 18.6838L77.2163 18.5862L76.901 18.5977L76.5957 18.661L76.162 19.1063L76.0027 19.4265L75.8793 19.7905L75.8419 20.0474L75.8939 20.2993L76.3048 20.8681L76.8117 21.2906L77.0408 21.3703L77.5265 21.341L77.7524 21.3849L78.5662 22.2317L79.4581 23.0248L79.6546 23.2864L79.3248 23.5611L78.9642 23.6977L78.5435 23.6635L78.1276 23.5595L77.416 23.2231L77.1107 23.5091L76.6363 24.0958L76.3747 24.7329L76.162 25.0238L75.6388 25.4074L75.0849 25.6057L74.7941 25.5406L74.5731 25.3001L74.448 25.0125L74.3847 24.6777L74.5017 23.9528L74.7892 23.2978L74.8997 22.6282L74.6642 21.684L74.5147 21.4857L73.9266 20.9315L73.6537 20.3903L73.5887 19.7158L73.6228 19.3436L73.7658 18.5196L73.9087 18.1036L74.1784 17.9671L74.4741 17.8841L74.9273 17.5851L75.4261 17.1983L75.9037 16.7562L76.3763 16.215L76.6216 15.6202L76.2172 14.8888L76.1327 14.4533L76.1928 14.0421L76.6249 13.8227L77.0684 13.9884L77.9635 14.593L78.1374 14.6532L78.7514 14.6808L79.5929 14.8125L80.0803 14.78L80.3158 14.6889L80.6699 14.19L80.8437 13.5529L80.7804 12.7322L80.7772 11.9163L81.0014 11.2499L81.7031 10.1757L81.9046 9.54179L81.9777 7.99456L82.2311 7.31199L82.4341 6.60174L82.5316 5.10977L82.2441 3.66978L81.9549 2.96122L81.6236 2.28673L81.6723 1.64151L81.9403 1.04181L81.9468 0.861375L82.0102 0.700478L82.5122 0.586749L82.7477 0.458339L82.9735 0.169031L83.2415 0L83.4382 0.169031L83.6006 0.464836L84.3088 1.1913L85.4249 2.48503L86.7391 4.44992L87.5627 5.40394L88.4303 6.26695L89.4034 7.14782L90.4219 7.90355L91.0717 8.26111L91.5476 8.82995L91.8417 8.9226ZM79.2956 1.14255L79.1202 1.55213L78.883 0.942667L78.8359 0.284447L78.9723 0.287671L79.2225 0.386818L79.2826 0.706975L79.2956 1.14255ZM80.3109 2.52074L79.9958 2.56627L79.627 2.29645L79.5815 1.95844L79.848 1.68863L80.1127 1.78777L80.3775 2.13556L80.4653 2.31758L80.3109 2.52074ZM72.0405 21.5978L71.9366 21.6303L71.8293 21.5783L71.7237 21.1151L71.8147 20.8713L72.1087 20.7007L72.3947 20.6536L72.1526 21.5052L72.0405 21.5978ZM80.0104 25.9096L80.1891 26.0234L81.0404 25.7162L80.8779 26.6442L80.7869 27.5787L80.8486 29.126L80.925 29.8215L81.0728 30.4944L81.4367 30.9755L81.9111 31.3168L82.5982 32.4041L82.967 33.7367L83.227 34.3819L83.4219 35.0581L83.482 35.3669L83.4868 35.6757L83.4283 36.0982L83.4934 36.4395L83.4186 37.5089L83.1116 38.7425L83.0726 39.3714L82.8046 39.4966L82.6421 39.7875L82.504 39.9224L82.3497 40.0264L82.1272 40.0524L81.9663 40.1711L81.903 40.5042L81.8006 40.8114L81.6056 41.0958L81.4529 41.4079L81.3279 42.1685L81.2824 42.947L81.0956 43.4898L80.6424 43.6312L80.1241 43.6231L79.4597 43.8733L79.3167 44.0212L78.792 44.9671L78.641 45.5213L78.636 46.1162L78.7823 46.8476L78.9805 47.561L79.1299 48.8856L78.9723 50.8977L78.8197 51.5396L78.4866 51.9735L78.2332 52.1751L78.0155 52.4221L77.7328 53.0738L77.2649 54.3708L77.2276 54.6959L77.2292 55.0323L77.1025 55.4711L77.0213 55.9017L77.0977 56.4023L77.2422 56.8704L77.8693 58.0682L78.1146 58.4225L78.3907 58.7443L77.3202 59.1002L77.1285 59.2644L76.4917 59.9437L76.2887 60.5873L76.3048 61.2992L76.1993 61.5544L76.0254 61.7754L75.8435 61.9216L75.132 62.2467L74.6772 62.5701L74.2255 63.0755L74.0469 63.3389L73.6975 63.2544L73.4929 63.0203L73.6943 62.7278L73.6326 62.3816L73.7316 61.4926L73.6196 61.135L73.9835 60.8636L74.1556 60.4313L74.5325 60.0851L74.8039 59.778L74.851 59.5277L74.6088 59.2579L74.3522 59.0628H73.9981L73.6569 59.1197L73.4344 59.3765L73.3613 59.726L73.3792 59.8885L73.3499 60.0299L72.8138 60.5077L72.8837 61.0067L73.0412 61.2602L73.2427 61.3804L73.1825 61.5511L72.9275 61.9525L72.7504 61.9915L72.4239 61.4292L72.0145 61.122L71.5077 61.1237L70.9879 61.2358L70.5931 61.6096L70.4632 61.92L70.3787 62.2402L70.4079 63.0187L70.2439 63.6688L69.9222 64.2392L69.7727 64.4473L69.3812 64.8341L69.11 64.8845L68.9182 64.7089L68.7622 64.4424L68.9604 63.4672L68.9523 62.9179L69.4105 62.6384L69.0352 62.2483L68.5738 62.0907L67.9257 62.2987L67.7421 62.5344L67.617 62.8497L67.2677 63.2495L66.8844 63.6216L66.4473 64.2587L66.1549 65.0112L65.1965 64.7658L64.675 64.7106L64.1471 64.73L63.2113 64.6374L62.1847 64.7918L61.015 65.0876L61.0849 64.8747L62.0465 64.4213L62.0807 64.288L61.988 64.0393L61.7493 64.0279L61.1742 64.1141L60.8801 64.0767L60.7615 63.8102L60.5666 63.6964L60.4366 63.8053L60.4788 64.3221L60.3376 64.3904L60.1475 64.2571L60.2076 63.854L60.0793 63.2641L60.063 62.8968L60.2645 62.5815L60.0581 62.4482L59.8405 62.4986L59.5643 62.6497L59.3206 62.8643L58.8057 63.9418L58.6059 64.5562L58.9827 65.0486L60.0126 65.7361L60.1881 65.9051L60.1913 66.1977L60.0663 66.5081L59.7869 66.643L58.6578 66.8721L57.6782 67.3158L57.3956 67.7644L56.5053 69.4969L55.7922 70.6784L54.785 71.0847L53.6803 70.7223L53.4123 70.3112L53.1962 69.8024L52.7852 69.3425L52.4132 68.8403L52.1972 68.2438L52.2313 67.2817L52.0704 66.7015L52.215 66.5471L52.8242 66.1928L53.024 65.9945L53.3684 65.5329L53.4919 65.2761L53.5097 64.8877L53.2336 64.6846L52.5188 64.6911L51.8056 64.8129L51.2971 64.6439L50.636 64.1726L50.4312 64.0718L49.7197 64.0426L49.2113 64.1304L48.7125 64.301L48.1846 64.3563L48.0092 64.4457L47.4 65.0226L46.9142 65.385L46.4951 65.5654L45.5902 65.6126L45.137 65.7296L44.6627 65.9197L44.5294 65.9035L44.0291 66.1668L43.454 66.3943L43.1486 66.6218L42.5849 66.4723L41.4705 66.8802L40.9312 66.9306L40.3755 66.7047L39.8589 66.3391L39.3635 66.4967L39.024 67.0346L38.8583 68.1041L38.6649 68.5851L38.6064 69.1621L38.3498 69.0711L36.8585 68.0326L36.7562 67.9952L35.5508 68.174L35.2405 68.2601L34.8522 68.4697L34.4413 68.564L34.0675 68.4129L33.7086 68.1675L33.3642 68.2406L33.0117 68.4129L32.8752 66.8429L32.945 66.6365L33.1611 66.3618L33.4 66.1261L33.9831 66.0449L34.5728 66.1213L34.9952 66.014L35.3526 65.7019L35.7279 65.2599L36.1518 64.8991L36.7269 64.6147L37.2825 64.288L37.7715 63.8297L38.2344 63.3275L38.6601 62.9585L39.123 62.6497L39.8281 61.9054L40.7622 61.0684L41.1212 60.4476L41.3437 60.2769L42.1479 59.9307L43.2152 59.6642L43.7188 59.6772L44.2159 60.2217L44.484 60.1469L44.7569 60.0055L45.306 59.9275L45.8713 60.0185L46.4236 60.0201L46.976 59.9518L48.0351 59.7731L48.594 59.5569L49.1398 59.2774L51.0827 59.0807L52.4132 58.6111L52.6244 58.6452L52.829 58.7525L52.8453 59.1002L52.6764 59.4789L52.8404 59.7081L53.1101 59.8495L54.3626 59.8934L54.72 59.9746L55.2431 59.7162L55.737 59.396L56.2519 58.9735L56.6126 58.4973L56.2795 57.9008L56.2065 57.2474L56.4859 56.5372L56.8903 55.9391L57.3712 55.5767L57.8147 55.159L58.7115 53.9726L59.3596 53.0105L59.5935 51.8241L59.4571 50.4166L60.024 49.3667L60.5666 49.1863L61.6437 48.7069L62.209 48.567L62.2934 48.7767L62.2773 49.0514L61.4308 49.9323L60.9452 50.2947L60.6559 50.4068L60.3895 50.5661L60.2807 50.8765L60.7128 51.3933L60.8216 51.7753L60.7941 52.1409L60.8136 52.4709L61.3009 52.8284L61.8613 52.9471L62.0953 52.9438L62.3 52.8496L62.94 51.9735L63.083 51.8208L64.9024 51.1772L65.7976 50.6847L66.293 50.5563L66.7577 50.2996L67.8005 49.3082L68.184 48.8498L68.5332 48.3427L68.8126 47.7528L69.0336 47.1141L69.3357 46.7159L70.9879 45.7651L71.5191 45.2467L71.688 44.9948L71.8927 44.2651L72.0341 43.5061L72.2338 42.9096L72.5051 42.3505L72.8674 41.78L73.2752 41.2486L73.5156 40.7041L73.8665 39.3991L74.0192 38.6742L74.1394 38.4126L74.3149 38.1931L74.4676 37.9136L74.5846 37.6016L74.6381 37.2928L74.7129 36.3469L74.6673 35.609L74.3945 34.9833L74.1686 34.8062L73.9233 34.7964L73.553 34.8501L73.2395 34.5949L73.3044 34.3689L73.6245 34.3267L73.8421 34.2097L73.9997 33.9968L74.2937 33.3126L74.4691 32.578L74.4854 32.2529L74.2548 31.6597L74.0728 30.9462L74.068 30.561L74.2678 30.1157L74.5536 29.7533L74.8087 29.6688L75.0849 29.6428L75.3367 29.503L75.5706 29.2998L75.7022 29.0756L75.9068 28.4645L75.9865 28.1167L75.8565 27.1805L75.9897 26.9237L76.1781 26.7645L76.43 26.8848L76.6899 26.9091L76.9921 26.8717L77.2812 26.9709L77.3348 27.2114L77.5168 28.7911L77.6207 29.004L77.8319 29.1698L78.0691 29.1454L78.2738 28.9L78.4118 28.5734L78.6848 28.5051L79.5182 28.8561L79.8138 28.6059L80.0055 28.2174L80.1729 27.5299L80.0916 26.9091L79.8918 26.6783L79.6854 26.7189L79.5035 26.8896L79.2988 26.9823L78.0691 27.3089L78.0756 26.6166L78.3388 25.5764L78.4833 25.2465L78.6912 25.0905L79.2079 25.2725L79.4597 25.3928L80.0104 25.9096ZM66.8551 46.8508L66.4213 46.8654L66.3142 46.8085L66.5757 46.6655L66.6 46.4266L66.7577 46.0008L66.7544 45.8789L66.4099 45.8561L66.4279 45.3734L66.6845 44.8957L67.3912 44.1432L67.5845 44.0017L67.6137 44.3317L67.3993 45.1102L67.357 45.3913L67.9127 45.4498L67.5553 46.3811L66.8551 46.8508ZM44.1802 56.0561L43.9723 56.2658L43.5823 56.1975L43.3565 55.8937L43.4313 55.5507L43.839 55.2874L44.2289 55.8156L44.1802 56.0561ZM71.9268 64.2945L71.8781 64.5545L71.6361 64.4976L71.5206 64.3287L71.5353 64.0247L71.7903 64.0231L71.9268 64.2945ZM26.0116 66.3488L25.919 66.6137L25.6103 66.4268L25.4691 66.2578L25.7566 65.424L25.7225 65.1071L25.7403 64.9527L26.3106 64.5155L26.4096 64.5984L26.4437 64.7203L26.3934 64.9072L26.4226 65.32L25.9938 66.0026L26.0116 66.3488ZM51.3037 66.708L50.8098 67.176L50.3809 67.1436L50.1665 66.9339L50.095 66.6755L50.5027 66.2692L50.8536 65.6938L51.1721 65.4387L51.4287 65.2956L51.6302 65.3005L51.1786 66.1034L51.3037 66.708ZM48.654 65.6337L48.5696 65.7426L48.4884 65.7133L48.1975 65.9653L48.1359 65.7231L47.9068 65.5622L47.8792 65.4354L48.5339 65.3525L48.7451 65.4192L48.654 65.6337ZM48.6784 66.8835L49.3103 67.1127L49.9553 67.0476L49.9456 68.0504L50.0381 68.3868L50.2185 68.6875L50.1259 69.1247L50.4183 69.2743L49.5508 69.7716L48.7695 70.4314L48.4478 70.8751L48.157 71.3513L47.988 71.8551L47.8792 72.3963L47.6176 72.1818L46.8638 71.3025L46.3862 71.062L45.6179 70.9336L45.3742 70.9628L43.7952 71.7836L43.5856 72.3833L43.1551 73.2853L42.9504 73.5828L42.7229 73.6689L42.5621 73.8233L42.3867 74.5904L41.8977 75.0617L41.5972 75.0763L41.0871 74.9463L40.8564 75.0194L41.1618 74.2637L40.6745 74.1711L40.1855 74.1873L40.1741 73.6949L39.8785 73.4153L40.0978 73.0513L40.1042 72.7539L40.2326 72.5897L40.2765 72.3508L40.2586 72.146L39.9581 72.0842L39.7745 71.9396L39.8086 71.4L39.6364 71.3805L39.2075 71.4748L38.3173 71.8909H38.0753L38.4473 71.5934L39.2384 71.1871L39.5942 70.9531L40.3707 70.2965L40.8597 69.9861L41.1131 69.4352L41.1927 69.1003L41.3584 68.8046L41.5046 68.3316L41.7547 68.174L42.1918 67.7677L42.442 67.8066L42.7214 68.3056L43.0967 68.6875L43.3662 68.655L43.8487 68.4584L44.0827 68.4145L44.6399 68.4389L45.1419 68.1967L45.3465 67.9106L45.423 67.5531L45.2361 66.9534L45.4765 67.0135L45.7088 66.9892L46.2531 66.6072L46.8135 66.3797L47.3934 66.3228L48.0465 66.539L48.6784 66.8835ZM25.5291 67.6133L25.2319 67.8359L25.1052 67.4962L25.2352 66.5308L25.7923 66.7291L25.7826 67.0249L25.5291 67.6133ZM40.5689 67.6587L40.4373 67.8782L40.0327 67.8115L40.1953 67.6213L40.3187 67.3906L40.4097 67.3434L40.4861 67.5937L40.5689 67.6587ZM39.1441 68.59L39.3667 68.7915L39.8947 68.7103L39.9597 68.7672L39.8054 68.9492L39.5714 69.1296L39.1491 68.9947L38.8827 68.9882L38.8453 68.6875L38.8794 68.5786L39.1441 68.59ZM34.17 70.4606L34.7823 70.6232L35.0423 70.633L35.2811 70.5598L35.6482 70.3469L36.03 70.1892L36.3045 70.2689L36.5466 70.459L36.6733 70.7272L36.6116 71.0067L36.1778 71.6081L35.8205 72.2484L36.6392 72.3687L37.458 72.3557L37.2679 72.7506L37.2354 73.0952L37.4855 73.2593L37.6984 73.4803L37.6432 73.6803L37.5213 73.8769L37.968 74.1727L37.9387 74.371L37.8234 74.579L36.7074 75.9345L36.3793 76.6187L36.1518 77.3712L35.9423 77.9205L35.7895 78.491L35.6742 79.1053L35.4663 79.7392L35.5362 80.2999L35.4663 80.8752L34.9059 82.2924L34.5062 82.2664L34.0042 82.0957L33.6907 82.1218L33.5283 82.4354L33.8158 83.0807L32.9223 83.8461L31.9346 84.3597L31.9281 84.1257L32.0223 83.942L32.1636 83.7941L32.266 83.6153L32.4106 83.014L32.3391 82.4078L32.0402 81.6472L32.0191 81.3741L32.2254 81.2636L32.3635 81.2311L32.4382 81.1255L32.4414 80.8736L32.3473 80.6866L32.0646 80.6265L31.7949 80.6233L31.6048 80.9061L31.3432 81.4505L31.2165 82.0015L31.2718 82.3022L31.3872 82.5719L31.7462 83.0221L31.6422 83.2887L31.4928 83.4951L30.2256 83.0254L29.951 82.9912L29.7237 82.8921L29.48 82.2729L29.9965 82.1234L30.1492 82.0486L30.2062 81.8503L30.276 81.2458L30.0355 80.7387L29.8309 80.5583L29.6652 80.3519L29.7691 79.9244L29.7009 79.3848L29.6944 78.6307L29.7838 78.5007L30.263 78.3479L30.609 77.9433L30.9144 77.4817L31.3612 76.6691L31.7282 75.7898L31.3758 75.7524L31.0768 75.5866L31.4017 75.1706L31.301 74.644L30.8137 73.9972L30.5457 73.2333L30.1151 72.8953L29.8877 72.7717L29.61 72.9505L29.3825 73.1651L29.5937 73.6624L29.5677 74.1028L29.6018 74.5384L29.8162 74.5628L30.081 74.4539L30.2922 74.5302L30.4157 74.7594L30.4498 75.0536L30.3556 75.3445L30.1622 75.4891L29.9251 75.4778L29.6863 75.3201L29.4995 75.0959L29.0527 74.9723L28.5816 75.2372L28.1349 75.7768L27.7531 76.0498L27.9318 75.65L28.0179 75.2177L27.8327 74.9138L27.3941 74.4084L27.2918 74.1158L27.2658 73.7615L27.3437 73.4105L27.7921 73.8135L28.0228 74.3157L28.3542 74.5367L28.7684 74.5384L28.45 73.8005L28.3363 73.6136L27.8911 73.2821L27.2804 72.7246L26.8938 72.4549L27.0302 71.8714L27.2593 71.756L27.4509 71.7836L28.0975 71.99L28.1576 71.6991L28.0618 71.5431L28.013 71.3626L28.4403 71.1107L29.1372 70.9027L29.2802 70.8052L29.4036 70.5956L29.5742 70.4866L30.0615 70.4899L30.4726 70.2884L30.8121 69.7439L30.8933 69.4449L31.0135 69.1946L31.8599 68.7525L32.0694 68.6843L32.6364 68.7395L33.153 68.9898L33.408 69.5164L33.6322 70.0787L34.17 70.4606ZM27.883 69.6627L27.5679 69.8886L27.3307 69.7131L27.4461 69.2255L27.5241 69.063L27.7937 69.2239L27.883 69.6627ZM26.4958 72.5263L26.1757 72.7815H25.9434L26.1546 72.4825L26.1838 72.3411L26.3609 71.9396L26.7069 71.7966L26.8531 71.7787L26.5704 72.1948L26.4958 72.5263ZM24.6048 74.5969L24.4911 74.6554L24.3449 74.1678L24.2425 73.9939L24.4131 73.9013L24.7559 73.0155L24.8176 73.3666L24.9508 73.7144L25.084 73.7697L24.9541 74.0232L24.764 74.1174L24.6048 74.5969ZM73.6813 73.43L73.6017 73.4868L73.3824 73.3097L73.3499 73.1521L73.3889 73.0545L73.5319 73.0334L73.8275 73.2268L73.6813 73.43ZM22.7285 74.9024L22.9056 75.0487L23.1639 74.9658L23.3702 74.9463L23.518 75.0162L23.7048 75.3916L23.7731 75.6143L23.44 75.6452L23.2987 75.6972L23.1168 75.9686L22.8552 75.8678L22.6911 75.7395L22.6554 75.559L22.7285 74.9024ZM29.1892 77.8847L28.8285 78.0765L28.783 77.8929L28.6303 77.8084L28.8919 77.5499L28.8822 77.4329L28.7164 77.259L28.9082 76.5992L28.8561 76.3148L29.5758 76.2092L29.7074 76.4773L29.7204 77.2899L29.1892 77.8847ZM30.5505 76.843L30.1477 76.8674L29.9803 76.804L29.9137 76.6333L30.479 76.2871L30.9177 76.3489L30.7227 76.6609L30.5505 76.843ZM27.5289 80.9483L27.386 81.041L27.4769 80.6217L27.8441 80.2543L27.875 80.4916L27.5289 80.9483ZM33.1888 87.6232L32.7891 87.6784L32.7809 87.3729L33.0977 86.6838L33.1318 86.1767L33.4275 85.5364L33.5526 85.3966L33.6468 85.3462L33.7492 85.5461L33.6354 86.3295L33.3382 86.9227L33.1888 87.6232ZM31.6536 88.3269L31.132 88.4407L30.8462 88.3188L30.583 87.6703L31.0818 87.264L31.7478 87.6671L31.8842 87.7825L31.6536 88.3269ZM26.3187 99.0096L25.9256 99.4273L25.508 99.0502L25.0044 98.7983L25.2432 98.7301L25.383 98.6277L25.3976 98.4684L25.7241 98.2311L26.3706 98.0475L26.577 98.0361L26.8093 97.8638L26.8856 97.7078L26.9814 97.633L27.399 97.4185L27.5127 97.6656L27.4932 97.8589L27.1796 97.9662L26.8742 98.2246L26.59 98.5464L26.3365 98.683L26.2553 98.774L26.3187 99.0096ZM25.7322 99.5459L25.763 99.6662L25.3164 99.5655L25.1344 99.0958L25.4317 99.1803L25.5227 99.3412L25.7322 99.5459ZM24.2458 101.517L24.0541 101.612L23.799 101.482L23.7194 100.893L23.8331 100.607L24.0329 100.544L24.2067 101.053L24.327 101.262L24.2458 101.517ZM20.8749 106.965L20.4347 107.199L20.2722 107.477L19.8661 107.571L19.4713 107.961L19.088 108.031L19.0977 108.345L19.2618 108.61L19.0067 108.657L18.7387 108.98L18.7176 109.216L18.8135 109.405L18.8005 109.501L18.4626 109.78L18.1132 109.793L18.0987 109.491L18.1214 109.265L18.4512 108.716L18.4593 108.077L18.7647 108.004L18.8751 107.914L19.3576 107.459L19.4469 107.266L19.1968 107.077L19.2163 106.855L19.2731 106.76L19.6695 106.832L19.8304 106.998L19.91 107.016L20.1423 106.892L20.2511 106.671L20.6833 106.235L20.8587 105.803L21.208 106.157L21.1137 106.622L20.8749 106.965ZM84.382 107.15L84.2975 107.154L84.0116 106.616L84.0944 106.59L84.2617 106.674L84.4454 106.985L84.382 107.15ZM8.04294 116.58L7.65793 116.71L7.24526 116.634L7.31189 115.937L7.45487 116.034L7.5442 116.271L7.85118 116.411L8.04294 116.58ZM2.79411 117.715L2.5261 118.501L2.30351 118.615L2.07605 118.551L1.84215 118.113L2.00625 117.944L2.2337 118.033L2.41723 117.999L2.83476 117.359L2.9354 117.463L2.79411 117.715ZM0.951961 118.888L0.66442 118.958L0.318378 118.872L0.00317287 118.847L0 118.699L0.329681 118.547L0.336225 118.334L0.417431 118.218L1.16306 118.48L1.13063 118.672L0.951961 118.888Z" fill="white"/>
</svg>
