<svg width="465" height="383" viewBox="0 0 465 383" fill="none" xmlns="http://www.w3.org/2000/svg">
<path d="M127.798 23.9993V27.7948V31.5401V35.235V38.8829V42.4838V46.0376V49.5477V53.0139V56.438V59.8215V63.1661V66.4701V69.7369V72.9663V76.1601V79.3181V82.4421V85.5321V88.5895V91.6146V94.6072V97.5706V100.505V103.41V106.286V109.132V111.953V114.746V117.515V120.256V122.973V125.666L128.888 126.042L129.967 126.415L130.298 125.67L131.462 126.241L132.479 126.739L133.127 126.1L133.829 125.408L134.776 125.359L135.838 125.304L136.546 125.268V125.859L136.284 126.835L136.065 127.648L136.71 128.47L137.505 128.901L138.247 129.305L138.581 130.418L139.393 131.274L140.011 131.923L140.605 132.545L141.453 133.43L142.046 134.05L142.837 134.872L143.307 135.36L143.533 136.308L143.803 137.441L143.636 138.11L144.011 138.217L144.744 137.467L145.433 137.002L146.284 136.426L146.858 136.037L147.925 136.017L148.434 134.883L148.435 133.286L148.975 133.313L149.293 133.096L149.432 132.624L149.094 131.978L150.115 131.677L150.854 131.458L151.91 130.862L152.941 130.28L153.432 130.731L153.919 131.166L154.874 132.212L154.938 132.463L154.874 132.953L154.779 133.441L155.36 134.807L155.527 134.96L156.004 135.148L156.573 135.599L156.824 135.988L157.648 136.608L157.787 136.864L157.865 137.279L157.999 137.636L158.153 137.891L158.303 138.254L158.659 138.682L159.339 139.159L159.81 139.49L160.47 139.952L161.138 140.895L161.719 141.711L162.38 142.515L162.283 143.156L162.952 144.142L163.658 145.393L164.199 146.497L164.583 147.113L165.045 148.002L165.61 149.087L166.252 150.319L166.743 151.105L167.383 152.203L167.7 152.857L167.484 153.303L167.218 153.855L168.042 154.116L168.612 154.296L168.47 154.906L168.282 155.71L168.927 156.026L169.365 156.242L169.274 156.662L169.515 157.136L169.554 157.919L170.341 157.869L170.688 157.846L171.158 158.193L171.777 158.651L172.398 159.079L172.928 159.444L173.624 159.66L174.481 159.97L174.903 160.602L175.684 160.873L175.976 161.754L176.879 162.077L177.411 161.861L177.602 162.219L177.753 162.631L177.794 163.15L177.743 163.656L177.518 164.078L177.348 164.532L177.234 165.021L177.191 165.543L177.218 166.101L177.309 166.587L177.586 167.486L177.679 168.036L177.69 168.401L177.075 169.682L176.863 170.29L176.882 170.563L176.435 171.195L175.613 172.078L175.24 172.586L175.055 172.417L173.992 172.286L173.606 171.158L173.402 170.281L173.092 169.515L173.1 169.342L173.382 168.829L174.446 168.407L174.455 168.239L174.06 168.127L173.964 167.943L173.856 167.108L173.885 166.373L173.857 165.885L173.68 164.886L173.415 164.273L172.729 163.072L172.67 162.769L172.972 162.388L173.16 162.033L172.001 162.651L170.418 163.298L169.741 163.749L169.598 163.929L169.549 164.081L169.673 164.506L169.653 164.643L169.515 164.894L169.352 165.601L169.008 166.349L168.834 166.503L168.217 166.224L168.051 165.986L167.742 165.008L167.813 164.746L168.038 164.526L168.345 164.051L168.731 163.317L169.468 161.447L169.95 161.439L170.799 161.068L169.467 160.881L169.267 160.784L169.089 160.528L168.93 160.112L168.659 159.65L168.152 159.488L167.93 159.317L167.594 158.755L167.369 158.502L167.246 158.189L167.224 157.816L167.129 157.627L166.78 157.559L166.592 157.431L166.54 156.464L165.846 156.216L165.563 156.002L165.105 155.395L164.979 155.1L164.938 154.854L165.05 154.182L165.003 154.056L164.598 154.124L162.085 153.081L162.218 151.697L161.753 149.863L161.253 149.117L161.352 148.825L161.459 148.671L161.683 148.667L162.648 149.211L163.556 149.853L163.672 149.759L162.221 148.393L161.858 147.984L161.767 147.491L161.762 147.227L161.877 147.089L163.238 147.212L163.319 147.11L161.939 146.708L161.657 146.71L161.355 147.287L161.213 147.423L160.916 147.396L160.816 147.306L160.465 146.607L160.131 146.119L159.51 145.443L159.394 144.959L159.363 144.247L159.446 143.573L159.953 142.025L160.159 141.756L160.212 141.587L160.055 141.613L159.906 141.761L159.486 142.481L159.053 143.659L158.7 144.059L158.478 143.962L158.142 143.483L157.442 142.898L156.631 142.747L156.119 142.147L155.362 140.47L155.259 139.631L155.162 139.425L154.752 139.153L154.499 138.749L154.11 136.689L153.596 135.248L153.468 134.484L153.51 133.725L153.444 133.641L153.267 134.233L153.221 134.541L152.897 134.629L153.202 135.227L153.278 135.526L153.126 135.501L152.814 135.576L153.343 136.593L153.58 138.163L153.93 139.321L154.157 140.257L154.259 140.966L154.408 141.642L154.817 143.13L154.872 143.425L154.823 143.665L154.689 143.951L154.455 144.058L153.722 143.863L153.447 143.496L153.051 142.822L152.497 142.51L151.123 142.664L151.013 142.612L151.018 142.061L151.175 141.076L151.049 140.677L150.339 139.222L150.35 138.937L151.336 138.265L150.858 138.215L150.472 138.478L150.323 138.309L150.089 137.37L149.938 137.02L149.864 136.945L149.822 137.839L149.985 138.308L150.01 138.578L149.984 138.956L149.882 139.227L149.702 139.391L149.522 139.432L149.189 139.243L148.82 138.888L148.497 138.721L148.377 138.58L148.225 138.188L147.975 137.889L146.77 137.511L146.052 137.063L145.992 137.182L146.216 137.659L146.237 137.941L146.055 138.027L145.731 138.479L145.825 138.541L146.167 138.392L146.55 138.41L147.182 138.684L147.756 139.044L147.964 139.245L148.05 139.544L148.121 139.649L148.682 139.996L148.709 140.178L148.348 140.719L149.094 140.659L149.527 140.852L150.081 141.689L150.269 142.155L150.295 142.75L150.18 142.922L149.959 143.042L148.445 143.237L147.899 143.952L147.785 143.962L147.369 143.767L146.613 143.196L145.671 142.653L143.523 141.036L143.465 140.96L143.429 140.646L143.281 140.486L142.989 140.35L142.584 139.938L142.067 139.25L141.748 138.711L141.626 138.324L141.324 137.879L140.352 136.95L139.843 136.593L139.393 136.39L139.003 136.347L138.897 136.222L139.077 136.017L139.105 135.897L138.242 135.704L137.424 135.266L135.347 134.032L134.273 133.257L133.648 132.885L133.38 132.676L133.262 132.506L133.413 132.327L133.831 132.142L134.115 131.931L134.562 131.141L134.596 130.887L134.356 130.311L134.249 129.785L134.254 129.494L134.317 129.202L134.385 129.012L134.575 128.829L134.708 128.736L134.873 128.799L135.4 129.523L135.475 129.785L135.45 130.772L135.601 131.922L135.65 131.837L135.699 131.458L135.729 130.731L135.789 130.381L135.903 130.04L136.094 129.86L136.689 129.964L136.963 129.902L135.806 129.38L135.078 128.399L134.946 128.296L134.547 128.253L134.126 128.65L133.041 129.943L132.736 130.17L131.373 130.884L130.449 131.026L129.408 130.914L128.521 130.682L126.297 129.554L125.95 129.291L126.467 128.59L126.488 128.371L126.308 127.656L126.159 127.451L125.948 127.338L125.888 127.419L125.887 127.631L125.943 128.026L125.773 128.233L125.395 128.457L124.758 128.684L122.783 128.107L120.76 127.628L118.954 127.529L116.404 127.91L115.043 128.293L114.251 128.331L113.487 128.262L113.424 127.995L113.772 127.837L113.753 127.643L113.312 127.036L112.642 126.668L111.744 126.538L111.23 126.36L111.1 126.134L110.783 125.92L110.277 125.716L110.055 125.348L110.231 124.206L110.403 123.52L110.575 123.048L111.01 122.264L110.859 122.323L110.228 122.897L109.679 123.489L109.169 124.258L108.866 124.61L108.477 124.934L107.869 124.858L107.044 124.378L106.337 124.13L105.748 124.115L105.515 124.032L105.917 123.602L106.149 123.257L106.465 122.702L106.535 122.431L104.377 122.342L104.297 122.048L104.294 121.833L104.226 121.654L103.913 121.521L103.475 121.624L102.767 121.971L102.461 121.706L102.569 121.559L102.801 121.45L103.273 120.946L102.636 120.684L102.31 120.384L102.151 120.138L102.162 119.247L102.331 118.675L103.761 118.118L103.308 117.901L102.405 117.976L101.799 118.449L101.079 119.13L100.596 119.385L100.35 119.213L100.024 119.153L99.6184 119.207L99.346 119.38L99.2066 119.675L99.0445 119.875L98.8613 119.977L98.7283 119.943L98.5338 119.641L98.1252 119.453L97.9242 119.223L97.8091 119.367L97.6696 119.802L97.5221 120.023L96.8314 120.248L96.452 120.206L95.9981 119.661L95.9332 119.471L96.0872 118.997L97.0843 117.116L96.9838 117.127L96.6612 117.424L96.0175 118.177L95.7306 118.401L95.2361 118.43L95.0058 118.349L94.727 118.41L94.3995 118.611L94.1871 118.832L94.0866 119.07L94.1547 119.111L94.6475 118.838L94.928 118.766L95.0058 118.899L94.6216 119.744L94.3881 120.55L94.166 120.752L93.8126 120.718L93.4251 120.798L93.4202 121.023L94.1417 121.664L94.4027 121.755L94.7367 121.984L94.7886 122.211L94.6621 122.822L94.5681 123.062L94.4157 123.187L93.8272 123.166L93.6359 123.229L93.2403 123.612L93.0425 123.928L93.1138 123.956L93.4559 123.695L93.9536 123.555L94.607 123.536L95.0934 123.398L95.4128 123.138L95.7241 123.211L96.0273 123.617L96.1181 123.972L95.9948 124.277L95.7452 124.494L95.3674 124.624L95.1291 124.819L95.0285 125.078L94.9718 125.463L94.9588 125.97L95.0545 126.884L94.9815 127.007L94.8389 127.075L94.6281 127.086L94.4384 127.301L93.9942 128.511L93.8369 128.642L93.6504 128.512L93.4851 128.527L93.3408 128.684L93.0246 128.804L92.5366 128.887L92.1183 128.856L91.3839 128.595L91.084 128.41L90.8505 128.107L90.1906 128.428L90.0171 128.288L89.607 127.45L89.5178 127.5L89.4383 128.404L89.3135 128.72L88.9066 129.372L88.6844 130.491L88.6164 130.525L88.5402 130.363L88.2889 129.362L88.1559 129.142L87.7879 129.719L87.7473 129.928L87.8446 130.673L87.7587 130.785L87.0145 130.384L86.8313 130.365L86.7827 130.433L87.0372 131.008L87.008 131.216L85.9542 132.326L85.6802 132.287L85.5083 132.176L85.3187 132.194L84.6491 132.606L84.4642 132.588L84.2113 132.345L84.0946 132.355L84.0313 132.609L84.0232 133.106L83.7752 133.576L82.9775 134.335L82.7667 134.684L82.6062 135.161L82.4863 135.206L82.0177 134.9L81.4762 134.7L81.4016 134.799L81.567 135.089L81.5329 135.268L81.2979 135.334L81.0012 135.308L80.6412 135.19L80.137 135.323L79.4901 135.707L78.9502 135.696L78.1963 135.064L77.9888 135.016L77.9223 134.838L78.0699 134.325L78.2839 133.936L78.4411 133.758L79.1561 133.258L79.9749 133.075L80.4888 132.773L81.1147 132.152L81.4454 131.685L82.0955 130.476L82.0469 130.382L81.901 130.316L80.471 131.463L80.2602 131.568L79.9765 131.56L78.8335 131.12L78.5919 130.932L78.4266 130.381L78.7443 129.122L78.9664 128.512L79.5242 127.568L80.2538 126.558L80.5067 125.901L80.886 124.136L80.8633 123.331L80.6931 122.349L80.6866 121.763L80.8455 121.578L82.5203 120.663L83.3131 119.976L84.8517 118.957L85.27 118.965L85.5781 119.315L85.9364 119.596L86.3449 119.805L86.8702 119.784L87.5123 119.529L88.5304 119.627L90.6219 120.297L91.0661 120.334L91.084 120.25L90.7613 119.781L89.32 119.508L88.712 119.236L87.0048 118.034L86.6157 117.568L86.7729 117.351L87.1912 117.171L87.3339 116.998L87.3939 116.694L87.6339 116.281L88.0538 115.752L88.6958 115.241L89.9101 114.479L89.4351 114.446L88.5612 114.587L88.2435 114.732L87.6598 115.277L87.4328 115.659L87.1069 116.405L86.9675 116.547L86.3611 116.654L84.709 116.728L84.4302 116.347L84.2762 116.285L84.0719 116.339L82.5544 117.312L82.0112 117.807L81.6237 118.371L81.0239 118.783L80.2132 119.044L79.6069 119.367L78.9681 120.011L78.7508 120.504L78.7378 120.736L78.8935 121.465L78.7346 121.601L78.3666 121.658L77.7748 122.139L76.5248 123.567L76.361 124.082L76.3675 124.259L76.5702 124.662L76.4291 124.923L76.0773 125.335L75.2942 125.985L74.7803 126.232L74.4463 126.245L74.1253 126.152L73.5546 125.734L73.0925 125.708L73.0633 125.766L73.6924 126.214L74.3328 126.788L74.7316 127.265L74.8889 127.643L74.8954 128.032L74.7511 128.431L74.2988 129.124L73.8561 129.33L72.7229 129.537L72.3581 129.703L72.2446 129.831L73.0228 130.123L73.0925 130.272L72.9855 130.85L72.7796 131.038L72.1311 131.382L71.5507 131.482L71.4615 131.416L71.5701 130.963L71.5393 130.851L71.3205 130.759L71.0108 130.931L70.2374 131.597L70.1547 131.706L70.4336 131.884L70.3752 132.032L69.957 132.509L69.7835 132.827L69.503 133.15L68.2546 134.136L68.3503 134.376L68.026 135.231L67.8444 135.985L68.0649 136.301L69.1123 136.671L69.6197 136.76L70.218 137.018L71.301 137.712L71.6625 138.165L71.716 138.377L71.682 138.609L71.5523 138.922L71.2134 139.513L70.3947 140.389L70.025 140.637L69.4657 140.831L69.2825 140.972L68.5643 141.798L68.3697 142.243L68.4005 142.63L68.2627 142.901L67.3386 143.433L67.371 143.527L67.7066 143.568L67.5834 144.036L67.5283 144.685L67.3678 144.794L66.7906 144.789L66.0561 145.041L66.0043 145.112L65.9913 145.577L64.0717 145.918L63.6518 146.797L63.4329 147.066L62.6806 147.704L62.2202 147.96L61.6932 148.116L61.4176 148.332L61.3917 148.607L61.2425 148.846L60.7869 149.24L60.5632 149.735L60.4011 149.812L59.5532 149.931L59.3845 150.088L59.3018 150.755L59.1446 150.776L58.843 150.62L58.4507 150.74L57.5687 151.493L57.3758 151.764L57.3968 151.908L57.533 152.051L57.7422 152.497L57.7292 152.797L57.3903 153.632L57.2704 153.762L56.8586 153.968L56.6899 154.429L56.3106 154.378L56.0041 154.466L55.8031 154.773L55.5859 154.949L55.3508 154.995L55.0541 155.238L54.699 155.676L54.3683 155.955L54.0651 156.075L53.77 156.106L53.483 156.044L53.2253 156.095L52.9967 156.257L52.7729 156.51L52.5946 157.227L52.3692 157.546L52.2265 157.601L51.9347 157.554L51.4937 157.404L51.0463 157.457L50.3232 157.897L50.0929 158.227L50.5485 158.301L50.7739 158.395L50.769 158.487L50.5323 158.576L50.127 158.57L49.8838 158.646L49.5887 158.834L48.8462 159.037L48.5641 159.181L48.0047 160.005L47.9366 160.192L48.008 160.232L48.3225 160.146L48.6921 160.283L48.8834 160.456L49.0067 160.67L49.1234 161.082L49.1947 161.144L48.4846 161.835L48.2836 162.128L48.1539 162.237L48.0679 162.153L47.9804 161.384L47.9269 161.253L47.7583 161.24L47.5961 161.483L47.2411 162.391L46.8536 162.849L43.9434 164.016L43.5251 164.286L43.4424 164.782L43.3224 165.212L43.1295 165.553L42.9041 165.768L42.8555 165.614L42.8782 164.406L42.8182 164.166L42.5248 164.012L42.3951 164.033L42.2183 164.101L41.9265 164.364L41.7482 164.428L41.526 164.407L41.1467 164.665L40.2452 165.491L39.6567 165.695L39.5011 165.866L39.2498 166.316L39.0828 166.482L38.8363 166.497L38.5088 166.362L38.2462 166.458L38.0468 166.785L37.8441 166.915L37.2718 166.673L37.0189 166.839L36.6914 167.26L36.3493 167.538L35.9926 167.672L35.0652 167.812L34.6923 167.723L34.6161 167.601L34.634 167.064L34.7831 166.677L34.9209 166.493L35.1057 166.331L35.3765 166.312L35.8823 166.433L35.824 166.304L35.6408 166.149L35.1755 165.882L34.7134 165.746L34.4491 165.833L34.0779 166.037L33.8249 166.274L33.692 166.544L33.525 167.419L33.4277 167.656L32.3414 169.192L31.9151 169.664L31.4935 169.629L31.2892 169.807L31.0023 170.188L30.7364 170.372L30.4932 170.355L30.3035 170.282L30.1689 170.154L30.1916 170.034L30.3732 169.922L30.3084 169.617L29.9971 169.114L29.7847 168.842L29.381 168.81L29.3177 169.038L29.4539 170.203L29.4329 170.466L29.1816 170.796L28.5201 171.166L28.3142 171.131L27.7192 170.402L27.155 170.258L27.1177 170.495L27.2441 170.98L27.1031 171.431L26.6961 171.851L26.3865 172.054L26.1741 172.041L26.1627 171.747L26.3524 171.171L26.4011 170.691L26.3086 170.305L26.32 170.01L26.4319 169.804L27.1793 169.23L27.4938 169.144L27.6624 169.285L27.8716 169.309L28.1245 169.215L28.2834 169.032L28.3498 168.758L28.6725 168.407L29.2513 167.977L29.9144 167.184L30.6602 166.023L31.534 165.019L32.5376 164.174L33.6255 163.501L35.8175 162.575L35.9861 162.631L35.7851 162.933L35.9213 163.121L36.1369 163.145L36.9394 162.996L37.2588 162.802L37.3529 162.99L37.241 163.227L36.7595 163.467L36.7724 163.666L37.4744 164.599L37.6949 164.74L37.8782 164.722L37.956 164.602L37.8976 163.929L38.1343 163.801L38.6191 163.768L38.9352 163.856L39.0828 164.062L39.36 164.232L39.7669 164.368L40.0199 164.326L40.1188 164.107L39.9453 163.846L39.1655 163.272L38.9482 163.032L38.8963 162.696L39.0066 162.266L39.2514 161.627L39.6308 160.779L39.9745 160.185L40.67 159.511L41.1386 159.176L42.327 158.151L44.6114 157.103L45.1756 156.429L45.9424 155.683L46.2716 155.499V155.788L46.3769 156.046L46.8893 156.218L47.2233 156.278L47.3773 156.226L47.4194 155.952L47.3513 155.454L47.3335 154.983L47.3675 154.541L47.4421 154.19L47.7842 153.566L48.2933 152.854L48.9888 152.025L49.4282 151.649L49.8416 151.447L50.2421 151.084L50.9311 150.223L51.1516 150.082L51.6461 149.911L51.8277 149.986L51.9331 150.203L52.0628 150.338L52.5638 150.46L52.8978 150.268L52.8426 150.166L52.5719 150.1L52.3984 149.975L52.2347 149.46L51.9023 149.151L51.8277 148.799L51.8877 148.25L52.173 146.959L52.2201 145.626L52.4746 144.859L52.9853 144.581L54.1186 144.392L53.4555 144.045L53.209 144.043L52.7778 143.879L52.614 143.039L52.6173 142.427L52.9026 141.717L53.9581 140.515L55.1141 139.68L54.9568 139.612L54.8141 139.363L55.3475 137.683L55.868 136.176L55.1659 137.461L54.3537 138.441L51.9704 139.574L50.3491 140.522L49.5806 140.747L49.0731 140.507L48.6775 139.599L48.4506 139.274L48.1604 138.681L48.2836 137.905L48.5138 137.368L49.0196 137.281L49.5903 137.54L50.0848 137.563L49.4477 137.033L48.5284 136.569L48.1117 136.72L47.7923 137.471L47.3659 137.985L46.9914 137.801L46.7693 137.592L46.9233 138.22L46.6396 139.174L46.5326 139.832L46.9379 141.565L46.8633 142.254L46.1256 142.57L45.5241 142.004L44.2709 139.811L43.8331 139.183L42.8506 138.145L42.5264 138.293L42.113 138.805L41.7125 138.947L40.6554 138.191L40.1625 137.613L39.6972 136.911L38.9839 137.299L38.3613 137.759L37.6317 138.492L37.1437 138.486L35.8175 139.114L35.6764 139.127L35.49 139.464L35.3068 139.615L35.156 140.264L33.3629 140.767L31.5908 140.486L32.2101 140.129L32.9024 139.848L33.5039 139.172L33.2478 138.265L33.204 137.803L33.2105 137.218L33.8671 136.394L33.1845 136.395L32.7452 136.69L32.335 136.071L32.142 134.848L32.6122 134.121L32.8295 133.56L33.0143 132.788L33.0273 132.123L32.6641 130.994L31.62 128.588L31.1449 126.782L30.3311 125.815L30.939 124.225L31.6167 122.77L32.4922 122.117L32.4225 122.019L31.9394 122.024L31.6216 122.11L31.3411 122.585L31.0444 122.947L30.1187 124.798L29.522 125.696L29.1345 125.953L29.7587 126.3L29.8544 126.592L29.9744 127.255L29.8139 128.058L29.6534 128.501L28.9173 128.465L28.2558 129.109L26.7026 129.808L24.6047 130.207L23.5735 130.16L22.5002 129.346L22.5083 128.872L22.5521 128.462L21.0103 127.049L20.138 125.635L19.5106 125.604L18.9658 125.226L18.3222 124.637L18.3789 124.162L18.4811 123.826L18.0855 123.591L17.5796 123.614L16.9911 123.452L18.5281 121.609L19.0566 120.368L19.4879 120.191L20.0472 120.383L20.819 120.872L21.4691 121.088L21.7042 121.319L21.9441 121.752L21.6912 122.477L21.4594 122.984L21.7447 122.848L22.5537 122.061L23.1569 121.369L23.4454 121.44L23.6335 121.562L23.9691 122.276L24.3842 123.001L25.3002 122.31L25.7898 121.447L25.3764 121.069L24.8706 120.843L23.58 120.55L23.8945 120.302L24.723 120.329L25.0343 120.092L24.7068 119.763L24.2966 119.468L23.1796 120.449L21.1465 120.4L19.7262 119.826L18.3076 119.927L18.0838 119.813L17.8082 119.507L18.6075 118.775L19.1733 118.37L19.2042 118.135L18.875 118.105L18.2573 118.3L17.9817 117.963L18.0271 117.375L17.925 117.429L17.6801 117.75L17.3348 117.591L17.0349 117.315L17.1905 117.033L17.4953 116.644L17.3607 116.586L17.0884 116.668L16.8225 117.176L16.8808 117.586L16.8744 118.175L16.4204 118.282L16.0313 118.212L15.7508 117.62L15.4606 116.349L14.6759 116.01L14.483 115.364L14.9791 114.532L14.7602 114.102L14.2317 113.963L13.6285 114.383L13.361 114.01L13.3124 113.599L13.2913 113.009L13.4599 112.946L13.5994 113.063L14.8105 112.735L14.9272 112.574L13.9674 112.073L13.6999 111.546L14.0971 111.246L14.8137 111.22L15.8189 110.907L15.3957 110.346L15.3066 110.037L15.2223 109.531L15.3893 108.67L16.5712 106.686L17.7223 105.022L18.0806 104.638L18.6075 104.43L19.0988 104.591L19.6111 104.949L19.7084 104.795L19.5349 104.649L19.316 103.965L20.0278 103.695L20.4444 102.92L20.4752 102.695L20.0229 103.017L19.5511 103.548L19.4328 103.014L19.3112 101.785L19.5187 100.618L19.6808 100.093L20.0748 99.5933L21.2097 99.3922L21.4107 99.4927L21.4513 99.2559L20.7687 98.5163L21.0492 97.9372L21.2956 97.6355L22.6672 97.1651L23.4163 97.3111L24.3566 97.8594L24.903 98.5406L24.8235 98.8893L24.689 99.0921L24.4069 99.3176L24.3015 99.4927L24.3517 99.6322L24.7554 99.2267L25.4153 98.7336L25.785 98.9477L26.0768 99.337L26.3994 99.3305L27.4257 98.9964L27.9461 98.6428L28.5833 97.7199L29.4296 97.123L30.6213 95.2285L30.9715 94.4483L31.3784 94.3282L31.7464 94.3964L32.0026 95.0371L32.3771 95.2236L34.5091 95.0679L35.5986 94.7743L36.3558 94.1531L37.1437 93.1036L37.5993 92.3981L37.8182 91.4768L37.5361 90.2797L37.2475 89.2821L36.8681 86.9886L35.8094 85.4639L35.0571 85.0065L34.5788 85.0714L34.9242 84.0933L35.9326 84.1987L36.5892 84.0074L37.121 83.5354L37.2945 83.1769L37.5571 82.4438L37.4663 81.6603L37.3253 81.2337L36.9589 80.7633L36.5228 80.074L36.2179 79.8436L35.9602 79.8582L34.6891 81.2418L33.9254 81.2678L33.3548 81.0147L32.8586 81.7998L31.4757 82.4875L30.7364 83.1801L29.3664 84.893L29.0243 85.6651L28.5865 85.6991L28.2704 84.2004L26.7804 82.7633L26.3297 83.2531L26.5778 83.704L26.915 84.0252L27.4711 84.1647L27.2312 84.5994L27.0496 85.1768L26.4918 84.6351L25.4948 83.8468L24.462 83.4397L21.7739 83.4851L20.0099 84.2945L19.8478 84.1258L19.6776 84.0593L19.3825 84.2523L19.256 84.5816L19.0631 84.7876L18.7032 84.8605L17.9768 84.7389L16.576 84.2361L13.4064 83.4964L12.5763 83.0407L11.8662 81.9523L11.8808 81.211L12.1969 80.8963L12.1661 79.8307L11.5501 79.5468L10.2936 78.0059L9.83149 77.3474L9.93201 77.2744L10.1574 77.4528L10.587 77.5874L11.6408 77.3733L12.0024 76.3693L12.7839 76.0822L13.5037 76.2233L13.3416 75.9508L13.1584 75.7367L11.2842 75.2225L11.0296 75.3799L7.66869 74.4651L5.01464 72.869L4.79739 72.5624L4.55582 71.8779L4.91412 71.1999L5.27405 70.8788L5.29026 71.2518L5.34863 71.6184L6.8694 70.7669L7.66545 69.646L9.17162 69.4482L9.52182 69.1384L9.99038 68.5334L10.6583 67.4969L11.6036 66.9503L12.2472 66.4588L13.0854 66.1668L13.8004 66.6518L14.0209 66.7183L15.3179 66.8173L15.7443 66.608L15.9259 66.4523L16.0621 66.2058L14.7878 65.3266L14.9175 64.8368L15.0796 64.4913L16.5663 63.4613L17.7093 63.1207L18.3206 63.145L20.0942 61.8085L21.0654 61.4257L22.8958 61.171L24.4004 61.1045L24.8073 61.583L23.9983 61.4825L23.6432 61.57L23.8962 61.7339L24.1815 62.0826L24.0988 62.5222L23.6027 63.8214L23.6432 64.8579L23.3206 65.1936L23.0077 65.6656L24.5479 67.1465L26.9312 67.2406L28.2282 66.973L28.9773 67.4142L29.5901 67.5147L31.286 67.2876L32.5636 67.6023L33.097 67.4823L34.2789 65.2682L34.741 64.9195L35.2436 65.3055L35.8986 65.6186L36.3168 65.3915L36.6573 65.9641L36.4968 64.7703L36.265 64.321L34.3356 63.4954L33.0451 63.9057L32.6414 63.4402L32.776 62.5157L31.3946 60.2254L30.8191 59.7582L30.1381 59.7356L29.7912 58.9343L29.501 57.9027L30.0879 57.4793L30.6196 57.2879L31.1109 57.6221L31.667 58.9781L32.1842 59.1776L32.0334 60.5222L32.6754 61.7566L34.1249 62.8985L35.2857 62.4784L36.1061 62.4913L36.5957 62.7314L37.7955 63.7533L38.4051 63.8814L40.3101 63.3462L40.3295 62.3405L40.169 61.6106L39.7216 61.1515L38.4343 61.2375L37.4323 60.4817L36.5795 60.6893L35.002 61.8458L34.2124 61.3916L33.7163 60.7736L32.9154 60.1443L32.8149 58.9505L33.4861 57.575L33.9822 56.9181L33.538 56.438L32.4209 56.1006L30.4818 56.4461L30.391 55.9741L30.4008 55.4648L29.6112 56.4623L28.8006 56.2531L27.7078 56.3601L25.2953 55.481L24.4361 54.3926L24.0761 53.507L23.426 51.0642L22.5959 49.5266L16.8581 44.2372L14.2479 42.8926L12.9914 41.3971L12.2034 41.0272L11.4512 40.8764L10.4865 40.3914L11.135 39.7945L11.5809 39.5917L11.1172 40.2162L11.469 40.3735L12.03 40.0135L12.3331 39.582L12.7774 37.7443L13.2362 34.9414L13.113 33.8303L16.2956 34.0542L18.4146 33.866L19.1166 33.613L21.7885 33.1832L22.4808 32.8717L23.7648 31.9131L25.2775 30.2116L26.5745 27.9603L26.7804 27.352L26.8631 27.5077L26.9799 27.4104L27.1177 26.5508L27.2879 24.5184L27.9315 22.5866L30.6699 18.1341L31.941 16.3499L32.3641 15.5357L32.8051 14.9404L33.1164 15.5065L33.264 15.6751L33.3499 15.9412L33.0889 16.0644L32.6641 16.6419L32.0707 17.0279L31.928 17.2258L32.2766 17.182L33.3191 16.7619L33.9076 16.2526L36.8324 15.3069L38.418 13.7385L38.4796 13.3881L40.8321 11.4125L41.158 11.4887L41.5325 11.7272L40.8808 13.0313L41.3396 13.3719L40.9327 14.9209L41.7855 14.9452L41.9768 15.6557L42.0238 15.0442L42.0141 14.1651L42.0822 13.2989L42.2086 12.6987L42.8085 12.9696L44.159 12.3241L42.5231 12.2429L41.5423 10.8253L40.9975 10.814L42.8215 8.72157L44.4881 7.44992L44.8643 7.47425L45.0459 7.71105L45.0848 8.09547L44.7248 8.34525L44.3714 8.79617L44.5335 9.19358L44.7751 9.25035L45.576 8.92432L45.9343 8.51558L47.6415 8.55126L48.1425 8.25929L48.2625 7.96895L50.4739 7.91056L50.8793 7.70618L52.2622 6.57726L53.5414 5.20341L54.1299 4.45081L55.14 2.52385L56.0058 1.26354L57.4293 0L57.7697 0.157336L57.3077 0.408746L56.9866 0.944014L57.4293 1.65444L60.427 3.11263L61.1809 3.19213L61.4825 4.06152L61.2312 4.89686L60.4578 5.82139L58.9014 6.76541L59.378 7.12064L59.6893 7.95759L60.1498 8.05978L60.8972 7.74511L61.4825 7.23093L62.6936 5.5489L63.0746 4.60652L63.3599 4.36807L64.3749 4.59515L64.9488 5.08013L65.6038 5.93819L65.3638 6.76541L65.0963 7.23093L65.9443 7.87324L66.8846 8.00788L67.7812 8.52367L69.0409 7.46774L70.0283 7.24229L70.954 7.27634L72.1587 6.6989L74.1966 7.48558L74.7154 7.28122L75.5326 7.41747L76.4016 7.89108L76.708 8.39554L75.7774 9.4612L75.6266 10.5561L75.9508 11.0119L76.5394 11.0897L76.614 11.7272L76.9804 11.8861L78.8189 11.8391L78.6779 12.1424L78.5887 12.5074L78.0196 13.3135L81.2962 13.766L81.7356 13.32L82.4133 13.1432L83.853 12.5268L84.3945 12.7961L85.0333 13.4254L85.6235 13.5568L86.1747 13.4286L87.4588 12.53L88.9422 12.4863L89.5502 12.7798L90.1922 12.6517L92.1248 13.6801L92.8366 13.8001L93.7883 15.1318L94.2795 15.1707L94.8356 14.6062L95.3188 14.6241L95.7906 15.1642L96.5623 15.3296L96.9222 16.1796L97.3097 16.4878L100.233 17.1171L101.681 16.83L103.79 16.9046L104.807 17.3069L105.873 17.255L107.616 18.7132L108.54 18.9403L108.72 19.276L111.352 19.6296L112.273 18.8721L113.878 18.671L115.322 18.0319L116.141 18.0384L117.094 18.1974L117.461 18.1211L117.725 17.8422L120.048 18.9419L121.349 20.1941L121.918 21.1154L124.638 22.4276L125.424 23.1591L125.963 23.9636L126.279 24.0496L126.501 23.8144L127.451 23.8825L127.798 23.9993ZM13.554 65.5326L13.3789 65.5959L13.3886 65.4239L13.9074 64.9649L14.864 64.3956L14.8283 64.5189L14.3176 64.9601L13.554 65.5326ZM96.2721 120.801L95.6965 120.877L95.4322 120.759L95.395 120.631L95.5036 120.159L95.4955 119.959L95.7857 119.885L96.1197 120.109L96.2169 120.34L96.2721 120.801ZM77.6613 125.099L77.4424 125.134L77.7359 124.679L77.9402 123.792L78.2142 123.915L78.2693 124.078L77.817 124.988L77.6613 125.099ZM97.5107 124.284L97.5091 124.525L97.3664 124.759L97.5026 125.185L97.2659 125.917L97.1751 126.381L97.0487 126.673L96.9222 126.785L96.7941 126.718L96.7666 126.558L96.8411 126.301L96.5412 126.309L96.4488 125.67L96.6158 125.468L96.6758 125.195L96.6952 125.01L96.8914 124.194L96.9611 124.138L96.9838 124.332L97.047 124.389L97.1508 124.31L97.3065 123.946L97.3729 123.904L97.5107 124.284ZM103.265 124.292L103.367 124.545L104.242 124.483L104.494 124.529L104.594 124.645L104.476 124.816L104.139 125.041L103.153 125.437L102.352 125.956L102.248 125.907L102.102 125.34L101.955 125.109L101.864 124.788V124.668L102.011 124.446L102.305 124.121L102.512 124.005L103.265 124.292ZM109.067 125.327L108.921 125.55L108.524 125.471L108.312 125.328L109.022 124.738L109.139 124.856L109.067 125.327ZM13.4372 124.9L13.8555 125.356L14.0776 125.382L14.778 125.244L15.0358 125.341L15.2839 125.537L15.4379 125.837L15.4671 126.363L15.3536 126.832L15.3876 127.492L15.3633 127.776L15.7346 128.149L15.8513 128.653L15.9113 129.195L15.1039 129.375L14.2965 129.404L13.5994 129.771L13.4567 130.042L13.5686 130.442L13.3772 130.545L13.2005 130.457L12.8633 130.086L12.4936 129.909L11.1982 129.635L9.57208 128.553L8.87169 128.329L8.16156 127.534L7.51953 126.52L7.93783 126.357L8.35936 126.274L10.2498 126.425L10.4865 125.696L10.7297 125.515L11.3296 125.309L11.8905 124.903L12.1418 124.913L12.398 125.069L12.9298 124.827L13.2119 124.775L13.4372 124.9ZM97.1589 130.099L96.6563 130.23L96.538 129.962L96.8022 129.296L97.013 128.918L97.1703 128.829L97.7474 128.074L98.3879 127.524L98.9764 126.718L99.573 125.565L99.6833 125.134L99.9605 125.088L100.416 125.372L100.698 125.771L100.567 126.087L99.0574 127.722L98.931 127.935L98.7948 128.488L98.67 128.681L98.4705 128.768L98.3262 129.009L98.2354 129.403L98.049 129.609L97.7669 129.627L97.5723 129.735L97.4637 129.935L97.1589 130.099ZM95.857 127.811L95.6187 128.09L94.7189 127.922L94.9053 127.372L95.5928 127.025L96.345 127.565L95.857 127.811ZM111.584 130.053L111.365 130.105L111.692 129.511L112.132 128.854L112.545 128.442L113.083 128.271L113.023 128.571L112.321 129.125L111.584 130.053ZM37.1745 141.07L36.8405 141.209L36.4871 141.14L36.2082 140.275L36.4222 140.247L36.8697 139.677L37.8603 139.214L38.1035 139.162L37.1745 141.07ZM75.5455 141.871L75.411 141.926L75.0786 141.66L74.8597 141.378L75.004 141.162L75.6477 140.708L75.9557 140.7L76.0822 140.771L76.1324 140.913L76.1081 141.122L75.9703 141.383L75.5455 141.871ZM75.8584 142.953L76.0238 143.023L76.1957 142.507L76.3173 142.491L76.8555 142.927L77.1863 142.83L77.3987 143.367L77.59 143.415L77.7667 143.35L77.8737 143.388L77.8364 143.954L77.4424 144.526L77.2592 144.671L77.0031 144.523L76.9074 144.468L76.7388 144.215L76.6107 143.895L76.5345 143.891L76.2346 144.267L76.2411 144.453L76.3659 144.732L76.3481 144.906L76.0206 144.989L75.6996 144.945L75.3072 145.188L75.2132 145.037L75.1532 144.611L75.0316 144.659L74.8468 145.182L74.6441 145.513L74.2761 145.787L74.195 145.92L73.9259 145.937L73.527 146.109L73.2806 146.08L71.8117 145.514L71.4664 145.307L72.6742 144.004L73.3098 143.498L73.6778 143.526L74.0458 143.683L74.2404 143.657L74.255 143.078L73.9129 142.645L73.9259 142.465L74.683 142.168L74.9667 142.21L75.2796 142.363L75.5763 142.609L75.8584 142.953ZM156.563 144.667L157.719 144.864L158.565 144.82L159.339 146.105L159.814 147.138L160.092 147.86L160.251 148.555L160.464 149.225L160.444 149.319L159.998 148.868L159.677 147.952L159.514 147.594L159.352 147.431L159.181 147.092L158.849 146.213L158.838 145.965L158.69 145.735L158.52 145.639L158.327 145.676L158.26 145.766L158.29 146.374L158.442 147.049L159.277 148.518L159.835 149.352L159.945 149.628L160.018 150.387L159.778 150.729L160.073 151.426L160.062 151.563L159.997 151.696L159.202 152.004L158.474 153.29L157.677 154.041L157.309 154.161L157.132 154.036L156.965 153.749L156.866 153.365L156.837 152.883L157.036 152.578L157.43 150.992L157.442 150.469L156.95 149.743L156.654 149.147L156.493 148.315L156.224 146.103L156.099 145.393L155.924 144.799L155.697 144.324L155.527 143.8L155.41 143.227L155.454 143.005L155.848 143.303L156.321 144.124L156.563 144.667ZM158.234 144.088L158.202 144.303L157.581 144.281L156.955 143.967L156.647 143.553L156.709 143.367L157.291 143.193L157.842 143.586L158.234 144.088ZM151.785 143.955L152.435 144.796L152.44 144.989L152.307 145.564L151.954 145.727L152.054 145.955L152.317 146.127L152.505 145.985L153.191 145.178L153.401 145.01L153.529 144.992L154.366 145.235L155.097 145.62L155.313 145.926L155.434 146.463L155.24 147.621L154.64 147.822L154.356 147.801L154.053 147.633L153.565 148.035L153.97 148.341L155.203 148.411L155.576 149.06L155.683 149.559L155.417 150.474L154.718 150.221L154.102 149.691L152.839 148.938L152.536 148.904L152.333 149.037L152.278 149.493L152.291 150.479L151.954 150.99L150.958 150.765L150.567 150.018L150.203 148.834L148.829 147.425L148.458 147.143L147.964 146.296L148.161 145.623L148.22 145.234L148.484 145.13L148.87 144.828L149.086 144.174L149.432 144.703L149.896 145.211L149.903 144.734L150.122 144.353L150.577 144.367L150.791 144.288L151.089 143.931L151.521 143.746L151.785 143.955ZM73.6697 147.563L73.7021 148.032L73.887 147.975L74.5873 147.493L74.9521 147.352L75.4272 147.329L75.8033 147.55L75.8795 147.718L75.8455 147.92L75.5439 148.327L75.5569 148.591L75.8811 149.078L76.6772 149.342L76.7745 149.488L76.7712 149.663L76.2232 150.466L76.0222 150.653L75.8795 150.698L74.884 150.554L73.9729 150.291L73.6049 150.246L73.4735 150.332L73.2157 150.578L73.4006 150.651L74.1982 150.709L74.4803 151.068L74.6036 151.332L74.6652 151.623L74.5063 151.741L74.1658 151.829L73.7572 151.827L73.2514 152.153L72.9725 152.526L71.9592 152.62L71.1875 153.117L70.9168 153.361L70.8211 153.653L70.5293 153.864L69.8726 154.077L70.265 154.267L70.3266 154.427L70.3331 154.649L70.2796 154.841L69.7608 155.692L68.7815 156.391L68.5335 156.359L68.4265 156.271L68.3389 156.138L68.3357 156.004L69.5986 154.599L69.5484 154.531L69.2047 154.484L68.6615 154.096L68.2773 154.346L68.1897 154.336L68.2919 154.004L68.5416 153.608L68.4978 153.496L68.36 153.397L68.0438 153.337L67.5477 153.318L67.1797 153.412L66.9414 153.619L66.9219 153.707L67.4294 153.683L67.5672 153.788L67.7034 153.984L67.786 154.211L67.8169 154.469L67.7098 154.815L67.4683 155.248L67.1132 155.172L66.3853 154.207L66.0642 152.789L65.4417 151.702L65.4141 151.441L65.5908 150.768L66.2183 149.809L66.8927 149.546L67.3726 149.143L67.8379 149.021L68.1249 149.031L68.5189 149.204L68.6778 149.572L68.5821 149.744L68.6178 149.835L68.8934 150.056L69.1917 150.826L69.5387 151.507L69.7705 151.783L70.0753 151.954L69.7608 151.435L69.5743 150.791L69.4803 149.503L69.3895 149.16L69.5662 149.07L70.064 149.12L70.051 148.927L69.5257 148.491L69.2031 148.129L69.0815 147.843L69.0879 147.595L69.3749 147.229L69.537 147.125L69.7056 147.079L70.0396 147.157L70.1888 147.272L70.6168 148.096L70.8179 148.353H70.9848L71.1389 148.216L71.2815 147.944L71.4291 147.78L71.5799 147.727L72.0565 147.848L72.2154 147.803L72.2932 147.597L72.29 147.227L72.4083 147.094L72.4375 146.822L72.1781 146.419L72.4764 146.296L73.4654 146.603L73.8886 146.938L73.6697 147.563ZM72.1116 147.341L71.9836 147.577L71.8636 147.516L71.609 147.238L71.0902 146.833L70.8535 146.555L70.8389 146.437L71.0173 146.306L71.6269 146.633L71.8863 146.932L72.1116 147.341ZM155.246 151.569L155.632 152.492L155.913 153.206L156.162 154.062L156.579 155.829L156.774 156.494L156.835 156.857L156.881 157.806L156.817 158.01L156.693 158.197L156.668 158.468L156.783 159.188L156.79 160.279L156.681 160.892L156.553 160.985L156.242 160.784L155.986 160.451L155.798 160.106L155.332 159.011L155.195 158.5L155.186 158.132L155.258 157.863L155.41 157.695L155.674 157.248L155.637 157.176L155.436 157.277L155.026 157.334L154.664 156.98L154.382 156.794L154.439 156.155L154.364 155.975L153.81 156.172L153.602 155.994L153.557 155.754L153.567 155.395L153.672 155.081L154.197 154.284L154.144 154.137L153.888 154.104L153.551 153.832L153.397 152.936L153.033 152.426L152.819 152.473L152.333 153.916L152.093 154.231L151.409 154.434L151.548 154.033L151.613 153.674L151.37 152.586L151.363 152.166L151.526 151.856L152.009 151.726L152.265 151.543L152.464 151.243L152.515 150.951L152.889 150.176L153.064 150.025L153.531 150.035L154.512 150.893L154.81 151.019L155.246 151.569ZM73.1736 153.472L72.5948 153.741L72.4926 153.73L72.136 154.275L71.8636 154.51L71.5037 154.08L71.5961 153.412L71.9106 152.967L73.5027 153.117L73.6259 153.241L73.6292 153.347L73.5124 153.434L73.1736 153.472ZM162.542 154.485L162.845 154.747L163.011 154.473L163.317 154.485L163.888 154.729L164.227 155.094L164.418 155.511L164.434 155.759L164.376 156.322L164.418 156.897L164.394 157.196L164.318 157.442L164.189 157.637L164.05 157.661L163.607 157.146L163.1 156.213L162.714 155.929L162.698 156.026L162.803 156.294L163.119 156.797L163.176 157.099L163.398 157.467L163.497 157.744L163.554 158.109L163.552 158.427L163.491 158.7L163.389 158.873L163.244 158.949L162.469 158.873L162.007 159.055L161.467 158.953L161.338 158.787L161.257 158.518L161.216 157.863L161.08 156.922L161.112 156.197L160.764 155.54L160.465 155.142L160.036 154.787L159.754 154.434L159.831 154.151L160.271 153.94L160.991 153.991L162.542 154.485ZM159.707 155.804L160.002 156.378L160.43 156.331L160.67 156.766L160.851 157.415L160.718 157.83L160.529 157.738L160.318 157.978L160.188 158.774L160.248 159.571L160.183 160.362L159.938 161.167L159.888 161.705L159.793 161.866L159.687 161.921L159.551 161.775L159.353 161.661L159.103 162.114L158.799 162.117L158.546 161.087L158.771 159.365L159.277 159.013L158.975 158.542L158.34 157.994L158.393 157.689L157.91 156.805L157.883 156.594L157.959 155.855L158.41 155.193L159.006 155.076L159.423 155.36L159.656 155.601L159.707 155.804ZM165.36 158.445L165.311 158.565L164.733 158.554L164.523 158.455L164.446 158.103L164.499 157.777L164.634 157.524L164.797 157.035L164.925 156.221L165.773 157.133L166.034 157.538L166.174 158.033L165.872 158.218L165.508 158.307L165.36 158.445ZM67.7066 158.534L67.4829 158.552L67.1456 158.335L67.191 158.073L67.6709 157.759L68.1557 157.807L68.1914 157.983L68.1687 158.18L68.1298 158.294L67.9757 158.412L67.7066 158.534ZM65.5487 159.184L65.2374 159.379L65.1352 159.311L65.1206 159.15L65.1936 158.894L65.3379 158.638L65.8178 158.151L66.3009 157.828L66.5474 157.848L66.6317 158.054L66.3301 158.481L65.5487 159.184ZM168.248 161.854L168.153 163.205L167.974 163.129L167.802 163.128L167.451 163.319L167.082 163.235L166.908 163.085L166.845 162.912L166.912 162.51L166.707 162.286L166.017 162.205L165.757 162.109L165.615 161.686L165.58 161.131L165.689 160.923L166.038 160.777L166.308 160.101L166.459 160.01L167.033 158.667L167.322 158.761L167.826 159.579L168.458 160.756L168.248 161.854ZM165.211 160.73L164.977 160.756L164.702 160.631L164.048 159.965L164.037 159.768L164.131 159.545L164.502 159.136L164.655 159.037L165.546 159.081L165.832 159.189L165.897 159.381L165.882 159.575L165.788 159.772L165.767 159.976L165.817 160.19L165.713 160.403L165.211 160.73ZM161.633 159.978L162.495 160.153L163.285 160.135L163.556 160.472L163.734 160.828L163.838 161.162L163.867 161.475L163.846 161.695L163.75 161.932L163.771 162.012L165.315 162.785L166.043 163.596L166.333 164.021L166.501 164.38L166.806 165.277L167.448 166.315L167.785 166.63L167.977 166.936L167.87 166.947L167.417 166.72L166.438 166.026L166.357 166.054L166.268 166.43L166.116 166.759L165.89 166.996L166.07 167.066L166.86 166.917L167.524 167.591L167.782 167.713L168.032 168.196L168.04 168.381L167.894 168.738L167.782 168.884L167.82 168.983L168.004 169.033L168.737 168.933L168.868 169.108L168.76 170.496L168.864 171.006L168.862 171.238L168.778 171.544L168.774 171.804L168.841 172.07L168.849 172.307L168.663 172.925L168.466 173.028L168.15 173.033L167.901 172.858L167.55 172.326L167.21 171.499L167.079 171.38L166.631 171.256L166.55 171.157L166.265 171.139L166.062 170.798L166.086 170.35L165.911 169.891L165.932 169.687L165.736 169.601L165.571 169.731L165.657 170.18L165.559 170.527L165.204 170.381L164.611 169.269L163.937 168.373L163.672 168.161L163.742 167.9L164.074 167.762L164.343 167.773L164.399 167.617L163.836 166.748L163.855 166.501L164.06 166.062L163.804 165.879L163.102 166.016L162.853 165.924L162.651 165.57L162.532 165.264L161.925 165.209L161.694 165.246L161.297 164.78L161.117 164.487L161.188 164.336L161.553 164.072L161.767 164.109L162.177 164.391L162.338 164.381L162.745 164.007L162.806 163.669L163.111 163.39L163.063 163.097L162.894 162.596L162.521 162.456L161.759 162.755L161.096 163.214L160.83 163.035L160.772 162.755L161.482 161.989L161.793 161.566L161.733 161.314L161.505 160.988L161.485 160.172L161.633 159.978ZM173.403 166.868L173.244 167.747L172.931 168.644L172.453 169.126L172.116 169.019L171.868 168.629L171.638 168.651L171.393 168.571L171.255 168.248L171.385 167.831L171.27 167.509L171.148 167.791L170.932 168.049L170.389 168.386L170.015 169.028L169.838 169.447L169.618 168.991L169.476 167.909L169.459 167.449L169.853 166.753L170.362 166.091L170.464 164.107L172.082 163.105L172.233 163.157L172.758 163.905L173.317 164.948L173.462 165.416L173.465 166.232L173.403 166.868ZM61.5295 164.195L61.3528 164.45L61.0074 164.432L60.8145 164.349L60.7497 164.125L61.2814 163.45L61.403 163.36L61.4987 163.386L61.5408 163.665L61.5295 164.195ZM162.821 166.43L162.922 166.655L162.928 166.798L162.27 167.33L162.258 167.441L162.104 167.768L161.967 167.888L161.722 168.243L161.253 168.626L161.323 167.476L160.858 166.806L161.326 166.467L161.633 166.565L162.142 166.604L162.638 166.308L162.821 166.43ZM38.2381 168.263L38.3078 168.268L38.4472 168.206L38.7423 167.757L38.8396 167.737L38.8412 167.875L38.7018 168.32L38.9385 168.913L39.159 169.197L39.1363 169.298L38.5834 169.502L38.1619 169.355L37.9398 169.406L37.7371 169.612L37.5993 169.384L37.5036 168.289L37.5361 168.097L37.7663 167.716L38.063 167.544L38.1911 167.595L38.2981 167.747L38.3256 167.906L38.2381 168.263ZM39.8561 168.08L39.7929 168.709L39.1671 168.308L39.0001 168.109L39.1119 167.961L39.707 167.924L39.8561 168.08ZM164.835 171.599L164.947 171.706L165.06 171.632L165.245 171.351L165.571 171.406L165.807 171.5L165.952 171.617L165.876 172.026L165.817 172.691L165.683 172.926L165.55 173.257L165.088 173.061L164.713 172.639L164.17 171.912L163.867 171.387L163.842 171.165L163.651 171.004L163.278 170.096L163.068 169.376L162.732 169.293L162.309 169.092L162.145 168.696L162.258 168.349L162.862 168.174L163.768 169.066L163.906 169.444L164.23 169.885L164.292 170.5L164.457 170.74L164.835 171.599ZM41.933 169.744L41.6557 169.917L41.5682 170.138L41.3574 170.232L41.1807 170.412L40.5841 171.226L40.3231 171.376L40.6116 170.681L40.657 170.461L40.6619 170.313L40.5727 169.788L40.7462 169.81L40.8889 169.702L41.1775 169.234L41.4369 169.194L41.7157 168.638L41.8665 168.594L41.9411 168.668L41.8179 169.006L42.0854 169.316L42.0173 169.616L41.933 169.744ZM171.762 170.133L172.228 171.166L172.252 171.528L171.81 171.655L171.461 171.603L171.281 171.484L171.234 171.316L171.347 170.793L171.117 170.487L170.851 170.381L170.615 170.561L170.602 170.046L170.78 169.674L170.681 169.17L170.678 168.788L170.738 168.667L170.978 168.678L171.469 169.072L171.762 170.133ZM43.5608 169.561L43.5364 170.193L43.47 170.292L43.3484 170.123L43.0922 170.312L42.9528 170.175L43.0128 169.955L42.9933 169.783L43.183 169.768L43.2284 169.453L43.1944 169.32L43.2884 169.037L43.423 168.97L43.5608 169.561ZM44.2579 170.983L44.1104 171.024L43.9888 170.938L43.8202 170.488L43.8056 170.299L44.1315 170.44L44.2547 170.767L44.2579 170.983ZM25.5385 170.918L25.9795 172.224L26.1708 172.479L26.4546 172.616L26.8534 172.756L27.0901 172.949L27.2976 173.243L27.3252 173.377L26.0752 172.853L25.2888 173.619L25.0521 173.719L22.8212 173.755L22.3754 173.896L22.0868 174.144L21.5777 174.84L21.3183 175.111L21.0459 175.272L20.4671 175.45L19.7716 175.426L19.4084 175.335L19.2139 175.004L19.042 174.352V174.17L19.115 173.857L19.7343 173.426L19.9402 173.197L20.7428 171.71L20.9762 171.505L21.2227 171.455L21.9085 171.559L22.4937 171.123L23.7551 170.457L24.0323 170.378L24.9403 170.363L25.1883 170.467L25.3796 170.654L25.5385 170.918ZM30.8985 171.974L30.7899 172.01L30.477 171.768L30.3635 171.588L30.2808 171.306L30.9196 170.9L31.0525 170.895L31.1725 171.124L31.1936 171.303L31.0169 171.815L30.8985 171.974ZM29.7328 175.471L29.3388 175.641L28.9205 175.463L28.5622 175.134L28.5217 174.741L29.3194 174.996L29.4896 175.116L29.7328 175.471ZM16.0507 177.529L15.8513 177.588L15.8043 177.508L15.78 177.168L15.6276 176.626L15.9178 176.43L16.0994 176.384L16.1756 176.467L16.3847 176.873L16.5939 176.98L16.7479 177.066L16.4771 177.189L16.0507 177.529ZM14.7764 178.04L14.6046 178.177L14.4668 178.206L14.363 178.13L13.888 178.222L13.7955 178.167L13.5864 177.705L13.5734 177.466L13.6561 177.278L13.8669 177.106L14.2073 176.952L14.543 176.984L15.1266 177.411L15.4006 177.661L15.4525 177.815L15.2482 177.961L14.7764 178.04ZM11.255 179.351L11.4512 179.718L11.79 179.486L12.0397 179.168L12.2342 178.757L12.3607 178.595L12.5277 178.812L13.0043 179.108L12.6023 179.562L11.8305 180.24L11.5711 180.694L11.5549 180.89L12.304 180.741L12.5131 180.762L12.646 180.918L12.4418 181.101L12.0348 181.268L11.6814 181.591L10.861 182.149L10.5513 182.613L10.1849 182.79L9.68557 182.832L8.80684 183.134L8.27343 183.417L8.13886 183.57L7.97025 183.64L7.76921 183.632L7.55358 183.756L7.32012 184.013L7.12556 184.133L6.80779 184.16L6.64242 184.261L6.45759 184.258L5.95013 183.951L5.82367 183.773L6.27276 183.414L6.59702 183.294L7.09151 183.241L7.57628 182.908L8.57499 182.469L8.88466 182.228L9.08407 181.39L9.31106 181.247L9.43265 180.911L9.98551 180.921L10.2384 181.297L10.3276 181.349L10.3714 181.314L10.3957 181.012L10.6794 180.801L10.5157 180.645L10.005 180.451L9.62559 180.358L9.37753 180.37L9.17649 180.261L9.02085 180.031L8.95113 179.802L8.9641 179.575L9.09056 179.32L9.32889 179.038L9.60127 178.877L10.1898 178.762L10.7118 178.574L10.9875 178.545L11.1966 178.624L11.255 179.351ZM13.1 180.718L13.0352 180.741L12.9184 180.551L12.9136 180.378L12.9881 180.251L13.2005 179.956L13.3513 179.852L13.5378 179.799L13.588 179.878L13.4243 180.227L13.22 180.462L13.1 180.718ZM5.11678 183.607L3.7241 184.42L3.27176 185.013L2.92642 185.584L2.65567 185.896L2.45787 185.949L2.23738 186.1L1.77693 186.498L1.58238 186.546L0.103762 187.472L0 187.487L0.0713365 187.245L0.522055 186.903L0.817129 186.59L1.14949 186.074L1.3327 185.883L1.39107 185.623L1.41538 185.098L1.49807 184.898L1.81584 184.503L2.04769 184.287L2.35249 184.212L2.96858 184.279L3.22474 184.076L3.30418 183.923L3.14854 183.784L3.11287 183.542L3.1534 183.124L3.33175 182.752L3.6479 182.428L4.07916 182.175L4.62391 181.993L5.02275 181.985L5.73936 182.368L5.84474 182.543L5.66802 182.926L5.5675 183.286L5.11678 183.607ZM344.494 217.746L345.039 217.661L345.508 217.686L345.98 217.723L346.231 217.778L346.957 218.08L347.431 218.326L348.11 218.784L348.486 218.987L348.668 219.462L348.878 220.07H349.18L349.407 219.713L349.984 219.648L350.743 219.898L351.411 220.609L352.371 221.241L352.958 221.556L353.554 221.554L354.311 221.241L355.117 220.635L355.698 220.529L356.041 220.589L356.237 221.061L356.477 221.241L357.103 221.188L358.408 221.278L359.448 221.15L359.684 221.421L359.895 221.848L360.317 221.982L360.889 221.848L361.789 221.94L361.666 222.008L361.533 221.994L361.359 222.096L361.143 222.313L360.646 222.623L359.868 223.027L358.969 223.397L357.149 224.063L356.014 224.754L355.511 225.168L353.557 227.238L352.379 228.336L350.471 229.874L350.289 230.068L350.278 230.25L350.433 230.42L350.822 230.667L351.126 230.697L351.513 230.647L353.045 230.222L353.69 229.927L354.324 229.431L354.389 229.414L354.653 229.505L354.736 229.549L355.56 228.977L355.831 228.904L356.043 228.918L356.307 229.144L356.369 229.28L356.28 229.543L356.043 229.93L355.928 230.256L355.934 230.521L355.832 230.806L355.573 231.194L355.667 231.298L356.362 231.019L356.464 230.91L356.476 230.845L356.434 230.767L356.513 230.732L357.061 231.113L357.426 231.324L357.732 231.424L358.313 231.302L359.167 230.959L359.897 230.54L360.5 230.044L361.252 229.739L362.155 229.627L362.8 229.452L363.19 229.212L363.712 228.743L364.005 228.605L364.375 228.563L364.652 228.381L364.838 228.06L365.192 227.695L365.711 227.286L366.007 227.121L366.08 227.199L366.108 227.343L366.088 227.556L366.218 227.726L366.495 227.857L366.622 228.031L366.597 228.247L366.672 228.43L366.847 228.582L366.893 228.913L366.811 229.421L366.802 229.75L366.863 229.899L366.925 229.984L367.024 229.903L367.149 229.724L367.194 229.614L367.227 229.502L367.985 228.989L368.133 228.964L368.381 229.097L369.529 229.281L369.981 229.413L370.456 229.706L370.618 229.82L371.2 230.767L371.466 231.137L371.632 231.239L371.726 231.384L371.8 231.718L371.891 231.818L372.744 231.89L373.13 231.83L373.365 231.695L373.626 231.783L373.913 232.091L374.195 232.177L374.472 232.042L374.733 232.045L374.978 232.19L375.091 232.294L375.166 232.289L375.651 231.818L376.234 231.4L377.014 230.947L377.467 230.746L377.591 230.795L378.31 230.644L378.957 230.631L379.814 230.722L380.609 230.616L381.34 230.313L381.987 230.144L382.549 230.109L382.762 230.193L382.624 230.399L382.549 230.751L382.54 231.251L382.491 231.565L382.405 231.698L382.395 231.825L382.46 231.945L383.007 232.023L383.294 232.185L383.623 232.191L383.994 232.044L384.278 232.101L384.475 232.358L384.762 232.405L385.041 232.221L385.237 232.047L385.406 231.971L385.537 231.955L385.677 232.042L385.771 232.19L386.008 232.595L386.124 232.869L386.196 233.276L386.246 233.411L386.239 233.648L386.08 233.809L386.038 233.937L386.134 234.065L386.672 234.1L386.917 234.227L387.008 234.368L386.946 234.524L386.98 234.691L387.112 234.866L387.543 235.132L387.648 235.259L387.617 235.393L387.489 235.479L387.264 235.518L385.617 235.268L385.132 235.228L385.061 235.32L385.015 235.333L384.937 235.309L384.796 235.304L384.725 235.244L384.665 235.077L384.522 234.97L384.294 234.923L384.098 235.049L383.869 235.544L383.905 235.636L383.867 235.953L383.926 236.039L383.923 236.11L383.858 236.17L383.723 236.162L383.519 236.087L382.746 235.34L382.16 234.967L381.436 234.692L380.862 234.558L380.44 234.564L380.093 234.757L379.822 235.134L379.399 235.348L378.824 235.4L378.512 235.502L378.464 235.653L378.256 235.656L377.89 235.513L377.512 235.473L377.121 235.536L376.836 235.684L376.533 236.146L376.473 236.373L376.254 236.571L375.672 236.879L375.643 236.993L375.336 237.343L375.239 237.536L375.241 237.726L375.138 237.714L374.933 237.502L374.924 237.216L375.114 236.856L375.284 236.683L375.433 236.694L375.526 236.533L375.562 236.203L375.508 236.037L375.218 236.102L375.065 236.233L374.873 236.263L374.641 236.188L374.436 236.368L374.26 236.804L374.049 237.09L373.804 237.224L373.639 237.075L373.554 236.642V236.303L373.653 235.893L373.603 235.813L373.499 235.945L373.344 236.287L373.136 237.033L373.003 237.275L372.823 237.377L372.538 237.828L372.149 238.626L371.709 239.4L371.22 240.146L370.925 240.546L370.826 240.603L370.782 240.736L370.758 241.215L370.67 241.539L370.414 241.794L369.744 242.115L369.639 242.334L369.624 242.514L369.193 243.258L368.982 243.714L368.845 244.188L368.888 244.486L369.114 244.608L369.297 244.561L369.436 244.345L369.65 244.149L369.941 243.974L370.151 243.716L370.445 243.088L370.774 242.726L370.949 242.705L370.998 242.715L371.34 242.551L371.615 242.605L371.782 242.851L371.953 243.02L371.99 243.179L371.906 243.532L371.748 243.906L371.52 244.296L371.312 244.882L371.126 245.662L371.087 246.251L371.194 246.648L371.092 247.004L370.78 247.315L370.529 247.732L370.339 248.253L370.232 248.689L370.206 249.042L370.234 249.307L370.351 249.664L370.343 249.844L370.005 250.627L369.884 251.007L369.863 251.307L369.778 251.602L369.521 252.201L369.44 252.533L369.425 252.838L369.483 253.338L369.451 253.506L369.466 253.634L369.529 253.72V253.878L369.462 254.106L369.488 254.283L369.605 254.41L369.68 254.651L369.714 255.007L369.803 255.303L369.947 255.54L369.973 255.886L369.881 256.337L369.834 257.183L369.832 258.424L369.9 259.219L370.039 259.571L370.195 259.831L370.367 259.998L370.565 260.51L370.789 261.37L370.994 261.937L371.186 262.213L371.358 262.366L371.494 262.455L371.594 262.468L371.651 262.602L371.907 262.684L372.376 262.718L372.807 262.664L373.199 262.525L374.448 261.801L374.933 261.407L375.202 261.053L375.463 260.588L375.714 260.011L376.226 259.144L376.476 258.62L376.716 257.955L376.898 257.258L377.019 256.526L377.078 255.766L377.071 254.977L376.948 254.183L376.709 253.38L376.581 252.969L376.531 252.861L376.1 251.829L375.613 250.389L375.62 250.265L376.074 249.404L376.085 249.287L376.037 248.587L375.939 248.235L375.708 247.761L375.716 247.641L376.187 247.036L376.473 246.575L376.732 246.016L376.901 245.362L376.977 244.614L376.975 244.115L376.893 243.865L376.901 243.672L377 243.537L377.505 243.362L377.676 243.065L377.711 242.543L377.815 242.284L377.987 242.288L378.146 242.181L378.292 241.962L378.485 241.899L378.725 241.995L379.06 241.67L379.492 240.926L379.822 240.509L380.054 240.421L380.098 240.49L379.955 240.712L379.912 240.957L379.967 241.223L379.918 241.481L379.811 241.833L379.877 241.943L379.693 242.509L379.685 242.791L379.796 243.005L379.929 242.931L380.083 242.566L380.13 242.371L380.067 242.347L380.091 242.191L380.2 241.906L380.297 241.769L380.382 241.786L380.404 241.941L380.367 242.238L380.122 242.937L380.074 243.15L380.129 243.21L380.424 242.772L380.67 242.074L380.858 241.539L380.892 241.247L380.836 240.493L380.847 240.183L380.918 239.969L381.174 239.727L381.614 239.458L382.048 239.314L382.478 239.296L382.778 239.223L382.948 239.095L382.888 238.991L382.6 238.915L382.379 238.746L382.23 238.485L382.18 238.185L382.23 237.847L382.413 237.515L382.731 237.189L382.831 236.95L382.713 236.796L382.849 236.741L383.238 236.785L383.511 236.743L383.665 236.615L383.707 236.631L384.033 236.752L384.615 237.153L385.168 237.387L385.691 237.453L386.074 237.594L386.314 237.81L386.487 238.052L386.593 238.319L386.843 238.47L387.236 238.504L387.546 238.618L387.771 238.811L389.023 239.309L389.547 239.572L389.835 239.828L389.916 239.993L389.892 240.155L389.921 240.329L390.135 240.666L390.216 240.697L390.267 240.859L390.284 241.155L390.348 241.353L390.455 241.453L390.388 241.494L390.002 241.323L389.784 241.375L389.681 241.596L389.665 241.805L389.735 242.001L390.228 242.592L390.356 243.13L390.38 243.781L390.319 244.034L390.267 244.59L390.224 245.45L390.215 245.743L390.053 246.03L389.613 246.442L389.607 246.365L389.501 246.343L389.388 246.407L389.229 246.759L389.093 247.401L388.927 247.75L388.731 247.805L388.613 247.897L388.574 248.027L388.365 248.115L387.984 248.16L387.723 248.355L387.528 248.903L387.536 249.166L387.446 249.492L387.452 249.771L387.554 250.003L387.862 250.235L388.375 250.467L388.681 250.502L388.892 250.405L389.112 250.025L389.326 249.876L389.587 249.813L389.686 249.641L390.116 248.88V248.712L389.959 248.647L389.981 248.6L390.184 248.569L390.359 248.467L390.508 248.291L390.769 248.162L391.405 247.962L391.745 247.735L391.961 247.698L392.275 247.819L392.687 248.098L393.013 248.506L393.253 249.039L393.556 250.42L393.923 252.637L394.172 253.873L394.307 254.136L394.373 254.267L394.051 255.988L393.791 256.697L393.337 257.107L392.887 257.504L392.324 258.17L391.706 258.497L391.39 258.69L391.322 258.815L391.246 258.776L391.077 259.136L390.927 259.634L390.867 260.019L390.92 260.23L390.792 260.364L390.56 260.617L390.516 260.71L390.533 260.857L390.484 260.929L390.372 260.925L390.286 260.997L390.077 261.261L389.717 261.952L389.649 262.096L389.709 262.203L390.121 262.27L390.401 262.397L390.62 262.586L391.41 262.958L391.651 263.188L391.891 263.315L392.13 263.337L392.293 263.264L392.381 263.096L392.493 263.084L392.629 263.23L393.073 263.389L393.088 263.439L391.856 263.715L391.598 263.843L391.906 263.933L392.217 263.911L392.53 263.778L392.89 263.785L393.206 263.848L393.307 263.795L393.347 263.767L393.885 264.129L394.086 264.182L394.296 264.142L394.511 264.006L394.986 263.829L395.719 263.61L396.424 263.521L397.102 263.561L397.53 263.499L397.922 263.272L398.788 262.526L399.782 261.924L401.418 261.177L403.85 260.277L404.226 260.067L404.607 259.861L404.805 259.743L405.025 259.636L406.718 258.692L407.59 258.134L408.026 257.728L408.487 257.391L408.97 257.122L409.352 256.776L409.636 256.355L409.949 256.04L410.291 255.834L410.476 255.617L410.502 255.389L410.437 255.081L410.285 254.694L410.264 254.389L410.374 254.165L410.398 254.014L410.337 253.936L409.618 253.714L409.649 252.643L409.639 252.613L409.677 252.6L411.332 252.124L412.388 251.96L413.673 251.917L415.205 252.152L415.8 252.366L416.176 252.638L416.611 252.711L417.104 252.585L417.786 252.543L418.66 252.585L419.127 252.65L419.189 252.736L419.249 252.71L419.309 252.574L419.542 252.423L420.197 252.197L420.285 252.244L420.419 252.131L420.601 251.855L420.935 251.55L421.421 251.216L421.861 251.042L422.255 251.028L422.517 250.947L422.65 250.796L422.691 250.663L422.639 250.548L422.662 250.42L422.684 250.356L422.665 250.304L422.618 250.196L422.581 249.647L422.504 249.39L422.397 249.198L422.261 249.075L422.277 248.947L422.514 248.788L422.496 248.935L422.558 248.981L422.668 248.913L422.921 248.582L422.95 248.457L423.122 248.329L423.25 248.129L423.109 248.1L422.774 248.16L422.697 248.1L422.871 247.834L422.838 247.683L422.783 247.62L422.673 247.594L422.295 247.828L422.179 247.849L422.162 247.725L421.968 247.451L422.49 246.965L424.335 245.607L424.523 245.401L424.593 245.216L424.542 245.054L424.49 245.013L424.518 244.973L426.297 243.218L427.307 242.405L428.14 241.951L428.776 241.735L429.205 241.766L429.448 241.735H429.656L430.715 241.734L432.608 241.73L434.502 241.729L436.396 241.726L438.288 241.722L440.181 241.719L442.075 241.716L443.967 241.713L444.416 240.473L444.833 239.894L445.405 240.086L445.71 240.069L446.049 239.771L446.323 239.589L446.503 239.617L446.657 239.889L446.785 240.071L446.936 240.018L447.064 239.76L447.059 239.401L447.234 239.151L447.443 239.114L447.636 239.122L447.733 239.001L447.722 238.827L447.654 238.545L447.678 238.206L448.16 237.604L448.75 237.197L448.956 236.993L449.016 236.579L449.354 236.149L449.523 235.901L449.564 235.685L449.476 235.419L449.484 234.911L449.601 234.305L449.74 233.643L450.052 233.046L450.562 232.394L450.695 231.534L450.833 230.626L451.452 229.739L452.155 228.728L452.555 228.153L453.275 227.103L453.787 226.354L454.045 226.01L454.314 225.601L454.753 225.724L455.191 225.846L455.126 226.44L455.198 226.871L455.405 227.119L455.705 227.288L455.932 227.345L456.2 227.342L456.929 227.006L457.785 226.788L458.257 226.586L458.343 226.396L458.557 226.329L458.899 226.386L459.531 226.861L460.269 227.578L460.851 228.144L460.869 229.124L460.88 230.159L460.892 231.246L460.9 232.019L460.914 233.08L460.926 233.92L460.94 235.015L460.948 235.599L461.028 235.768L460.979 235.997L460.958 236.112L460.963 236.204L460.995 236.319L460.99 236.48L460.916 236.624L460.879 236.793L460.869 237.067L460.948 237.236L461.081 237.335H461.193L461.337 237.434L461.524 237.609L461.808 237.761L462.101 237.815L462.304 237.778L462.549 237.877L462.634 238.12L462.586 238.349L462.448 238.456L462.299 238.538L462.271 238.713L462.346 238.895L462.453 239.054L462.57 239.333L462.521 239.576L462.414 239.781L462.367 239.992L462.458 240.173L462.698 240.415L462.847 240.649L463.082 240.777L463.194 240.686L463.285 240.564L463.38 240.473L463.546 240.527L463.739 240.595L463.948 240.676L463.922 240.872L464.05 241.202L464.149 241.834L463.996 242.121L464.029 242.501L464.45 242.611L464.553 242.728L464.572 242.867L463.643 243.839L462.857 243.704L462.43 243.962L461.984 244.037L461.788 244.47L461.543 244.562L461.208 244.536L460.918 244.415L460.697 244.475L460.387 245.255L460.134 245.187L460.034 245.468L459.901 245.591L459.706 245.695L459.538 245.349L459.431 245.02L459.272 244.948L459.061 244.864L458.846 244.867L458.701 244.914L458.521 245.127L458.262 245.31L458.066 245.158L457.912 244.913L457.78 245.307L457.589 245.722L457.621 246.206L457.539 246.493L457.357 246.416L457.177 246.165L456.671 245.964L456.268 245.982L456.35 245.712L456.731 245.326L456.613 245.252L456.427 245.305L456.346 245.252L456.48 244.9L456.493 244.512L456.323 244.647L456.109 245.056L455.59 245.382L455.614 245.927L455.126 247.039L455.104 247.513L454.791 247.889L454.385 248.214L453.845 248.123L453.434 248.403L453.225 248.726L453.043 248.775L452.949 248.364L452.881 248.238L452.728 248.845L452.574 248.882L452.516 248.452L452.443 248.168L452.232 248.413L452.093 249.062L451.947 249.007L451.9 248.767L451.795 248.694L451.759 248.969L451.811 249.357L451.735 249.563L451.589 249.453L451.443 249.266L451.201 249.407L450.979 249.464V249.274L451.021 249.041L450.58 249.169L450.05 249.599L449.638 250.192L449.781 250.291L449.941 250.48L449.226 251.393L448.494 252.213L447.941 253.548L447.719 253.704L447.527 253.947L447.325 254.75L447.091 255.462L447.223 255.78L447.308 256.106L447.516 256.428L447.693 256.457L447.884 256.398L448.023 256.411L448.114 256.548L448.075 256.711L447.855 256.752L447.443 257.037L447.081 257.148L446.901 257.492L446.631 257.889L446.104 258.509L446.329 258.7L447.141 258.914L447.505 259.135L448.053 260.286L447.928 260.401L447.878 260.612L448.366 260.908L448.521 261.731L448.922 262.012L449.518 262.184L450.249 261.936L450.857 261.594L450.836 261.313L450.454 260.658L450.361 260.351L450.078 260.152L449.971 260.32L449.787 260.101L449.766 259.978L449.937 259.918L450.136 259.942L450.368 260.058L450.964 260.773L451.13 261.707L451.165 262.299L451.097 262.502L450.924 262.46L450.593 262.5L449.022 262.807L448.674 263.076L447.874 263.368L447.824 263.222L447.882 262.92L447.832 262.301L447.675 262.272L446.431 263.282L445.951 263.345L445.548 263.641L445.457 263.477L445.386 262.721L445.639 262.085L445.504 262.095L445.082 262.476L444.902 262.241L444.812 261.983L444.682 261.837L444.541 261.782L444.663 262.345L444.376 262.766L444.298 263.855L443.938 264.306L442.816 264.596L442.085 264.534L441.43 264.625L440.559 264.833L440.078 264.71L439.585 264.929L437.911 264.988L437.558 264.872L437.107 265.285L436.386 265.53L434.562 266.456L434.16 266.794L433.67 267.318L433.341 267.6L433.07 267.692L432.903 267.928L432.722 268.08L432.897 267.558L433.087 267.117L433.245 266.259L433.198 265.564L433.002 265.279L432.8 265.087L433.036 265.774L433.075 266.614L432.993 267.105L432.545 268.051L432.355 268.27L432.133 268.464L431.965 268.547L431.809 268.698L431.629 268.936L431.459 269.41L431.562 269.842L432.435 269.999L432.67 269.866L432.788 270.174L432.856 270.602L432.79 271.066L432.644 271.537L432.534 272.121L432.44 273.008L432.299 273.804L432.279 273.562L432.368 272.592L432.226 272.695L432.127 272.919L431.861 274.167L431.494 274.831L431.157 275.29L430.809 275.214L430.886 275.579L430.791 275.768L430.71 276.164L430.502 276.425L430.308 276.401L430.029 276.581L429.919 276.719L429.91 276.983L429.722 277.215L429.046 278.419L428.459 278.772L428.32 278.72L428.474 278.153L428.579 277.579L428.223 277.329L427.882 277.196L427.491 277.214L427.059 276.766L426.502 276.442L425.726 275.559L425.749 275.314L425.729 274.902L425.966 274.252L426.191 273.796L426.504 273.559L427.412 273.319L427.639 272.957L427.774 272.653L427.324 273.176L426.652 273.355L426.288 273.551L425.998 273.85L425.826 274.224L425.437 274.675L425.465 274.977L425.53 275.191L425.499 275.639L425.745 276.073L426.232 276.785L426.326 277.888L426.697 278.625L427.268 279.481L427.705 279.724L427.728 280.042L427.526 280.568L427.258 280.808L427.605 280.759L427.777 280.879L427.945 281.317L427.932 281.763L427.876 282.013L427.77 282.114L427.774 281.857L427.699 281.768L427.576 281.879L427.496 282.005L427.462 282.503L427.378 282.751L427.08 282.824L426.776 283.476L426.496 283.846L425.392 286.337L425.434 286.753L425.231 286.886L424.927 286.994L424.617 287.243L424.411 287.515L424.22 288.248L423.853 289.072L423.625 288.73L423.566 288.436L423.668 287.667L424.064 286.407L424.5 285.622L424.833 285.249L425.105 284.487L424.76 284.373L424.233 284.386L424.332 284.034L424.486 283.724L424.212 283.415L424.049 283.376L423.882 283.249L424.079 282.991L424.174 282.719L424.116 282.386L424.199 282.135L424.062 282.172L423.842 282.438L423.706 282.544L423.623 282.308L423.527 282.362L423.466 282.524L423.325 282.612L423.028 282.391L422.595 282.14L422.355 281.705L422.217 281.368L422.357 280.758L422.657 280.649L423.046 280.748H423.555L423.482 280.613L423.3 280.636L422.764 280.14L422.59 279.84L422.294 279.757L422.159 280.046L422.008 280.122L422.193 279.491L422.436 279.465L422.795 279.29L422.691 278.923L422.464 278.763L422.055 278.964L422.06 278.706L422.136 278.377H422.444L422.715 278.484L422.945 277.95L422.955 277.712L422.574 278.059L422.488 277.311L422.863 276.589L423.221 276.273L423.668 276.283L424.122 276.232L423.837 276.099L423.544 276.028L423.764 275.741L423.952 275.689L424.137 275.439L423.694 275.476L423.746 275.003L423.531 275.1L423.273 275.144L423.172 275.345L423.192 275.679L423.117 275.898L422.916 276.073L422.577 276.21L422.545 275.973L422.433 275.866L422.391 276.373L422.302 276.545L422.054 276.07L421.979 276.166L421.989 276.3L421.926 276.534L421.713 276.656L421.726 276.954L421.643 277.118L420.964 276.858L420.948 276.946L421.332 277.506L421.613 277.697L421.647 278.002L421.405 278.255L421.073 278.038L421.016 278.054L421.198 278.427L421.311 278.753L421.194 279.025L421.212 279.363L421.186 279.668L421.115 279.934L421.277 281.155L421.472 281.488L421.663 281.804L421.765 282.101L421.562 282.143L421.238 281.9L420.953 281.713L420.614 281.118L420.559 280.879L420.476 280.691L420.515 281.123L420.637 281.604L421.697 282.681L421.893 283.093L422.042 283.418L422.005 283.726L421.728 283.507L421.489 283.228L420.856 282.912L420.056 282.712L419.606 281.976L419.607 282.282L419.507 282.544L419.231 282.226L419.058 281.955L418.999 281.658L418.655 281.677L418.296 281.937L417.947 281.875L417.906 281.371L418 281.103L418.391 280.471L418.761 280.146L418.923 279.728L418.868 279.079L418.8 279.739L418.589 280.065L418.257 280.315L417.82 280.759L417.715 281.17L417.579 281.937L417.762 282.196L417.95 282.265L418.505 282.091L418.792 282.169L419.43 283.09L420.62 283.454L421.055 283.681L421.408 284.161L421.94 284.436L422.354 284.837L422.365 285.098L422.222 285.406L422.166 285.823L421.99 286.086L421.571 286.117L421.316 286.049L419.949 284.581L419.786 284.446L419.278 283.676L418.683 283.262L418.498 283.27L419.345 284.034L419.69 284.568L420.298 285.314L420.732 285.63L421.052 286.123L421.35 286.354L422.162 286.681L421.88 286.918L422.331 287.119L422.396 287.487L422.355 287.908L421.729 287.74L421.708 288.05L421.765 288.232L421.489 288.383L421.105 288.178L420.108 287.059L420.116 287.208L420.197 287.382L420.776 288.102L421.293 288.534L421.731 288.728L422.068 289.09L422.188 289.307L422.268 289.638L422.018 289.862L421.733 289.987L421.455 289.763L421.251 289.526L420.817 289.126L420.685 288.676L420.355 288.699L418.973 288.13L417.863 288.063L417.971 288.178L418.111 288.255L418.994 288.394L419.343 288.657L420.069 288.89L420.496 288.954L420.667 289.667L421.256 290.159L421.332 290.522L421.734 290.563L422.441 290.208L422.897 290.332L423.555 290.435L423.706 290.722L423.818 291.267L424.051 291.88L424.654 294.29L425.56 296.251L425.672 296.589L425.462 296.292L424.789 294.994L424.418 294.053L424.036 292.389L423.926 292.016L423.795 291.867L423.709 291.989L423.672 292.201L423.735 292.365L423.584 292.913L423.649 293.164L423.892 293.424L424.158 294.071L424.371 294.942L424.084 294.589L423.779 294.402L423.304 294.259L422.881 294.008L422.911 294.368L422.871 294.757L422.545 294.639L422.323 294.509L422.521 294.923L422.094 294.799L421.809 294.825L421.624 295.194L421.376 295.416L421.01 295.487L420.465 295.151L420.29 294.743L420.217 294.287L420.188 294.825L420.285 295.385L420.251 295.81L420.774 295.888L421.264 295.82L421.926 295.838L422.357 295.758L422.616 295.623L423.239 295.74L423.283 296.253L423.211 296.762L423.176 297.302L423.347 297.299L423.55 297.125L423.652 296.154L424.221 295.794L424.413 295.82L424.594 296.131L424.656 296.447L424.721 296.882L424.588 297.544L423.714 298.316L423.088 299.028L422.767 299.172L422.307 299.09L421.783 298.911L421.525 298.876L421.331 298.936L421.212 298.715L421.136 298.314L420.933 298.181L420.779 298.196L420.676 298.621L420.188 298.743L419.524 298.566L418.829 298.209L419.127 298.592L420.851 299.307L421.045 299.442L421.227 299.636L420.987 299.943L420.797 300.288L420.77 300.559L420.703 300.73L420.016 301.189L419.644 301.108L418.693 300.279L419.127 300.996L419.474 301.299L420.175 301.461L421.486 301.193L421.917 301.485L421.564 302.003L421.214 302.365L420.753 302.405L420.348 302.504L420.228 302.752L419.94 302.768L419.487 302.783L418.788 302.806L418.404 302.747L417.867 303.255L417.665 303.325L417.383 303.229L417.264 302.82L417.138 302.619L417.135 303.383L417.185 303.589L417.287 303.743L416.66 304.157L416.058 304.673L415.843 304.812L415.598 305.07L415.097 305.815L414.973 306.356L414.792 306.96L414.769 306.689L414.8 306.231L414.677 305.708L414.597 306.668L414.403 307.112L412.616 307.081L411.835 307.323L410.635 308.136L410.277 308.493L409.284 309.866L409.031 310.744L408.829 310.376L408.879 310.1L408.882 309.873L408.634 310.335L408.871 311.042L408.659 311.312L408.004 311.814L407.645 311.896L407.243 312.038L407.117 312.533L406.57 312.989L406.253 313.19L405.669 313.068L405.849 313.506L405.635 313.839L405.265 314.093L404.806 314.259L404.544 314.238L404.32 314.325L404.143 314.536L403.714 314.734L403.268 314.624L402.762 314.557L402.48 314.676L402.953 314.872L403.208 315.154L403.156 315.535L403.029 315.681L402.73 315.881L402.598 315.852L402.519 315.673L402.421 315.3L402.282 315.38L402.258 315.553L402.138 315.616L401.713 315.021L401.734 315.475L401.882 315.824L402.024 316.001L402.169 316.105L402.204 316.267L401.914 316.661L401.765 316.749L401.499 316.812L401.35 317.054L401.394 317.263L401.16 317.715L400.604 317.998L400.435 317.986L400.298 318.069L400.379 318.27L400.516 318.416L400.512 318.552L400.366 318.737L400.075 318.789L399.913 318.998L399.965 319.198L400.061 319.308L400.04 319.498L399.711 319.689L399.633 319.877L399.797 319.933L399.923 319.877L400.015 319.918L399.818 320.233L399.641 320.424L399.472 320.768L399.082 320.864L399.096 320.976L399.317 321.075L399.502 321.339L399.155 321.827L398.937 321.787L398.804 321.68L398.72 322.064L398.752 322.268L398.67 322.688L398.537 323.191L398.446 323.397L398.466 323.782L398.522 324.153L398.735 324.63L399.061 326.578L399.283 327.253L399.682 329.069L400.341 330.824L401.272 332.938L402.799 335.488L402.982 335.849L402.783 336.156L402.723 336.474L402.705 336.952L402.76 337.42L402.94 337.989L403.287 338.858L403.093 338.686L402.59 337.437L402.532 336.704L402.603 335.661L402.485 335.687L402.389 336.026L402.336 336.424L402.207 336.578L402.034 335.969L402.047 335.695L402.232 335.374L402.178 335.259L401.878 335.094L401.815 334.836L401.856 334.579L401.685 334.443L401.551 334.45L401.642 335.081L401.783 335.467L401.958 336.393L402.242 336.952L402.407 337.421L404.336 342.401L404.793 343.032L404.962 343.484L405.137 344.43L405.176 345.642L404.861 347.849L404.79 349.349L404.745 349.304L404.714 349.145L404.641 349.124L404.369 349.81L403.997 350.428L403.874 351.388L403.696 351.868L403.159 352.376L402.827 352.363L402.013 352.744L401.441 352.645L400.76 352.86L400.312 352.835L400.053 352.383L400.092 352.18L400.194 351.977L400.369 351.93L400.97 352.405L401.084 352.204L400.902 351.967L400.554 351.834L400.298 351.688L399.78 350.605L399.244 349.86L399.153 349.361L398.227 349.056L397.558 348.594L397.12 347.773L396.869 346.315L396.573 346.151L396.449 346.037L396.737 345.494L397.042 345.038L396.802 345.152L396.625 345.32L396.4 345.723L396.235 345.784L396.084 345.723L395.91 344.951L395.961 344.002L396.204 343.646L395.829 343.637L395.442 343.771L395.499 344.088L395.443 344.261L395.161 344.216L394.946 344.105L394.655 343.775L394.258 343.145L393.443 341.406L393.284 341.162L393.013 340.904L393.141 340.824L393.373 340.777L393.897 339.992L394.307 339.517L394.443 339.188L394.419 339.046L394.237 338.842L393.999 339.02L393.897 338.97L393.628 338.557L393.371 338.44L393.193 338.529L393.381 338.866L393.55 338.993L393.483 339.484L393.415 339.643L393.256 339.784L393.008 339.708L392.883 339.83L392.736 339.702L392.59 339.486L392.426 339.131L392.859 337.126L393.26 335.845L393.305 334.378L393.336 334.161L393.302 333.77L392.765 332.922L390.393 330.844L388.556 328.372L386.964 327.443L385.756 327.647L385.547 327.833L385.458 328.077L385.533 328.354L385.424 328.469L385.1 328.455L384.663 328.52L383.524 329.17L383.122 329.146L382.757 329.314L382.483 329.441L381.769 329.509L381.165 329.653L380.904 329.575L380.734 329.198V328.807L380.871 329.107L381.085 329.342L381.184 329.248L381.22 329.04L381.007 328.633L380.322 328.111L379.542 327.347L379.78 327.373L379.84 327.209L379.599 326.993L379.701 326.745L379.871 326.484L379.542 326.523L379.245 326.706L379.235 326.932L379.177 327.112L379.018 327.086L378.723 326.863L377.27 326.244L375.999 325.894L376.975 325.736L377.504 325.858L377.441 325.67L377.313 325.55L376.896 325.399L376.364 325.456L376.029 325.384L375.686 325.535L375.31 325.757L374.975 325.871L373.665 326.031L372.603 326.205L372.773 326.022L372.955 325.903L373.582 325.723L373.676 325.35L373.528 324.99L373.363 325.076L373.19 325.357L372.977 325.154L372.742 325.155L372.677 325.602L372.374 325.902L372.238 326.203L371.351 326.44L371.238 326.362L371.497 326.075L371.476 325.916L371.181 326.052L370.685 326.594L368.939 326.771L369.034 326.648L369.404 326.622L369.921 326.451L369.816 326.163L369.616 325.845L369.431 325.809L369.31 325.623L369.316 325.035L369.198 324.692L368.914 324.338L368.819 324.406L368.61 325.013L368.436 325.806L368.35 326.062L367.833 326.08L367.374 326.025L365.818 326.121L365.237 325.851L364.996 325.799L364.848 325.806L364.172 326.052L363.4 326.241L363.219 326.181L362.959 326.173L362.4 326.813L361.74 327.113L360.077 326.573L359.663 326.14L359.295 326.048L358.843 325.994L358.358 326.528L357.988 327.246L358.57 327.64L359.07 327.829L359.893 327.671L360.349 327.322L360.72 327.334L360.899 327.264L361.061 327.082L361.379 327.225L361.39 327.37L361.165 327.572L360.879 327.743L360.707 327.944L361.032 328.348L361.542 328.484L361.734 328.426L361.852 327.971L362.166 327.678L362.593 327.741L362.533 327.926L362.593 328.099L362.789 328.396L362.766 328.821L362.804 328.923L362.345 329.11L362.003 329.173L361.729 329.418L361.873 329.559L361.594 329.684L361.406 329.634L361.31 329.679L361.281 329.83L361.137 329.968L361.346 330.388L361.776 330.661L362.079 331.004L363.298 331.455L363.593 331.442L363.883 331.897L364.119 332.052L364.344 332.132L364.318 332.443L363.916 332.672L363.807 332.944L363.707 333.097L363.525 332.904L363.34 332.763L362.911 333.189L362.703 333.28L362.805 332.82L362.643 332.639L362.398 332.177L362.04 331.892L361.787 331.796L361.591 331.616L361.353 331.543L361.15 331.562L360.806 331.457L360.784 331.21L360.688 331.026L360.419 330.808L359.136 330.396L359.128 330.567L359.217 330.695L359.402 330.781L359.623 330.946L359.621 331.438L359.525 331.645L359.485 331.94L359.399 332.242L359.242 332.479L358.892 332.639L358.737 332.505L358.488 331.858L358.134 331.655L357.573 331.631L357.192 331.777L356.777 332.404L356.442 332.506L355.295 332.182L353.989 331.686L354.023 331.52L354.229 331.467L354.624 331.535L354.603 331.365L354.199 330.81L354.127 330.56L354.178 330.255L354.047 330.262L353.806 330.518L352.972 330.3L352.742 330.039L352.252 329.306L351.562 329.282L351.249 328.837L350.683 329.024L350.398 329.23L350.146 329.55L350.244 329.715L350.495 329.978L350.381 330.106L349.576 330.292L347.708 330.083L347.161 329.887L346.429 329.472L345.414 329.134L344.924 329.079L344.446 329.146L343.052 329.18L342.729 329.269L342.453 329.413L342.275 329.254L342.192 328.971L342.354 328.925L342.534 328.758L342.696 328.427L342.716 328.226L342.602 328.096L342.387 328.083L341.91 328.945L342.183 329.426L342.165 329.6L341.213 329.699L339.052 330.667L338.209 331.189L338.252 331.014L339.271 330.338L338.911 330.234L338.332 330.403L338.124 330.338L338.369 329.778L338.29 329.284L337.878 329.271L337.615 329.665L337.434 329.649L337.195 329.48L337.011 329.533L337.147 330.427L337.406 330.794L337.623 331.262L337.032 331.838L336.482 332.313L336.422 332.772L335.869 333.369L335.35 333.708L334.13 334.503L333.781 334.672L333.23 335.04L332.471 335.316L331.741 335.754L331.497 335.82L331.962 335.449L332.513 335.082L332.04 335.133L331.31 334.964L330.864 334.954L330.863 335.089L330.524 335.278L330.172 335.001L330.02 334.815L329.947 334.652L329.797 334.613L329.655 334.688L330.18 335.823L330.404 335.872L330.65 335.984L330.342 336.248L330.01 336.45L329.488 336.583L329.047 336.169L328.951 336.688L328.894 337.205L328.747 337.338L328.51 337.528L328.382 337.385L328.32 337.184L328.168 337.363L327.946 337.497L327.58 337.525L327.306 337.596L327.312 337.81L327.375 338.026L327.862 337.856L327.685 338.409L327.237 338.956L326.873 339.084L326.315 339.004L326.177 339.059L326.054 339.173L326.704 340.024L326.286 341.308L326.018 341.773L325.833 341.833L325.629 341.848L324.909 341.436L324.517 341.116L324.864 341.984L325.808 342.237L325.856 342.566L325.851 342.845L325.665 343.174L325.491 343.611L325.619 343.914L325.769 344.665L325.897 345.009L326.036 346.052L326.185 346.503L327.043 348.161L327.332 348.174L327.377 348.352L327.349 348.696L326.733 348.796L326.474 348.949L326.424 349.082L326.386 349.153L326.307 349.147L326.013 349.051L325.344 348.581L324.369 348.289L323.089 348.175L322.213 347.94L321.743 347.581L321.253 347.367L320.743 347.301L320.318 347.106L319.982 346.783L319.491 346.577L318.844 346.487L318.423 346.245L318.131 345.651L318.129 345.643L317.866 344.65L317.536 344.028L316.894 343.256L316.835 343.153L316.83 343.027L316.91 342.578L316.842 342.253L316.639 341.989L316.592 341.71L316.702 341.416L316.709 341.063L316.613 340.649L316.205 340.201L315.482 339.721L314.865 339.017L314.358 338.091L313.855 337.449L313.358 337.09L313.019 336.652L312.836 336.135L312.782 335.835L312.857 335.752L312.552 335.176L311.866 334.107L311.472 333.324L311.37 332.828L310.934 332.237L310.162 331.551L309.744 331.105L309.642 330.795H309.64L308.437 329.89L308.087 329.324L307.814 329.146L307.502 329.165L307.341 329.11L307.333 328.982L307.231 328.975L307.035 329.092L306.394 329.115L305.31 329.047L304.526 328.893L304.045 328.654L303.708 328.687L303.513 328.992L303.101 329.188L302.471 329.275L301.929 329.84L301.475 330.881L301.276 331.549L301.331 331.848L301.211 332.064L300.916 332.198L300.616 332.5L300.311 332.969L299.954 333.196L299.548 333.18L298.795 332.82L297.699 332.112L296.84 331.674L296.217 331.507L295.668 331.18L295.191 330.691L294.752 330.365L294.35 330.202L293.88 329.66L293.341 328.739L293.072 328.026V327.274L292.368 325.631L291.996 324.917L291.718 324.588L291.177 324.195L290.368 323.738L289.285 322.823L287.926 321.446L286.965 320.615L286.4 320.333L285.911 319.835L285.496 319.122L285.09 318.666L285.048 318.645L285.013 318.635L284.012 318.629L283.012 318.622L282.012 318.616L281.011 318.611L280.011 318.604L279.011 318.599L278.01 318.593L277.01 318.586L277.007 319.185L276.991 319.788L276.989 320.385L276.986 320.982L275.377 320.985L273.769 320.989L272.161 320.992L270.552 320.995L268.944 320.998L267.336 321.001L265.727 321.005L264.119 321.008L261.961 320.223L259.803 319.436L257.645 318.648L255.487 317.858L253.329 317.068L251.172 316.277L249.014 315.483L246.856 314.689L247.073 314.385L247.362 313.574L246.841 313.633L245.539 313.748L244.237 313.863L242.935 313.978L241.633 314.093L240.332 314.209L239.03 314.324L237.728 314.439L236.426 314.554L236.416 314.52L236.384 313.931L236.173 313.724L235.902 313.852L235.779 313.086L235.847 312.724L235.815 312.371L235.56 311.5L234.884 310.442L233.423 309.123L232.679 308.682L232.095 308.124L231.724 307.969L231.257 307.926L231.123 308.178L230.594 308.006L230.674 307.381L230.158 306.512L229.736 306.415L228.675 306.473L227.256 305.995L226.838 305.709L226.693 305.198L226.029 304.754L225.153 304.318L224.665 304.42L224.028 304.352L223.118 304.037L222.588 303.998L221.555 304.09L221.17 304.024L220.811 303.627L220.425 303.427L220.506 302.937L220.458 302.494L220.516 302.149L220.343 301.391L220.477 300.687L220.361 300.433L220.142 300.236L219.458 299.948L219.333 299.586L219.445 299.083L219.266 298.751L218.705 298.441L218.182 297.737L217.517 297.351L217.244 296.704L216.836 296.303L216.693 295.948L215.785 294.678L214.816 293.684L214.667 293.109L214.629 292.323L215.009 291.843L215.213 291.419L215.192 291.032L215.134 290.746L214.8 290.25L213.509 289.955L212.46 288.723L212.398 287.779L211.987 286.813L211.982 286.182L211.919 285.499L212.231 285.35L212.51 285.405L212.483 285.676L212.577 286.164L212.906 286.53L213.219 286.691L213.504 287.046L213.718 287.153L213.939 287.179L213.82 286.951L213.694 286.805L213.54 286.331L213.248 285.726L212.912 285.392L212.742 284.782L212.596 284.641L212.505 284.414L212.83 284.144L213.272 283.953L213.866 283.901L215.549 283.992L215.907 283.835L216.204 283.885L216.421 283.866L215.964 283.703L215.707 283.757L215.404 283.723L214.803 283.755L214.56 283.687L214.292 283.496L214.117 283.476L213.561 283.81L213.313 283.77L212.726 283.405L212.47 283.353L212.058 283.561L212.008 284.454L212.136 285.118L211.889 285.186L211.602 284.913L211.163 284.751L210.8 284.503L210.288 284.041L210.018 283.872L209.714 284.256L209.702 284.08L209.853 283.632L209.811 282.881L210.27 283.481L210.127 283.059L209.77 282.594L209.5 282.432L209.159 281.598L208.392 281.097L207.778 280.286L206.52 278.938L206.437 277.751L205.978 276.244L206.171 275.384L206.145 274.774L205.92 273.85L205.685 273.347L204.665 271.963L203.684 271.029L203.536 270.32L203.468 269.605L203.682 268.967L203.869 268.294L204.003 268.116L204.057 268.19L204.02 268.333L204.159 268.377L204.213 268.08L204.295 267.928L204.149 267.908L204.164 267.814L204.251 267.626L204.556 266.74L204.524 265.621L204.85 264.244L204.834 263.788L204.626 262.805L204.418 262.215L204.049 261.796L204.213 261.183L204.2 260.598L203.546 259.753L203.297 258.642L203.25 258.171L203.314 256.925L203.144 256.392L202.708 255.511L202.894 254.744L203.095 254.275L203.587 252.226L203.705 252.059L203.909 252.064L204.268 251.716L204.102 251.634L203.853 251.802L204.075 250.987L204.324 250.288L204.487 250.037L204.569 247.746L204.712 245.987L204.947 245.404L204.864 244.803L204.96 243.987L204.892 243.159L205.396 239.155L205.33 238.668L205.484 238.014L205.339 236.287L205.404 234.344L205.276 234.096L205.211 233.826L205.331 233.786L205.565 234.07L206.648 234.066L207.338 233.804L207.59 233.89L207.881 234.246L208.25 234.318L208.708 234.255L208.569 234.165L208.353 234.141L207.87 233.812L207.596 233.482L206.751 233.505L206.58 233.294L205.636 233.505L205.344 233.289L204.83 233.429L204.957 232.816L204.934 232.041L204.962 231.285L205.088 231.836L205.407 232.422L205.561 231.758L205.667 230.921L205.356 230.6L204.837 230.362L204.65 229.58L205.878 228.912L205.226 228.771L204.97 228.47L204.654 228.433L204.629 228.665L204.527 228.968L204.417 228.565L204.384 228.089L204.255 227.277L203.752 225.964L203.447 224.256L203.065 223.41L202.332 222.599L202.141 222.125L201.965 220.92L202.064 220.005L201.928 219.36L202.28 219.397L203.206 219.905L204.358 220.302L204.707 220.591L205.266 220.805L208.366 221.137L208.569 221.105L208.969 220.899L209.14 220.925L209.595 221.397L209.824 221.454L210.121 221.429L210.339 221.34L210.714 221.017L210.764 221.137L210.758 221.437L210.891 221.864L211.165 222.415L211.268 222.758L210.714 223.721L210.609 223.742L210.592 223.416L210.519 223.351L209.475 224.977L209.109 225.744L209.073 226.089L209.086 226.292L209.232 226.342L209.566 226.263L210.061 225.945L210.085 225.875L209.624 225.989L209.404 225.999L209.435 225.635L209.487 225.463L209.788 224.925L210.104 224.602L210.553 224.258L210.813 223.974L210.991 223.559L211.491 223.063L211.583 222.925L211.562 222.516L211.593 222.438L211.834 222.493L211.935 223.197L211.875 223.51L211.443 223.892L211.39 224.026L211.465 224.547L211.398 224.597L211.234 224.535L211.184 224.57L211.591 225.134L211.721 225.572L211.739 225.963L211.628 226.711L211.51 226.835L211.307 226.79L211.038 226.556L210.978 226.631L210.764 227.212L210.694 227.161L210.561 226.472L210.489 226.42L210.075 226.735L209.908 227.037L209.765 227.517L209.584 227.742L210.099 227.791L210.565 227.693L210.938 227.922L211.064 227.929L211.405 227.705L211.508 227.554L211.79 226.829L211.931 226.699L212.141 226.694L212.343 226.586L212.645 226.187L212.658 226.028L212.548 225.134L212.58 224.626L212.523 224.466L212.389 224.299L212.405 224.136L212.51 223.869L212.518 223.627L212.428 223.411L212.468 223.166L212.753 222.638L212.807 222.404L213.154 221.877L213.066 221.665L212.81 221.405L212.648 221.176L212.486 220.819L212.363 220.699L212.322 220.755L212.496 221.338L212.458 221.377L212.008 221.063L211.902 220.863L211.847 220.592L211.886 220.39L212.129 220.188L212.42 220.115L212.395 219.947L212.032 219.399L211.79 219.149L211.604 219.027L211.353 218.995L211.241 218.905L211.212 218.777L211.265 218.609L211.4 218.553L211.787 218.622L211.996 218.502L211.977 218.283L211.914 218.161L211.923 217.376L211.776 216.737L211.7 216.628L211.617 216.617L211.529 216.703L211.286 216.725L211.135 216.516L210.968 216.111L210.667 215.144H211.134H213.074H215.014H216.954H218.895H220.834H222.775H224.715H226.656H228.595H230.536H232.476H234.416H236.356H238.297H240.238H242.177H244.117H246.058H247.997H249.938H251.878H253.819H255.758H257.699H259.64H261.579H263.519H265.46H267.401H269.34H271.28H273.221H275.16H277.101H279.041H280.982H282.921H284.862H286.803H288.742H290.682H292.623H294.562H296.503H298.443H300.384H302.323H304.264H306.205H308.144H310.084H312.025H313.966H315.901H317.842H319.783H321.722H323.663H325.603H327.544H329.483H331.424H333.364H335.303L336.377 215.154L336.395 213.689L336.407 212.531L337.39 212.672L337.683 212.883L337.777 212.983L337.75 213.303L337.831 214.271L338.009 215.076L338.421 216.041L338.423 216.043L338.457 216.419L338.591 216.654L338.839 216.873L339.78 217.137L341.412 217.447L342.338 217.802L342.557 218.203L342.993 218.364L343.647 218.286L344.104 218.119L344.494 217.746ZM210.701 217.36L210.761 217.509L210.578 217.655L210.448 217.678L210.24 217.444L210.15 217.415L210.223 217.775L210.197 217.898L209.774 217.678L209.696 217.502L209.814 217.318L210.082 217.126L210.174 217.103L210.701 217.36ZM209.65 218.539L209.77 218.764L209.281 218.62L209.075 218.49L209.013 218.364L208.94 217.95L208.974 217.815L209.193 217.768L209.602 218.281L209.65 218.539ZM210.524 219.014L210.453 219.082L210.21 218.993L210.067 218.841L210.018 218.651L210.109 218.286L210.231 218.192L210.307 218.213L210.339 218.534L210.555 218.873L210.524 219.014ZM211.654 220.889L211.876 221.78L211.972 221.408L212.591 222.051V222.367L212.517 222.472L212.387 222.51L212.269 222.417L212.16 222.195L212.021 222.078L211.724 222.003L211.57 221.75L211.516 221.579L211.502 221.079L211.427 220.923L211.27 220.889L211.119 220.771L210.886 220.42L210.853 220.326L210.964 220.041L211.217 219.562L211.4 219.335L211.513 219.36L211.654 219.504L211.823 219.767L211.79 219.952L211.11 220.313L211.087 220.398L211.418 220.5L211.539 220.591L211.654 220.889ZM364.618 222.454L364.595 222.566L364.761 222.6L364.73 222.657L364.55 222.759L364.041 222.967L363.7 223.033L363.525 222.959L363.507 222.821L363.645 222.618V222.518H363.504L363.538 222.437L363.747 222.276L365.527 221.253L366.288 220.879L366.693 220.761L366.758 220.819L366.319 221.205L366.249 221.363L366.265 221.468L366.121 221.671L364.819 222.388L364.618 222.454ZM211.998 224.691L211.974 224.821L211.722 224.667L211.64 224.524L211.649 224.205L211.713 223.997L211.76 223.955L211.907 224.046L211.949 224.099L211.998 224.691ZM212.467 226.031L212.445 226.183L212.272 226.302L212.181 226.271L212.175 226.091L212.128 226.063L211.94 226.279L211.954 225.853L212.047 225.403L212.128 225.395L212.248 225.69L212.467 226.031ZM367.955 227.267L367.87 227.483L367.886 227.612L367.334 228.183L367.133 228.543L366.966 228.6L366.831 228.355V228.157L366.967 228.008L367.102 227.796L367.118 227.502L367.066 227.395L366.897 227.659L366.991 227.716L367.019 227.762L366.987 227.857L366.351 227.716L366.161 227.51L366.194 227.223L366.406 226.855L367.17 226.075L367.507 225.857L368.464 225.514L368.991 225.434H369.521L369.905 225.548L370.143 225.773L369.918 225.922L368.871 226.05L368.841 226.091L369.042 226.214L369.08 226.302L368.895 226.531L367.955 227.267ZM210.378 227.306L210.335 227.437L210.27 227.431L210.127 227.163L210.109 226.975L210.231 226.839L210.395 227.23L210.378 227.306ZM357.922 228.498L357.773 228.602L357.716 228.553L357.752 228.349L357.826 228.23L357.941 228.196L357.998 228.247L357.997 228.38L357.922 228.498ZM356.643 229.153L356.575 229.2L356.401 229.088L356.377 228.996L356.424 228.904L356.505 228.925L356.618 229.059L356.643 229.153ZM357.377 229.207L357.225 229.244L356.899 229.186L356.904 229.088L357.243 228.954L357.393 228.916L357.429 228.973L357.377 229.207ZM356.631 230.109L356.37 230.2L356.262 230.183L356.306 230.058L356.44 229.909L357.046 229.536L357.152 229.543L357.184 229.632L356.891 229.815L356.781 229.912L356.768 230.015L356.631 230.109ZM386.56 232.889V233.03L386.421 232.998L386.304 232.902L386.21 232.743L386.093 232.345L385.915 232.063L386.183 231.744L386.343 231.706L386.515 231.778L386.539 231.964L386.413 232.266L386.419 232.574L386.56 232.889ZM386.616 233.653L386.551 233.688L386.322 233.432L386.273 233.275L386.307 233.143L386.395 233.137L386.538 233.257L386.619 233.397L386.637 233.555L386.616 233.653ZM389.424 235.177L389.467 235.323L389.357 235.538L389.038 235.646L388.389 235.635L387.969 235.552L387.776 235.4L387.734 235.32L387.752 235.15L387.846 235.139L387.984 235.231L388.19 235.192L388.464 235.02L388.608 234.89L388.621 234.804L388.534 234.639L388.603 234.569L388.947 234.634L389.075 234.741L389.307 235.111L389.424 235.177ZM384.629 236.433L385.211 236.524L385.268 236.473L385.434 236.645L385.46 236.791L385.39 236.913L385.288 236.981L385.156 236.993L384.946 236.869L384.602 236.542L384.629 236.433ZM380.104 237.851L379.949 237.883L379.83 237.807L379.85 237.502L380.009 236.97L380.164 236.726L380.375 236.825L380.333 236.89L380.375 237.458L380.299 237.706L380.104 237.851ZM374.143 239.469L374.007 239.534L373.757 239.512L373.666 239.366L373.798 238.994L373.851 239.062L374.068 239.067L374.143 239.103L374.167 239.195L374.143 239.469ZM373.551 240.186L373.467 240.269L373.326 240.214L373.271 240.335L373.303 240.632L373.256 240.769L373.131 240.746L373.125 240.801L373.235 240.932L373.246 241.077L373.16 241.234L373.076 241.307L372.997 241.296L372.872 241.474L372.703 241.842L372.645 242.055L372.698 242.113L372.659 242.236L372.24 242.794L372.077 242.848L371.901 242.77L371.776 242.608L371.703 242.36L371.682 242.168L371.711 242.032L372.081 241.537L372.244 241.215L372.338 240.851L372.509 240.619L372.758 240.519L372.961 240.293L373.115 239.941L373.293 239.789L373.494 239.834L373.582 239.967L373.551 240.186ZM378.172 241.08L378.118 241.171L377.992 241.163L377.891 241.075L377.792 240.791L377.825 240.73L378.07 240.77L378.156 240.89L378.172 241.08ZM459.115 245.995L458.849 246.118L458.559 246.064L458.565 246.399L458.533 246.519L458.212 246.347L458.093 246.236L458.103 245.794L458.387 245.373L458.604 245.206L458.883 245.322L459.097 245.792L459.115 245.995ZM423.059 246.343L422.916 246.395L422.882 246.321L422.905 246.251L423.023 246.163H423.223L423.2 246.233L423.059 246.343ZM457.13 246.859L456.958 246.984L456.774 246.944L456.767 246.632L456.824 246.527L456.887 246.48L456.983 246.567L457.13 246.859ZM422.373 248.158L422.305 248.178L422.311 248.043L422.381 247.956L422.514 247.917L422.511 247.985L422.373 248.158ZM410.234 254.212L410.095 254.424L409.96 254.403L409.862 254.335L409.828 254.2L409.852 254.032L409.972 253.957L410.298 254.022L410.309 254.09L410.234 254.212ZM445.219 263.59L444.993 263.756L444.742 263.727L444.87 263.503L444.919 263.173L445.044 262.812L445.115 262.701L445.262 262.604L445.219 263.59ZM444.654 263.631L444.528 263.743L444.481 263.451L444.57 263.113L444.659 263.107L444.705 263.285L444.654 263.631ZM448.545 264.289L447.292 264.585L447.093 264.395L447.406 264.306L447.8 263.853L448.062 263.801L448.474 264.057L448.545 264.289ZM450.966 264.959L450.616 265.057L449.805 264.834L450.472 264.646L450.58 264.58L450.668 264.302L450.679 264.163L450.932 264.76L450.966 264.959ZM439.447 266.643L439.124 267.031L439.416 267.07L439.667 266.956L439.904 266.726L440.457 266.414L440.929 266.278L441.076 266.249L441.302 266.468L441.747 266.293L442.206 266.194L440.223 267.194L439.818 267.306L439.238 267.605L438.69 267.816L438.296 267.892L436.332 268.632L436.177 268.648L436.008 268.576L434.39 268.956L433.727 268.998L433.122 269.131L433.57 268.825L433.579 268.709L433.472 268.62L433.234 268.646L432.989 268.961L432.599 269.066L432.521 268.724L432.652 268.458L432.829 268.205L433.216 267.808L433.772 267.556L434.054 267.339L434.251 267.53L434.293 267.271L434.444 267.121L434.607 267.04L435 267.039L435.212 266.998L435.364 266.912L435.522 266.896L435.953 267.014L436.373 266.98L436.712 266.818L437.065 266.763L437.997 266.727L438.923 266.609L439.294 266.398L440.073 265.804L440.52 265.639L439.823 266.328L439.447 266.643ZM431.811 269.415L431.593 269.439L431.811 268.867L432.209 268.604L432.354 268.659L432.359 268.862L432.303 269.034L432.036 269.301L431.811 269.415ZM432.06 274.408L431.527 275.298L431.515 275.128L432.182 274.021L432.06 274.408ZM426.6 284.832L426.392 284.926L427.086 283.775L427.49 282.806L427.67 282.471L427.495 283.149L427.19 283.771L426.6 284.832ZM425.223 296.349L425.155 296.462L424.852 295.844L425.163 296.044L425.218 296.211L425.223 296.349ZM425.64 299.779L425.03 299.93L424.977 299.881L425.676 299.565L425.896 298.449L425.927 297.933L425.823 297.022L425.826 296.833L425.94 297.127L426.04 297.977L426.003 298.619L425.8 299.555L425.64 299.779ZM424.559 300.056L423.732 300.452L423.638 300.428L424.181 300.146L424.559 300.056ZM421.274 303.08L421.16 303.143L421.577 302.455L422.399 301.581L422.621 301.446L421.937 302.193L421.274 303.08ZM421.081 303.015L420.979 303.028L420.8 302.968L420.554 302.851L420.499 302.765L420.734 302.796L421.081 303.015ZM223.895 306.173L224.821 306.454L225.32 306.319L225.411 306.454L225.352 306.572L224.227 306.783L223.882 306.635L223.851 306.433L223.734 306.238L223.895 306.173ZM221.966 306.472L221.724 306.486L221.351 306.428L221.482 306.3L221.688 306.207L221.755 306.277L221.966 306.472ZM223.162 307.052L222.843 307.128L222.601 307.057L222.215 306.535L223.034 306.465L223.388 306.692L223.435 306.755L223.162 307.052ZM230.878 309.954L231.108 310.353L230.777 310.304L230.432 310.327L230.327 310.11L230.224 309.806L230.155 309.73L229.918 309.703L229.9 309.675L229.873 309.527L229.939 309.458L230.682 309.795L230.878 309.954ZM225.917 310.867L225.714 310.877L225.435 310.827L225.293 310.535L225.521 310.515L225.732 310.556L225.899 310.784L225.917 310.867ZM230.867 312.973L230.601 313.021L230.307 312.911L230.054 312.39L229.775 311.983L229.926 311.866L230.152 312.259L230.717 312.856L230.867 312.973ZM398.908 322.877L398.705 324.163L398.618 323.707L398.61 323.266L398.762 323.003L398.908 322.877ZM368.639 326.662L368.238 326.774L367.645 326.763L367.525 326.724L367.762 326.649L368.465 326.549L368.639 326.662ZM366.426 326.854L366.367 326.912L365.964 326.803L365.719 326.701L365.675 326.599L366.351 326.782L366.426 326.854ZM363.394 327.543L363.41 327.786L363.186 327.665L362.856 327.653L363.001 327.571L363.104 327.49L363.155 327.402L363.572 327.099L363.454 327.321L363.394 327.543ZM365.198 328.988L365.07 329.155L365.197 328.359L365.02 327.687L365.206 327.983L365.268 328.333L365.198 328.988ZM364.918 329.485L364.671 329.757L364.683 329.653L364.864 329.381L364.994 329.274L364.918 329.485ZM383.034 329.85L382.577 330.038L382.082 329.902L382.389 329.876L382.611 329.931L383.174 329.661L383.469 329.459L383.809 329.382L383.034 329.85ZM351.703 330.588L351.534 330.662L350.782 330.211L350.735 330.018L351.106 329.843L351.333 329.859L351.691 330.09L351.823 330.153L351.884 330.245L351.85 330.39L351.703 330.588ZM336.933 332.432L336.706 332.482L337.698 331.684L337.906 331.418L338.171 331.429L337.729 331.875L336.933 332.432ZM329.084 337.557L328.917 337.578L329.125 337.301L329.462 337.162L330.201 336.628L330.503 336.591L330.66 336.407L330.728 336.38L330.684 336.605L330.091 336.926L329.084 337.557ZM327.948 338.845L327.849 338.858L328.069 338.438L328.11 338.269L328.471 337.737L328.663 337.658L328.742 337.885L328.371 338.258L327.948 338.845ZM404.515 342.029L404.589 342.404L404.171 341.533L403.654 340.166L403.378 339.106L403.564 339.394L403.748 339.986L404.515 342.029ZM326.404 341.919L326.261 342.213L326.3 341.776L326.67 340.782L327.421 339.473L327.737 339.254L326.871 340.69L326.404 341.919ZM327.236 347.701L327.173 347.937L326.796 346.842L326.184 344.357L326.161 342.936L326.258 342.446L326.415 344.454L327.093 346.993L327.236 347.701ZM395.884 345.716L395.878 346.013L395.648 345.515L395.495 344.964L395.714 345.142L395.884 345.716ZM396.095 346.216L395.933 346.349L395.604 346.251L395.426 346.078L395.348 345.739L395.633 346.099L395.735 346.18L396.095 346.216ZM403.628 352.811L402.723 353.75L402.824 353.515L403.177 353.012L403.29 352.775L403.529 352.626L403.751 352.355L403.767 352.037L404.09 351.815L404.195 351.782L403.628 352.811ZM402.46 354.005L402.339 354.029L402.519 353.817L402.569 353.833L402.46 354.005ZM401.591 354.501H401.505L401.548 354.43L401.728 354.288L401.792 354.344L401.786 354.415L401.591 354.501ZM400.614 354.934L400.406 355.052L400.191 354.965L400.427 354.846L401.133 354.72L400.867 354.877L400.614 354.934ZM399.292 355.265L399.156 355.367L399.091 355.335V355.185L398.897 354.855L398.903 354.769L399.347 355.091L399.359 355.179L399.292 355.265ZM398.237 355.516L397.942 355.565L398.18 355.369L398.256 355.07L398.396 355.302L398.394 355.443L398.237 355.516ZM397.248 355.792L397.133 355.803L397.123 355.727L397.323 355.633L397.455 355.64L397.451 355.743L397.248 355.792ZM44.2093 368.661L43.8088 368.935L43.5754 368.817L43.1344 368.773L42.9641 368.567L42.5021 368.381L42.3156 368.128L42.5993 367.647L43.2706 367.242L44.3049 367.26L44.5206 367.579L44.54 367.818L44.4055 368.085L44.3438 368.462L44.2093 368.661ZM40.5354 369.106L40.443 369.321L40.2858 369.287L40.2469 369.096L40.349 368.831L40.6084 368.603L40.897 368.256L41.1337 368.308L41.0056 368.536L40.991 368.783L40.657 368.922L40.5354 369.106ZM51.3689 370.979L51.5245 371.007L51.7256 370.973L51.7953 371.36L52.0287 371.574L52.1147 371.702L51.8618 371.837L51.3705 371.891L51.1403 371.784L50.902 371.542L50.6442 371.608L50.5988 371.414L50.5534 371.357L50.3767 371.409L50.542 371.66L50.0945 371.68L49.9535 371.649L49.8287 371.365L49.3682 370.82L49.3698 370.608L49.2126 370.355L49.8951 370.282L50.3621 369.836L50.6263 369.788L51.1322 370.509L51.1192 370.71L51.2311 370.908L51.3689 370.979ZM54.0327 372.15L54.9941 372.283L55.2211 372.226L55.3816 372.335L56.1776 372.403L56.3138 372.444L56.1517 372.694L55.6426 372.922L54.9098 372.721L53.6841 372.65L53.7343 372.457L53.8511 372.32L53.8689 372.082L54.0327 372.15ZM57.3401 373.522L57.4584 373.608L57.9432 373.479L58.2934 373.432L58.8803 373.751L59.0846 373.97L59.4705 374.204L59.6018 374.372L59.4948 374.577L59.0684 374.914L58.488 374.992L58.1459 375.136L57.6968 375.105L57.5622 375.044L57.5136 374.616L57.3709 374.157L57.0807 374.21L56.7548 374.056L56.4176 373.67L56.3803 373.44L56.5667 373.073L56.8926 373.026L57.1342 373.229L57.3401 373.522ZM55.6896 374.298L55.4205 374.434L55.127 374.371L55.0589 374.04L54.7768 373.62L55.2729 373.534L55.5518 373.655L55.6977 373.787L55.8744 374.012L55.6896 374.298ZM61.4614 382.769L61.2604 383L61.0091 382.982L60.0963 382.489L59.986 382.224L60.0541 380.993L59.712 379.994L59.3359 379.229L59.6099 378.836L59.9714 378.531L60.3751 377.957L60.0444 377.219L60.1287 376.773L60.3233 376.697L61.2766 377.238L63.2027 378.053L63.715 378.625L63.8058 379.238L64.156 379.316L64.323 379.736L64.8288 380.104L64.9974 380.314L64.7883 380.651L63.8641 381.298L62.6984 381.581L61.6722 382.304L61.4614 382.769Z" fill="white"/>
</svg>
