<svg width="46" height="43" viewBox="0 0 46 43" fill="none" xmlns="http://www.w3.org/2000/svg">
<path d="M24.9636 2.98226L25.1455 3.07655L26.4224 3.17892L27.7171 3.28134L29.7981 3.39348L31.9668 3.50721L34.2183 3.62912L36.6534 3.75753L39.2217 3.83391L39.3793 3.78188L39.6409 3.47799L39.9609 3.51861L40.3394 3.70713L40.5148 3.8469L40.5896 4.0078L40.6367 4.19309L40.843 4.2288L41.2215 4.37021L41.7316 4.69041L42.1312 5.00079L42.5129 5.44286L42.6396 5.94345L42.6462 6.51065L42.6218 6.8747L42.6543 7.0226L43.1757 9.64404L44.0432 12.1517L44.3616 13.3577L44.4883 13.998L44.5907 14.9244L44.6215 15.5745L44.6183 15.9385L44.5533 16.4391L44.2966 16.7349L42.6315 17.58L42.318 17.8433L41.8274 18.4999L41.3742 19.1743L41.2702 19.4051L41.2426 19.5562L41.3433 19.7773L41.9362 20.1365L42.534 20.4257L42.7291 20.6419L43.1709 20.9182L43.3317 21.1669L43.4194 21.3814L43.4129 21.8803L43.2147 22.5678L43.2976 23.0863L43.0945 23.4324L42.9288 23.8159L42.9044 24.4856L43.2034 25.2234L43.4487 25.7272L43.5429 26.1221L43.4437 26.4309L43.473 26.7397L43.6923 27.068L44.3811 28.0757L44.7206 29.0427L44.9383 29.4197L45.4402 29.9073L45.4857 30.1072L45.2844 30.2908L45.1219 30.3152L44.9903 30.364L44.9058 30.5346L45.0374 30.7183L45.2145 30.9864L45.4354 31.7454L45.4143 32.3663L45.2437 32.5239L45.026 32.8912L44.8798 33.2276L43.689 33.46L43.4032 33.8192L42.7518 34.5099L42.3083 34.9081L41.6504 35.6248L40.6107 36.8535L40.2273 37.367L39.9463 37.7912L39.1048 38.9159L38.8465 39.3872L38.8969 39.774L39.1681 40.6825L39.225 41.092L39.1763 41.4691L39.0869 41.8055L39.1031 41.955L39.3517 42.1988L39.7464 42.5808L39.7692 42.7091L39.714 42.8749L39.5775 43.0001L39.082 42.8668L38.5297 42.6084L38.3412 42.6409L38.0424 42.5791L36.8093 42.0802L35.9777 41.6885L35.8948 41.4333L35.7388 41.0644L35.3846 40.754L34.5724 40.4859L34.2427 40.2762L32.9236 40.1592L32.3518 40.1543L31.9473 40.2404L31.6873 40.2323L31.3315 40.78L31.0862 40.9393L30.7273 40.9555L30.4121 40.858L30.0905 40.5704L29.5772 40.4176L29.2051 40.4907L28.9306 40.429L28.695 40.4127L28.6122 40.4712L28.4221 40.4631L28.1476 40.6012L27.8454 40.7946L27.514 40.9441L27.2573 41.2627L27.03 41.8852L26.385 41.6056L26.1705 41.7275L25.8651 41.8088L25.6572 41.7243L25.706 41.5097L25.8002 41.2676L25.7953 40.9295L25.7368 40.5541L25.5371 40.4322L25.2365 40.3883L25.0821 40.3136L25.0659 40.1901L24.9116 40.0308L24.6452 39.6277L24.395 39.1239L24.2212 38.976L23.9694 39.2149L23.5876 39.4863L23.3488 39.5806L22.8891 40.3607L22.0639 40.3867L22.0135 40.0227L21.9258 39.6716L21.4433 39.5855L21.4287 39.3791L21.328 38.8623L20.3598 37.8497L20.2428 37.4272L20.2802 37.263L20.2135 36.9932L20.0023 36.8307L19.2372 36.6373L19.0407 36.7478L18.8636 36.6341L18.5842 36.3903L18.1017 36.192L18.0481 36.0896L17.8743 35.9141L17.7785 35.8914L17.7151 35.997L17.5754 36.1465L17.0783 36.3367L16.8801 36.2586L16.6998 36.0945L16.4935 35.7386L16.1945 35.4265L15.9492 35.316L15.808 35.1519L15.7771 35.0251L16.3229 34.7683L16.4431 34.5034L16.3733 34.0207L16.292 33.9606L16.0744 34.1231L15.6179 34.2661L15.1988 34.3328H14.9827L13.7822 33.4535L13.0025 33.1837L12.5427 33.1057L12.494 33.1951L12.7003 33.6892L13.061 34.2986L13.043 34.4595L12.6126 34.7082L12.3689 34.8171L12.0814 35.0267L11.8376 35.3193L11.6265 35.4509L11.4445 35.4168L11.2513 35.277L10.7541 34.3783L10.1287 33.6892L10.054 33.5348L9.85909 33.499L9.58285 33.3398L9.48866 33.1285L9.62836 32.9075L9.81843 32.7059L10.1563 32.5808L10.2587 32.4621L10.3188 32.285L10.4439 32.0558L10.4114 31.9746L10.1726 31.7145L9.81843 31.4691L8.83396 31.6528L8.56437 31.7844L8.41168 31.6138L8.29627 31.3651L8.04779 31.3164L7.70662 31.0888L7.30208 30.8645L6.90736 30.7995L6.08698 30.4761L5.7702 30.4582L5.58825 30.3477L5.39659 30.1023L5.23409 29.8341L5.14961 29.2881L4.54538 29.041L3.94264 28.885L3.9004 28.9646L3.92638 29.514L3.89396 29.8082L3.49597 29.9885L3.10283 30.0064L3.12395 29.9154L3.59502 28.9257L3.80621 28.2999L4.04824 27.1574L3.75743 26.2522L3.67791 25.8263L3.54306 25.6232L2.71614 25.1795L2.65279 25.0268L2.7795 24.4254L2.71783 24.1719L2.51794 23.9037L2.25648 23.3707L2.15574 22.9172L2.48869 22.3842L2.57158 21.9909L2.71614 21.4529L2.82343 21.1571L2.84454 21.0759L2.62522 20.8662L2.57 20.5704L2.6284 20.1446L2.5115 19.8277L2.2191 19.6229L2.02903 19.3499L1.94128 19.0118L2.00949 18.4787L2.23695 17.7523L1.75606 16.8746L0.568631 15.8459L0 15.1259L0.0455103 14.7131L0.295668 14.3393L0.748888 14.0045L1.09334 13.4081L1.28658 12.6978L1.29144 12.563L1.30285 12.0559L0.774866 9.97237L0.688802 9.44902L0.625445 8.81521L0.592923 8.6429L1.63589 9.08661L2.07285 9.33688L2.01763 9.05571L1.92988 8.81357L1.98838 8.45929L1.95913 7.92294L1.01203 7.64827L0.386689 7.55567L0.316788 7.18185L0.375287 6.93967L0.549099 7.08271L1.16314 7.13796L2.67559 6.41473L5.28614 5.47048L8.07536 4.58477L8.72678 4.48726L9.37979 4.30032L9.62192 3.96718L9.86394 3.74453L10.2424 3.1562L11.0823 2.23954L12.5671 1.90475L13.1226 1.46918L14.2842 0.85814L16.9321 0.170666L18.0399 0.0179048L19.1236 0L20.0885 0.542847L21.1103 1.21242L21.2939 1.61386L20.7415 1.36354L19.9358 0.763855L19.6369 0.737866L20.3257 2.55974L20.7025 3.20332L21.4611 3.68115L22.0996 3.84363L24.0653 3.55274L24.7621 3.17242L24.9636 2.98226Z" fill="white"/>
</svg>
