<svg width="60" height="137" viewBox="0 0 60 137" fill="none" xmlns="http://www.w3.org/2000/svg">
<path d="M59.5958 38.5858L58.3815 38.8438L57.4693 38.3262L57.0138 38.5858L56.219 38.5972L55.3149 38.8013L55.0097 39.2046L54.7698 39.3663L53.9325 38.7964L53.141 37.851L52.5633 38.5711L52.1895 38.7066L51.8517 38.0551L51.558 37.949L51.3996 38.1662L51.2609 38.7425L51.039 39.1948L50.9802 39.4805L50.9427 40.63L50.8856 40.8962L50.1169 40.7476L50.1625 41.0496L50.3307 41.2015L50.3992 41.3925L50.1201 41.6424L49.3579 41.6179L49.2796 41.884L49.4934 42.302L49.3253 42.6694L49.1703 42.813L48.2579 43.04L47.7308 42.9878L47.5791 43.2245L47.5382 43.5315L47.6377 43.8335L47.8711 43.9936L47.9478 44.1846L47.9315 44.5977L47.7373 44.6728L47.189 43.9462L47.0208 43.9838L47.1466 44.3609L47.4599 44.7724L47.641 45.192L47.7993 45.6949L47.7683 46.077L47.0862 47.3048L46.4855 48.0771L46.0384 48.7711L45.774 49.5058L46.0808 49.8748L46.4203 50.4071L46.6601 51.4276L46.9458 52.3354L47.5219 53.1992L47.406 53.6971L47.2722 54.0841L46.3142 54.9348L45.2272 56.2116L44.0554 59.4511L43.6654 59.8837L42.6405 60.4275L42.2635 60.9532L41.4996 61.5769L40.1662 62.1125L39.5624 62.857L39.2898 63.6244L38.9863 63.6799L38.6844 63.3795L38.2829 63.1558L38.2307 63.6571L38.2486 64.0245L37.6056 63.4808L37.302 63.9804L37.0654 64.8115L36.14 65.9283L35.1428 65.7274L35.0318 65.9234L35.2963 66.0654L35.337 66.2434L35.1559 66.3381L34.8817 66.3283L34.459 66.5487L34.1815 66.5324L34.0493 67.0582L33.8339 67.6933L33.2709 67.9562L32.9804 68.0101L32.8368 68.3709L33.7034 68.446L33.6349 68.7514L33.6152 69.0567L33.5255 69.3833L32.5397 69.8535L32.3879 70.2225L32.1823 70.4511L31.7433 70.438L31.7596 70.2258L31.8314 69.9857L31.1786 70.007L30.9746 69.4763L30.8506 69.6118L30.924 70.0396L31.0937 70.4837L31.2847 71.1352L31.1296 71.545L30.9583 71.7491L31.0839 71.9369L31.4315 72.0806L31.5719 72.3369L31.159 72.5557L30.6433 73.3068L30.108 73.3248L29.7816 73.8211L29.4339 73.8195L29.1516 73.5076L28.6995 73.2513L28.5542 73.7019L28.5314 74.0612L28.786 74.9673L29.2723 75.6662L29.7228 75.9682L29.398 76.1723L29.1565 76.623L28.8643 78.0272L28.706 78.579L28.5347 79.5489L28.6424 80.3653L28.7305 80.7653L28.9509 81.309L28.3519 81.2388L27.7187 80.9221L27.8067 81.5801L27.4184 82.3573L27.4902 83.0398L27.5718 83.4823L27.451 84.2154L27.6338 84.4456L27.7333 84.8816L27.5685 85.2032L27.6403 85.4792L27.6681 86.4539L27.7921 87.974L27.7464 88.2941L28.094 89.6068L28.014 90.0656L27.9667 90.6485L28.4662 91.2086L28.91 91.2004L29.3605 91.1923L29.5318 91.331L29.7049 91.7262L29.8436 92.1931L30.2141 92.1556L30.8065 91.7768L31.1917 91.687L31.4463 92.4152L32.1383 93.3753L32.5413 93.8047L33.2252 94.0317L33.9465 94.8023L33.8453 95.7297L34.1457 96.0383L34.996 96.4024L35.2979 96.8939L35.4431 97.3119L35.6667 97.658L35.9295 98.7014L35.8381 99.3431L35.4953 99.5635L34.6843 100.249L34.3236 100.76L34.0412 101.077L33.2366 101.758L32.9412 101.88L32.6589 102.233L32.3863 102.388L32.1415 102.3L31.2275 102.938L30.6106 102.762L30.3511 102.447L30.516 101.193L30.4132 100.788L30.2941 100.584L29.8892 100.817L29.9611 101.298L29.261 101.317L28.6015 100.911L28.5167 101.711L27.1001 101.048L26.71 101.216L26.0849 100.883L25.6786 101.281L25.1955 101.138L24.8609 100.664L24.3974 101.497L23.3856 101.733L22.4341 101.866L22.8927 102.143L25.0274 102.091L25.6313 102.297L26.4163 102.16L27.1116 102.813L27.6126 102.969L28.205 103.719L28.5085 103.515L28.9852 103.546L29.4257 103.76L30.8244 103.732L31.2993 103.21L31.9995 103.324L32.3569 103.188L32.6311 102.868L32.9314 102.795L33.2039 102.855L33.4945 102.602L33.7229 102.501L33.958 102.623L34.2207 103.229L33.6756 103.543L33.2888 103.557L33.0995 104.547L32.8661 104.971L32.698 105.175L31.8412 105.595L31.2748 106.126L30.6073 106.552L30.3169 106.459L29.8779 106.891L28.9035 107.402L28.4025 108.091L27.2813 108.705L26.71 109.205L25.158 109.231L23.676 109.122L23.2109 109.359L23.6875 109.432L24.0204 109.664L24.4203 109.566L25.3604 109.682L25.8434 109.809L26.4636 110.622L26.0082 110.91L25.2183 111.132L25.5154 112.278L25.7585 113.049L25.4387 113.512L25.4142 115.614L24.9654 115.653L24.7744 116.518L24.9148 116.959L24.9033 117.98L24.9964 118.607L25.2167 119.183L25.1188 119.782L24.4089 121.181L24.4235 121.836L24.5525 122.225L24.6471 122.844L24.324 124.031L24.0972 125.019L23.8262 125.848L23.2207 126.839L22.9188 127.579L22.2137 129.876L21.8645 130.33L21.4352 130.678L20.9571 130.356L20.518 130.181L19.9827 130.203L19.1439 130.467L17.8823 130.291L16.6501 130.376L16.3384 130.603L16.5261 131.43L16.0707 131.538L15.6269 131.303L15.2351 131.584L14.9088 131.891L14.2674 132.619L14.0519 133.066L13.9964 133.907L14.3342 134.66L14.6329 135.54L13.8642 136.597L13.435 136.632L12.1816 136.339L9.96032 137L7.96599 136.477L8.21571 135.911L8.20755 135.494L8.32011 134.853L8.38705 134.195L8.36912 133.754L8.22219 133.282L7.731 132.665L6.62282 130.573L6.29479 129.687L6.06628 129.316L6.23114 129.296L7.14508 129.773L7.35726 129.714L7.58084 129.536L7.3083 128.852L7.07326 128.544L6.91498 128.08L7.44865 127.954L7.83545 127.982L8.11939 127.459L7.95458 126.612L7.54005 126.351L7.19404 126.237L6.52978 124.898L5.83782 124.202L4.60233 121.506L4.15029 119.642L3.73083 119.82L3.52682 119.005L3.37994 118.229L3.35056 117.66L2.69122 117.333L2.66512 116.931L2.54599 115.135L1.83929 114.894L1.38232 113.881L1.30074 111.956L0.835597 111.605L0.461852 111.703L0.479782 111.225L0.569583 110.774L0.350884 108.981L0.27742 107.337L0.101156 106.838L0 106.253L0.0897506 105.747L0.22358 105.455L0.678907 105.378L1.1049 105.825L1.48188 106.952L1.81483 107.099L2.26852 106.805L2.58678 105.984L2.76792 104.748L2.9801 103.564L2.72878 102.294L2.46112 101.173L2.44149 100.844L3.14496 99.8933L3.36037 99.1194L3.59376 98.3797L3.85161 98.1283L4.23352 98.0711L4.67903 97.9323L5.2405 97.436L5.74478 96.7698L6.12994 96.1575L6.26053 94.9427L6.26541 94.3305L6.43515 93.8749L6.59836 92.9834L6.43838 92.1017L5.94062 90.7596L5.34165 88.8606L5.24862 87.8189L5.52121 87.6246L6.04183 87.4516L7.02918 87.4009L7.13363 87.2785L7.23319 86.8197L7.45682 86.1976L7.69345 85.7437L7.85666 85.0922L7.93501 84.5011L7.37031 83.608L6.63098 82.6904L6.12994 82.3851L5.23885 81.6111L4.61214 80.9629L4.9712 78.4795L5.23885 76.6164L5.28129 76.1625L5.29105 75.4572L4.42607 72.4284L4.46039 71.7508L4.54197 71.1385L4.44893 70.0919L4.39833 69.153L4.54685 68.8673L4.89938 68.335L4.56154 67.5088L4.5338 67.4402L3.89733 65.3862L4.86999 63.3371L4.70025 62.2709L5.27965 61.4953L6.33723 59.7123L6.93127 58.7033L7.05693 58.5269L7.527 58.0828L8.41972 57.5554L9.40877 57.2974L9.84935 57.3007L11.5499 57.6583L12.8769 57.9358L13.071 57.6566L13.3485 57.0835L13.7059 56.2655L13.7369 55.3528L13.608 54.0074L13.4138 53.1992L12.4802 52.6718L11.4569 51.9484L12.7153 49.6446L13.5868 48.0347L14.6737 45.5969L15.0116 44.5765L15.2563 44.1699L15.5763 40.3655L15.7884 39.2928L15.9662 38.7295L15.9679 38.1515L15.8521 37.1734L15.5469 34.9529L17.2638 34.6769L17.8219 34.5202L18.3409 34.254L19.356 33.5617L19.8538 32.9478L19.5764 30.8448L20.19 30.1296L21.6883 27.625L23.3073 25.2068L24.0661 24.2859L24.1445 23.8353L24.2065 23.1087L23.8687 21.9625L23.5064 21.2506L22.7996 19.897L23.1033 18.9484L23.6238 18.7639L24.311 18.39L24.8479 17.5752L24.9001 17.4707L25.8075 14.2443L27.5783 12.5952L28.285 11.6923L29.385 12.3715L30.9974 13.3937L31.7139 11.8899L31.9505 11.3298L32.1872 10.5037L32.0926 9.0668L32.0517 7.19074L32.1235 6.43315L32.7665 6.09516L33.1126 6.00861L34.9045 6.78907L35.355 6.77602L36.2004 6.88051L37.1454 7.22176L39.125 8.12958L39.9427 8.50349L40.3996 8.57535L40.7946 8.1541L41.6384 7.06829L40.3964 6.26169L41.214 5.44368L41.6384 4.61586L42.0023 3.59537L42.1346 2.39692L42.084 1.75032L41.8325 1.30785L41.0737 0.204097L42.7922 0.0457176L43.3879 0L44.6381 0.728217L44.6936 0.886597L44.7018 1.26539L44.7458 1.65727L45.9584 2.64836L46.3076 3.17248L47.0535 3.96602L47.2509 4.3938L47.9414 4.89342L48.4358 5.42734L49.0136 5.8584L49.6877 6.52785L50.5934 7.06011L51.3572 7.23319L53.2831 8.14266L53.6111 8.43655L54.1659 9.06845L54.7273 9.79667L55.1158 11.289L55.7376 11.3658L55.9073 11.8768L56.4508 12.7503L57.2048 13.5194L57.1771 13.7774L56.5765 14.4827L56.5112 15.4363L56.5684 16.6494L56.7576 17.6356L56.7381 17.923L56.5896 18.2626L56.4117 18.7933L56.3463 19.2553L56.3627 19.4807L56.423 19.6047L56.7397 19.6146L57.306 19.724L57.639 19.9281L57.8283 21.0498L57.7646 21.2653L57.2881 21.7715L57.1477 22.1731L57.1347 22.7609L57.2195 23.4075L57.3844 24.1275L57.7581 24.8966L58.2641 25.6983L58.597 26.3546L58.7537 26.8151L58.8107 27.1384L58.5839 27.5433L58.3799 28.3418L58.3424 29.2528L58.2493 29.8455L57.8055 30.6603L57.497 30.9477L57.4088 31.3755L57.3713 32.0922L57.4627 32.9641L57.4937 33.5519L57.5884 33.9748L57.7288 34.2508L58.4419 34.7357L58.8418 35.7284L59.0914 36.5236L59.5958 38.5858ZM34.1277 101.931L34.0135 102.23L33.8975 101.864L33.9433 101.792L34.0216 101.431L34.2436 101.234L34.5977 101.353L34.5961 101.443L34.2566 101.735L34.1277 101.931ZM33.3067 105.879L33.1027 105.964L33.0016 105.938L33.1272 105.525L33.2203 105.347L33.5288 105.18L33.6234 105.21L33.3067 105.879ZM36.6981 115.558L36.615 116.095L36.3767 116.055L36.1596 115.658L36.5986 115.052L37.2694 115.085L37.4995 115.212L36.6981 115.558ZM36.331 116.304L35.9523 116.508L35.7304 117.114L35.4236 117.217L35.1297 117.418L35.0253 119.322L35.5623 120.042L35.2669 120.143L34.9975 120.359L34.805 120.677L34.6076 121.361L33.8682 121.748L33.5891 122.034L33.1762 122.669L32.9608 123.588L32.543 123.98L32.0729 124.073L32.3472 123.322L32.7079 122.708L32.3618 122.285L32.1529 121.624L31.882 121.115L32.0974 120.545L31.9914 119.611L32.0256 118.695L32.339 118.233L32.698 117.856L33.2562 116.985L33.8617 116.352L34.7071 116.068L35.089 116.331L35.2539 115.754L35.5264 115.622L35.7826 115.756L36.331 116.304ZM24.6618 129.306L24.4252 129.721L24.2163 129.692L24.0776 129.138L24.0449 127.711L24.1282 127.002L25.127 124.436L25.5725 124.225L26.1992 122.641L26.3689 121.933L26.6415 121.294L26.8015 120.721L26.9369 120.489L27.229 120.597L27.3596 120.703L27.0512 121.036L27.087 121.469L27.0658 121.647L26.2874 123.523L26.0801 124.734L25.8042 125.03L24.6618 129.306Z" fill="white"/>
</svg>
