<svg width="179" height="187" viewBox="0 0 179 187" fill="none" xmlns="http://www.w3.org/2000/svg">
<path d="M79.981 15.0871L80.1177 15.1311L80.4236 15.1685L81.1494 15.3427L82.0965 15.5397L82.3553 15.4713L82.5098 15.3329L82.5456 14.9276L82.5749 14.641L82.3618 14.3886L82.0965 14.1021L81.8524 13.7456L81.5595 13.643L81.5969 13.4591L81.7873 13.2686L81.9826 13.1644L82.0949 13.0357L82.2185 12.5604L82.2999 12.4757L82.3829 12.4545L82.4806 12.4724L82.6742 12.5962L83.4195 12.9739L83.7466 12.9169L84.9964 12.8176L85.1851 12.5994L85.4504 12.5506L85.8995 12.3324L86.0769 12.3178L86.2364 12.3699L86.4366 12.3292L86.7311 12.1257L86.8548 12.1045L86.9019 12.3292L87.0923 12.562L87.3234 12.7753L87.4341 12.8241L87.8214 12.7557L88.0248 12.8159L88.1127 13.0146L88.1387 13.1872L88.3015 13.3337L88.5097 13.3369L88.6204 13.3972L88.8108 13.4916L88.9719 13.7081L89.3462 13.8807L89.9857 14.1216L90.2835 14.1249L90.5602 14.1982L90.7294 14.2714L90.9133 14.1363L91.5675 13.7635L91.8865 13.5551L92.1012 13.3972L92.2623 13.2474L92.3828 13.2084L92.4641 13.2979L92.5341 13.4184L92.7684 13.4884L93.3152 13.6284L93.5658 13.6674L93.9173 13.5486L94.2184 13.3451L94.3616 13.2751L94.5845 13.4786L94.7375 13.7635L94.84 13.8889L95.0662 13.8596L95.5137 13.9035L95.844 13.9947L96.0491 13.9866L96.329 13.8596L96.4804 13.6088L96.8774 13.3793L97.2549 13.1676L97.4714 12.886L97.792 12.4171L97.8993 12.2169L97.9221 11.8782L98.3729 10.8949L98.5438 10.7142L98.6447 10.4032L98.8253 10.0434V9.74219L98.9571 9.4508L99.2159 9.20009L99.4063 9.04215L99.7122 8.61889L99.9254 8.21997L100.458 7.33595L100.498 7.08524L100.71 6.93544L100.78 6.745L101.006 6.50891L101.244 6.32334L101.346 6.04819L101.52 5.7633L101.901 5.55L102.043 5.45233L102.475 4.66762L102.524 4.31759L102.915 4.30453L103.528 4.70995L104.018 5.3074L104.674 7.22689L104.783 8.99981L105.048 9.92781L105.811 11.8619L105.86 12.2201L105.982 12.6532L106.223 13.1123L106.49 13.8677L106.5 14.0077L106.327 14.2128L106.581 14.2275L106.811 14.3496L106.96 14.8282L107.151 15.1522L107.496 15.595L108.202 15.74L108.736 15.7937L109.343 16.0444L109.789 16.3651L110.134 17.4543L110.021 18.138L110.055 18.6199L109.876 18.8088L109.377 19.1246L109.268 19.2924L108.247 20.1064L108.025 20.4906L107.478 21.0067L106.936 21.99L106.143 22.8887L105.863 23.1166L105.435 23.1687L105.175 23.3071L104.56 24.0414L103.733 24.2856L103.657 24.7105L103.18 25.6808L102.759 26.2116L102.49 26.3906L101.815 27.3577L101.728 27.781L101.732 28.5217L101.281 28.9727L100.812 29.2592L100.754 29.8925L100.542 30.1091L100.361 30.2491L99.4079 30.083L97.9271 30.7717L97.421 30.9426L99.0369 30.9769L99.556 31.3431L100.693 31.1006L102.07 30.2279L102.596 30.0439L103.663 29.4514L104.098 29.0557L104.889 28.582L105.058 28.3736L105.501 28.1522L105.741 28.4338L105.761 28.6113L105.396 28.958L105.491 29.1811L105.73 29.4611L105.816 29.8486L105.849 30.1433L105.997 30.6594L106.487 31.3578L106.503 31.589L106.435 31.8934L106.669 32.1441L106.911 32.2923L107.745 33.0445L108.396 32.6244L108.798 32.5023L109.053 32.3265L109.59 32.2093L110.029 32.3851L110.867 32.6374L111.481 32.3688L112.721 31.7534L112.334 32.8426L112.052 33.8422L111.839 34.246L111.627 35.3335L111.419 35.6249L111.25 35.957L111.527 35.8414L111.764 35.6835L112.068 35.2651L112.296 34.5374L113.195 32.5951L113.452 32.4226L114.199 32.2011L115.484 30.6479L115.987 30.6529L116.309 31.0094L116.613 31.221L116.692 30.7961L117.131 30.6235L116.667 30.4135L116.592 30.223L116.548 29.9056L116.864 29.4757L116.675 29.0948L117.33 28.6162L117.279 28.2564L117.513 27.96L117.81 27.654L118.145 27.5058L118.207 27.2437L118.418 27.1363L118.584 27.0972L118.911 27.3903L119.266 27.0451L119.611 26.91L119.766 26.9702L119.959 27.1233L120.163 27.1883L120.327 27.1607L120.755 26.9393L121.15 27.2958L121.388 27.374L121.323 27.1737L121.198 26.9881L121.295 26.8367L121.482 26.7423L122.075 26.8269L122.386 26.9865L122.722 27.2812L123.19 27.3023L123.557 27.2714L123.788 27.4375L124.164 27.4358L124.353 27.6947L124.926 28.0577L125.05 28.3036L125.51 28.4224L125.943 28.5738L126.403 28.6145L126.869 28.5787L126.888 28.8897L127.228 28.9743L127.666 28.906L127.997 29.2885L128.88 29.5767L129.492 30.0179L129.894 29.9397L130.343 30.057L130.825 31.0159L130.934 31.6964L131.149 31.602L131.349 31.2976L131.606 30.7408L132.089 30.5568L132.32 30.7701L132.804 31.1119L133.22 31.4864L133.396 31.7274L133.71 31.7664L133.448 32.0627L133.712 32.0318L134.029 31.8218L134.301 32.2581L134.506 32.7335L134.547 33.217L134.353 33.4938L134.184 33.668L133.995 34.0099L133.772 34.0717L133.549 34.1825L133.803 34.4315L133.977 34.6709L134.358 34.0229L134.626 33.8405L135.014 33.7396L135.215 34.2004L135.258 34.6367L134.626 34.8174L134.625 35.1609L134.436 35.3562L134.312 35.5809L134.213 36.0498L134.084 36.4389L133.708 38.1646L133.702 38.4496L134.161 38.1451L135.007 37.266L135.264 36.3299L135.598 35.4067L135.961 35.117H136.187L136.524 35.2179L136.543 35.5207L136.491 35.6949L136.13 36.154L135.977 36.4047L136.125 36.6522L136.944 35.8919L137.311 35.6249L137.624 35.6787L138.244 35.327L139.494 35.2537L139.588 34.8516L139.837 34.6806L140.524 34.7262L141.861 35.0844L142.338 35.3774L143.053 35.6493L143.428 35.9733L144.999 36.5692L146.14 36.6327L146.704 36.3624L147.409 36.6457L147.782 36.9631L148.514 37.1341L149.253 37.2236L149.817 36.9957L151.275 36.9208L153.106 36.5838L154.198 36.6636L155.435 36.8834L156.317 37.4483L157.059 37.7674L157.508 38.0816L158.232 38.4088L159.776 39.2864L160.318 39.7943L161.275 40.4846L162.237 40.7744L162.756 41.4972L163.168 41.8229L164.186 43.0439L165.342 43.8986L166.115 44.7533L167.599 45.3036L168.178 46.2121L169.182 46.3228L169.61 46.4579L170.131 46.8405L170.846 47.0538L171.776 46.9935L172.803 47.0375L173.635 46.8584L175.601 47.1987L175.91 47.3664L176.317 47.7522L177.034 49.1931L177.462 50.7918L177.674 52.0145L178.164 52.9652L178.43 54.7528L178.658 55.3161L178.676 55.7508L178.87 55.8485L179 57.0565L178.95 57.5433L178.761 58.1766L178.748 58.4599L178.775 58.639L178.692 58.9043L178.666 59.1583L178.857 59.7281L178.867 60.184L178.611 60.7375L178.263 62.1848L177.391 64.5862L176.554 65.9668L175.384 67.393L174.621 68.1386L174.318 68.2151L174.042 68.067L174.238 68.461L174.068 68.8078L173.293 69.8595L172.523 70.5465L171.724 71.7415L171.664 71.7692L170.64 72.2315L170.035 72.6092L169.26 73.2963L168.549 74.3805L168.403 74.5189L168.141 74.4424L168.149 74.9927L167.537 75.8653L167.35 75.9939L167.355 75.7465L167.461 75.5576L167.509 75.3574L167.506 75.1197L167.335 75.2922L166.972 75.9467L167.095 76.4254L166.833 77.1499L165.83 79.2207L164.603 80.9644L164.32 81.5032L163.313 82.6803L162.572 83.2485L162.364 83.2518L162.128 83.2029L162.009 82.2977L161.42 81.7507L161.251 81.6547L161.01 82.2342L160.808 82.3938L160.517 82.428L160.828 82.6803L160.919 82.9734L160.602 83.5595L160.592 84.0919L160.025 84.6796L159.697 85.1094L159.531 85.6483L159.43 86.1513L159.679 86.0146L159.798 86.1204L159.89 86.2767L159.833 86.5078L159.651 86.9458L159.679 88.035L159.619 88.2824L159.799 88.5511L159.991 88.0936L160.102 88.2222L159.567 91.1461L159.776 92.4649L159.855 93.9611L160.095 95.4247L160.361 96.7336L160.382 96.8378L160.016 98.36L159.547 99.8644L159.266 101.094L159.088 102.422L158.911 103.062L158.854 103.716L159.057 105.269L159.134 105.564L158.566 106.258L157.952 106.595L157.614 106.93L156.865 108.184L156.458 110.04L156.449 111.028L156.641 113.102L156.497 113.95L156.26 114.518L155.98 114.891L155.266 115.339L154.624 116.431L154.346 117.581L153.907 118.001L153.817 118.646L153.464 119.342L152.548 120.383L151.952 120.685L151.669 120.977L151.489 121.587L150.914 122.594L150.491 123.901L150.602 124.345L150.608 124.414L150.763 125.928L150.706 126.314L150.148 126.732L148.045 127.513L147.485 127.837L146.231 129.169L146.153 129.483L146.205 129.933L146.41 130.192L146.198 130.472L145.948 130.975L145.581 130.944H143.487L142.354 131.103L141.765 131.072L141.5 130.952L141.204 130.755L141.114 130.496L141.275 130.105L141.179 129.873L140.869 129.881L140.529 129.991L140.47 130.224L140.494 130.392L140.621 130.634L140.691 130.934L140.551 131.193L139.887 131.227L139.142 131.465L138.211 131.564L137.469 131.737L137.127 131.518L137.469 131.409L137.961 131.462L138.488 131.281L138.364 131.068L137.619 130.794L136.791 130.962L136.332 131.289L135.328 131.258L134.097 131.507L133.897 131.761L133.931 132.253L134.171 132.36L134.407 132.585L134.18 132.795L133.961 132.888L132.662 133.117L131.458 134.079L130.955 134.2L130.508 134.625L130.462 134.988L130.32 135.208L130.034 135.219L129.406 135.02L128.591 135.016L128.001 135.173L124.993 136.738L123.912 137.366L122.68 138.648L120.602 140.087L119.51 140.948L119.303 141.171L119.131 141.182L118.789 141.362L118.924 141.51L119.157 141.523L119.061 142.026L118.626 142.369L117.811 143.273L117.631 143.206L117.889 142.736L117.489 142.718L116.9 142.545L116.644 142.739L116.786 143.205L116.565 143.405L116.163 143.428L115.798 143.372L115.398 143.032L115.579 143.649L116.425 143.799L116.776 143.944L116.908 144.181L116.251 145.284L115.701 145.427L115.64 145.583H115.943L116.111 145.889L115.914 147.123L115.642 147.358L115.483 147.364L115.325 147.576L115.541 147.98L115.766 148.274L115.735 148.847L115.65 149.321L115.645 149.782L115.928 150.674L116.031 151.591L116.145 151.924L116.21 152.296L116.021 152.642L116.129 153.199L115.806 154.148L115.976 155.519L115.907 156.809L115.78 157.487L115.575 158.018L115.1 158.702L115.09 159.387L114.067 160.027L112.936 160.921L111.891 161.982L110.767 163.482L109.455 165.771L108.239 169.055L106.776 171.549L106.191 172.452L105.4 173.465L104.347 174.647L102.938 175.832L101.395 176.891L100.838 177.367L100.295 178.04L100.16 177.761L100.277 177.302L100.202 176.959L100.186 176.514L100.497 176.431L100.962 176.715L101.2 176.523L101.372 176.334L101.933 176.215L103.004 175.054L103.798 174.626L104.246 173.895L104.322 173.507L104.304 172.721L104.558 172.521L105.133 172.589L105.25 172.364L105.2 172.117L105.312 171.577L106.091 171.098L106.461 170.522L106.337 169.053L106.48 168.986L106.801 169.214L106.952 169.12L107.113 168.477L107.035 168.143L106.658 168.055L105.352 168.78L104.928 168.749L104.858 168.18L104.223 167.92L103.976 167.448L103.903 167.126L103.683 166.994L103.696 167.552L103.756 168.094L104.326 168.727L104.187 168.98L103.917 169.273L103.728 169.926L103.75 170.774L103.597 170.515L103.401 170.365L103.322 171.277L102.944 171.627L102.825 171.97L102.925 172.369L102.729 172.645L101.768 173.385L100.809 173.892L100.601 174.129L100.498 174.696L100.352 175.277L99.927 175.79L99.5901 176.809L99.5983 177.249L99.7106 177.897L99.8912 178.323L99.6048 178.608L99.2191 179.162L98.9132 179.787L98.1516 182.139L97.4958 183.564L96.9897 184.262L96.2688 185L94.2151 186.857L94.0914 186.831L93.7904 186.682L93.5381 186.504L93.4812 186.385L93.4519 186.208L93.4861 185.539L93.4812 183.745L93.5707 183.406L93.7042 183.188L94.1044 182.872L94.4934 182.421L94.9328 181.846L95.338 181.39L95.1931 181.084L94.8547 180.788L94.2542 180.55L93.6765 180.13L93.1639 179.59L92.9263 179.028L92.7083 178.422L92.5016 177.945L92.4332 177.727L92.2298 177.636L91.9076 177.394L91.7058 177.167L91.4112 177.037L90.884 176.895L90.3356 176.646L89.6538 176.057L89.1623 175.404L88.9199 174.973L88.6611 174.67L87.2535 174.168L86.6139 173.571L86.3617 173.758L85.9858 173.576L85.6148 173.289L85.5041 173.068L85.3479 172.842L85.2014 172.583L85.107 172.335L84.7262 171.901L84.2332 171.432L84.0248 171.298L83.9142 171.337L83.8084 171.516L83.7401 171.69L83.5546 171.806L83.3251 172.021L83.0892 172.285L82.7881 172.459L82.4301 172.519L82.1892 172.511L82.1404 172.407L82.1274 172.047L82.2169 171.228L82.0086 170.912L81.7304 170.574L81.4098 170.123L80.3553 169.167L78.9184 167.795L78.4106 167.376L77.9338 167.344L77.4977 167.391L77.0957 167.572L76.7915 168.205L76.6662 168.303L75.8915 168.289L75.1218 168.187L74.8631 167.801L75.0681 167.55L75.7923 166.994L76.1926 166.497L76.2691 166.062L76.6157 165.672L77.2341 165.326L77.9224 164.691L78.6807 163.767L79.1429 163.086L79.3056 162.647L79.6035 162.308L80.0363 162.07L80.4138 161.575L80.7377 160.823L81.1787 160.226L81.7385 159.783L82.0526 159.415L82.1193 159.124L82.2771 158.938L82.5277 158.857L82.6482 158.704L82.64 158.479L82.7084 158.326L82.8516 158.244L83.0924 158.274L83.4309 158.412L83.6343 158.386L83.7043 158.196L83.6148 157.977L83.3658 157.733L83.4602 157.468L84.1144 157.038L84.596 156.875L84.902 156.61L85.1916 156.188L85.6619 155.895L86.3113 155.729L86.4837 155.571L86.4593 155.368L86.5928 155.221L86.9768 155.115L87.1851 154.917L87.2193 154.625L87.3429 154.355L87.5561 154.106L87.7937 154.013L88.0557 154.077L88.3015 153.982L88.5325 153.73L88.8092 153.613L89.1314 153.629L89.2974 153.574L89.8507 153.456L90.1566 153.245L90.4072 152.771L90.6302 152.589L90.8254 152.694L91.1623 152.537L91.6407 152.115L91.7319 152.107L92.0849 151.91L92.4495 151.18L92.6366 150.694L92.5927 150.295L92.4723 150.01L92.5129 149.591L92.6334 148.457L92.6659 147.993L92.8596 147.67L92.8466 147.351L92.5016 146.635L92.1533 146.006L91.9662 144.943L91.8425 144.54L91.5528 144.432L91.2892 144.08L90.9572 144.05L90.801 143.914L90.6399 143.804L90.4039 143.836L90.2022 144.041L89.8295 144.048L89.5936 144.133L89.3169 144.315L89.0533 144.232L88.8873 144.071L88.5309 144.069L88.5553 143.348L89.1835 142.28L89.3527 141.783L89.2714 141.502L89.4585 140.51L89.9158 138.814L90.0622 137.705L89.8962 137.182L89.8913 136.818L90.1273 136.508L90.2412 136.416L89.6521 136.038L89.3348 135.693L88.9279 135.447L88.4902 135.25L88.2787 135.333L88.0525 135.447L87.6147 135.628L87.1168 135.94L86.8596 136.054L86.4056 136.17L85.893 136.269L85.4699 136.204L85.107 136.137L84.8792 135.94L84.7588 135.512V135.151L84.684 134.626L84.4122 134.33L84.321 134.101L84.3064 133.822L84.3373 133.511L84.4122 133.282L84.3666 133.003L84.2462 132.806L84.2771 132.463L84.2169 131.987L84.0363 131.693L83.9451 131.351V131.009L83.8101 130.667L83.7954 130.293L83.9158 129.951L83.9614 129.609L83.8263 129.365L83.5692 129.218L83.3723 128.827L83.3414 128.323L83.1298 128.047L82.9036 127.82H82.6465L82.2543 127.689L81.9077 127.706L81.3479 127.689L81.0908 127.608L80.9557 127.43L80.6091 127.188L80.4122 126.766L80.1714 126.685L79.8232 126.815L79.7027 126.978L79.5676 127.206L79.3268 127.466L79.0095 127.45L78.6775 127.596L78.3602 127.613L77.9371 127.645L77.514 127.515L77.0014 127.369L76.562 127.271L76.1389 127.369L75.8525 127.287L75.4749 127.238L75.0519 127.206L74.7199 126.945L74.357 126.8L74.1601 126.849L73.903 127.012L73.6312 126.979L73.283 126.849L73.1479 126.542L73.1788 126.346L73.2537 126.151L73.3887 125.876L73.3139 125.584L73.3448 125.325L73.405 125.099L73.4652 124.84L73.4196 124.598L73.405 124.339L73.3741 124.096L73.3285 123.837L73.5092 123.466L73.6605 123.16L73.5694 122.903L73.6003 122.725L73.7207 122.436L73.872 122.081L73.8574 121.42L73.7223 121.034L73.5742 120.93L73.5368 120.814L73.6084 120.661L73.5303 120.505L73.4994 120.344L73.5775 120.204L73.4701 119.927L73.2537 119.847L73.1788 119.767L73.1039 119.461L73.0437 119.108L73.0747 118.836L72.9689 118.597L72.8175 118.452L72.6662 118.196L72.5148 118.004L72.4546 117.732L72.3537 117.38L72.6548 117.315L72.7736 117.118L72.9851 116.851L73.2634 116.781L73.5954 116.684L73.7174 116.487L72.9445 115.777L72.4807 115.352L72.7525 114.776L73.2113 113.807L73.654 112.869L73.9925 112.156L74.0787 112.024L74.3749 111.979L74.3212 111.611L74.3114 111.37L74.0738 111.357L74.3391 110.487L74.7312 109.25L75.0291 108.314L75.1251 108.158L75.3383 108.114L75.3871 108.006L75.13 107.856L74.9721 107.565L74.6287 106.73L74.0868 105.414L74.0478 104.944L73.8492 104.654L73.5173 104.752L73.1251 104.659L72.1438 103.946L71.4945 103.56L71.2748 103.332L71.1772 102.601L70.9836 101.795L70.9006 100.799L70.9347 100.561L71.4832 99.8057L71.4815 99.4248L71.5271 99.091L71.5043 98.8273L71.3692 98.824L71.1495 98.9396L70.816 99.0275L70.6272 99.0357L68.7118 98.964L66.5328 98.8826L64.72 98.8143L63.1464 98.7557L63.0943 98.106L63.0048 97.0201L62.9413 96.2484L62.8405 95.0274L62.2091 94.2671L61.5239 93.4433L61.2831 93.2317L62.1114 93.2057L62.6989 93.1877L62.5833 90.9785L62.4043 90.7538L62.2449 90.0407L62.1375 89.6369L61.8461 89.3114L61.7794 88.9434L61.8331 88.6992L61.9926 88.5478L62.0984 88.1701L62.0187 87.7907L61.8461 87.4375L61.6346 87.0988L61.2294 86.8905L60.6501 86.5128L59.7713 86.0325L59.0293 85.6971L58.7917 85.7378L57.4801 85.868L57.0439 85.9364L56.751 85.8599L55.773 85.8631L55.389 85.6059L55.0668 85.3047L54.3817 84.5396L54.2759 84.1569L54.0106 84.0349L53.6087 84.0821L53.2019 84.03L52.4142 83.7125L51.6754 83.3869L51.3174 83.3999L51.0001 83.1964L50.4387 82.6999L50.1767 82.5061L50.0579 82.2489L49.9391 81.8712L49.7129 81.7898L49.4216 81.8582L49.1059 82.0519L48.6633 81.9233L48.1214 81.5749L47.7715 81.303L47.5714 81.1744L47.1011 80.9839L46.647 80.9448L45.9603 81.2248L45.3972 81.1093L44.5152 81.0083L43.7602 80.8048L43.4851 80.2773L43.3371 79.9289L42.8879 79.7108L42.5299 79.4438L42.1036 79.0384L41.892 78.9033L41.5063 78.7909L41.1499 78.6476L41.1109 78.3921L40.9775 78.0551L40.9465 77.972L40.7041 77.5634L40.5902 77.5341L40.4649 77.6154L40.3705 77.6741L40.268 77.6024L40.25 77.4201L40.3151 77.1271L40.1752 76.821L39.8285 76.4987L39.6463 76.1649L39.63 75.8197L39.5536 75.5902L39.4152 75.473L39.3371 75.2711L39.3209 74.9845L39.4217 74.6427L39.6398 74.247L39.5926 73.6365L39.2818 72.8127L39.1093 72.2201L39.0768 71.8554L39.1239 71.5852L39.3127 71.3231L39.6886 70.68L39.7553 70.19L39.6366 69.638L39.6203 69.2164L39.7065 68.9266L39.5763 68.5473L39.3094 68.1891L39.1239 68.181L38.8717 68.2786L38.5674 68.5815L38.2094 68.6352L37.892 68.448L36.8961 68.5261L35.3486 68.7133L34.7302 68.907L34.3656 68.9901L33.9247 69.0536L33.2184 69.402L31.4755 70.7549L31.1143 70.9519L30.7042 70.9795L30.465 71.1668L30.0809 71.3133L29.3259 71.8489L28.9418 72.2787L28.6896 72.6678L28.3983 72.6809L28.1721 72.5734L27.4577 72.6271L27.0915 72.7606L26.6945 73.1383L26.2014 73.8221L25.998 74.0175L25.6009 74.2193L25.142 74.387L24.5741 74.6378L24.3202 74.654L24.0956 74.698L23.902 74.584L23.8369 74.3382L23.544 74.1835L22.8443 74.1054L21.8077 73.9263L20.7385 73.8921L20.208 73.9084L19.7719 73.9198L19.0152 73.8238L18.4635 73.8075L17.9802 74.05L17.2772 74.3513L16.9566 74.4278L16.7207 74.4392L16.4912 74.4017L16.2227 74.2454L15.8468 73.8856L15.5571 74.024L15.3488 74.1787L15.3521 73.3956L15.357 72.2185L15.3618 71.1814L15.3651 70.3527L15.3684 69.3857L15.3716 68.7035L15.5685 68.4447L15.6889 68.1549L15.5441 67.7674L15.5767 67.4125L15.6775 67.1651L15.8094 66.9241L15.5051 67.0446L15.3716 67.1113L15.2089 67.2936L14.8151 67.5411L14.5514 67.7886L14.2406 67.9905L13.8468 68.4349L13.523 68.6791L13.1861 68.8354L12.6263 69.358L12.1626 69.4622L10.9356 69.542L9.65971 69.5404L8.49296 69.5387L8.31721 69.5322L8.32858 69.1008L8.35788 68.7963L7.95919 68.4756L7.93153 68.08L7.82575 67.8065L7.69231 67.4728L7.41406 67.2595L7.02183 67.1764L6.37905 66.9925L5.42545 66.8004L4.51416 66.7873L3.62074 66.8052L4.16593 66.1345L4.71106 65.4654L4.69478 64.8825L4.25378 64.3746L4.0162 64.0587L3.6484 63.624L3.19439 63.3228L2.94703 62.9223L2.96982 62.6798L2.93079 62.5203L2.75826 62.4274L2.58579 62.2809L2.34821 62.1197L2.0699 61.9065V61.6932L1.96417 61.4669L1.79165 61.2015V60.9882L1.63218 60.6545L1.45966 60.4151L1.28718 60.2556L1.03495 60.0293L1.04796 59.8437L1.2335 59.7509L1.31321 59.5377L1.28718 59.3244L1.07562 59.1909L0.823392 59.1241L0.491453 58.7382L0.252232 58.538L0.0927185 58.4175L0 58.284L0.0927185 58.1912L0.198498 58.0577L0.22616 57.8445L0.172475 57.6458V57.4733L0.331939 57.4195L0.504464 57.4472L0.67694 57.3414L0.903149 57.3023L1.15538 57.2747L1.28882 57.1558L1.27581 56.9442L1.1163 56.5323L0.956833 56.3597L0.903149 56.1073L1.03331 55.6222L1.1163 55.3112L1.40761 54.9824L2.29611 54.2774L3.09353 53.7988L3.48243 53.7499L3.77047 53.5725L3.95273 53.3006L4.00319 53.0043L3.96251 52.7454L3.81442 52.3645L3.63703 51.8891L3.50359 51.6237L3.62238 51.3063L3.83394 50.8715L4.26679 50.2155L4.67039 49.5089L4.71429 49.3038L4.76639 48.8723L4.95192 47.9932L5.05443 47.5178L5.00074 47.3338L5.09346 47.1742L5.34569 47.0407L5.95435 46.9203L6.36768 46.6582L7.00395 46.1649L7.53444 45.6406L7.97384 45.4713L8.76957 44.9862L9.22686 44.6785L9.40589 44.5824L9.85503 44.3593L10.6605 44.2828L11.331 44.2031L11.7101 44.0566L12.2651 43.9963L12.6377 43.8319L13.0527 43.827L13.8322 43.6593L14.0974 43.4086L14.3236 43.109L14.6279 42.8534L14.9843 42.7867L15.3814 42.8306L15.8566 42.8257L16.4326 42.746L16.7109 42.9446L16.833 43.1872L17.1877 43.433L17.4399 43.42L17.6922 43.3663L18.0372 43.5779L18.2634 43.5519L18.4082 43.433L18.4358 43.1367L18.5172 42.9755L18.6865 42.0475L18.9664 40.5155L19.2202 39.1268L19.5001 37.5916L19.7914 36.0059L20.086 34.4006L20.3268 33.0835L20.5335 31.952L20.662 31.2569L20.8606 30.3468L20.9386 29.5474L21.0184 29.3179L20.9679 29.1241L20.7955 28.849L20.7971 28.7285L20.8166 28.569L20.7971 28.429L20.6164 28.2792L20.4765 28.1896L20.3658 28.0594L20.3154 27.8787L20.2243 27.698L20.1836 27.5075L20.0518 27.3577L20.0127 27.1672L20.1038 26.9865L20.1429 26.796L20.1038 26.6169L20.0534 26.4069L19.9525 26.2066L19.7996 26.0846L19.4334 25.9494L19.0656 25.6254L18.6311 25.3356L18.0778 24.7854L17.9574 24.5249L17.9558 23.8102L17.9802 23.0352L18.016 21.8646L18.0339 21.2688L18.3464 21.2346L18.6214 21.2183L18.9094 21.1776L19.16 21.1369L19.3911 21.0506L19.5636 20.9448L19.7686 20.8764L19.9297 20.9008L20.0908 20.8064L20.2682 20.7169L20.4407 20.6436L20.6913 20.5818L20.9256 20.725L21.0574 20.8683L21.2104 20.9367L21.3536 20.9204L21.4529 20.9334L21.5554 21.0473L21.6872 21.0555L21.876 21.0343L22.0534 21.0099L22.1348 20.9758L22.1478 20.9025L22.1022 20.7755L22.0403 20.6566L22.0892 20.4727L22.0941 20.2513L22.1022 19.9696L21.9623 19.8133L21.8223 19.5186L21.6661 19.2809L21.4236 19.1214L21.1974 19.0595L21.0086 19.1589L20.8329 19.1751L20.7011 19.0856L20.4879 19.0823L20.2568 19.053L20.0143 19.0188L19.575 19.0839L19.4187 19.0042L19.2056 18.996L18.9582 19.0823L18.9647 17.9508L18.9712 16.8845L18.9745 16.1355L19.1958 16.1518L19.4708 16.0167L19.8793 15.9955L20.1934 15.8539L20.3691 15.8425L20.7011 15.9109L21.0477 16.0574L21.3878 16.0786H22.2796H23.243H24.3153H25.3894H26.3202L26.6082 16.0867L26.4406 15.8376L26.2454 15.5153L26.3202 15.2613L26.4162 15.0057L26.5285 14.8722L26.8182 15.0138L27.0607 15.4485L27.2624 15.7758L27.4593 15.9369L27.7034 15.9548L27.9801 15.8995L28.2567 15.7643L28.7286 15.1653L29.1973 14.6524L29.4397 14.4798L29.6969 14.3219L29.8889 14.2617L30.1509 14.2812L30.3722 14.4212L30.5154 14.6654L31.0394 15.5153L31.4349 16.1567L31.5683 16.5572L31.5764 17.534L31.552 18.3985L31.6041 18.5109L31.6822 18.5434L32.5463 18.3399L33.7196 19.3884L34.587 20.1633L34.9612 20.4108L35.1696 20.4792L35.674 20.4271L36.2729 20.3261L36.5642 20.2154L36.8864 19.9729L37.4087 19.6359L37.8351 19.4503L38.0027 19.4259L38.172 19.4861L38.5316 19.6879L38.7285 20.0624L38.5479 20.4971L38.5788 20.7673L38.9563 20.7527L39.259 20.3034L39.4705 19.9484L39.9132 19.6603L40.3444 19.2516L40.6455 18.8609L40.9986 18.633L41.5308 18.3546L41.9522 18.1852L42.346 18.2032L42.639 18.0192L43.0181 17.6741L43.2834 17.3973L43.4673 17.298L43.8366 17.3257L44.2972 17.2882L44.7496 16.9512L45.1613 16.5442L45.3793 15.8572L45.5226 15.2483L45.6462 15.1246L45.796 15.0268L45.9717 14.9633L46.3948 14.9194L47.1368 14.5954L47.6478 14.2666L48.1327 14.1966L48.276 14.1086L48.4517 13.8042L48.5396 13.2686L48.4729 12.9446L47.5811 12.8437H46.9969L46.0303 12.7606L45.5697 12.6271L45.4705 12.5343L45.4607 12.4317L45.5535 12.1989L45.6429 11.7642L45.5111 11.1749L45.0295 10.2518L44.6861 9.34333L44.6405 8.71006L44.6487 8.04091L44.6763 7.60295L44.429 7.26107L43.093 6.18169L42.6308 5.67208L42.4779 5.31882L41.9506 4.66921L42.084 4.46898L42.3883 4.47549L42.6471 4.64481L42.8847 5.00621L43.0539 5.08764H43.2866L44.5185 5.08601L44.8065 5.14786L44.9807 5.26999L45.1287 5.42137L45.35 5.84304L45.5876 6.04819L46.0758 6.04168L46.8407 6.03353L47.2703 5.99607L47.5274 6.11332L47.8463 6.211L48.5184 5.98633L48.7056 5.98141L48.9074 6.08073L49.6315 6.83454L50.0465 7.15202L50.3964 7.57368L50.9057 7.57527L51.3288 7.21387L51.4411 5.99771L51.568 5.6444L51.7812 5.54514L52.0351 5.53371L52.3361 5.34322L52.6616 5.09579L52.9447 5.01272L54.1213 5.27813L54.4484 5.15114L55.6396 4.83038L56.8568 4.41686L57.1985 3.89592L57.7079 3.75591L58.1082 3.37494L58.4304 3.41399L58.9186 3.43028L59.2213 3.36351L59.3743 3.29191L59.5419 3.1128L59.8169 2.60324L60.1505 2.40948L60.5687 2.20438L60.8551 1.96341L61.0911 1.66546L61.2001 1.4066L61.1969 1.20151L61.0586 0.802596L60.8893 0.428177L60.707 0.304414L60.5703 0.257214L60.9853 0.169323L61.327 0.301185L61.8608 0.32071L62.0935 0.219752L62.4304 0.268642L62.8567 0L63.1301 0.087891H63.3108L63.4751 0.291397L63.6037 0.520987L64.0024 0.799366L63.9633 1.22267L63.8901 1.59709L63.838 2.03014L63.8152 2.35905L63.646 2.69605L63.3921 3.01026L63.3173 3.13725L63.2815 3.30329L63.4523 3.40425L63.755 3.43351L64.1325 3.44658L64.3897 3.54426L64.7216 3.56379L65.1219 3.83402L65.3156 3.99683L65.3319 4.12218L65.205 4.42178L65.1545 4.69852L65.2538 4.87435L65.3709 5.00134L65.6948 5.62652L65.8494 5.84304L65.9795 5.91305L66.0105 6.03353L65.8998 6.26148L65.7664 6.55124L65.4653 6.8557L65.4246 7.09662L65.1854 7.24806L64.624 7.60787L64.7216 8.17764L64.7412 8.46581L64.7314 8.69048L64.5393 8.99167L64.2074 9.87897L64.0853 10.3218L63.9779 11.3442L63.9845 11.6877L64.1374 12.1485L64.4629 13.1725L64.6484 13.3369L65.0764 13.5763L65.1301 14.2682L65.0927 14.9911L65.0731 15.2711L65.1431 15.3915L65.3351 15.4501L65.4719 15.5364L65.493 15.7497L65.4799 15.9728L65.7989 16.1014L66.0772 16.1828L66.3343 16.4888L66.7981 16.9659L66.9836 17.0538L67.0764 17.2508L67.4686 17.6529L68.0658 17.7994L68.6679 17.9769L68.9055 18.2292L69.1528 18.4344L69.34 18.4441L69.4978 18.4116L69.7582 18.2341L69.9665 18.0811L70.3294 18.0908L70.7557 18.0648L70.829 17.9394L70.8696 17.7782L70.7818 17.3664L70.9331 17.241L71.2862 17.171L71.3562 16.9512L71.4359 16.8307L71.5368 16.6907L71.6573 16.6712L71.8086 16.751L72.0413 16.8014L72.3033 16.8715L72.4433 17.0115L72.6759 17.0228L72.9347 16.9968L73.0389 16.9072L73.1153 16.751L73.1723 16.414L73.3383 16.4042L73.6719 16.3293L74.0266 16.1811L74.5018 16.1583L74.9461 16.1616L75.169 16.0623L75.3757 15.8458L75.776 15.232L75.9859 15.0903L76.2121 14.9845L76.4041 15.0041L76.7963 14.9015L77.1185 14.755L77.239 14.7924L77.4896 15.1066L77.6165 15.175L77.802 15.1978L78.409 15.3573L78.7312 15.3069L79.0795 15.2059L79.4147 15.1685L79.6555 15.2385L79.8297 15.1473L79.981 15.0871ZM108.223 15.1034L107.767 15.3101L107.505 15.2303L107.265 14.6898L107.346 14.2405L107.676 14.0907L107.932 14.1233L108.026 14.1803L108.254 14.9178L108.223 15.1034ZM108.89 22.1203L108.394 22.2733L108.301 22.13V21.5586L108.441 21.246L109.073 21.1581L109.138 21.0653L109.318 21.0067L109.419 21.2037L109.404 21.5309L108.89 22.1203ZM107.642 23.2713L107.561 23.9388L106.739 23.6572L106.801 22.975L107.185 22.7829L107.525 22.4198L107.642 21.9753L107.649 21.3697L107.776 21.2655L107.886 21.2232L107.986 21.2639L108.025 22.1723L108.072 22.7292L107.642 23.2713ZM110.784 22.6868L110.972 22.9245L110.326 23.8737L109.969 24.0104L109.579 24.0381L109.073 23.7548L108.285 23.776L108.039 23.7092L108.013 23.2957L108.343 22.8545L109.004 22.8789L110.142 22.524L110.784 22.6868ZM112.129 24.4142L110.918 24.5558L110.365 24.3295L110.49 24.139L110.903 23.8346L111.406 23.6197L111.857 23.5236L112.327 23.6441L112.456 23.8997L112.417 24.1569L112.129 24.4142ZM106.607 24.5004L105.357 25.3894L104.934 25.0979L104.846 24.9286L104.918 24.7577L104.903 24.6861L105.043 24.3816L105.741 24.1325L106.093 24.0902L106.542 24.1683L106.617 24.3865L106.607 24.5004ZM111.284 24.9449L111.71 24.9644L112.314 24.8782L112.719 24.6665L113.172 24.6242L113.619 24.647L115.128 24.8831L116.034 24.9563L116.366 25.0312L116.69 25.1386L116.928 25.2542L116.986 25.5049L116.767 25.9087L116.602 26.332L116.449 26.923L116.33 27.0418L116.132 27.0109L116.255 27.54L116.212 27.7517L116.112 27.9568L115.87 28.3833L115.502 28.9271L115.393 29.0411L115.113 29.2299L114.885 29.4709L114.934 29.6988L115.048 29.9284L114.913 30.2149L114.478 30.6333L114.218 30.7342L113.979 30.7766L113.758 30.7359L113.365 30.3159L113.325 30.6447L113.219 30.9817L113.085 31.1657L112.579 31.1461L112.298 30.9654L111.841 30.7652L111.754 31.3057L111.47 31.6785L111.183 31.7957L110.734 31.8739L110.477 32.0334L109.992 31.9097L109.541 31.6622L109.286 31.6411L109.087 31.8413L108.041 31.8788L107.561 32.0823L107.268 32.0253L106.837 31.615L106.768 31.3431L106.511 30.7912L106.28 30.1351L106.116 29.5392L106.254 29.0248L106.534 29.0411L106.864 29.1176L106.934 29.0818L106.951 28.9157L106.877 28.779L106.345 28.8001L106.008 28.494L105.95 28.0219L106.018 27.0386L106.062 26.8367L106.298 26.5551L106.374 26.306L106.316 26.0422L106.417 25.5619L106.636 25.1468L107.476 24.6226L108.451 24.4354L111.284 24.9449ZM101.219 30.4119L100.736 30.4982L101.359 29.3618L101.916 28.8327L101.924 27.7842L102.527 26.8513L103.082 26.472L103.862 26.3613L104.288 26.9295L103.759 28.5413L103.605 28.551L102.897 29.4009L102.109 29.9951L101.219 30.4119ZM132.958 29.886L132.665 30.1042L132.569 30.2165L132.329 30.1319L132.372 30.0065L132.444 30.0195L132.522 29.6549L132.934 29.6988L132.958 29.886ZM134.711 37.2513L134.262 37.6974L134.41 37.1813L134.335 36.8248L134.394 36.5496L134.701 36.2826L134.794 36.2436L134.768 36.5724L134.789 36.6734L134.711 37.2513ZM160.995 83.8769L160.816 83.9779L160.798 83.6816L161.265 83.3087L161.342 82.8675L161.586 83.0711L161.651 83.2974L161.648 83.3918L160.995 83.8769ZM160.266 85.632L160.11 85.9071L159.929 85.8664L159.858 85.6824L159.724 85.5033L159.796 85.3633L159.916 85.2836L160.25 85.295L160.266 85.632ZM136.4 131.95L136.543 132.085L136.28 132.072L135.983 132.191L135.529 132.297L135.347 132.098L135.739 131.821L135.883 131.615L135.985 131.658L136.117 131.808L136.4 131.95ZM131.235 135.654L131.232 135.912L131.041 135.781L130.537 135.882L130.361 135.686L131.041 134.851L131.178 134.973L131.284 135.125L131.357 135.336L131.279 135.473L131.235 135.654ZM116.054 148.266L115.969 148.328L115.683 147.698L116.259 147.094L116.451 147.338L116.298 147.817L116.129 148.155L116.054 148.266ZM116.504 155.236L116.19 155.469L116.247 154.249L116.417 153.842L116.6 153.538L116.828 153.351L116.998 153.616L116.853 154.204L116.454 154.925L116.504 155.236Z" fill="white"/>
</svg>
