<svg width="56" height="76" viewBox="0 0 56 76" fill="none" xmlns="http://www.w3.org/2000/svg">
<path d="M35.1214 2.65082L34.9574 2.70771L34.7543 2.82963L34.1353 3.05878L33.2987 3.27657L32.2102 3.55612L31.9633 3.85516L30.8862 5.72914L29.9846 6.10784L29.6564 6.38738L29.4095 6.74168L28.8717 7.39342L28.6476 7.89403L28.0546 8.98136L27.7297 10.3433L27.6062 11.1072L27.4275 12.214L27.1643 12.7699L26.8134 13.2916L26.4349 13.8003L26.11 14.3594L25.8338 14.7967L25.7883 14.9462L25.9232 15.0664L26.5778 14.9462L26.8361 14.8145L27.1935 14.6455L27.4177 14.7365L27.6419 15.2176L27.8954 15.2777L28.1342 15.2176L28.3876 15.3378L28.7109 16.5341L28.9855 17.5466L29.6223 18.1789L30.1194 18.6713L30.2396 19.1069L30.3582 19.7213L30.3891 20.022L30.2331 20.2024L29.9862 20.5762L29.9244 21.2897L29.8822 21.527L29.8367 22.1884L29.8692 22.5948L30.0024 22.9117L30.2234 23.0937L30.6718 23.188L31.0763 23.2985L31.3086 23.8479L31.6384 24.5468L31.9925 24.841L32.5124 25.0343L32.8844 24.9645L33.7519 24.841L34.4976 24.8718L35.5893 25.0587L35.9954 25.0522L36.5202 25.0165L37.4445 24.6378L37.7808 24.5809L38.1545 24.615L38.7003 24.8084L38.996 24.9612L39.3745 25.1189L39.9269 25.231L40.2827 25.2115L40.5524 25.205L40.7083 25.2765L41.5774 26.3606L42.3313 27.3L42.9876 28.0883L43.6975 28.9383L43.7528 28.9887L44.0728 28.8798L44.284 28.9269L44.4789 29.0992L44.8152 29.0277L45.2928 28.7124L45.9881 28.649L46.9028 28.8375H48.1098L49.6077 28.6506L50.5386 28.4475L50.9025 28.228L51.5035 28.2508L52.2297 28.4475L52.6212 28.727L52.6683 29.0017L52.8146 29.4324L52.657 29.868L52.1956 30.3084L51.9389 30.8724L51.8886 31.5583L51.6497 32.0654L51.2225 32.3937L51.0552 32.8715L51.1494 33.4989L51.1039 34.4155L50.9171 35.6215V36.3415L51.1039 36.5771L51.19 36.9152L51.1754 37.3557L51.2452 37.7458L51.4775 38.2528L51.8008 39.2621L52.0705 39.6961L52.3061 39.8554L52.5449 40.0504L53.2337 41.0825L53.401 41.3003L53.3507 41.4904L53.2857 41.6318L53.2061 41.7228L52.4717 42.3372L51.0129 43.6732L50.8927 43.8422L50.9025 44.1218L51.3248 43.9414L51.7781 44.0925L51.999 44.1218L52.0998 44.2323L52.2313 44.5931L52.3824 44.6533L52.6034 44.8028L53.0355 45.1831L53.3978 45.5829L53.6691 45.7747L53.8608 45.9535L53.9209 46.2135L53.8413 46.4736L54.0687 47.0766L54.223 47.2635L54.3043 47.4926L54.223 47.7234L54.4147 47.9932L54.6227 48.5247L54.8761 49.1732L54.907 49.534L55.0126 49.6998L55.1377 50.1809L55.3505 50.6327L55.3002 50.9415L55.3895 51.2454L54.5268 51.4486L54.4489 51.4161L54.3969 51.3039L54.4212 50.4409L54.4131 49.4657L54.2799 49.0659L53.8852 48.4255L53.362 47.5771L53.2191 47.3333L52.9981 47.1936L52.7366 47.1741L52.5449 47.2342L52.2882 47.3919L52.0461 47.5641L51.5783 48.0761L51.1071 48.6742L50.831 48.8091L50.5548 48.8644L50.3111 48.8465L50.1145 48.6856L49.9131 48.3589L49.671 47.925L49.3819 47.7836L49.2698 47.9168L49.1739 48.172L49.0992 48.4255L49.2941 48.7473L49.4614 48.996L49.1739 48.9879H48.2446H47.1724H46.1018H45.1401H44.2499L43.9103 48.9668L43.5643 48.8205L43.2329 48.7522L43.0574 48.7636L42.7439 48.905L42.3361 48.9261L42.0616 49.061L41.8406 49.0448L41.8374 49.7924L41.8309 50.857L41.8244 51.9866L42.0713 51.9004L42.2841 51.9085L42.4401 51.9882L42.8787 51.9232L43.1208 51.9573L43.3515 51.9866L43.5643 51.9898L43.6959 52.0792L43.8713 52.0629L44.0598 51.9638L44.2856 52.0256L44.5277 52.1849L44.6836 52.4222L44.8233 52.7163L44.963 52.8723L44.9549 53.1535L44.9501 53.3746L44.9013 53.5582L44.963 53.6769L45.0085 53.8037L44.9955 53.8768L44.9143 53.9109L44.7372 53.9353L44.5488 53.9564L44.4172 53.9483L44.3148 53.8345L44.2158 53.8215L44.0728 53.8378L43.9201 53.7695L43.7885 53.6265L43.5545 53.4834L43.3044 53.5452L43.1321 53.6184L42.9551 53.7077L42.7943 53.802L42.6334 53.7776L42.4287 53.8459L42.2565 53.9515L42.0258 54.0377L41.7756 54.0783L41.4881 54.119L41.2135 54.1352L40.9016 54.1693L40.8837 54.7642L40.848 55.9328L40.8237 56.7064L40.8253 57.4199L40.9455 57.6799L41.4979 58.2293L41.9316 58.5186L42.2987 58.842L42.6643 58.9769L42.817 59.0989L42.9177 59.2987L42.9681 59.5084L43.0071 59.6872L42.9681 59.8774L42.8771 60.0578L42.9161 60.2479L43.0477 60.3974L43.0883 60.5876L43.1793 60.768L43.2296 60.9484L43.3401 61.0784L43.4798 61.1678L43.6601 61.3174L43.6796 61.4571L43.6601 61.6164L43.6585 61.7367L43.8307 62.0114L43.8811 62.2048L43.8015 62.434L43.7235 63.232L43.5253 64.1405L43.3969 64.8345L43.1906 65.9641L42.9502 67.2789L42.6561 68.8815L42.3654 70.4645L42.086 71.9972L41.8325 73.3835L41.5531 74.9129L41.3841 75.8393L41.3029 76.0002L41.069 75.6638L40.7148 75.3469L40.3834 75.1567L40.2421 74.9064L40.052 74.3961L39.7855 74.2222L39.5987 74.0873L39.4184 74.1068L39.2267 74.2465L38.931 74.336L38.7312 74.323L37.9271 73.9719L37.7954 73.9377L38.3121 73.1348L39.2365 71.6997L39.8246 70.7863L40.476 69.7738L40.809 69.2569L40.8529 69.1691V69.0359L40.7116 68.8392L40.398 68.7563L40.0341 68.6052L39.805 68.3598L39.4883 68.2541L39.2413 68.0802L38.7913 67.9095L38.5217 67.7519L38.1919 67.695L37.9303 67.4057L36.9767 66.845L36.7314 66.7929L36.4633 66.8791L36.0702 66.9685L35.6917 67.2741L35.2189 67.3732L34.777 67.3699L34.5463 67.1879L34.3254 67.1213L34.0362 66.8726L33.5261 66.6808L33.1557 66.5475L32.9267 66.6093L32.6326 66.8872L32.3353 67.1635L32.0998 67.3358L31.783 67.3261L31.4044 67.5796L31.0324 67.6706L30.6571 67.7097L30.225 67.799L29.7458 67.6463L29.3526 67.5114L29.1771 67.4496L29.018 67.4919L28.771 67.6332L28.3291 67.6934L27.9831 67.708L27.7378 67.6414L27.5168 67.3959L27.1594 67.2708L26.7663 67.118L26.6834 66.8011L26.7403 66.5638L26.893 66.2225L26.8085 65.8698L26.6428 65.3139L26.573 65.0864L26.4495 64.893L26.2562 64.8231L25.8776 64.8751L25.4634 64.6655L25.2083 64.4639L25.0768 64.2185L25.2165 63.7553L25.093 63.3603L24.8461 63.1425L24.6868 62.7573L24.4399 62.4518L24.115 62.2942L23.7885 62.312L23.5334 62.2162L23.2426 61.8911L22.9697 61.7692L22.661 61.4539L22.0859 61.3141L21.787 61.1906L21.6164 60.9956L21.3858 60.6478L21.4117 60.456L21.2996 60.2658L21.2005 59.9261L21.004 59.4239L20.7879 59.1378L20.5653 58.9233L20.3769 58.7413L20.0975 58.4698L19.7547 58.3122L19.4639 58.1464L19.3502 57.901L19.2527 57.6994L19.0886 57.7141L18.8547 57.6962L18.598 57.6442L18.3267 57.4979L18.0992 57.3207L17.7175 57.0201L17.5095 56.9811H17.3243L17.0514 57.2753L16.2342 56.9664L15.534 56.5081L14.8079 56.3895L14.3384 56.1099L13.9046 55.6711L13.6707 55.3736L13.4806 55.2274L12.5563 54.8016L12.3727 54.7609L12.0201 54.9592L11.9064 55.0779L11.8853 55.4175L11.8431 55.611L11.536 55.728L11.0405 55.702L10.6977 55.5784L10.4671 55.5606L10.42 55.6581L10.29 55.6987L10.009 55.6711L9.59468 55.5768L9.21938 55.4517L8.71091 55.1851L8.47536 55.2192L7.89699 55.1624L7.42427 55.0096L7.30404 54.8698L7.09933 53.9109L7.03597 53.8443L6.8329 53.8037L6.49012 53.6704L6.27406 53.516L6.16197 53.2494L6.02712 52.9975L5.45043 53.0544L4.50493 52.7212L3.85021 52.4042L3.25074 52.0532L2.34099 51.3608L1.99496 51.1902L1.56606 50.9789L1.31265 50.6375L0.895126 50.293L0.755416 50.1987L0.623837 49.8883L0 49.4365L0.308671 48.8546L1.0592 48.4158L2.04369 48.7555L2.16392 48.0761L1.80813 47.4748L1.86174 46.3387L1.97709 46.1112L2.23702 45.8072L2.57492 45.5959L2.77313 45.5358L3.11103 45.6398L3.32384 45.4122L4.12641 45.5147L4.37008 45.4187L4.5374 45.2643L4.73398 45.1473L4.98415 44.8743L5.12872 44.559L5.24894 44.4355L5.52678 44.4793L5.55276 44.3428L5.69569 44.1575L6.18145 43.7431L6.17659 43.5594L6.04011 43.1596L6.07422 43.0133L6.35527 42.9629L6.68833 42.8508L6.86538 42.4688L7.08471 42.1357L7.33488 41.6448L7.61108 41.614L7.75728 41.0402L8.12931 40.538L8.88636 39.0493L8.65731 39.0817L8.47536 39.2816L8.26902 39.2573L8.03348 39.1403L8.1017 38.469L7.96685 38.3894L7.60131 38.9062L7.28614 38.3796L7.25694 38.0594L7.39011 37.7425L7.37062 37.5296L6.86052 37.6889L6.88491 37.4906L7.20166 37.2874L7.34628 37.0761L7.62243 36.8453L7.7378 36.4975L7.80438 35.9563L7.92946 35.3761L7.8369 35.09L7.68743 34.8463L7.56234 33.7638L7.59645 33.1332L7.53145 32.6375L7.40151 32.2182L6.79552 31.6671L7.75242 31.0365L8.0952 30.5603L7.65981 29.5803L7.0912 28.753L7.07499 28.2573L7.22442 28.3207L7.41614 28.3061L7.58996 27.2594L7.54935 26.936L7.22928 26.4126L6.8329 26.3996L6.48526 25.7413L6.28542 25.5934L6.12459 25.179L5.56411 24.3712L5.12064 23.9503L5.45365 22.9751L5.74447 22.7882L5.83867 22.546L5.72494 21.9463L5.75746 21.8065L5.82568 21.7464L5.8939 21.7496L6.01086 21.8407L6.22855 22.0991L6.4105 22.4192L6.55676 22.5168L6.77767 22.4111L7.6322 21.7724L7.57697 21.5741L7.65495 21.1743L7.94087 20.8476L8.24627 20.7355L8.33724 20.5534L8.26416 20.2722L7.9425 19.5717L7.65654 19.1947L7.473 18.8192L7.37553 18.4731L7.0506 18.1463L7.18704 17.8375L7.43889 17.4767L7.52496 17.4134L7.66145 17.5125L8.03834 18.1675L8.63778 18.5933L9.26653 19.2808L9.52483 19.7554L9.72948 19.8415L9.90658 20.0122L9.82859 20.1406L9.63201 20.2755L9.57515 20.5502L9.7035 20.7046L9.83836 20.8037L10.2055 20.7403L10.407 20.4185L10.2721 19.0062L10.0609 18.2992L9.8156 18.0797L9.59627 17.8002L9.74411 17.5889L10.1356 17.493L10.649 17.246L12.5302 15.8954L13.1752 14.626L13.6691 14.166L14.2263 13.867L14.9086 13.9368L15.4382 13.7776L15.6023 13.3729L15.4577 12.8252L15.2546 12.4936L15.4496 12.0142L15.6527 11.2844L15.6381 10.6716L15.8996 10.306L15.8086 10.1629L15.4269 10.4587L15.1247 10.592L15.2953 10.3482L15.8297 9.74362L16.1076 8.82205L16.3203 8.43849L17.0742 7.90217L17.2236 7.64375L17.7938 7.24065L18.7117 6.37603L19.0626 6.13547L20.8415 6.69292L21.4069 6.65716L21.3061 6.75958L21.0446 6.79371L20.6677 6.94484L20.5588 7.27805L20.8139 7.62585L21.0852 7.72663L21.3159 7.50234L21.545 6.86359L21.9137 6.1566L21.9998 5.41547L22.2614 5.16028L22.6431 5.06763L23.3255 5.2139L23.8437 5.36672L24.3847 5.38621L26.0434 5.27406L28.7402 3.3481L29.9927 2.93364L30.7774 2.52732L31.2777 1.7358L31.4126 1.14095L31.7813 0.910159H32.168L32.3451 0.765476L32.4003 0.581857L33.3328 0.0666128L33.8673 0L34.34 0.00972159L35.396 0.458304L35.885 1.25146L35.9662 1.79755L35.2969 2.39077L35.1214 2.65082ZM4.14589 45.2692L4.02239 45.37L3.78685 45.1912L3.70723 44.9637L3.85184 44.7946L4.03702 44.8499L4.1215 44.9881L4.14589 45.2692Z" fill="white"/>
</svg>
