<svg width="210" height="252" viewBox="0 0 210 252" fill="none" xmlns="http://www.w3.org/2000/svg">
<path d="M79.6284 5.77068L79.463 5.35538L79.536 5.25156L79.6203 5.19636L79.7273 5.20938L80.1489 5.65388L80.3321 5.77558L80.6013 6.09839L81.2095 6.13735L81.9392 5.79018L82.2798 5.93129L82.4419 5.90535L82.9771 5.576L83.3257 5.48193L83.5593 5.23854L83.796 5.50139L84.3246 5.80637L84.4916 6.12601L84.7154 6.27687L84.79 6.37748L84.4674 6.7133L84.4268 7.07508L84.0814 7.05072L83.6678 7.64449L82.116 8.64064L80.723 7.79055L80.1181 7.21623L79.7127 6.42124L79.6284 5.77068ZM109.575 26.347L109.627 26.5822L109.873 26.811L110.068 26.5936L109.966 26.4054L109.935 26.0517L109.685 25.7322L109.578 26.0031L109.476 26.0664L109.38 26.2821L109.575 26.347ZM119.835 31.0259L120.034 31.0291L120.359 30.9221L120.527 30.6949L120.704 30.7533L121.056 30.338L121.293 30.1336L121.922 30.0654L121.497 29.5382L121.421 29.5009L120.834 29.7053L120.078 29.8399L119.786 30.1239L119.485 30.5895L119.417 31.0048L119.47 31.1362L119.835 31.0259ZM133.162 0.470447L133.272 0.154126L133.076 0L132.842 0.322807L133.043 0.595362L133.162 0.470447ZM107.817 6.10977L108.467 5.26127L108.644 4.42088L108.422 4.47767L108.401 4.84756L108.325 5.0958L108.223 5.18502L108.046 5.34241L107.64 6.01729L107.467 6.18439L107.49 6.39208L107.817 6.10977ZM89.136 5.11853L89.4992 5.83073L89.5901 5.75934L89.7538 5.14284L89.6062 4.85404L89.5901 4.35275L89.5236 4.21972L89.3371 4.4939L89.0922 4.53445L89.2398 4.89786L89.136 5.11853ZM106.818 7.05399L107.233 6.7133L107.274 6.51373L107.136 6.61107L106.307 7.02314L105.912 7.48715L106.632 7.1432L106.818 7.05399ZM108.946 25.883L109.019 25.8489L109.144 25.7029L109.084 25.2974L108.941 25.492L108.946 25.883ZM132.995 2.7093L132.97 2.83749L133.022 3.1295L133.269 3.26738L133.648 3.00295L133.298 2.48378L132.995 2.7093ZM107.381 25.6754L107.433 25.883L107.509 25.9074L107.781 25.8879L107.88 25.492L107.76 25.4434L107.472 25.4872L107.381 25.6754ZM109.123 19.1876L108.675 19.0042L108.506 18.8047L108.485 18.6068L108.68 18.0146L108.801 17.8361L108.93 17.7858L109.215 17.4614L109.147 17.2732L109.054 17.1661L108.939 17.1061L108.754 17.5327L108.542 17.5458L108.346 17.3527L108.26 16.9909L108.287 16.7833L108.077 16.7573L107.746 16.9682L107.522 17.3056L107.024 17.6382L106.964 18.3196L107.039 18.8566L106.877 19.087L106.619 19.2557L106.745 19.3352L107.186 19.3612L108.047 19.5753L108.563 19.5412L109.16 19.6337L109.329 19.4147L109.418 19.1259L109.341 19.1016L109.123 19.1876ZM174.442 65.0986L174.547 65.032L174.704 64.8244L174.605 64.5681L174.398 64.2047L174.45 63.8835L174.322 63.8023L174.179 63.8169L174.023 63.692L173.629 63.5427L173.508 63.8866L174.195 64.9266L174.442 65.0986ZM182.697 75.0874L182.813 74.9495L182.842 74.6055L183.104 73.7539L184.055 71.502L184.095 71.0753L183.816 70.7638L183.743 69.8813L183.63 69.8342L183.476 69.8878L183.283 70.0143L183.114 70.2642L183.309 70.3534L183.562 70.8012L183.495 71.2165L183.322 71.5409L182.634 72.1526L182.736 72.6993L182.694 72.9605L182.457 73.4326L182.355 73.9485L182.493 74.8408L182.697 75.0874ZM184.376 82.9477L184.475 82.8715L184.402 82.2875L184.585 81.4552L184.428 81.4146L184.189 81.5135L184.121 81.9678L184.173 82.4594L184.376 82.9477ZM184.285 83.84L184.262 84.6545L184.402 84.8654L184.52 84.8929L184.913 83.4863L184.835 83.415L184.442 83.3274L184.285 83.84ZM171.16 57.9489L171.306 57.8726L171.182 57.4881L171.03 57.4021L171.014 57.6812L170.911 57.8775L171.028 57.9603L171.16 57.9489ZM168.482 57.3161L168.481 57.102L168.409 56.6104L168.241 56.7337L168.213 57.1069L168.322 57.4638L168.482 57.3161ZM151.131 38.4936L151.473 38.8294L151.676 39.248L151.963 39.4102L152.091 39.2382L152.159 39.0062L151.963 38.6542L151.869 38.2016L151.736 38.1756L151.653 38.2486L151.452 38.3152L151.051 38.2989L151.131 38.4936ZM133.671 0.93119L133.942 0.645664L133.76 0.407173L133.395 0.449356L133.288 0.678143L133.384 0.84524L133.671 0.93119ZM163.964 47.397L164.058 47.3241L164.112 46.8877L163.945 47.0061L163.831 47.165L163.742 47.3662L163.862 47.4181L163.964 47.397ZM164.2 48.1288L164.347 48.132L164.456 48.0785L164.462 48.0104L164.277 47.7394L164.17 47.4117L163.979 48.0395L164.2 48.1288ZM120.836 32.5882L120.604 32.7845L120.664 32.9792L120.834 32.8981L121.341 32.8024L121.293 32.5541L120.988 32.3108L120.836 32.5882ZM148.267 142.577L147.993 142.342L147.396 142.37L147.354 142.498L147.328 142.785L147.581 142.96L148.267 142.577ZM161.06 152.118L160.935 152.007L160.517 151.839L159.708 150.77L159.403 150.584L158.975 151.207L158.647 151.435L158.853 151.672L159.145 151.643L159.279 152.032L159.21 152.287L159.82 153.22L159.922 153.462L160.043 153.629L160.189 153.755L160.666 153.587L161.071 153.223L161.135 153.23L161.178 153.058L160.849 152.79L161.026 152.587L161.06 152.118ZM160.784 155.264L160.7 155.204L160.585 155.193L160.239 155.302L160.283 155.436L160.561 155.727L160.784 155.264ZM146.637 143.578L147.284 143.533L147.667 143.749L147.639 143.64L147.481 143.366L147.361 143.259L147.043 143.181L146.637 143.578ZM145.071 155.214L145.1 154.818L145.066 154.786L144.92 154.996L144.734 155.086L144.904 155.707L145.071 155.214ZM105.819 17.0396L105.704 17.1158L105.649 17.244L105.652 17.4127L106.066 17.502L106.173 17.45L106.345 17.2943L106.264 16.9001L106.072 16.7054L105.819 17.0396ZM209.299 250.091L209.021 251.643L209.063 252L209.216 251.69L209.521 250.633L209.581 249.83L209.299 250.091ZM161.191 154.023L160.608 154.326L159.974 154.322L159.753 154.463L159.797 154.602L160.171 154.885L160.679 154.92L161.159 154.784L161.311 155.157L161.545 155.094L161.864 154.771L161.621 154.382L161.191 154.023ZM161.258 164.903L161.2 164.674L161.079 164.468V164.249L161.143 163.782L161.016 163.1L161.057 162.07L161.013 161.517L161.026 160.972L161.128 160.274L161.101 159.57L161.034 159.218L161.005 158.861L161.039 157.849L160.685 157.295L159.855 156.853L159.562 156.844L159.125 157.402L158.874 157.398L157.982 157.235L157.789 157.42L157.431 157.952L157.222 158.178L156.917 158.081L156.61 157.907L156.375 157.926L156.146 158.069L155.632 158.134L155.105 158.123L154.786 158.275L154.499 158.519L154.405 158.825L154.46 159.179L154.176 158.851L153.892 158.637L153.56 158.867L153.213 159.025L152.044 159.151L151.105 158.879L149.786 158.316L149.577 158.15L149.388 157.939L149.17 157.802L148.671 157.592L148.476 157.352L148.256 157.284L148.003 157.318L147.638 157.127L147.335 156.789L147.067 156.76L146.769 156.913L146.242 156.89L145.22 156.5L144.766 156.205L144.725 156.867L144.435 158.055L144.51 158.644L144.672 159.317L144.975 160.227L144.983 160.521L145.038 160.694L145.664 162.059L146.302 163.17L147.134 164.346L147.229 164.881L147.121 165.43L147.391 165.394L147.558 165.125L147.597 165.393L147.691 165.618L148.402 166.397L148.45 166.603L148.181 167.247L148.029 166.715L147.746 166.298L146.955 165.638L147.129 167.016L147.27 167.563L148.269 169.924L148.405 170.076L148.632 170.18L148.825 170.368L149.151 170.85L149.702 171.895L150.023 172.197L150.487 172.101L151.17 172.313L151.403 172.255L151.548 172.344L151.632 172.588L151.097 172.583L150.576 172.717L150.519 172.92L150.662 173.149L150.798 173.79L151.452 173.574L152.483 173.616L153.099 173.548L153.785 174.131L154.4 174.239L154.58 174.197L154.948 173.508L155.177 172.679L155.318 172.362L155.508 172.093L155.099 171.738L155.086 171.557L155.14 171.35L155.941 171.97L156.268 171.72L156.336 171.163V170.819L156.432 170.574L156.633 170.461L156.714 170.156L156.737 169.921L156.529 169.388L156.51 169.082L157.012 169.719L157.214 170.584L157.598 170.355L157.653 170.219L157.593 169.62L157.765 169.421L158.31 169.583L158.795 169.93L158.829 170.091L158.796 170.253L158.676 170.396L158.282 170.25L158.102 170.503L158.336 171.136L158.731 171.742L158.97 171.587L159.456 171.504L159.618 171.35L159.515 170.13L159.32 169.238L159.307 168.262L159.362 167.732L159.586 167.323L159.75 166.892L159.729 166.335L159.81 165.81L160.009 165.264L160.288 164.857L160.418 164.763L160.35 164.649L160.468 164.297L160.679 164.04L160.807 164.356L160.638 164.479L160.539 164.617L160.87 164.849L160.969 165.055L161.003 165.282L160.969 165.565L161.029 165.782L161.216 165.822L161.268 165.539L161.214 165.195L161.258 164.903ZM185.081 87.6039L184.532 86.6175L184.41 85.8436L184.217 85.1817L183.362 83.3225L182.993 82.2501L183.198 81.1729L182.843 77.7318L183.211 76.0187L183.033 75.8093L182.59 75.545L182.394 75.274L182.101 74.6316L182.068 73.345L181.501 72.5533L180.888 72.1915L180.473 71.5425L180.194 71.0024L180.155 70.7022L179.986 70.1944L179.516 69.8456L179.193 69.6802L178.501 69.1723L178.162 68.6596L177.466 67.2012L177.143 66.8134L176.501 66.3948L175.976 66.3705L175.637 66.2667L174.434 65.3387L174.059 65.1359L173.757 64.7011L173.307 64.2339L173.045 63.8899L172.645 63.5249L172.371 62.1377V60.7913L172.283 59.1867L171.867 58.4129L171.641 58.1631L171.395 58.2457L171.375 58.7454L171.443 59.0861L171.27 59.1024L170.65 58.661L169.875 58.1906L169.457 57.665L169.152 57.1718L168.899 57.1913L168.721 57.2691L168.542 57.8759L168.832 58.9223L168.69 59.065L168.445 58.8233L167.999 58.2765L167.767 58.4551L167.461 58.5248L167.193 57.9764L166.968 57.6309L166.642 56.4871L166.35 55.2282L166.322 54.318L165.753 53.8183L165.531 52.9601L165.354 52.7217L165.187 52.1133L164.53 51.3183L163.856 50.757L163.296 50.2265L162.815 49.4753L163.025 48.9319L163.368 49.047L163.731 48.9951L163.441 48.4419L163.158 48.0704L162.437 47.3744L162.101 47.1992L161.375 47.0969L160.567 46.4626L160.072 46.1884L159.724 46.1446L159.32 46.0456L159.035 45.6871L158.53 45.5687L157.82 44.8597L157.471 44.1459L157.296 43.8831L157.058 43.6851L156.708 43.8036L156.419 43.857L155.783 43.7565L155.574 43.4661L155.164 43.0979L154.374 43.0005L153.75 42.7685L153.273 42.5398L152.79 42.2478L152.345 41.761L151.951 41.1104L152.019 40.2766L152.118 39.7363L151.616 39.5271L150.748 38.3963L150.706 37.9338L150.939 36.9897L151.176 35.364L150.831 34.157L150.158 32.6855L150.203 31.9393L149.864 31.9296L149.488 31.7835L148.958 31.0583L148.556 30.5813L148.285 30.1417L147.991 29.5463L148.038 29.0693L148.108 28.7481L148.137 27.898L147.763 27.0722L147.644 26.227L147.289 25.1708L147.388 24.4699L147.31 23.8924L147.2 23.3927L147.315 23.0747L147.362 22.6708L146.872 22.2668L146.347 21.9585L145.669 21.4134L144.451 20.5633L144.171 19.9209L143.655 19.3466L142.966 19.5688L142.458 19.6743L141.985 20.1074L141.33 20.427L140.694 20.1383L140.392 19.8949L140.169 19.0351L139.878 18.0974L139.632 17.6269L139.447 17.059L139.621 15.6752L139.361 15.0246L139.28 14.0528L139.033 12.9431L138.759 12.3883L138.779 11.9421L138.27 11.2883L138.108 10.8194L137.819 10.6508L137.452 10.3831L137.4 10.0245L137.428 9.76329L137.647 9.33012L137.765 8.76883L137.255 8.6293L136.899 8.60495L136.651 8.42809L136.372 8.15396L136.272 7.28109L136.282 6.35638L136.209 5.7788L136.056 5.3489L135.949 4.89464L135.691 4.41117L134.916 3.78333L134.973 3.53024L135.153 3.20253L134.879 3.01434H134.477L134.25 3.45236L133.883 3.82873L133.165 4.11589L133.03 5.62145L132.584 7.27624L132.179 8.49785L132.253 8.86775L132.221 9.22957L132.002 9.06732L131.809 8.86453L131.514 9.348L130.98 10.602L130.932 11.2526L131.245 11.4278L131.464 11.5998L131.725 11.6566L131.843 11.8172L131.91 12.132L132.078 12.4029L132.036 12.6965L131.833 12.5813L131.407 12.583L131.19 12.8377L130.64 13.3471L130.784 14.8137L130.526 15.586L130.278 16.1846L129.998 17.3203L130.035 17.9221L130.283 18.3504L130.551 18.9767L130.389 19.8397L130.225 20.4579L130.591 22.249L130.693 23.2029L130.492 23.8534L129.902 25.7776L129.636 27.1858L129.722 27.9629L129.466 28.6767L129.174 29.8188L128.845 30.682L127.692 32.4244L127.463 33.268L127.076 34.3193L126.247 34.9325L125.621 35.3154L124.249 35.6951L123.458 35.6869L123.049 35.4549L122.814 35.2537L121.881 34.918L120.748 34.1587L119.876 33.9121L119.444 33.1495L119.402 32.8332L119.246 32.4211L118.789 31.8793L117.926 31.6959L117.041 31.3049L116.495 31.3601L115.309 31.0243L114.519 30.5456L113.798 29.8821L112.846 28.7335L112.038 28.4236L111.005 27.9483L110.412 27.5525L110.052 27.361L109.653 27.0641L109.29 27.1306L108.662 27.1387L108.268 26.8597L108.218 26.6407L108.278 26.4687L108.3 26.1556L108.163 26.1085H108.023L107.908 26.1929L107.747 26.2545L107.193 26.0144L106.416 25.6137L106.27 25.2617L106.025 24.8318L104.952 24.2071L104.329 23.6912L102.954 22.9433L102.602 22.5815L102.487 22.2652L102.385 21.8093L102.693 21.3356L102.993 20.9998L103.928 19.6061L104.209 19.3628L104.561 18.9848L104.884 17.9675L105.044 17.3867L104.77 16.5074L104.76 15.0311L105.847 14.4584L106.15 14.3838L106.431 14.2572L106.752 14.4357L106.967 14.7131L107.191 14.6628L107.798 13.6343L107.7 13.2059L107.449 12.8409L107.537 12.6154L109.405 10.602L109.176 10.1089L108.899 9.9953L108.367 10.0294L107.866 9.59946L107.551 8.78665L107.11 8.75744L106.322 9.59134L106.23 9.7828L106.421 9.89147L106.588 10.3977L106.28 10.9914L105.972 10.9963L105.466 10.9379L105.235 10.5145L105.132 9.86875L104.811 9.68704L104.444 9.80874L104.141 10.0358L103.927 10.1008L103.748 9.95311L103.739 9.68382L104.201 9.23605L104.588 8.94889L104.619 8.8418L104.337 8.75422L104.379 8.54652L104.739 8.17827L104.571 8.15881L104.131 8.55301L103.663 8.78016L103.04 9.26363L102.146 9.58L101.533 10.0083L100.679 9.8785L99.8825 9.45667L99.709 9.23442L99.3166 8.90835L98.4425 9.262L97.8928 9.22467L97.5895 9.09975L97.0722 9.01539L96.6279 8.70228L95.5577 8.20262L94.4209 8.10687L93.8695 8.1296L93.4593 7.87165L93.0635 7.72401L92.2868 7.62019L91.9641 7.23242L91.557 6.45209L91.2652 6.24281L90.7933 6.1682L90.2922 6.5267L89.9987 6.69543L89.4263 6.05462L88.4095 5.39267L88.0851 5.30181L87.9149 5.46243L87.7917 5.76746L87.5987 5.79667L87.3733 5.65873L86.976 5.26775L86.7165 5.19636L86.0354 5.61333L86.0825 5.75607L86.6387 5.96862L87.2225 6.55106L87.4998 6.67112L88.1549 6.51858L89.0533 6.62894L89.9598 7.35575L89.8268 7.71752L89.7587 8.22045L89.783 8.76883L89.7619 9.1403L90.1349 9.54916L89.9679 9.58L89.5462 9.48752L89.2139 9.60109L88.9008 9.79413L88.7613 10.3441L88.5847 10.0845L88.043 9.83795L87.7219 10.0278L87.1836 10.2776L86.6938 10.177L86.3825 10.0504L85.6463 10.2646L84.3343 10.2581L83.8965 9.94989L83.7684 9.42097L83.6662 9.29121L83.5462 9.52807L83.3403 9.80062L82.5473 9.85577L82.4289 9.96772L82.476 10.2322L82.4452 10.5648L82.1403 10.5891L81.764 10.6767L81.8046 11.0839L81.8744 11.4019L81.7349 11.5609L81.3214 11.2705L81.1365 10.9574L80.8462 10.86L80.6192 10.972L80.5609 11.251L80.5949 11.9714L80.3889 12.0524L79.8522 12.0249L79.6056 12.1612L79.2343 13.0664L78.5516 13.412L78.4478 13.8841L78.4024 14.2865L78.97 15.0149L78.696 15.388L78.4073 15.693L78.1186 15.8228L77.5057 15.9412L77.0548 16.2738L76.8651 16.6242L76.8295 16.9584L76.7045 17.3867L76.5084 17.8946L76.4695 18.1687L76.0592 18.4413L75.3295 19.2573L74.9614 20.0928L75.4413 20.5471L76.0057 20.8732L76.4159 20.8635L76.4192 20.9462L75.991 21.282L76.257 21.626L76.6673 21.9472L76.9171 21.9942L77.1003 22.1305L76.7127 22.2068L76.1386 22.2343L76.0283 22.5848L76.0981 22.9887L76.2003 23.3392L76.1289 23.5874L75.9148 23.4171L75.8208 23.1542L75.3278 22.6188L74.9744 22.455L74.457 22.3285L74.3013 22.4907L74.3224 23.3067L74.2203 23.6815L74.037 23.4689L73.9916 22.8719L73.5035 22.3885L71.5803 21.905L71.3078 21.8742L70.8602 21.9374L70.5538 22.1289L70.523 22.3171L70.3186 22.4696L69.9861 22.6432L69.6813 22.9093L69.4834 23.1315L69.4737 23.4089L69.7202 23.9297L69.8646 24.0806L69.8451 24.3288L69.6051 24.0708L69.3943 23.9881L69.1948 24.3937L69.0035 24.4748L69.0538 23.3424L69.2532 22.575L69.4153 22.1224L69.5938 21.7688L69.5078 21.5821L68.1749 20.5228L67.6105 19.6548L67.197 19.1681L66.5532 18.6993L66.2175 18.404L65.47 17.9529L64.5878 17.6398L64.163 17.2164L63.6943 17.0655L63.1137 17.2716L63.0651 17.6658L63.1381 18.0487L62.6758 18.6749L62.1781 19.0091L61.7807 18.6262L61.4191 18.3472L61.0542 18.5484L60.944 18.8939L60.7608 19.0221L60.6229 18.7868L60.4234 18.2677L60.1267 18.0617L59.8299 18.1525L59.9192 18.5646L60.0894 18.7917L60.0424 19.1194L59.8283 19.2703L59.7877 19.5802L59.6596 19.9923L59.6791 20.5682L59.3402 20.6899L59.0873 21.1458L58.904 21.0484L58.8569 20.7515L58.7645 20.4481L58.3948 20.333L58.2585 20.6153L58.1759 20.711L58.0446 20.7304L58.1337 20.5001V20.0685L58.2407 19.6175L57.8904 19.4552L57.751 19.5558L57.7558 19.9452L57.6715 20.513L57.3245 20.6022L57.0164 20.857L56.5607 20.8618L56.3288 20.9852L56.2462 21.2853L55.8456 21.5951L55.8537 21.9666L56.1229 22.343L56.1407 22.6708L56.7813 23.0033L56.744 23.3375L56.6531 23.4933L56.4115 23.4317L55.8943 23.1429L55.3672 23.0812L55.2083 22.9482L55.145 23.0439L55.1418 23.2661L54.9375 23.4284L54.6439 23.4446L54.3018 23.6831L54.545 24.0562L54.5013 24.2039L54.6213 24.3824L55.1435 24.4148L55.3656 24.3677L55.3883 24.6857L55.3218 25.0037L55.1094 25.1173L54.9067 24.8253L53.8996 24.2656L53.6354 24.212L53.5802 24.3872L53.6272 24.6159L53.4147 24.8934L53.0402 25.2568L52.7855 25.1578L52.484 25.2438L52.2894 25.8652L52.2213 26.4865L52.5553 26.9213L52.7791 27.494L53.2445 26.7899L53.4342 26.7088L53.4358 27.0138L53.2542 27.3302L53.1472 27.7195L53.1116 28.1592L52.8066 28.1705L52.4645 28.1121L52.3818 28.2517L52.2536 28.5794L52.3283 29.032L52.5553 29.2024L53.0824 29.1861L53.5315 29.2186L53.9321 29.3825L53.9986 29.5203L53.6369 29.4425L52.8975 29.4846L52.5456 29.423L51.8467 29.4652L51.3277 29.2072L51.0715 28.9493L50.684 28.8827L50.3061 28.9866L50.0953 29.3484L49.8407 29.436L49.2488 28.5404L48.8775 28.4804L48.6943 28.6897L48.8726 29.2511L48.7786 29.5966L48.5759 29.8545L48.3196 29.8383L48.1607 29.947L48.2872 30.1839L48.6926 30.7858L49.025 31.0486L49.3202 31.4136L49.4709 31.7284L49.8277 31.7137L49.9105 31.9685L49.7061 32.3384L49.7126 32.9257L49.5666 32.9565L49.3607 32.8267L48.9521 32.4649L48.7413 32.3952L48.6326 32.499L48.5986 32.7472L48.6974 33.3962L48.4883 34.3225L48.5305 34.5935L48.4931 34.8238L48.3212 34.6567L48.1104 34.2982L47.6742 33.7417L47.1407 32.5298L46.5764 31.7089L46.2698 31.0097L45.798 29.6939L45.5531 29.6745L45.2402 30.2407L44.8948 30.9854L44.6596 31.352L44.1018 31.717L43.758 32.0869L43.3461 32.2167L42.8937 32.6385L42.5677 33.0003L42.1105 33.8439L42.0326 34.3874L42.0521 34.9601L42.2515 35.7729L42.4623 36.954L42.772 37.0805L43.0217 37.2801L42.9521 37.637L42.5726 37.8625L41.4082 38.9803L40.625 39.3794L40.4012 39.6601L40.1142 40.2522L39.6991 41.0001L39.5109 41.4722L39.0748 42.3873L38.3644 43.4093L37.646 44.1686L36.8174 44.7769L36.2741 45.0674L34.2504 45.9175L33.1704 46.242L31.2196 46.4788L30.3926 46.8633L29.358 46.7384L28.2001 46.6557L26.593 47.9406L25.26 48.2537L24.0795 48.4889L23.572 48.6999L22.4109 49.4412L21.7347 49.7803L20.473 50.1599L19.9557 50.121L19.2568 49.7722L18.6033 49.8533L17.8801 49.803L17.2898 49.8355L16.8308 50.1243L14.1243 51.659L13.5892 52.0775L13.033 52.6859L12.2352 53.2489L11.5978 53.8978L10.2584 54.5744L8.88005 55.0871L8.1989 55.5138L7.71401 56.0929L6.86915 57.6503L6.6908 58.0446L6.35349 58.4551L5.90592 58.6043L5.61572 58.7374L5.71786 57.9553L5.3951 57.261L5.62215 55.9355L5.53782 55.5397L5.07729 55.7977L4.78382 56.08L4.03942 58.0008L3.53029 59.4983L3.9162 60.358L4.0411 60.8577L4.03942 61.3948L3.90323 62.167L3.91293 62.6699L3.8676 63.34L2.93999 64.8942L2.65138 65.5707L2.34 66.8718L2.30268 67.4754L2.32535 68.379L2.71621 69.1707L3.01462 69.6606L3.47674 71.0786L4.0313 72.0212L4.94436 73.9209L5.95135 75.4622L6.01618 76.0527L5.90275 76.8477L5.95788 77.6702L5.77784 77.9119L5.38867 78.1958L4.94268 77.8308L4.71563 77.5145L4.43028 76.3496L4.31349 76.283L4.12216 76.7925L3.91135 77.0148L3.72002 76.8639L3.57403 76.6708L3.5384 76.4697L3.60323 76.2296L3.67301 75.3567L3.25454 74.8586L2.88328 74.3233L2.48272 74.1918L2.23617 74.4336L2.22806 74.7661L2.7649 75.6974L3.11023 76.7066L3.64381 77.3376L3.95836 77.4998L4.31022 77.8843L4.23401 78.7361L3.97944 79.054L3.76704 79.2163L3.0746 79.0281L2.91406 78.4149L2.37246 77.2095L2.19727 76.7422L2.04812 76.6157L1.98814 76.8461L1.99942 77.2614L1.89886 77.4398L1.79355 77.422L1.57946 77.2046L1.38646 77.0878L1.26967 77.1284L1.48049 77.4285L1.94429 78.3175L3.65678 80.498L5.10807 83.0385L5.42756 84.0445L5.5881 86.2573L5.73241 86.7927L6.58865 87.8943L7.42708 89.1711L7.67353 89.807L7.66868 90.3522L7.83892 90.8697L8.88005 92.2747L9.34376 93.7835L9.40057 94.335L9.26755 95.2824L9.38919 96.9584L9.50598 97.8702L9.88377 99.6775L10.3346 100.982L10.8681 101.793L11.5978 103.597L12.7071 105.68L12.887 106.71L12.8303 109.457L12.7508 110.352L12.5076 110.507L12.3438 110.885L12.5806 112.692L12.6357 113.724L12.2773 114.697L11.8719 115.562L11.16 116.152L10.3541 116.172L9.97948 115.828L9.50113 115.476L9.4168 117.048L9.407 118.398L9.55299 118.912L9.56923 119.519L10.1108 119.991L10.4157 119.808L10.7919 119.782L12.1005 120.45L12.8351 121.002L14.0189 122.485L15.0666 122.876L16.4319 123.55L18.0178 123.765L19.286 123.803L21.279 124.159L21.7055 124.032L22.5585 123.922L23.2103 123.692L23.7974 123.544L25.5488 122.167L27.2563 120.749L28.1012 120.637L28.8584 120.62L29.7828 120.137L30.6228 118.672L31.0509 118.346L31.6201 117.981L33.2368 117.767L34.1888 117.918L34.6979 117.681L35.9904 117.416L38.679 117.173L40.1547 117.369L41.1407 117.337L41.6629 117.434L42.0715 118.075L44.924 117.523L45.7348 117.484L46.2423 117.577L46.8812 118.056L47.598 117.603L48.2417 117.663L48.8937 117.226L49.8844 115.919L50.3353 115.103L51.0569 113.385L51.5921 112.768L52.1807 112.462L52.8716 112.363L53.9369 112.053L56.2477 110.607L57.1446 110.296L57.6181 110.023L59.2088 108.902L60.2062 108.686L63.1315 108.977L64.5181 108.902L65.5916 108.727L67.2213 108.123L68.9954 107.669L71.1733 106.715L72.9926 105.729L74.0938 105.502L75.8273 105.328L78.3797 105.072L81.3522 105.205L82.1046 105.002L82.4744 104.822L82.9949 104.629L83.6371 104.764L84.13 104.91L85.6219 105.696L87.8695 107.353L88.3657 107.423L89.8446 107.045L90.3392 107.082L92.4084 108.299L93.2663 108.325L93.9523 108.294L94.4711 108.425L95.0225 108.756L95.676 109.522L97.0592 110.257L97.129 110.851L97.0269 111.237L96.7155 111.251L96.4511 111.334L96.7836 112.578L97.3642 113.584L98.7588 113.721L99.2663 114.073L99.5922 114.47L99.8468 115.101L100.037 116.089L100.735 116.913L101.387 117.617L101.54 117.908L101.846 118.906L101.963 119.198L102.218 120.186L102.589 121.315L102.487 121.43L102.266 121.406L101.874 121.119L101.529 120.799L101.344 120.849L101.133 121.068L101.102 121.339L101.41 121.268L101.59 121.307L102.017 121.652L102.414 122.055L102.728 122.29L103.487 123.292L103.784 123.069L104.147 122.869L104.725 123.414L104.955 123.523L105.086 123.314L104.867 122.335L104.648 122.098L104.597 121.751L104.867 121.503L104.999 121.206L105.643 120.474L107.052 118.289L107.485 118.039L107.984 117.561L108.659 117.196L109.356 116.763L109.8 116.594L110.237 116.505L110.725 116.104L111.257 115.02L111.657 113.737L112.085 113.172L112.74 112.57L113.245 111.735L113.204 111.081L113.211 110.414L113.574 110.928L113.803 111.451L114.164 113.198L113.854 113.583L113.527 113.776L113.59 114.389L113.809 115.189L113.89 115.83L113.203 116.506L112.609 117.356L111.897 119.008L111.852 119.507L111.74 120.202L111.782 120.814L111.892 121.406L111.717 122.324L111.43 123.145L111.054 123.166L110.798 123.135L110.235 123.208L109.716 123.159L109.121 124.954L109.499 125.038L109.787 124.936H110.308L110.89 124.615L111.741 124.352L112.228 124.444L112.799 124.415L113.629 122.118L113.835 120.624L114.258 119.954L114.39 119.491L114.609 119.053L115.05 119.806L115.405 120.538L116.186 121.725L116.431 122.317L116.529 123.758L116.021 125.429L115.716 125.908L115.348 126.325L115.04 127.027L115.972 127.206L116.577 127.193L117.523 126.681L117.709 126.613L118.184 126.605L118.366 126.338L118.831 126.083L119.178 125.784L119.627 125.549L120.036 125.705L120.129 125.84L120.231 125.99L120.08 126.321L120.067 127.021L119.799 126.944L119.561 126.529L119.263 126.636L119.055 126.949L118.609 126.85L118.684 127.055L118.922 127.455L119.864 128.228L120.871 129.251L121.246 129.735L122.066 131.278L122.65 132.918L122.603 133.403L122.316 134.279L122.11 135.17L122.128 135.637L122.318 136.229L122.731 136.836L124.265 138.492L125.076 139.952L126.154 140.71L127.901 140.989L128.824 141.537L129.782 142.644L130.087 142.738L130.552 142.783L131.149 142.11L132.059 142.181L133.256 142.85L133.967 142.691L134.475 142.774L135.185 143.152L136.225 143.9L137.328 144.276L137.983 144.842L138.492 144.927L139.405 145.295L140.076 144.98L140.647 144.584L141.965 143.213L142.998 142.553L143.542 142.297L143.978 142.183L144.531 141.755L144.187 141.453L143.861 141.503L143.303 141.333L143.621 141.135L143.954 140.988L145.559 139.969L145.985 140.27L146.281 140.608L146.6 141.07L146.36 141.724L146.146 142.032L145.651 142.527L145.055 142.547L144.771 142.506L145.359 143.061L145.869 143.434L146.923 142.756L147.185 142.222L147.385 141.912L147.719 141.844L148.218 141.948L148.411 142.339L148.52 142.816L148.158 142.946L147.983 143.299L147.86 143.635L148.489 144.067L148.812 144.341L149.201 144.334L149.65 144.401L149.991 145.035L150.309 145.767L150.685 145.564L150.92 145.373L151.322 145.556L151.76 146.132L152.115 146.786L152.151 147.062L152.423 147.188L152.681 146.993L152.804 146.718L152.795 146.21L152.725 145.408L152.545 145.287L152.135 145.721L151.901 145.407L151.586 145.073L151.591 144.75L151.934 144.589L152.224 144.659H152.587L154.504 144.378L156.956 141.807L158.029 140.864L159.145 140.165L160.3 139.715L160.901 139.571L164.002 139.329L165.615 139.407L166.445 139.23L166.83 138.994L167.482 138.346L167.939 137.95L168.5 137.84L168.636 137.357L168.638 136.839L168.745 136.299L168.581 135.285L168.625 133.953L168.751 133.259L169.09 132.283L169.24 131.282L169.392 129.865L169.527 129.024L169.695 128.257L170.135 127.412L170.508 126.865L171.388 124.808L171.693 124.605H171.948L172.058 124.48L172.092 124.366L172.017 124.284L171.905 124.045L171.98 123.852L172.248 123.661L172.332 123.734L172.468 123.693L172.489 123.588L172.363 123.025L172.548 122.236L172.773 120.859L173.028 120.241L173.178 119.749L173.767 119.011L174.411 118.284L174.228 118.206L173.926 118.151L174.121 117.978L174.275 117.926L174.471 118.041L174.633 117.721L174.669 117.22L174.826 116.48L174.687 115.836L174.985 115.635L175.324 115.513L175.467 114.838L175.561 114.567L175.771 114.316L176.125 113.779L176.402 113.219L177.059 112.152L177.701 111.715L178.658 111.378L178.765 111.185L178.522 111.066L178.531 110.95H178.891L179.037 110.576L179.417 110.301L180.051 109.665L180.262 109.081L180.393 108.613L180.456 107.557L181.488 106.172L182.206 104.301L182.38 103.102L182.558 102.455L182.678 101.507L182.569 100.521L182.6 99.6953L183.317 97.5992L183.481 96.7345L183.701 96.1797L184.04 94.1144L184.047 93.0437L184.566 91.7977L185.213 90.7837L185.268 89.846L185.05 89.1256L185.081 87.6039ZM78.383 8.17015L79.2294 7.92517L80.0727 8.22045L80.5446 8.13286L80.5284 7.93329L80.4246 7.76619L80.2528 7.60885L79.8781 7.50012L79.7581 7.09617L79.5424 6.71652L79.5035 6.30118L79.3333 5.91832H79.1321L78.9327 6.02704L78.4851 6.56725L78.6424 6.86253L78.6894 7.40279L78.4235 7.58122L78.1186 7.50661L77.9873 7.99983L78.1397 8.17505L78.383 8.17015ZM1.01837 75.9618L1.01678 75.6114L0.854561 75.2723L0.337311 73.7912L0.175089 73.8479L0 74.041L0.254567 75.1117L1.12863 76.6806L1.24859 76.4729L1.09131 76.0738L1.01837 75.9618ZM11.2865 50.8575L11.5508 50.4795L11.6011 50.134L11.4973 49.9004L11.1325 50.2783L10.9232 50.5914L10.9654 50.7829L11.2865 50.8575ZM52.865 24.9177L53.0272 24.9583L53.1975 24.8253L53.2331 24.6127L53.0483 24.3986L52.9867 24.2088L52.8424 24.1958L52.7726 24.3126L52.6753 24.5381L52.8618 24.736L52.865 24.9177ZM55.9348 20.9738L55.9104 20.8472L55.9315 20.4838L55.758 20.3962L55.5651 20.565L55.4467 21.0322L55.6445 21.2658L55.9348 20.9738ZM156.759 170.876L156.644 171.089L156.607 171.28L156.503 171.382L156.693 171.517L156.743 171.822L156.847 171.874H157.132L156.964 171.111L156.759 170.876ZM156.576 172.121L156.446 172.112L156.219 172.434L156.155 172.688L156.057 172.737L155.994 172.915L155.895 173.055L155.629 172.946L155.631 173.06L155.853 173.491L156.206 173.386L156.56 173.496L156.774 172.847L156.712 172.531L156.576 172.121ZM160.356 168.003L160.037 167.862L159.808 168.154L159.845 168.295L159.839 168.613L159.925 168.641L160.179 168.585L160.162 168.402L160.475 168.224L160.356 168.003ZM113.871 127.644L113.447 127.845L112.358 127.713L112.366 127.621L112.534 127.254L112.304 127.051L112.056 126.967L111.163 126.897L110.06 127.295L107.999 127.77L107.726 128.104L107.553 128.56L107.775 128.813L108.529 129.362L109.246 129.436L109.76 129.308L110.314 129.394L110.597 129.076L111.381 129.292L111.683 129.595L112.328 129.328L112.474 128.83L112.697 128.604L113.446 128.435L114.249 128.658L114.497 128.619L114.756 128.348L114.406 127.804L113.871 127.644ZM142.051 150.932L141.917 150.065L141.505 149.724L141.268 149.745L141.224 150.183L140.952 150.43L140.872 150.653L140.887 151.161L140.767 151.633L140.991 152.104L140.937 152.579L141.041 152.913L141.174 152.889L141.661 152.665L142.012 152.333L142.144 151.927L141.985 151.455L142.051 150.932ZM48.6374 10.9979L48.6342 10.9509L48.532 10.9428L48.5353 10.9898L48.6374 10.9979Z" fill="white"/>
</svg>
