<svg width="54" height="64" viewBox="0 0 54 64" fill="none" xmlns="http://www.w3.org/2000/svg">
<path d="M32.2016 3.70616L32.109 4.08441L31.9159 4.17859L31.5784 4.39935L31.1922 4.7013L30.832 5.04061L30.7347 5.4091L30.8336 5.64938L30.931 5.73216L31.0624 5.65909L31.2539 5.70457L31.494 5.83605L31.8948 5.96432L31.9062 6.0909L31.8218 6.25324L31.5103 6.54059L31.2296 6.86528L31.202 7.0633L31.236 7.20781L31.3334 7.29545L31.7488 7.25651L31.8104 7.37502L31.6076 8.20781L31.6709 8.34905L32.0361 8.48217L32.3022 8.68182L32.8003 9.20781L32.9982 9.63312L32.8619 9.776L32.5488 9.84581L32.2941 9.81009L32.5828 9.55361L31.877 8.61851L31.5573 8.62015L31.1338 9.01623L29.9557 8.61529L29.7302 8.77759L29.5631 9.09416L29.1542 9.48702L28.5749 9.65913L27.9291 10.0909L27.2492 10.3961L26.73 10.6266L26.4314 10.5861L26.9052 10.0877L26.704 10.078L26.0744 10.4302L25.7125 10.7273L25.5957 11.2273L25.4902 12.0487L25.7661 12.2663L26.2497 13.3474L26.8451 13.8085L26.73 14.2484L26.5725 14.5958L26.2123 14.8961L25.9138 14.6737L25.7304 14.6786L25.5925 15.3815L25.8505 17.25L26.2659 18.5552L26.678 19.1234L27.6078 20.0049L28.5911 20.4692L30.3598 21.9481L31.3302 22.4156L31.5849 22.6689L32.1723 23.8036L32.6802 25.1104L33.2271 27.1526L33.6165 28.1543L34.4019 29.2842L36.031 30.8946L37.5125 32.0682L38.8917 32.7923L39.9676 32.9189L42.5135 32.7598L42.9565 32.828L43.427 33.0228L43.539 33.5244L43.367 33.8621L42.8315 34.2128L42.2863 34.6981L42.2263 35.3589L42.7358 35.8231L45.1925 37.052L47.7044 38.0764L48.4865 38.5975L49.3935 39.4075L51.5825 40.5179L51.9525 41.0569L53.2831 42.2144L53.885 43.1056L54.0002 43.7955L53.7131 44.4952L53.58 44.9871L53.3545 45.4725L52.7882 45.2891L52.1439 44.7891L51.1736 42.7533L49.4033 42.5471L49.0366 42.3962L48.407 42.0455L48.3696 41.8134L48.2139 41.5245L48.0532 41.427L47.3766 41.3621L46.9076 41.6932L46.3559 42.4773L45.7296 43.6024L45.0935 45.2469L45.0578 45.9092L45.4034 46.5504L46.4354 46.9076L47.2322 47.4774L47.7579 48.0715L47.7952 49.5018L48.0305 50.3118L47.6849 50.7712L47.0147 50.6527L46.1223 50.9449L45.4894 51.4677L45.2265 51.9644L45.2947 53.2501L45.1649 53.7387L43.9658 54.6608L43.3362 55.6024L43.1788 55.992L42.9387 56.4336L41.4246 56.4498L41.0661 55.9027L41.0531 55.0894L41.3127 54.5878L41.8693 54.3524L42.2441 53.3069L42.1256 52.5504L42.3447 52.2144L42.5508 51.9774L42.9743 51.8378L43.5731 51.7047L43.6331 50.6446L43.1658 50.1624L43.0019 49.4855L42.7844 48.2322L42.0137 46.6267L41.6015 45.19L41.2787 44.479L40.7886 44.1072L39.9043 44.1121L39.4646 44.0066L37.9002 43.0033L37.7916 42.8507L37.8013 42.5829L38.0609 42.1787L37.8857 41.6316L37.7007 41.1137L37.3941 40.6721L37.0581 40.4416L36.3539 40.5829L36.1072 40.6917L35.6627 40.6543L35.3137 40.8507L35.119 40.8572L35.6675 40.0796L35.5198 39.8962L34.9779 39.5764L34.2413 39.5277L34.0367 39.4887L33.9167 39.6884L33.7739 39.5797L33.7885 39.2322L32.9334 37.6705L32.3589 37.0326L32.0684 36.9189L31.5443 37.0537L30.6665 36.7744L30.1424 36.7127L29.8535 36.7809L29.4219 36.9838L29.2045 36.8491L29.1283 36.6397L28.3315 35.9887L27.3368 35.6202L25.401 33.5374L24.8071 32.7566L23.5853 31.8946L22.8129 30.6348L22.18 30.1721L21.26 29.8004L21.0474 29.8474L20.7716 29.9871L20.5541 30.0066L20.3822 29.8426L20.5574 29.6738L20.7537 29.5975L20.6774 29.1137L19.6292 27.8572L19.0159 27.4514L18.8422 27.2014L18.714 26.8588L18.5826 26.6332L18.2921 26.5033L18.0439 26.526L17.7015 26.44L17.7129 25.8328L17.781 25.367L17.7291 24.9708L17.3948 23.927L16.8171 23.0406L16.4764 20.9124L16.2136 20.3101L15.5742 19.854L14.1317 19.341L12.1212 17.9594L11.696 17.9351L10.4872 17.3961L9.7375 17.3036L8.76395 17.7874L7.58103 19.1153L6.62204 20.4903L6.27317 20.7566L5.03509 21.2241L3.9414 21.4465L3.93006 21.0958L3.89109 20.8312L4.07609 20.5406L4.38113 20.1981L4.66186 19.7663L4.77868 19.4546L4.72351 19.2468L4.59694 18.9383L4.42496 18.9156L3.38322 19.1754L3.14468 19.1088L2.37391 18.7046L1.54476 18.2078L1.23967 17.8539L1.12449 17.4968L1.2105 17.2662L1.14231 17.0422L0.980089 16.7403L1.12612 16.3977L1.38412 15.9708L1.51391 15.6802L1.73135 15.6056L1.83519 15.4286L1.66158 14.7208L1.57071 14.6072L1.42141 14.5195L1.19099 14.5098L0.788597 14.3637L0.503018 14.1185L0.441367 13.7874L0.290432 13.4692L0.0324352 13.177L0 12.8571L0.2937 12.6884L0.694461 12.6819L0.97682 12.7451L1.60968 12.2305L1.84331 12.1851L2.05263 12.0747L2.22788 11.3702L2.36257 11.1591L2.39501 11.0357L2.27007 10.888L1.75893 10.3913L1.5253 9.87176L1.15692 9.28896L0.814545 9.03084L0.744772 8.82956L0.736651 8.57467L0.806424 8.34905L1.42631 7.9984L1.793 7.625L1.95042 7.76788L2.28468 7.92047L3.19173 7.71269L3.75481 7.50328L4.15072 7.28247L4.39574 7.32146L5.28496 7.65096L5.57866 7.48376L6.21959 7.03734L6.31536 6.80197L6.8216 6.08768L6.83136 5.91398L6.62367 5.46429L6.68854 5.36526L7.30843 4.90423L7.61183 4.49511L7.94123 4.2208L8.17814 4.21431L8.24306 4.30844L8.27064 4.50002L8.24954 5.28897L8.34041 5.53083L8.82724 6.0958L9.17447 6.41723L9.98094 6.63798L10.0182 6.74351L9.79594 7.16724L10.2843 7.6737L10.372 8.04383L10.5976 8.25165L10.9156 8.14935L11.0194 7.95292L10.8945 7.61039L10.802 7.25166L10.8198 7.04383L10.9074 6.80519L11.1297 6.47078L11.7334 5.70457L11.9508 5.26137L11.9897 4.57467L11.9914 4.02273L12.1926 3.88798L12.6259 3.98701L12.7557 3.97567L12.8141 4.31493L12.9991 4.85553L13.2165 5.13474L13.4485 5.20133L13.7211 5.20291L14.3961 4.87336L14.8359 4.73053L15.0858 4.76947L15.2335 4.9935L15.5483 5.5828L15.7284 5.64938L15.9458 5.58116L16.0221 5.48054L15.9523 5.25325L15.8598 4.76135L15.7332 4.37988L15.5677 4.20128L15.5337 3.96918L15.6375 3.55035L15.7559 3.1997L15.9864 3.10388L16.2508 3.06009L16.5997 3.4318L17.0135 3.54872L17.3218 3.52925L17.3753 3.31329L17.3559 3.07629L17.1725 2.77111L17.2082 2.30844L17.4208 1.44478L17.5425 1.51137L18.0001 1.51949L18.4982 1.56819L18.8195 1.92043L19.1343 2.04057L19.5822 2.07792L19.8824 2.02923L20.0284 1.89611L20.202 1.48377L20.5233 0.972403L21.0263 0.709436L21.8863 0.660687L22.3163 0.564923L22.7626 0.569778L23.0984 0.649342L23.4457 0.639582L24.3284 0.282486L25.2387 0L25.3653 0.0470645L25.3848 0.141243L25.2209 0.358781L25.0618 0.647707L25.1689 0.977258L25.6866 1.63799L25.9689 2.14287L26.2351 2.52112L26.6488 2.72078L27.1924 2.84255L27.6532 2.88635L28.1352 3.02922L29.7887 3.38151L30.6211 3.47891L31.2523 3.49353L32.2016 3.70616ZM26.6699 20.5909L26.8046 20.2663L26.7543 20.0341L26.4687 20.0812L26.2675 20.3832L26.4022 20.638L26.6699 20.5909ZM26.4606 33.0066L26.4573 32.9579L26.4233 32.9627L26.4087 32.992L26.4233 33.0114L26.4606 33.0066ZM17.153 27.1072L17.304 27.3475L17.3218 27.4871L17.2196 27.6462L17.2618 28.0033L16.8804 27.7062L16.3044 27.8556L15.9507 27.8231L15.8533 27.5569L15.9344 27.401L16.4829 27.3669L16.6533 27.2907L16.9875 27.3264L17.153 27.1072ZM13.6757 39.1543L13.9045 39.5374L14.4157 41.1056L14.4643 41.4433L14.3621 41.7891L14.2323 42.0342L13.7244 42.8199L13.799 43.4676L13.9873 43.8686L14.0148 44.3118L13.9207 44.8605L13.6059 48.2193L13.4534 48.8118L13.3577 49.3232L13.0104 49.479L12.5626 49.315L11.9979 49.0261L11.7367 49.0439L11.4738 49.143L11.2579 49.0586L11.0519 48.8946L10.8977 50.0407L10.643 50.505L10.2551 50.8021L9.89007 50.8199L9.51358 50.7209H9.19556L8.95381 50.5017L8.76232 50.1154L8.45728 49.6462L8.14733 49.0894L8.11326 48.5845L8.05968 47.4693L8.14897 47.2258L8.27876 46.992L8.34204 46.492L8.29822 46.0553L8.38909 45.8994L8.56924 46.0553L8.70388 45.9968L8.69576 45.7712L8.73637 45.3605L8.49942 45.0164L8.09866 44.8994L8.05968 44.5391L8.10188 44.1868L8.31283 43.9498L8.38423 43.6348L8.38587 42.6722L8.10351 42.3166L7.99481 41.7777L7.84878 41.4335L7.58588 41.0861L7.28733 40.8037L7.10396 40.5309L7.0634 39.8167L7.16725 39.2192L7.26138 38.9628L7.3571 39.0001L7.65244 39.2972L7.89419 39.3637L8.3729 39.4351L8.84343 39.3394L9.42112 39.0683L9.97767 38.7403L10.7841 37.7744L11.2807 37.578L11.5354 37.3231L11.6231 36.979L11.834 36.8897L12.0822 37.2241L12.3906 37.2598L12.866 37.5358L13.0705 37.7988L13.2457 38.1154L13.4145 38.255L13.5946 38.3345L13.6205 38.4092L13.4778 38.4838L13.3138 38.8458L13.4063 38.9498L13.6757 39.1543ZM7.54696 38.2063L7.39603 38.4806L7.18185 38.4611L7.26623 38.2582L7.46421 37.8507L7.70433 37.7144L7.81144 37.8361L7.69785 38.0699L7.54696 38.2063ZM33.2871 40.2127L33.0843 40.2647L32.9658 40.1933L32.9009 40.1024L32.9804 39.8767L33.3942 40.0115L33.3893 40.1381L33.2871 40.2127ZM8.42643 49.9011L8.16358 50.479L7.88934 50.0699L7.87795 49.7192L7.91529 49.6186L8.25281 49.7664L8.42643 49.9011ZM40.748 54.8232L40.4397 55.479L40.2889 55.7306L39.1903 57.3297L39.0638 57.6982L38.9858 58.0992L38.8722 58.4498L38.7197 58.7794L38.5753 59.1982L38.6029 59.6722L38.6548 59.9044L38.7878 60.0569L39.0053 60.1998L39.1724 60.4206L38.9161 60.6203L39.1968 61.0212L39.4369 61.2582L39.4694 61.4953L39.4646 61.7323L38.9664 62.1771L38.7717 62.4222L38.6516 62.7193L38.5997 63.0245L38.6532 63.3005L38.637 63.5748L38.1356 63.5407L37.6228 63.3719L37.1052 63.4449L36.3685 63.1267L36.1008 63.0699L35.8574 62.9449L35.2456 61.9579L34.7523 61.5407L34.2233 61.2144L33.683 61.1949L33.1427 61.2323L32.6656 61.031L31.6937 60.3573L30.6633 59.8167L30.2268 59.4661L30.0272 59.229L29.7935 59.0716L29.2045 58.9157L28.6739 58.5488L28.4337 58.5228L27.9161 58.5667L27.65 58.5407L27.3823 58.4108L26.8662 57.9807L26.5352 57.3832L26.4492 57.1186L26.6829 56.4352L26.9604 55.7777L27.2054 55.5943L27.491 55.4612L27.663 55.2664L27.809 55.0277L28.3396 55.716L28.5765 55.8833L28.8167 55.8459L29.2418 55.5991L29.2775 55.328L29.7481 54.9855L30.3453 54.979L30.6211 55.0423L30.7655 55.3524L30.9927 55.4482L31.2555 55.4888L32.122 56.0781L32.3655 56.1738L32.6105 56.1901L33.2838 55.9433L33.7998 55.8491L34.8821 55.9855L35.4663 55.8378L35.8752 55.8199L36.4707 55.5926L36.9283 55.2144L37.1669 55.1203L37.4233 55.0927L38.0431 55.117L38.6662 55.2031L38.9275 55.1138L39.1465 54.8654L39.3996 54.7534L39.6771 54.828L40.3959 54.4027L40.7139 54.3735L41.0158 54.5375L40.748 54.8232ZM24.6935 63.1901L24.4744 63.2534L24.1889 63.0586L24.1694 62.7858L24.2213 62.7047L24.5686 62.8297L24.6773 63.0829L24.6935 63.1901Z" fill="white"/>
</svg>
