<svg width="98" height="139" viewBox="0 0 98 139" fill="none" xmlns="http://www.w3.org/2000/svg">
<path d="M67.6652 1.25653L67.6896 1.51498L67.7222 1.63205L67.9398 2.31314L68.2648 3.33394L68.4809 4.27676L68.7782 5.57228L68.7685 6.29554L68.8416 6.57512L69.108 6.92465L69.4346 7.52607L69.5451 7.86578L69.654 8.12105L69.9984 8.60541L70.2665 9.34018L70.494 10.3138L70.689 10.7819L70.7621 11.0128L70.8498 11.4322L70.8384 12.318L70.8433 13.347L70.8498 14.4963L70.8547 15.4471L70.8206 15.9283L70.845 17.2986L70.5508 18.0122L70.5866 18.5746L70.6776 18.9387L70.5574 18.9956L70.3282 19.0606L69.2754 18.4836L68.2485 17.8741L68.1007 17.8561L67.8846 17.9195L67.3029 18.3617L66.7586 19.0541L66.5084 19.6458L66.1071 20.257L65.4604 21.242L65.3938 21.455L65.3873 22.258L65.4182 23.0236L65.475 23.1309L65.8244 23.1666L66.0746 23.7941L66.6465 24.7954L67.6067 25.4391L68.4987 25.7317L69.7433 25.8048L70.7279 25.7837L70.671 25.1074L70.7686 24.0232L70.8937 23.295L71.0318 23.2626L71.2901 23.3324L71.4331 23.4072L71.8279 23.3764L72.5298 23.5193L73.0969 23.5048L73.6038 23.4901L74.46 23.4658L74.9604 23.4576L74.7915 24.6328L74.1383 26.4778L73.9157 27.3263L73.3585 30.3676L72.6306 31.907L72.2227 32.5441L71.0431 33.6723L70.715 33.9015L70.4241 34.0477L69.9074 34.1778L67.8862 36.4698L67.134 37.5784L66.4645 39.1989L65.8 40.0913L64.8235 41.9997L63.951 43.4773L63.1142 44.8297L61.6665 46.6957L61.0231 47.237L60.5894 47.4842L59.439 48.5716L57.8191 50.3271L56.5794 51.8876L54.7256 53.6659L53.6516 54.4461L52.0398 55.9855L51.5898 56.2131L49.7732 57.6484L48.467 58.5229L46.3531 59.5388L45.5131 59.8233L43.5065 59.5599L42.6698 59.6997L41.9695 60.3142L41.9045 61.1984L41.6121 61.3318L41.1701 61.2928L39.7679 60.9238L39.0075 60.9936L38.5639 61.4667L38.2065 62.0648L37.1504 62.0957L35.2689 61.4764L33.0559 61.0993L32.5442 61.057L31.4718 61.5171L31.0982 61.5837L29.5368 61.4846L28.6707 61.1952L27.8421 61.1936L27.2068 61.4326L26.4367 61.5171L24.3553 63.1832L23.2797 63.1849L22.352 63.3782L21.8922 63.3718L21.0311 63.1377L20.711 63.1539L20.2203 63.258L19.7296 63.5521L18.6118 63.6789L18.1779 63.9309L16.29 65.4605L15.8594 65.3988L15.5117 65.2996L14.5303 65.2801L13.4206 64.4657L12.9949 64.5178L13.1086 64.2739L13.1428 63.8415L12.9072 63.536L12.7496 63.3994L12.3141 63.4254L12.0818 63.0581L11.4156 63.0239L11.1849 63.1166L10.8649 63.136L10.8372 62.7638L10.8616 62.5298L10.8421 62.1705L10.7625 61.73L10.5042 61.5902L10.306 61.5317L9.83471 61.5625L9.50983 61.6098L9.35701 61.7381L9.18317 62.0616L9.18159 63.0434L8.94765 62.7622L8.68118 62.1738L8.59501 61.5464L8.6909 60.8067L9.19616 60.5255L9.15719 60.0265L9.04999 59.5941L8.48622 58.4887L8.26686 57.9832L7.78917 57.6418L7.41709 56.8194L7.04342 56.5219L6.88743 55.9465L6.5218 55.488L6.39833 54.7631L6.59984 54.3486L6.91827 54.121L7.24324 54.4802L7.64775 54.3404L8.22134 53.8171L8.56089 53.0238L8.58202 51.7575L8.49435 50.9692L8.03937 48.9373L7.82487 48.4708L6.79808 47.0225L5.60707 45.0898L4.1009 42.0582L3.38114 40.2441L2.29088 36.603L1.33074 34.5533L0.151132 32.6482L0 32.5247L0.180387 32.2938L0.815658 31.8549L1.10325 31.7362L1.25755 31.7915L1.4071 31.6713L1.55168 31.3738L1.58411 31.0958L1.65561 30.7024L1.79703 30.4668L1.95302 29.9986L2.2178 29.6979L2.7784 29.498L3.20244 29.7629L3.37955 30.0213L3.45264 30.3627L3.64116 30.5285L3.94332 30.5171L4.15614 30.7268L4.2796 31.1592L4.25531 31.4713L4.08305 31.6664L4.10745 31.9216L4.32681 32.2386L4.41774 32.541L4.56402 32.9408L5.33416 33.1732L5.7111 33.3033L6.35936 33.3472L6.97192 33.5259L7.54868 33.8381L8.49752 33.9129L9.81854 33.7519L10.9054 33.8234L11.7585 34.129L12.3775 34.1859L12.761 33.9924L12.9283 33.7145L12.8763 33.3504L13.0664 33.1212L13.497 33.0237L13.8414 32.7506L14.1014 32.3004L14.7009 31.9346L15.6417 31.6534L16.1096 31.6631V30.9366V28.6478V26.3705V24.1013V21.8403V19.5889V17.3473V15.1123V13.0105L16.3289 13.1616L17.7734 14.2768L18.1633 14.8636L18.3566 15.2358L18.9773 16.5898L19.4388 17.8074L19.8141 18.7274L19.8434 19.1484L19.8969 19.5597L19.9506 19.7629L19.9164 19.9872L19.6516 20.4895L19.3819 20.873L19.057 21.3981L19.0261 22.0922L19.1236 22.9115L19.3234 23.3194L19.5736 23.4544L20.1715 23.2512L20.5501 23.3146L21.0846 23.4706L22.8362 23.3747L23.0474 23.4251L23.7086 23.4836L23.9297 23.4154L24.1278 23.2415L24.357 22.7505L24.5617 22.5879L24.9338 22.5051L25.3741 22.3718L25.738 22.0889L26.3148 21.1185L27.47 20.2586L27.8242 20.0539L28.0484 19.823L28.2434 19.5125L28.648 18.4332L28.9534 17.5359L29.0574 17.1133L29.3304 16.4241L29.6602 15.9836L29.9835 15.7511L30.146 15.6926L30.562 15.5739L31.0965 15.4634L31.6587 15.5869L32.2615 15.8535L32.9423 16.3021L33.6392 16.8581L33.9594 17.1409L34.3055 17.2677L34.9212 17.3116L35.3242 17.3019L35.9513 17.8545L36.2682 17.8886L36.9781 18.0561L37.8556 18.2283L38.4064 18.2089L38.9978 17.9098L39.4234 17.8968L39.9743 17.9212L40.5803 17.8399L41.0239 17.7114L41.3635 17.4514L41.6624 17.167L42.0069 16.3201L42.2051 15.6406L42.5105 14.8587L42.8859 13.8005L43.0207 13.0641L43.1572 12.8609L43.7031 12.6366L44.1531 12.4822L45.3685 12.1929L45.6171 12.0385L45.8446 11.6922L46.3742 11.1055L47.0274 10.6161L47.3653 10.3366L47.9827 7.96658L48.0575 7.674L48.5059 7.04658L48.7838 6.78158L48.9625 6.77672L49.216 6.61093L49.5458 6.28582L49.9373 6.08431L50.3906 6.00951L50.6848 5.79332L50.8196 5.43894L51.0536 5.2666L51.3867 5.27643L51.5768 5.16422L51.6222 4.92859L51.8237 4.7254L52.1795 4.55793L52.3648 4.35801L52.3826 4.12883L52.8067 3.57126L53.637 2.68539L54.4184 2.1928L55.1529 2.092L55.8499 1.90836L56.5079 1.64018L56.9905 1.21912L57.2992 0.646966L57.8305 0.326707L58.9012 0.232455L58.9598 0.227594L60.2628 0L61.353 0.185329L62.6675 0.708775L63.8974 0.894005L65.0445 0.741218L65.9771 0.707088L66.6936 0.791618L67.259 0.973673L67.6652 1.25653ZM56.0335 40.2555L56.7825 39.9223L57.1205 39.7191L57.3642 39.5517L57.6794 39.2981L57.7883 38.682L57.8809 38.1587L58.1213 37.9002L58.3683 37.7295L58.5714 37.458L58.8232 36.8062L58.9955 36.1691L59.0133 35.9089L58.924 35.6423L58.7631 35.3579L58.6055 34.9742L58.4154 34.9141L58.0433 34.6995L57.4958 34.2672L57.0213 33.8917L56.5761 33.3472L56.3942 33.2578L55.9637 32.8888L55.7784 32.6775L55.6484 32.4239L55.5266 32.3409L55.3333 32.406L54.8246 32.5181L53.7345 32.9603L53.0586 33.3667L52.4899 33.8511L51.9001 34.0364L51.4679 34.1973L51.1251 34.7516L50.805 35.2685L50.5174 35.735L50.3517 35.9447L50.2022 36.0796L50.0511 36.3787L49.7408 36.8761L49.4565 37.2093L49.06 37.3914L48.5482 37.6271L48.3743 37.7636L48.3499 37.9652L48.5319 38.4334L48.7075 38.8852L48.995 39.4151L49.2062 39.8036L49.5393 40.2782L49.7342 40.5562L49.7083 41.0227L49.7749 41.1902L49.8854 41.3836L49.978 41.4324L50.0819 41.5023L50.3582 41.6372L50.4247 41.7266L50.6181 41.8859L50.8034 42.1769L51.1543 42.5767L51.5491 42.8807L52.2266 43.0059L52.7563 43.1034L52.9318 43.0433L53.1122 42.7979L53.2601 42.4857L53.3072 42.0891L53.4762 41.8778L54.1114 40.8716L54.4607 40.4994L54.6752 40.4717L54.9498 40.4002L55.3007 40.3693L55.5639 40.4002L55.6208 40.3888L56.0335 40.2555ZM97.6195 138.876L97.4229 139L96.5017 138.891L96.4026 138.636L96.6739 138.242L96.8348 138.077L97.3109 138.166L97.691 138.484L97.7593 138.592L97.6195 138.876Z" fill="white"/>
</svg>
