<svg width="55" height="44" viewBox="0 0 55 44" fill="none" xmlns="http://www.w3.org/2000/svg">
<path d="M49.6809 0.785066L50.3959 1.78585L51.1644 2.86123L51.7626 3.69654L52.2004 5.85869L52.2474 6.26904L52.2814 6.45397L52.3154 6.62425L52.3722 6.91783L52.7159 7.04436L53.3645 7.10277L53.8362 7.31527L54.1183 7.66721L54.1459 7.72562L54.295 7.99648L54.3291 8.19275L54.2886 8.7572L54.1929 9.48227L54.0307 9.9494L54.1216 10.5852L54.0924 10.8561L54.021 11.041L53.7308 11.2535L53.3369 11.4611L52.3949 12.0742L52.1257 12.1651L51.7318 12.1813L51.3897 12.3337L50.9844 12.6646L50.1089 13.8941L49.3615 15.1285L49.1021 16.1487L48.8102 17.1219L48.152 17.7431L48.0596 18.0919L48.0321 18.2946L48.0093 18.7634L47.9299 19.5387L47.8277 19.9118L47.7223 20.022L47.0122 20.2589L46.6037 20.5427L46.3589 21.1055L46.2697 21.7138L46.127 22.4064L46.046 23.0147L45.9357 23.3293L45.7023 23.6602L45.3407 24.0154L45.0278 24.2166L44.2123 24.3479L43.7924 25.1524L43.4373 25.7802L43.4276 26.0316L43.0855 27.3325L42.4905 28.3121L42.4516 28.6576L42.45 28.9415L41.7058 29.8027L41.508 30.0574L41.3183 30.3899L41.5064 30.7111L41.7155 31.003L41.7463 31.102L41.4091 31.3761L40.819 31.853L40.4671 32.1384L40.3893 32.2942L40.3374 33.0095L40.2353 33.2025L40.0002 33.4652L39.6549 33.754L39.3047 33.9778L38.9075 34.1335L38.5265 34.1919L38.3124 34.1011L38.1909 33.8837L37.9768 33.0079L37.8682 32.8197L37.6202 32.6494L37.1305 32.1693L36.6344 31.6843L36.0362 31.3437L35.9081 31.368L35.8092 31.4604L35.639 31.9487L35.472 32.1271L35.1575 32.1887L34.6111 32.1919L34.2122 32.1238L34.1215 32.0265L34.0404 31.8157L33.9301 31.647L33.4535 31.9892L32.7045 32.5277L32.4613 32.6153L32.2748 32.724L32.0284 33.2252L31.7284 33.7621L31.3377 34.0427L30.9567 34.2795L30.7378 34.4855L30.4249 34.7288L29.8121 35.3371L28.9998 36.1416L28.7129 36.5568L28.4292 37.178L28.2638 37.8658L28.0838 38.6184L27.8195 39.8284L27.4304 40.5129L27.0899 41.0563L26.837 41.4829L26.7041 41.8348L26.649 41.8235L26.516 41.9743L26.1367 41.8753L25.9664 41.5688L25.7313 41.5185L25.326 41.0692L25.2401 41.1438L25.6681 42.2857L25.5092 42.7318L24.3046 42.7415L23.2686 42.8907L22.5569 42.8778L22.2002 42.7155L22.0413 42.2873L21.9797 42.3311L21.944 42.5598L21.7187 42.7399L20.9194 42.774L20.5659 42.482L20.2806 42.1543L19.9741 42.01L20.0212 42.1462L20.373 42.4658L20.3308 42.9248L19.6872 43.4568L19.277 43.4876L19.0257 43.259L18.8944 42.8859L18.8279 42.3344L18.6593 41.9743H18.5685L18.6528 42.3036L18.6804 42.5728L18.6836 43.1324L18.99 43.5671L18.5198 43.7017L18.3286 43.7066L17.9557 43.7163L17.8843 43.5541L17.813 43.1941L17.7141 43.1L17.599 43.7098L17.3509 43.752L17.1791 43.7472L16.4398 43.8802L16.2744 43.8542L16.2404 43.7407L16.3279 43.572L16.3084 43.2979L16.0523 43.5087L16.0117 43.9321L15.8658 44.0002L15.4265 43.9402L14.9449 43.7228L14.6515 43.5006L14.1619 43.1908L13.202 42.323L13.0464 41.9321L12.7724 41.4536L12.5681 40.967L12.2731 40.1366L12.3638 40.0766L12.586 40.1479L12.6946 40.023L12.2958 39.9322L12.2131 39.8349L12.1855 39.5429L12.2033 39.1861L12.5276 39.0612L12.8081 38.9995L12.9492 38.7838L13.0302 38.5665L12.2861 38.8957L11.5873 38.5227L11.4365 38.2972L11.5127 38.1237L11.8467 38.0977L12.3233 38.1107L12.6087 37.942L12.4336 37.882L12.1255 37.8885L12.0121 37.7766L12.0218 37.5056L11.9213 37.5657L11.7883 37.8057L11.3181 37.9825L11.0425 37.8057L11.0149 37.4132L10.955 37.2364L10.7231 37.0986L9.89952 36.0588L8.86514 35.191L7.9459 34.5925L6.55642 34.3071L3.64788 34.3184L3.48411 34.2357L3.66248 34.0995L3.91699 34.007L4.85246 33.522L4.69522 33.4571L3.72244 33.7605L3.3901 33.7897L2.95881 34.372L0.397206 34.4693L0.0972729 34.5001L0.103754 34.2341L0.228586 33.4685L0.311263 33.1668L0.406903 32.9397L0.308047 32.6672L0.210725 32.2974L0.163721 31.7167L0.283704 31.5367L0.324226 31.3177L0.295035 30.9739V29.8255L0.364748 29.7006L0.447475 29.6048L0.452324 29.4524L0.296667 29.1556L0.152391 28.8166L0.15724 28.3283L0.0988561 27.8564L0 27.6406L0.0745627 26.8361L0.116718 25.8175L0.0777787 25.3649L0.171836 25.0454L0.222105 24.2587L0.21399 23.4883L0.40532 22.2702L0.966247 22.2118L1.63424 22.1096L1.93254 21.6311L2.10438 21.0245L2.04926 20.4243L2.17899 20.2264L2.44652 19.9004L2.92962 19.4349L2.91017 18.9239L3.04312 18.7666L3.2717 18.6482L3.59924 18.5882L3.96563 18.3336L4.16829 17.8875L4.36773 17.1738L4.0532 16.6759L4.05805 16.5656L4.17803 16.2979L4.37095 16.0303L4.52334 15.9443L4.88002 16.0125L4.94162 15.9897L4.99679 15.9054L5.22701 15.1155L5.20593 14.903L4.87354 14.3742L4.81842 13.9979L4.76978 13.4383L4.68874 12.942L4.59305 12.7539L4.41637 12.5965L4.33691 12.4943L3.64946 11.4854L3.66084 11.007L3.9494 10.3954L4.13751 10.0986L4.40014 9.93316L4.45204 9.79204L4.37421 9.62012L4.24127 9.49038L4.21044 9.21462L4.24775 9.03132L4.34175 8.83021L4.3045 8.40847L4.31261 7.76131L4.35635 6.8173L4.36931 6.23984L4.92707 5.81166L5.7393 5.10283L6.15273 4.36157L6.37484 3.80034L6.64721 1.93183L6.84502 1.81827L7.07851 1.73066L7.894 1.04944L8.52142 0.796401L9.00135 0.650426L9.72278 0.527172L10.1703 0.577414L10.9858 0.608253L11.6278 0.540141L12.1726 0.168695L12.419 0.0648941L12.766 0L14.3418 0.501185L15.9161 0.974848L16.2014 0.93104L16.4414 0.997519L16.8354 1.25383L17.4158 1.80367L17.7611 2.15888L17.9281 2.36648L18.7371 3.55868L19.0387 3.85875L19.3419 4.0226L19.6499 4.08096L19.8866 4.05824L20.1103 3.92365L20.4151 3.65763L20.8788 3.53596L21.2566 3.56032L23.2167 2.48815L23.4064 2.47355L23.9771 2.5579L24.611 2.70551L26.2534 3.78089L27.5942 4.48482L28.5361 4.72005L29.6467 4.88711L31.5322 4.9374L32.9574 3.43053L33.4843 3.10126L34.1198 2.80446L34.3241 2.75417L35.4444 2.52548L37.6412 2.33243L39.7019 2.41677L40.1072 2.47682L40.9827 2.6763L42.3316 3.16778L42.9137 3.63976L43.8281 3.71763L44.483 3.62358L44.6971 3.1564L45.3553 2.54166L45.8336 2.29189L46.341 1.97237L47.1452 1.57498L47.8066 1.39654L48.3984 0.940742L48.8669 0.796401L49.6809 0.785066ZM20.9891 43.3611L20.5497 43.499L20.2611 43.4649L20.6567 42.8648L20.8578 42.9945L21.1155 43.0481L20.9891 43.3611Z" fill="white"/>
</svg>
