<svg width="66" height="50" viewBox="0 0 66 50" fill="none" xmlns="http://www.w3.org/2000/svg">
<path d="M66.0003 7.0801L65.7652 7.11763L65.4323 6.98046L65.3016 6.77142L65.2461 6.74202L64.9817 6.87918L64.4772 7.05234L63.6218 7.5047L63.6413 7.62069L64.198 8.07964L64.3286 8.2315L64.3972 8.27885L63.8928 8.49936L62.8088 8.99589L62.0954 9.4009L61.9256 9.41561L61.4946 9.24575L60.858 9.04324L60.6882 9.04648L59.2189 9.08077L57.8689 9.15593L57.3073 9.25392L56.2641 9.34703L55.6079 9.37967L55.1883 9.53648L54.7295 9.74222L54.2528 9.87615L53.8986 9.92026L53.4725 10.113L53.1917 10.4952L52.3902 11.0603L51.9396 11.333L51.7127 11.6417L51.4548 11.6711L51.014 11.6155L50.6728 11.9487L50.2957 12.4256L49.6051 13.1165L49.2378 13.3958L49.0191 13.8465L49.1807 14.0801L49.7422 14.4296L49.9936 14.7595L50.1307 15.0209L50.3871 15.6905L50.5503 16.3487L50.792 16.6329L50.8621 17.1146L50.9242 17.4103L50.792 17.6209L50.6712 17.8545V18.0767L50.8165 18.3053L50.9438 18.5078L51.014 18.6695L50.9275 18.8492L50.6712 19.1235L50.5406 19.4045L50.2565 19.8732L49.8125 20.1933L49.5186 20.4252L49.2068 20.9152L48.6909 21.4591L48.4738 21.9131L48.2469 22.163L48.0134 22.2969L48.0739 22.5419L48.2762 22.8473L48.6109 23.1886L48.5962 23.7195L48.5799 24.1016L48.5913 24.5638L48.4085 24.9525L47.4779 25.3249L46.5867 25.4883L45.4945 25.498L45.0815 25.4393L44.7517 25.3576L43.5665 24.9395L43.0849 25.1861L42.9854 25.7888L43.8505 26.7654L44.2049 27.3093L44.5982 28.2174L44.8921 28.6845L44.7877 29.1222L44.004 29.6187L43.2253 30.0842L42.2328 30.1805L41.6091 30.3471L41.3071 30.5872L41.0851 31.6047L40.8614 31.9771L40.8663 32.4197L40.6558 32.9211L40.3374 33.2428L40.1137 33.7688L40.184 34.7634L40.2884 36.4456L39.8656 36.9748L39.389 37.5105L38.8861 37.8927L38.4078 38.069L38.0111 38.0037L37.6977 37.6738L37.5115 37.3961L37.1655 37.1642L36.8129 37.2116L36.4586 37.4239L35.8921 37.3537L35.4089 37.1413L35.164 37.1642L35.0236 37.3782L34.5061 37.8355L33.236 38.5296L32.7169 38.5802L32.4949 38.7533L32.5831 39.0375L32.8099 39.2694L33.2067 39.4328L33.2262 39.6222L32.8769 39.7872L32.5782 39.975L31.9203 40.2053L31.1611 40.2951L30.3775 40.1612L29.9743 39.8558L29.4976 39.8264L29.0634 40.0501L28.6144 40.4193L28.1247 41.2098L27.994 41.3486L27.8618 41.4743L27.5419 41.6442L27.0831 41.9218L26.853 42.5033L26.5771 43.5371L26.6423 44.0924L26.6635 45.0543L26.5558 45.7289L26.3567 46.1715L26.3958 46.5194L26.6995 46.9146L26.5771 47.171L26.3224 47.4552L26.0759 47.6136L25.0882 47.9125L23.7349 48.3192L22.8403 48.5805L21.5098 48.9692L21.1213 49.064L20.3115 49.0983L19.892 49.0394L19.3239 49.0231L18.488 49.0378L17.9052 49.144L17.3208 49.3383L16.8898 49.5833L16.6417 49.825L16.5535 49.941L15.9674 49.7418L14.1211 49.3857L9.12074 49.8561L8.64895 49.7662L6.94301 49.2158L4.74396 48.507L3.38417 48.0677L1.63898 47.4928L2.83396 46.0719L3.8755 44.8306L4.92032 43.5828L5.9488 42.3498L6.07126 41.9169L6.0876 41.0693L5.81658 39.9342L5.38066 39.4164L3.94245 39.2074L2.86335 39.0489L1.68631 38.8775L1.53615 38.8138L1.40223 37.9269L1.45943 37.5317L1.3827 36.7657L1.39416 36.1745L1.56385 35.2027L1.57371 34.7634L1.03008 32.8672L0.726375 31.8137L0.416196 30.7244L0.349338 30.3765L0.342761 29.9469L1.06435 28.9344L1.28805 28.7139L1.71082 28.2092L1.97526 27.9397L1.92953 27.7552L1.46919 27.649L0.773804 27.6392L0.403143 27.4857L0.114187 27.2097L0 26.8079L0.189316 26.0942L0 24.7043L0.386902 24.0151L0.719899 23.5332L1.84962 23.4647L1.45773 22.9192L1.26842 22.6023L1.14765 22.5109L1.10192 22.3655L1.1623 22.2185L1.45126 22.163L1.64715 21.9801L1.9655 21.7237L2.132 21.6126L2.16139 21.3007L2.31324 21.0818L2.54172 20.8058L2.72296 20.4922L2.67723 20.1247L2.84372 19.6837L2.92055 19.4061L3.04131 19.166L2.93519 18.8165L2.84372 18.5208L2.81443 18.1697L2.99558 18.0767L3.22415 17.9476L3.26819 17.6699L3.38905 17.3188L3.48042 17.0395L3.63227 16.819L3.64862 16.5953L3.55715 16.2246L3.93428 16.169L4.08613 16.3732L4.2885 16.6378L4.842 17.131L5.2011 17.2747L5.65327 17.3466L6.20996 17.2796L6.65405 17.1865L6.863 17.211L7.34785 17.5687L7.9143 18.0701L8.09555 18.2939L8.18044 18.6352L8.34694 18.7365L8.70933 18.3984L9.05866 18.2873L9.3803 18.351L9.73452 18.3886L10.0904 18.2645L10.2488 18.1746L10.8675 17.7369L11.4291 17.4037L11.7784 17.1996L11.9042 16.5136L12.0658 16.1233L12.296 15.8963L12.2111 15.6137L12.1147 15.3981L12.0168 15.1058L12.1147 14.9506L12.3384 14.882H12.9L13.8876 14.5733L14.7104 14.2647L15.4712 14.0132L15.8172 13.9723L16.1454 14.0148L16.2956 13.9413L16.3364 13.7012L16.5225 13.448L16.9453 13.2423L17.7403 12.8062L18.4424 12.1578L18.6921 11.6645L18.8618 10.9443L19.19 9.83045L19.5524 8.60717L19.6863 8.06658L19.8397 7.65009L20.4601 7.29896L21.0935 7.04416L22.0746 6.99352L23.2256 6.9674L23.4688 6.29613L23.6206 5.72449L23.8117 5.42887L24.0907 5.18878L24.1887 5.14143L24.809 5.49257L25.7608 6.02992L26.8693 6.29777L27.426 6.4317L27.6578 6.41047L29.0568 6.27978L30.162 6.48887L30.7416 7.06046L31.3114 7.20585L31.8696 6.92982L32.2157 6.87918L32.3496 7.05722L32.6271 7.13233L33.0516 7.10457L33.2965 7.26302L33.3226 7.42142L33.3552 7.60434L33.6686 8.03876L34.2351 8.56635L34.738 8.69369L35.3991 8.28379L35.6228 8.33114L35.7322 8.19886L35.799 7.89995L36.199 7.61904L36.9303 7.35607L37.345 7.12092L37.4936 6.92653L37.7401 6.87101L38.0094 6.92982L38.2022 6.85631L38.269 6.67179L38.3457 6.59174L38.4829 6.5264L38.6053 6.49375L38.8274 6.54439L39.2371 6.88083L39.8347 7.50146L40.2231 7.78562L40.4011 7.73827L40.6297 7.54717L40.9088 7.21726L40.9773 6.74037L40.8386 6.11809L40.9333 5.61508L41.2647 5.23289L41.8769 4.99769L42.7698 4.90787L43.3184 4.9618L43.5208 5.15938L43.795 5.26718L44.1395 5.28842L44.4563 5.06468L44.7419 4.59267L44.7583 4.00961L44.5052 3.31222L44.5737 3.09007L44.6831 2.99373L45.026 2.74058L45.5043 2.21634L45.9663 1.54018L46.412 0.710452L46.9621 0.197625L47.6167 0L48.4102 0.225387L49.3456 0.87214L49.6965 1.66593L49.468 2.6083L49.4484 3.12441L49.6377 3.22076L49.9578 3.19464L50.4066 3.04761L50.7005 3.03948L50.8393 3.17341L50.8311 3.43797L50.6744 3.83487L50.4867 4.9471L50.3708 5.90741L50.2549 6.84978L50.1553 7.67621L50.3332 8.31973L50.6042 9.28986L50.9095 9.93008L51.2213 10.1342L51.5348 10.2077L51.8465 10.1505L52.4881 9.73899L53.4562 8.97465L54.3965 8.50424L55.7646 8.23968L56.2233 7.41818L56.8567 6.8743L58.3031 6.06586L59.0883 5.75554L59.5405 5.70325L60.1054 5.84864L60.2343 5.90088L60.3453 5.94011L60.6376 6.00704L60.698 6.25366L60.6212 6.51987L60.3095 6.73873L60.2098 6.90859L60.329 7.03599L60.7698 7.0801L61.6824 6.78448L62.2734 6.59503L62.6831 6.51987L62.848 6.27325L63.1059 6.02504L63.5157 6.00704L63.9548 6.13932L64.3189 6.21608L64.9375 6.14585L65.2641 6.36147L65.7212 6.76814L65.9269 7.02128L66.0003 7.0801Z" fill="white"/>
</svg>
