<svg width="22" height="18" viewBox="0 0 22 18" fill="none" xmlns="http://www.w3.org/2000/svg">
<path d="M21.5909 2.10974L21.8903 2.51835L21.9326 5.28738L22.0009 5.48436L21.8415 5.51367L21.6625 5.72367L21.4526 6.04763L21.1646 6.2153L20.9335 6.40413L20.7155 6.63857L20.5202 6.68899L20.268 6.39111L20.0939 6.08668L20.1362 6.01996L20.2583 5.99879L20.3038 5.84086L20.2305 5.61298L20.0597 5.52669L19.8449 5.52018L19.6383 5.62272L19.4186 5.82462L19.295 6.04112L19.277 6.47577L19.334 6.96412L19.3323 7.20178L19.212 7.49643L19.1697 7.92949L19.2559 8.26482L19.334 8.46503L19.3422 8.63434L19.1371 9.16829L19.3145 9.26924L19.9019 9.30665L20.0744 9.66807L20.1915 9.91552L20.1589 10.062L19.7424 10.1711L19.2185 10.2915L18.8426 10.2574L18.1624 10.4202L17.7996 10.6708L17.9054 10.8271L18.0306 10.9476L18.0876 11.278L17.9819 11.7469L17.7898 12.2011L17.5506 12.7676L17.2741 13.4171L16.8949 14.3938L16.5744 15.1606L16.5401 15.7124L16.5483 16.0722L16.5125 16.7901L16.2082 17.1857L16.1399 17.1971L15.777 17.1499L15.655 17.1336L15.3084 17.088L14.7714 17.018L14.0733 16.9252L13.2484 16.8178L12.3291 16.6957L11.3463 16.5655L10.3293 16.432L9.3139 16.2985L8.3295 16.1683L7.41015 16.0478L6.58514 15.9387L5.88875 15.8459L5.35176 15.7759L5.00515 15.7304L4.88319 15.7141L4.49914 15.6636L4.29247 15.3967L4.0419 15.0743L3.78964 14.7504L3.53907 14.4264L3.2885 14.1025L3.03793 13.7785L2.78736 13.4545L2.53679 13.1306L2.28622 12.8067L2.03565 12.4811L1.78498 12.1571L1.53282 11.8316L1.28225 11.506L1.03168 11.1804L0.781008 10.8548L0.530438 10.5292L0.279868 10.2037L0.110636 9.98552L0.0178766 9.73971L0 9.09507V8.95343L0.169232 8.69296L0.25057 8.87851L0.439367 9.13084L0.759855 9.06898L0.909621 9.11131L1.02026 10.005L1.25623 10.3225L1.54255 10.4495L2.51395 10.5195L3.11768 10.399L4.30717 9.81621L4.93195 9.60622L6.66002 9.64204L8.04476 9.88457L10.2007 10.0278L10.6189 9.99039L11.7824 9.52156L12.495 9.10808L12.9197 8.98925L13.1996 8.58878L13.3835 8.06784L13.5478 7.72759L13.7577 7.56484L13.9563 7.27506L14.1173 6.8046L14.5176 6.32926L16.122 5.17183L17.0592 4.1918L17.1423 3.8744L17.6515 3.39902L18.0599 2.87813L19.9718 1.38695L20.3543 0.769982L20.5804 0.0781458L20.608 0.0293109L20.7724 0L21.0068 0.104178L21.0311 0.621838L20.9449 1.11024L20.9352 1.6279L20.901 1.90789L21.0783 2.13741L21.381 2.23672L21.5128 2.22534L21.5909 2.10974ZM21.5161 4.19831L21.5437 3.98181L21.4965 3.86948L21.3013 3.85483L21.2199 4.04207L21.1922 4.31064L21.3273 4.33344L21.5161 4.19831ZM13.224 8.16715L13.1833 8.26482L13.0548 8.25668L12.7326 8.16879L12.6284 8.0288L12.8302 7.86108L12.9197 7.85298L13.0482 8.0288L13.224 8.16715ZM8.04794 9.08528L7.70958 9.11295L7.40359 8.92412L8.04963 8.6718L8.22373 8.55783L8.41243 8.32503L8.56378 8.52529L8.39624 8.83947L8.27746 8.97459L8.04794 9.08528ZM4.7806 8.93714L4.70413 8.97295L4.62279 8.70434L4.62765 8.61968L4.8376 8.49762L4.96612 8.71735L4.7806 8.93714ZM10.767 9.49061L10.7686 9.65992L10.3049 9.61109L10.1812 9.69902L9.80044 9.65013L9.42782 9.52807L9.68008 9.32459L10.3374 9.08528L10.6108 9.30342L10.767 9.49061Z" fill="white"/>
</svg>
