<svg width="209" height="77" viewBox="0 0 209 77" fill="none" xmlns="http://www.w3.org/2000/svg">
<path d="M126.681 76.6658L126.256 76.6674L126.12 76.6186L126.086 76.2116L126.211 75.9838L127.195 75.6907L127.579 75.4205L128.126 74.8589L128.464 74.7124L128.551 74.6489L128.609 74.6603L128.663 75.0884L128.8 75.3424L128.824 75.4759L128.333 75.6924L127.893 76.1905L126.937 76.516L126.681 76.6658ZM121.814 75.1926L121.587 75.2479L121.097 75.1145L120.998 75.0331L121.417 74.8101L121.74 74.4943L122.115 74.4666L122.338 74.5317L122.262 74.9077L121.814 75.1926ZM128.814 73.8643L128.403 74.0255L128.401 73.6869L128.718 73.2588L129.008 73.1139L129.169 73.2848L129.184 73.3629L128.764 73.5159L128.814 73.8643ZM113.272 69.5896L113.479 69.7963L114.226 70.1952L114.348 70.3629L114.395 70.6396L114.545 70.8447L114.881 70.8772L115.241 70.8349L115.516 70.9668L115.754 71.1735L116.105 71.5756L116.414 72.02L116.798 72.269L117.018 72.6402L116.889 72.9673L116.403 73.4199L116.141 73.5176L115.781 73.5534L115.221 73.8236L115.016 73.6836L114.382 73.5859L113.876 73.3906L113.451 73.0341L113.207 72.6515L112.898 72.313L112.359 72.0867L111.393 71.4226L110.796 71.3623L110.552 71.4112L110.306 71.4144L109.04 71.1165L108.843 70.9424L108.689 70.7194L108.547 70.4996L108.461 70.2538L108.624 70.0356L108.793 69.8891L109.497 69.632L110.002 69.5538L110.586 69.5652L111.456 69.4855L112.281 69.614L112.535 69.518L112.952 69.251L113.096 69.3438L113.272 69.5896ZM135.759 68.1132L135.926 68.1636L136.505 67.8869L136.615 67.939L136.727 68.0643L136.728 68.4339L136.505 68.7415L135.942 68.7659L135.863 68.8522L135.856 69.0394L135.9 69.2217L136.03 69.3682L136.198 69.6254L136.356 70.2245L136.037 70.4703L135.876 70.9326L135.323 71.3672L134.714 72.0786L134.226 72.4416L133.798 72.8713L133.43 73.1595L132.97 73.2571L132.282 73.319L131.346 73.8334L130.828 74.058L130.324 74.0743L129.852 73.9066L129.673 73.7178L129.716 73.4639L129.872 73.2457L130.062 73.0667L130.183 72.8355L129.649 72.5425L129.603 72.3195L129.815 71.7253L129.953 71.1149L130.152 70.6982L130.916 69.9543L131.374 69.5848L131.644 69.4415L131.719 69.5978L131.889 69.7866L132.005 69.8175L132.093 69.7752L132.766 69.8403L132.936 69.7752L133.193 69.4805L133.362 69.3162L133.476 68.9678L133.505 68.7464L134.104 68.5853L134.424 68.4078L134.709 68.1555L135.539 67.7258L135.687 67.6069L135.654 68.0155L135.759 68.1132ZM93.1677 66.8093L93.0408 66.9672L92.6698 66.6856L92.5755 66.5586L92.8504 66.3763L92.9464 66.3503L93.184 66.5488L93.1677 66.8093ZM126.811 65.7789L126.665 66.0491L126.403 65.9726L126.474 65.7121L126.608 65.5575L126.963 65.3329L127.324 65.2938L127.545 65.3719L127.615 65.4582L127.052 65.5461L126.811 65.7789ZM110.768 66.6774L110.591 66.7214L110.412 66.6546L110.485 66.246L110.382 65.9677L110.568 65.7496L110.615 65.3638L110.69 65.2466L110.799 65.3686L110.849 65.4484L110.944 65.4859L111.149 65.4924L111.194 65.6601L111.186 65.8179L111.098 65.984L110.854 66.1614L110.679 66.3616L110.768 66.6774ZM128.364 64.9048L128.271 65.1066L127.028 65.0936L127.062 64.8282L127.407 64.5385L127.522 64.4424L127.903 64.3578L128.446 64.5108L128.364 64.9048ZM97.8766 66.093L97.2989 67.0437L97.5055 67.1967L97.6292 67.3416L96.6724 67.5386L96.2738 67.4344L96.0428 67.462L95.0715 67.283L94.3767 67.0649L94.2969 66.8923L94.3522 66.6856L94.5572 66.7556L95.0926 66.7881L95.2976 66.6953L95.3024 66.0833L95.2276 65.284L95.9516 64.6329L96.3373 64.3692L96.7799 64.2145L97.8993 64.5743L98.0848 64.672L98.228 64.8185L98.2979 65.0529L97.8766 66.093ZM132.791 64.7892L132.513 65.0724L132.324 65.5656L132.151 65.7154L131.782 65.8082L131.559 65.3133L131.151 65.3361L131.351 64.8998L131.543 64.7371L131.793 64.7338L131.917 64.9096L131.984 64.9471L132.573 64.2097L132.692 64.2015L132.791 64.2341L132.871 64.3269L132.791 64.7892ZM131.138 64.5271L130.493 64.6524L130.1 65.2254L129.787 65.2173L129.616 65.4712L129.577 65.5803L129.6 65.6829L129.566 65.7805L129.442 65.8814L129.149 65.7235L128.899 65.9254L128.793 65.9742L128.424 65.7398L128.074 65.7544L127.968 65.7187L128.403 65.2987L128.995 64.9064L129.092 64.7615L128.86 64.7224L128.721 64.6638L128.704 64.571L129.078 64.5092L129.336 64.501L129.533 64.6215H129.659L130.459 64.1592L130.776 64.2634L131.008 64.3822L131.138 64.5271ZM199.499 65.061L199.272 65.1213L198.124 64.9829L198.002 64.794L197.984 64.6964L198.246 64.5092L198.5 64.1917L198.893 64.0729H199.046L199.508 64.825L199.499 65.061ZM102.057 64.9633L101.954 64.9666L101.756 64.8771L101.827 64.6866L101.72 64.3757L101.757 64.1201L102.011 63.9752L102.553 63.959L102.572 64.1462L102.057 64.9633ZM108.986 64.3724L108.786 64.3773L108.746 64.1934L108.817 64.0013L109.009 63.9199L109.097 63.915L109.235 64.0892L109.266 64.1804L109.138 64.3008L108.986 64.3724ZM134.109 63.9231L134.218 64.2015L134.571 64.0469L134.916 64.0078L135.7 64.0371L136.276 64.0989L136.616 64.2145L136.649 64.7729L136.489 64.8933L133.51 65.315L133.219 65.1798L133.105 65.0463L133.425 64.6329L133.277 64.4359L133.447 64.1152L133.803 63.8971L134.109 63.9231ZM148.941 63.7311L149.74 63.915L150.197 63.8955L150.292 64.0599L149.854 64.449L148.928 64.1494L148.771 63.8287L148.941 63.7311ZM125.923 66.0849L125.279 66.2477L124.878 66.4023L124.496 66.6074L124.255 66.6498L123.817 66.6661L123.197 66.6286L122.779 66.6953L121.613 67.226L121.154 67.2716L120.757 67.4018L120.62 67.1951L120.451 67.0421L120.064 67.0046L119.676 67.016L119.283 67.4849L118.655 67.3855L118.412 67.4262L118.176 67.5255L117.943 67.5695L117.699 67.5369L116.783 67.1723L115.732 66.9558L114.678 67.0404L113.77 66.8402L113.272 66.9932L112.803 67.2114L112.665 66.9819L112.494 66.78L112.341 66.4772L112.337 66.1337L112.387 65.8945L112.522 65.6747L112.607 65.4468L112.646 65.2026L112.844 65.3182L113.051 65.2743L113.669 65.0089L114.273 64.6068L114.834 64.4604L115.158 64.4197L115.435 64.4994L115.716 64.4701L116.004 64.3806L116.458 64.6882L116.648 64.7517L117.263 64.7761L117.823 64.9536L118.324 65.2206L119.047 65.4696L119.483 65.8049L119.815 65.9287L120.06 65.9628L120.287 65.9172L120.573 65.6926L120.907 65.5998L121.196 65.6031L121.725 65.5445L121.949 65.4908L122.198 65.3671L122.442 65.4436L122.657 65.5575L123.552 66.1452L123.827 66.1614L124.332 66.0345L124.483 65.8765L124.561 65.634L124.699 65.4321L124.891 65.258L125.109 65.1245L125.778 64.8982L126.235 64.6752L126.549 64.2976L125.815 64.1315L125.97 63.8597L126.214 63.7066L126.538 63.7636L126.819 63.9752L126.945 64.7875L126.714 64.9015L126.567 65.0252L126.47 65.188L126.053 65.4859L126.217 65.8587L126.095 66.0133L125.923 66.0849ZM162.817 64.7387L162.42 64.882L162.686 64.519L163.538 63.6953L163.844 63.8483L164.251 63.8776L163.644 64.2504L163.026 64.405L162.817 64.7387ZM105.189 64.7355L105.418 64.9161L105.626 64.8998L106.062 64.6231L106.324 64.5222L106.606 64.519L106.878 64.5645L107.146 64.7615L107.244 65.0822L107.345 65.1815L107.502 64.7973L107.712 64.6817L107.948 64.6231L108.318 64.6443L108.599 64.8282L108.855 65.3736L108.846 65.8505L108.939 66.0296L109.115 66.1598L109.245 66.3437L109.13 66.5358L109.014 66.6286L108.684 66.7165L108.524 66.6791L108.376 66.5488L108.212 66.5016L107.838 66.5456L107.493 66.653L107.54 66.8272L107.823 66.9053L107.908 66.9884L107.89 67.1007L107.779 67.1235L107.411 66.9721L107.164 67.003L106.272 67.2081L106.036 67.2032L105.903 67.0095L105.913 66.5049L105.817 66.3714L105.155 66.9835L104.954 67.1332L104.688 67.2032L104.409 67.1788L103.453 67.55L103.152 67.4979H102.86L101.839 67.9L101.29 68.0123L101.009 68.0204L100.729 67.9862L100.478 68.022L100.254 68.1848L99.7981 68.3216L99.3279 68.2173L98.9308 68.079L98.5534 67.8967L98.459 67.6623L98.4786 67.3823L98.638 66.9998L98.5306 66.3275L98.6136 66.0214L98.7682 65.7203L99.0025 65.6096L99.3084 65.5868L99.8144 65.3166L100.276 64.9617L100.543 64.9959L101.152 65.2433L101.508 65.2726L102.114 65.2336L102.362 65.3849L102.462 65.7333L102.597 65.8603L102.774 65.9498L103.204 66.5391L103.602 66.5081L103.95 66.6156L104.566 66.2591L105.031 66.2689L105.163 65.9921L104.884 65.6959L104.549 65.4566L104.369 65.4061L104.172 65.4208L103.996 65.3833L103.246 64.8461L103.023 64.5564L102.896 64.2162L102.973 63.9639L103.488 63.7408L103.729 63.6871L104.626 63.8401L104.779 63.9671L105.016 64.5043L105.189 64.7355ZM92.4274 63.9899L92.8911 64.2324L93.537 64.9454L93.5973 65.1456L93.402 65.3345L92.94 65.6373L91.9067 66.1045L91.7294 66.3242L91.5113 66.7556L91.4608 66.9395L91.3876 67.0404L91.2689 67.1137L91.0443 67.1772L90.8003 67.086L91.0216 66.8093L91.0297 66.4788L90.8654 66.1695L90.6327 65.9107L90.164 65.5591L89.6613 65.2482L89.1537 65.0887L88.6151 65.0171L88.4214 64.8657L88.1058 64.4782L88.0032 64.2667L87.9512 64.0452L87.9854 63.8304L88.1188 63.8174L88.646 63.8678L89.619 64.1201L90.1006 64.1413L90.374 64.0827L91.0866 63.5846L91.2559 63.5927L91.9376 63.8125L92.4274 63.9899ZM158.144 63.0702L157.874 63.4918L157.57 63.4641L157.015 62.8992L157.048 62.5053L157.093 62.3767L157.306 62.3376L158.024 62.4516L158.164 62.7707L158.144 63.0702ZM144.27 61.7565L144.332 61.9795L144.324 62.0772L143.777 62.1488L143.25 62.3963L142.98 62.6811L142.768 63.0507L142.042 62.9009L141.395 62.8765L141.108 62.7462L140.798 62.7544L140.394 62.8683L139.82 63.1809L139.693 63.2053L139.739 62.73L139.898 62.4369L140.502 61.7353L141.004 61.89L141.589 61.934L142.254 61.7972L142.728 61.4814L143.396 61.3154L143.93 61.7288L144.27 61.7565ZM147.096 61.5514L146.802 61.6588L146.893 61.3202L146.873 61.0468L147.35 61.1298L147.345 61.3479L147.3 61.4326L147.096 61.5514ZM197.855 64.532L196.763 65.1359L195.332 65.0301L194.824 65.0203L193.983 65.1668L193.814 65.0496L193.973 64.4815L194.645 62.9692L195.444 61.6377L195.784 61.2926L196.257 60.9687L196.76 60.7082L197.894 60.438L198.926 60.4868L199.074 60.5975L199.518 61.0403L199.806 61.3902L199.927 61.8851L199.487 62.7365L198.997 63.5488L198.203 64.1869L197.855 64.532ZM164.933 63.2753L164.858 63.3274L164.29 63.2688L163.966 63.2671L164.008 62.9204L163.841 62.6599L164.07 62.2774L164.075 61.8347L164.313 61.7744L164.347 61.5221L164.633 60.8531L164.802 60.7049L165.04 60.6463L165.323 60.2557L165.484 60.1417L165.652 59.8455L165.891 59.7087L165.871 59.4548L166.006 59.3213L166.384 59.2171L166.646 59.3424L166.807 59.6013L166.386 59.9203L166.602 60.7066L166.296 61.5645L166.096 61.8216L165.722 62.043L165.609 62.253L165.168 62.6762L165.035 63.0376L165.016 63.1906L164.933 63.2753ZM167.93 59.6241L167.873 59.8503L167.677 59.7299L167.485 59.4662L167.204 59.4287L166.996 59.3587L166.874 59.235L167.656 59.1781L167.93 59.6241ZM87.7007 59.3099L87.6323 59.4922L87.3996 59.4466L87.18 59.1455L87.2857 59.0674L87.4078 59.0348L87.5673 59.069L87.7007 59.3099ZM152.807 59.5394L152.602 59.655L152.261 59.4157L152.166 59.3164L152.383 59.082L152.614 59.0153L152.754 59.1178L152.822 59.2204L152.793 59.3327L152.807 59.5394ZM116.751 59.2448L116.286 59.2709L116.141 59.2301L116.107 58.7841L116.617 58.9762L116.783 58.9892L116.751 59.2448ZM85.1071 59.1829L85.0192 59.2497L84.2431 59.2122L83.7435 59.585L83.3969 59.6989H82.1539L82.0058 59.6485H81.8952L81.8284 59.7234L81.4331 59.6664L80.1705 59.3359L79.998 59.0299L80.1932 58.7027L80.6471 58.2388L81.5567 58.1476L85.7009 58.1151L86.1516 58.5139L86.1939 58.649L85.2909 58.9208L85.1071 59.1829ZM92.1053 58.566L91.7326 58.6441L91.3876 58.483L91.3974 58.2665L91.482 58.0646L91.9978 57.9604L92.2744 57.9669L92.5705 58.1053L92.7772 58.2502L92.8781 58.4195L92.32 58.4276L92.1053 58.566ZM180.224 57.5567L180.148 57.6267L180.029 57.4786L180.017 57.3858L180.175 57.1335L180.331 56.987L180.505 56.9756L180.462 57.1823L180.224 57.5567ZM45.8729 57.057L45.5881 57.1579L45.3701 57.0684L45.2724 56.9398L45.5946 56.624L45.7475 56.5491L45.9086 56.5247L45.9851 56.6956L45.8729 57.057ZM180.414 56.6419L180.162 56.6842L180.038 56.3114L180.247 56.2154L180.473 56.4433L180.414 56.6419ZM180.886 56.1145L180.776 56.1519L180.777 55.9273L180.902 55.7287L181.034 55.6147L181.19 55.6098L180.886 56.1145ZM179.596 56.1519L179.521 56.4742L179.446 56.834L179.028 57.2377L178.769 57.8546L178.618 58.0092L178.057 58.2844L177.557 57.9409L177.412 57.6463L177.632 56.2854L177.847 56.331L177.987 56.3212L178.032 56.2317L177.712 56.0786L177.652 55.2973L177.668 55.0027L177.91 54.9359L178.213 55.1655L178.594 55.574L179.038 55.8963L179.596 56.1519ZM55.559 54.1676L56.0194 54.6885L56.4213 54.9669L56.8964 55.1182L57.3959 55.1329L57.8873 55.1996L58.46 55.3982L59.0475 55.4894L59.3208 55.4552L59.5812 55.3527L59.765 55.3461L59.9261 55.4422L60.3328 55.8833L60.7738 56.287L60.8763 56.4921L61.1757 57.4656L61.5141 57.7456L61.9795 57.8269H62.5262L63.0696 57.8676L64.329 58.0955L64.8285 58.063L65.2711 57.8351L65.6649 57.9832L66.7339 58.2567L67.2594 58.3185L67.8566 58.2404L68.4553 58.2241L68.7417 58.3039L69.0167 58.4227L69.2526 58.465L69.4967 58.4634L69.9295 58.2355L70.2159 57.8172L70.4485 57.2898L70.6291 56.7395L70.7512 56.5035L70.9171 56.2952L71.1335 56.1601L71.3646 56.0754L71.9927 56.1275L72.1229 56.261L72.8258 57.1937L72.9494 57.2751L73.6816 57.3337L73.885 57.3028L74.3308 57.1156L74.5862 57.0993L75.0565 57.3305L75.2599 57.5274L75.4877 57.6723L76.6397 57.8204L77.0838 58.2209L77.31 58.2746L78.1106 58.2257L78.6654 58.2648L79.147 58.3723L79.3666 58.9404L79.544 59.5232L79.6465 59.7217L80.1184 59.922L80.3104 60.1027L80.2599 60.6838L80.312 61.2372L81.3126 61.7191L82.3833 61.9958L83.5223 62.0218L84.6629 61.9258L85.2503 61.807L85.9857 61.6019L86.1386 61.6051L87.5623 62.2384L87.6844 62.336L87.8439 62.8097L87.839 63.3095L87.5737 64.4962L87.5559 64.8217L87.5819 65.1473L87.865 65.8554L88.0164 66.0589L88.5321 66.4316L88.5532 66.627L88.4816 66.8223L87.9122 66.6888L87.5656 66.5277L87.3655 66.2607L87.0791 66.1093L86.5438 66.1647L85.5431 65.8977L84.4123 65.4842L82.4077 64.6068L81.861 64.6134L81.3371 64.7257L80.7839 64.9487L80.2079 65.1082L79.7848 65.1684L79.3602 65.1245L78.2895 64.9145L77.2107 64.7778L74.4463 64.6915L73.6653 64.4912L72.3717 64.3904L71.3435 64.2178L70.3248 63.9769L67.728 62.7902L66.8787 62.4923L64.2704 61.9258L63.8686 61.8803L62.9231 61.9226L62.3277 61.7565L61.8037 61.7533L61.0243 61.9372L60.7852 62.0691L60.4825 62.3474L59.9521 62.3344L59.4265 62.2807L58.0419 62.0137L57.5261 61.8493L57.0299 61.6068L56.584 61.291L56.3497 61.1787L55.1538 60.8564L54.1775 60.7456L52.1697 60.5991L51.7304 60.5015L51.3643 60.3843L51.1641 60.1238L51.1901 59.7917L51.3333 59.5052L51.5303 59.2171L51.6588 58.942L50.1912 58.3658L49.0326 58.0516L48.5315 57.9914H48.0287L47.4625 58.0565L46.9028 58.0255L46.6392 57.9311L46.3707 57.8986L46.1006 57.9669L45.8842 57.9409L45.8289 57.6788L45.9672 57.4558L46.2504 57.2035L46.413 57.1595L46.4862 57.5551L46.5677 57.6332L46.8182 57.7195L46.9272 57.6951L47.3698 57.1905L47.4934 56.9414L47.7082 56.2691L47.9425 56.3994L48.1768 56.3196L48.3118 56.2121L48.6844 54.6576L48.9936 54.2034L49.4167 53.8274L49.6282 53.7346L50.0431 53.9658L50.8843 54.0536L51.3838 54.2066L51.8849 54.2262L52.3747 54.3011L53.0565 54.5746L53.2973 54.5452L53.5413 54.4606L53.9075 54.1627L54.0669 53.6874L54.5941 53.9283L55.3702 54.0243L55.559 54.1676ZM131.715 54.0129L131.675 54.2311L131.507 53.9804L131.354 53.8567L131.37 53.5865L131.587 53.6874L131.715 54.0129ZM115.628 55.4959L115.441 56.2561L115.353 55.9875L115.319 55.2924L115.204 54.9538L115.277 54.5648L115.252 53.5669L115.394 53.1062L115.654 53.6923L115.723 53.9901L115.628 55.4959ZM79.9687 53.2707L79.871 53.4334L79.4318 53.4204L79.3585 53.2381L79.6449 52.906L79.8336 52.8849L80.0028 53.0069L79.9687 53.2707ZM171.698 53.4513L171.42 53.8908L171.231 53.7362L171.125 53.7346L171.06 53.4757L171.125 52.9419L170.891 52.3412L171.198 52.3493L171.285 52.5283L171.382 52.5886L171.687 53.1681L171.698 53.4513ZM180.556 52.7953L180.52 52.9711L180.517 53.2951L180.593 53.5962L180.398 53.9023L180.58 54.3596L180.608 54.5876L180.597 54.9099L180.546 55.0547L180.408 55.478L180.27 55.6294L180.165 55.6717L180.06 55.8003L179.161 55.6619L178.774 55.3673L178.428 55.0499L178.354 54.9164L177.948 54.5452L177.853 54.4199L177.845 54.2213L178.174 54.1708L178.525 54.1773L178.509 53.9999L178.712 53.3716L178.179 52.9679L178.084 52.7986L178.275 52.6846L178.704 52.8246L179.23 52.1165L179.384 51.9684L179.459 51.5744L179.754 51.524L179.962 51.5744L180.097 51.8202L180.151 52.0335L180.094 52.2256L180.346 52.3249L180.556 52.7953ZM172.243 53.6858L171.87 54.0781L172.22 53.1534L172.293 52.6846L172.619 52.4063L173.102 50.9901L173.21 51.0226L173.367 51.161L173.125 52.1995L172.446 52.9288L172.243 53.6858ZM32.6966 51.7552L32.324 51.7779L31.6374 51.218L31.525 51.0454L31.7187 50.8794L31.9254 50.8908L32.7162 51.244L32.8707 51.4182L32.6966 51.7552ZM129.776 50.811L129.758 51.2733L129.576 51.2473L129.426 51.0845L129.385 50.9315L129.393 50.8078L129.475 50.7101L129.776 50.811ZM122.545 51.5696L122.254 51.6917L121.705 51.1708L121.473 50.741L121.528 50.4985L121.692 50.2869L121.771 50.2331L121.736 50.0117L121.953 49.9043L122.19 49.9189L122.347 50.2169L122.534 50.2982L122.63 50.5831L122.545 51.5696ZM125.293 50.8013L125.176 51.104L124.924 51.3401L124.722 51.3579L124.51 51.3091L124.138 51.104L124.042 51.3205L123.747 51.3107L123.64 51.0308L123.85 50.2022L124.156 49.8929L124.127 49.5673L123.873 48.8755L124.031 48.5142L124.742 48.2407L125.361 47.907L125.552 47.8386L125.724 48.0958L125.817 49.2743L125.152 50.2071L125.293 50.8013ZM127.735 47.5293L127.841 48.5092L127.807 48.7665L127.55 48.3904L127.457 48.3156L127.386 48.3904L127.294 48.4311L127.164 48.4279L126.995 48.8072L126.979 49.1653L126.85 49.4046L126.784 50.2038L126.826 50.4187L127.024 50.3129L127.146 50.2852L127.595 50.5929L127.833 50.8175L127.766 51.0894L127.462 51.3629L127.109 51.4817L126.845 51.3645L126.767 51.4198L126.611 51.5598L126.494 51.7454L126.528 51.9358L126.227 52.4779L126.053 52.6309L125.692 52.4649L125.469 52.6065L125.29 52.5935L125.015 52.0514L125.023 51.7975L125.277 51.5126L125.279 51.3075L125.404 51.078L125.684 50.7638L125.845 50.5261L125.85 50.3764L125.968 49.8066L126.014 49.569L126.095 49.3167L126.222 48.8007L126.24 47.8305L126.668 47.0312L127.086 46.8131L127.252 46.7772L127.226 46.9905L127.735 47.5293ZM175.185 46.1408L175.419 46.3833L174.876 46.1928L174.098 45.794L174.044 45.5271L174.698 45.9308L175.185 46.1408ZM128.02 45.5352L127.574 46.0822L127.264 46.0545L126.891 45.6947L126.784 45.3008L126.774 45.1576L127.028 44.9346L127.882 45.0094L128.043 45.208L128.02 45.5352ZM152.316 43.1358L151.537 43.3735L151.704 42.9307L151.81 42.8135L152.196 42.934L152.316 43.1358ZM151.005 43.5411L150.887 43.7072L150.622 43.8162L150.401 43.8049L150.472 43.6453L150.417 43.5525L150.253 43.5932L149.984 43.7218L149.646 43.979L149.447 43.852L149.405 43.6534L149.416 43.5623L149.822 43.2058L150.292 43.1439L150.954 42.8021L151.25 42.8184L151.18 43.0348L151.078 43.1895L151.016 43.3523L151.005 43.5411ZM153.045 42.96L153.035 43.1521L153.003 43.2123L152.754 43.1456L152.576 43.1488L152.419 42.8021L152.462 42.7223L152.789 42.8233L152.912 42.8575L153.045 42.96ZM96.8857 42.5856L96.718 43.3686L96.4398 42.9242L96.7522 42.3984L96.897 42.2926L96.8857 42.5856ZM147.949 41.9068L148.053 42.1086L147.606 41.9817L147.407 41.7863L147.602 41.6643L147.711 41.6317L147.949 41.9068ZM96.3357 44.4218L95.3773 45.2682L95.2178 45.0534L95.3009 44.1923L95.034 43.6567L95.0519 43.2595L95.2407 42.5563L95.4863 42.0175L96.0428 41.6577L96.181 41.6154L96.1469 42.2682L96.2576 42.514L96.2966 42.724L96.2381 42.9046L96.3421 43.7414L96.404 43.9448L96.2689 44.2085L96.3357 44.4218ZM144.545 40.8747L145.297 41.2296L145.466 41.4608L145.601 41.7359L145.749 41.8873L145.925 42.011L146.218 42.2502L146.294 42.6149L146.227 43.3506L145.887 43.4158L145.568 43.5232L144.911 43.9497L144.587 44.0327L144.241 44.062L143.995 44.1743L143.749 44.2183L143.11 43.9822L142.492 43.7055L141.593 43.2253L141.427 43.1081L141.283 42.8509L140.871 42.3886L140.768 42.0924L140.734 41.2491L140.842 41.0555L141.014 40.9529L141.615 41.1482L142.01 40.9447L143.146 40.7722L144.303 40.7901L144.545 40.8747ZM149.691 40.1862L149.462 40.5654L149.06 40.5492L148.99 40.4954L149.465 40.2578L149.691 40.1862ZM53.3331 40.4987L53.2566 40.5899L53.0044 40.541L52.8205 40.4141L52.7066 40.2936L52.6773 40.1683L52.923 40.0136L53.4421 40.1731L53.3331 40.4987ZM56.0129 40.0185L55.829 40.1357L55.7217 40.0234L55.6891 39.8981L55.7673 39.7401L56.0178 39.7255L56.1333 39.7727L56.0129 40.0185ZM157.759 39.8655L158.808 40.3685L159.352 40.4417L160.266 40.3766L160.611 40.4254L161.483 41.0685L161.737 41.5096L161.81 41.8905L161.945 42.2519L162.16 42.343L162.412 42.3772L162.741 42.8981L162.806 43.0674L162.557 44.3746L161.53 43.8797L160.539 43.3181L160.111 43.1098L158.969 42.6345L158.795 42.4717L158.667 42.2568L158.169 41.9638L157.176 41.9182L156.804 41.9263L156.652 41.9703L156.691 42.1282L156.696 42.4489L156.45 42.5367L155.834 42.3349L155.284 42.2617L154.805 42.0631L154.166 41.9589L154.094 41.8596L154.15 41.7114L154.12 41.5731L153.972 41.5193L153.684 41.5454L153.406 41.6854L153.175 41.8433L152.837 42.2796L152.664 42.4472L152.105 42.5189L151.872 42.4765L151.659 42.3691L151.022 41.5715L150.808 41.3989L150.568 41.2589L150.347 41.1938L150.118 41.3159L149.999 41.5633L149.945 41.8579L149.882 42.0272L149.607 42.4993L149.379 42.7793L149.298 42.7353L149.413 42.2861V42.0321L149.273 41.7636L149.184 41.4901L150.259 40.1829L150.648 39.872L152.344 39.7646L153.351 39.8313L153.901 39.7988L154.268 39.7027L154.573 39.7483L154.649 40.0055L154.84 40.1959L155.105 40.1796L155.586 39.9778L156.005 39.6669L156.26 39.5318L156.52 39.509L156.789 39.5302L157.051 39.6018L157.759 39.8655ZM23.8273 41.3061L24.0095 41.9686L23.466 41.5178L23.4774 41.1987L23.4027 40.9903L23.0739 40.7347L22.8201 40.4141L22.7062 39.6571L22.7941 39.4992L23.0089 39.4895L23.964 40.4824L24.029 40.6501L24.0078 41.005L23.8696 41.1157L23.8273 41.3061ZM59.3648 40.4645L59.2932 40.9431L59.1825 41.1238L58.8018 41.3615L58.6716 41.5063L58.3153 41.4836L58.2697 41.2329L58.1509 41.0636L57.7734 40.8682L57.6742 40.9155L57.6059 41.2068L56.8655 41.4103L56.6589 41.4282L56.7613 41.044L56.5694 40.7412L56.5548 40.3701L56.5189 40.2073L56.4262 40.1129L56.615 39.8541L56.5824 39.566L56.7825 39.2567L56.8931 38.5063L57.6758 38.3418L57.845 38.477L58.7578 38.6463L59.4022 39.1004L59.7455 39.7043L59.3648 40.4645ZM22.8185 39.2974L22.4931 39.6636L21.9561 39.6555L21.8503 39.4292L21.8748 38.8823L21.743 38.7032L21.7478 38.6316L21.834 38.3207L21.9431 38.2523L22.8104 39.0223L22.8185 39.2974ZM178.854 36.4943L178.721 36.5626L178.675 36.3657L178.747 36.1003L178.833 36.058L178.932 36.071L179.061 36.1671L178.854 36.4943ZM21.1703 37.4905L21.193 37.611L20.4495 37.2121L20.0914 37.1014L19.7742 36.6652L19.8735 36.4568L19.8865 36.1638L19.9336 36.0482L20.1615 36.0059L20.4575 36.2192L20.6789 36.7384L21.0482 37.2219L21.1703 37.4905ZM140.866 37.9821L140.788 38.0651L140.513 37.8193L140.329 37.1259L140.171 36.9419L139.987 36.2827L140.035 36.0954L140.262 35.8187L140.445 35.8219L140.58 35.9864L140.505 36.6961L140.913 37.5947L140.866 37.9821ZM130.788 35.7308L130.869 35.9131L130.583 35.9082L130.464 35.5648L130.493 35.3808L130.788 35.7308ZM140.725 34.9771L142.129 35.1285L141.93 35.2929L140.415 35.555L139.878 35.5078L138.235 35.6624L138.022 35.6527L137.991 35.3987L137.815 35.2213L138.077 35.0667L138.425 35.0308L139.337 35.0895L140.725 34.9771ZM127.61 35.0992L127.275 35.4736L127.239 35.2734L127.307 35.0911L127.402 34.9625L127.543 34.899L127.61 35.0992ZM160.492 34.5279L160.547 34.798L160.819 35.0471L160.725 35.4346L160.617 35.4931L160.674 35.6689L160.792 35.8041L160.58 35.8969L160.425 35.8513L160.177 35.9766L160.01 36.1508L159.488 36.224L159.304 36.0629L158.361 35.8724L157.757 35.4557L157.681 35.3304L158.85 34.8404L159.361 34.7102L159.791 34.7183L160.331 34.536L160.492 34.5279ZM135.908 34.5946L136.336 34.7557H136.486L136.628 34.5669L136.715 34.536L136.907 34.6288L136.951 34.9348L137.228 34.8925L137.443 34.9967L137.511 35.0699L137.482 35.3743L136.663 35.4281L136.079 35.6739L135.293 35.4524L134.402 35.8317L133.86 35.9636L133.39 35.9554L132.988 35.2913L133.222 34.5132L133.391 34.3846L133.691 34.3162L134.517 34.2788L135.908 34.5946ZM183.877 34.0786L185.68 34.3064L186.168 34.2772L187.198 34.3651L188.057 34.6678L189.559 34.7232L190.006 34.8143L190.353 35.0227L189.511 35.1936L189.116 35.3548L188.381 35.4346L187.766 35.3531L187.318 35.4492L187.155 35.2929L186.501 35.1334L185.663 34.8062L183.935 34.4269L183.854 34.1893L183.877 34.0786ZM62.7702 34.2055L62.2463 34.396L62.0885 33.9695L62.4237 33.8426L62.7882 33.9532L62.7702 34.2055ZM49.4931 34.4318L49.6509 34.7443L49.8657 35.026L50.0235 35.3304L50.2399 36.7905L50.9559 38.0456L53.0239 38.5388L52.6855 38.7423L52.5131 38.9246L52.3861 39.133L52.0818 40.0038L52.1111 40.1894L52.2901 40.4841L52.3324 40.8047L52.0737 40.8031L51.7824 40.7315L51.5497 40.611L51.3333 40.4531L51.0991 40.3278L50.8452 40.2464L50.4255 39.9973L49.8576 39.8215L49.2783 39.6832L48.9969 39.3137L48.8634 38.8579L49.0066 38.1774L48.8618 37.9886L48.6551 37.8226L48.4013 37.3326L48.3054 36.7596L47.9376 36.5382L47.4527 36.4031L47.2396 36.294L46.2812 36.504L46.0501 36.4552L45.8468 36.2957L45.3245 36.128L45.3456 35.8106L45.5881 35.5566L46.1592 35.3011L46.4277 35.0862L46.4798 34.803L46.3789 34.5962L46.4179 34.3797L46.5985 34.1697L46.8117 34.0053L47.3877 33.7872L47.6382 34.1664L47.7619 34.4839L47.9148 34.7134L48.1589 34.3846L48.0027 33.8181L48.4404 33.6911L48.87 33.6863L49.1937 33.8426L49.4052 34.0867L49.4931 34.4318ZM129.642 34.5897L129.328 34.619L129.118 34.4855L129.138 33.8197L129.328 33.6748L129.421 33.6993L129.478 33.8979L129.574 34.0753L129.73 34.2414L129.642 34.5897ZM150.445 34.3911L150.165 34.575L150.025 34.6255L149.351 34.5018L148.564 34.5279L147.744 34.6988L147.27 34.5539L146.969 34.3179L146.984 34.0688L147.266 33.4518L147.882 32.9847L148.133 32.9L148.574 33.027L149.314 33.3851L149.896 33.8051L150.425 34.1323L150.445 34.3911ZM127.883 32.1708L127.984 32.454L127.818 32.6998L127.999 33.1605L128.459 32.5468L128.899 32.4686L129.148 32.5712L129.319 32.6933L129.413 32.9261L129.25 33.4258L128.962 33.6602L128.59 33.6976L128.414 33.4063L128.17 33.3786L127.999 34.0134L127.923 34.1111L127.704 34.1909L127.511 34.0167L127.477 33.9191L127.752 33.6309L127.602 32.7763L127.395 32.9375L126.844 33.7139L126.414 34.0606L126.268 33.8849L126.05 33.3575L126.149 32.6803L126.496 32.2228L126.79 32.2538L127.638 32.1105L127.883 32.1708ZM66.2278 32.2131L65.3166 32.677L65.1019 32.6526L64.9391 32.4882L65.04 31.5929L65.1572 31.3259L65.7917 31.2966L66.1773 31.4252L66.3791 31.5701L66.4573 31.8696L66.4133 32.0503L66.2278 32.2131ZM181.555 31.9201L181.335 32.0031L181.081 31.9119L180.841 31.5636L180.927 31.2966L181.208 31.1127L181.444 31.2966L181.518 31.531L181.696 31.5473L181.555 31.9201ZM18.069 34.925L17.6475 34.9495L16.7462 34.4057L16.533 34.1616L16.4809 33.836L15.6169 32.5794L15.5014 32.2912L15.8415 31.2592L16.7218 31.0101L17.013 31.1843L17.1155 31.6482L17.6199 32.4849L17.7859 32.9358L17.9112 33.136L17.9632 33.2923L17.9192 33.3998L18.2837 33.9304L18.5441 34.2414L18.5637 34.7443L18.069 34.925ZM163.453 32.8252L163.292 32.9521L162.738 32.8333L162.45 32.5533L162.254 32.1773L162.129 31.868L162.095 31.6222L161.929 31.321L161.952 31.2119L162.975 30.8945L163.169 31.0101L163.597 31.0199L163.782 31.2494L163.655 32.2473L163.453 32.8252ZM163.014 30.3834L162.897 30.6146L162.681 30.7708L160.717 31.0476L160.886 30.8815L160.969 30.7171L161.093 30.6325L161.286 30.6553L161.384 30.6048L161.483 30.5853L161.592 30.6064L161.782 30.5381L162.183 30.5869L162.596 30.5478L162.565 30.3264L163.014 30.3834ZM183.46 29.8104L184.432 29.9878L184.786 29.9781L185.133 30.1783L185.554 30.0839L185.792 30.149L186.591 30.8376L186.985 31.2934L187.567 31.6857L187.99 31.8191L187.673 32.1773L187.029 32.3661L186.781 32.3759L186.288 32.1626L185.89 32.2017L185.541 31.9347L185.481 31.5212L185.122 30.5901L184.659 30.8571L184.103 30.4273L183.952 30.4176L183.918 30.4892L183.682 30.3443L183.48 30.0546L183.46 29.8104ZM146.553 30.3997L146.501 30.4925L146.024 30.3736L145.895 30.3085L146.135 29.6655L146.359 29.6851L146.556 30.2971L146.553 30.3997ZM161.742 29.2553L161.48 29.2602L161.006 29.0632L161.281 28.8923L161.455 28.8565L161.608 28.754L161.693 28.7491L161.88 28.837L162.004 28.9851L161.742 29.2553ZM121.728 28.7018L121.922 28.9037L121.806 29.1365L121.648 29.0779L121.234 29.0811L121.077 29.0991L120.89 29.2358L120.773 29.2406L120.853 29.0258L121.204 28.7002L121.424 28.7491L121.728 28.7018ZM174.737 30.1506L175.883 30.219L176.461 30.1734L177.028 30.232L177.259 30.3476L177.655 30.6976L177.543 30.9271L177.474 31.4024L177.676 31.8582L178.005 32.3156L178.275 32.804L178.33 33.0417L178.228 33.5463L178.135 33.7953L177.808 34.2121L177.629 34.6662L177.744 35.2262L177.808 35.791L177.796 36.3087L177.855 36.8182L178.032 37.3359L178.797 38.7521L179.243 39.7125L179.386 39.1753L179.35 38.5795L179.51 38.3646L179.733 38.2507L180.011 38.3695L180.089 38.6104L180.11 39.1379L180.351 40.1731L180.66 40.2204L180.995 40.0625L181.051 40.3783L181.038 40.9643L181.194 41.4298L181.332 41.6121L181.882 41.9898L182.131 42.0598L182.858 42.1509L183.407 42.1803L183.932 42.0452L184.271 41.6984L184.576 41.3224L185.632 40.4564L185.938 40.0413L186.233 39.4065L186.335 39.2713L187.386 38.5844L187.507 38.3402L187.657 37.8682L187.886 37.4124L188.057 37.1763L189.072 36.9533L190.125 36.8328L191.171 36.4129L191.622 36.0515L191.645 35.8139L191.415 35.3971L191.405 35.2132L191.646 35.0373L192.579 34.5083L193.656 33.9646L194.521 33.5902L195 33.5935L195.441 33.9239L195.911 34.1941L198.373 34.9885L198.766 35.236L199.11 35.5648L199.603 35.7927L200.153 35.9017L200.652 36.115L201.126 36.3885L202.174 36.8996L203.579 37.5198L203.939 37.5556L205.247 37.5263L205.473 37.6435L205.688 37.8095L205.887 37.847L207.385 37.9625L207.615 38.0814L207.833 38.2458L207.955 38.6951L208.988 38.7065V39.5871V40.5101L208.989 41.4331V42.3577V43.2823L208.991 44.2069V45.1315V46.0561V46.9807V47.9053L208.993 48.8316V49.7578V50.684V51.6103V52.5365L208.994 53.4644V54.3922V55.3201V55.7156L208.853 56.2007L208.537 56.9268L208.482 57.5144L208.742 57.9718L208.996 58.2697V59.0348V59.9643L208.998 60.8954V61.8265V62.7577V63.6888V64.6215L208.999 65.5542V66.487V67.4197V68.3541L209.001 68.4143L208.763 68.2597L208.134 67.7485L207.563 67.1658L207.193 66.6221L206.777 66.1272L205.003 64.6605L204.554 64.1787L204.463 64.0452L204.505 63.9199L204.71 63.666L205.073 62.9318L204.694 63.386L204.243 63.7457L203.586 63.7685L202.942 63.8564L202.344 64.0729L201.737 64.1478L201.433 64.042L201.251 63.7718L201.155 63.495L201.113 63.2004L200.857 63.6757L200.356 63.9362L199.671 64.4847L199.476 64.3708L199.359 64.1624L199.32 63.9459L199.451 63.7148L199.546 63.4706L199.684 62.883L199.99 62.5362L200.185 61.8672L200.312 61.6295L200.377 61.3919L200.2 61.1217L199.899 61.0305L199.692 60.8661L199.455 60.4119L199.305 60.2589L199.033 60.0717L198.825 59.8552L199.056 59.6908L199.36 59.6241L199.609 59.6338L200.058 59.7364L200.262 59.7412L200.784 59.5736L200.49 59.6257L200.198 59.6192L199.271 59.3262L198.696 59.0218L198.155 58.4113L198.148 58.2941L198.53 58.1834L199.355 58.0549L199.1 57.7439L198.727 57.4721L198.597 56.9903L198.343 56.6923L197.793 56.2056L197.414 55.701L197.094 54.6754L196.765 53.9006L196.846 53.6207L197.123 53.4204L196.703 53.3976L196.324 53.2544L196.526 52.8784L196.965 52.6553L196.565 52.7123L196.174 52.8214L195.997 52.8426L195.813 52.8084L195.716 52.657L195.703 52.4421L195.759 52.0628L195.693 51.6949L195.346 51.524L195.058 51.2619L194.895 51.1643L194.684 51.1708L194.477 50.995L194.311 50.741L192.245 49.639L192.123 49.3248L191.931 49.4616L191.741 49.5299L191.503 49.3492L191.254 49.2288L190.982 49.2483L190.732 49.1506L190.468 49.0953L190.193 49.0871L189.108 48.7485L188.08 48.213L187.242 47.9818L186.726 47.6807L186.189 47.4365L184.988 47.1989L183.771 47.0377L183.33 47.0328L182.961 47.0849L182.606 47.0735L180.592 45.9113L180.252 45.3822L180.284 45.0729L180.375 44.8173L181.197 44.7441L180.619 44.6692L180.382 44.7034L179.905 44.9134L179.648 44.9281L179.284 44.7881L178.935 44.6123L178.364 44.775L178.073 44.5081L177.972 44.2265L177.819 44.0978L177.604 44.1109L177.315 44.2134L177.027 44.1955L176.841 44.0018L176.708 43.7495L176.511 43.5688L176.273 43.4304L175.883 43.1033L175.679 42.6556L175.704 41.8824L175.766 41.6056L176.151 41.1547L176.425 40.7266L176.086 40.6794L175.78 40.8764L175.652 41.0782L175.6 41.3224L175.566 42.1347L175.32 42.3707L174.949 42.3512L175.058 42.8265L174.907 43.2774L174.475 43.8081L174.441 44.049L174.51 44.3111L174.412 44.5683L173.716 45.3106L173.483 45.3464L172.969 45.3415L172.437 45.4587L172.189 45.2862L171.988 45.0615L171.836 44.7946L171.625 44.246L171.456 43.6795L171.984 42.986L171.802 42.3593L171.444 41.8205L170.539 41.075L169.602 40.3669L169.176 40.2236L168.478 40.1601L168.257 40.0918L168.04 39.8264L167.879 39.5204L168.317 39.3885L169.064 39.0288L169.488 39.0467L170.64 39.242L170.993 39.4195L171.322 39.5237L172.108 38.9295L172.731 38.153L173.12 37.9837L173.45 37.9267L173.787 38.0016L174.456 38.2718L174.982 38.3988L175.356 38.4233L175.551 38.6658L175.772 38.7749L175.823 38.4086L176.015 37.9853L176.387 37.8535L176.584 37.8226L176.708 37.7135L176.68 37.3212L176.187 37.2724L176.456 36.9354L176.695 36.771L176.778 36.6066L176.783 36.4015L175.818 36.7971L174.801 36.9631L174.2 36.9175L173.602 36.9126L172.404 37.1763L171.95 37.1666L170.891 37.0591L170.305 36.9305L169.853 37.0298L169.415 37.0379L168.958 36.7352L168.569 36.3575L168.375 36.0889L168.118 35.8936L168.004 35.6315L167.72 34.645L167.694 33.9386L167.233 33.9256L166.786 33.8556L164.786 33.1849L164.545 33.3493L164.264 33.434L163.982 33.4649L163.704 33.4307L163.426 33.3265L163.45 33.141L163.655 32.6884L163.859 32.5207L164.139 32.3905L164.316 32.1496L164.605 31.4285L164.628 31.1827L164.596 30.932L164.62 30.7415L164.799 30.6422L165.552 30.4078L167.118 30.053L167.513 29.8413L167.84 29.5027L168.221 29.2976L168.395 29.0893L168.597 28.9216L169.807 28.474L170.33 28.4382L170.863 28.4902L171.919 28.7556L172.926 29.1837L173.8 29.7469L174.737 30.1506ZM42.3177 28.3747L42.7456 28.8158L42.8481 28.9737L42.6366 29.2179L42.4673 29.563L42.3697 29.6362L42.0427 29.5044L41.8116 29.843L41.6586 29.3009L41.3268 28.9574L41.5333 28.6058L41.6082 28.5798L41.7091 28.5912L41.8132 28.684L42.3177 28.3747ZM147.77 28.303L148.297 28.9818L147.942 29.6248L148.186 29.9846L148.852 30.0074L149.005 30.1425L149.122 30.3053L149.198 30.5266L149.026 30.7041L148.655 30.8669L148.227 30.6325L148.115 30.4143L148.027 30.3329L147.451 30.499L147.29 30.5153L147.179 30.2108L147.318 29.7746L146.916 29.5776L146.546 29.1267L146.533 28.946L146.681 28.6318L146.662 28.3812L146.872 28.3616L147.256 28.7002L147.422 28.3812L147.586 28.2477L147.77 28.303ZM146.322 29.1023L146.035 29.2195L145.725 29.2179L145.656 28.7344L145.759 28.1207L146.048 28.0165L146.506 28.1467L146.336 28.3014L146.462 28.6302L146.322 29.1023ZM38.9496 28.4349L38.3556 28.5928L37.6934 28.4788L37.7747 28.207L38.0937 27.8896L38.3767 27.9026L38.8926 28.1109L39.0748 28.2982L38.9496 28.4349ZM162.593 26.8738L163.383 27.0675L163.563 27.0366L164.71 27.5347L164.89 27.7821L164.827 27.9498L164.996 28.1744L164.622 28.5163L164.441 28.5537L164.259 28.4251L163.893 28.3535L163.47 28.4935L163.201 28.3877L162.974 28.0752L162.57 27.8847L161.999 27.2238L161.719 27.2482L161.792 27.507L162.035 27.6779L162.354 28.1809L162.537 28.2298L162.726 28.2119L162.982 28.4219L162.969 28.7458L162.301 28.8728L162.07 28.6351L162.02 28.2037L161.646 28.3486L161.501 28.4984L161.392 28.5195L161.143 28.0702L160.43 28.0458L159.957 27.8082L160.191 27.5591L160.225 27.3182L160.533 27.188L160.844 27.3036L161.158 27.1294L161.381 27.1733L161.545 27.0626L162.176 26.9926L162.593 26.8738ZM14.8506 29.2618L14.5788 29.4718L14.1672 29.2684L14.3055 28.977L14.3722 28.5749L14.6196 28.2558L14.7025 27.8814L14.2274 26.8575L14.4633 26.8233L14.6504 26.934L14.9645 27.6145L15.2379 28.023L15.1288 28.5765L14.8506 29.2618ZM43.7088 27.6535L43.8406 27.7284L44.0033 27.4924L44.3043 27.8147L44.4898 27.9759L44.7436 28.137L44.4946 28.1435L44.3922 28.2917L44.3271 28.321L43.3589 27.8017L42.739 27.9693L42.3144 27.8179L42.1939 27.7138L42.4217 27.4289L42.6317 26.7761L43.0563 26.9405L43.1588 27.1424L43.1328 27.2026L43.4111 27.3247L43.7088 27.6535ZM156.82 27.704L156.621 27.717L156.455 27.4517L156.003 27.157L155.723 26.6492L156.787 27.4875L156.82 27.704ZM147.251 26.882L147.228 27.0219L147.086 26.8266L146.991 26.7794L147.093 26.291L147.147 26.208L147.23 26.5417L147.251 26.882ZM43.3003 26.584L43.3395 26.6964L43.1247 26.5694L42.9945 26.4929L42.9067 26.4229L42.4315 25.8027L42.6349 25.8418L43.1637 26.3871L43.3003 26.584ZM36.8847 24.3963L36.3722 24.4223L36.2225 24.3637L36.286 23.9372L36.4422 23.68L36.6749 23.6849L36.9336 24.0691L36.8847 24.3963ZM147.098 23.9405L146.934 23.9909L146.886 23.973L146.838 23.7907L146.929 23.4814L147.121 23.4782L147.202 23.5286L147.218 23.7565L147.098 23.9405ZM146.881 23.2633L146.725 23.413L146.577 23.3626L146.488 23.1705L146.517 23.0321L146.641 22.9426L146.795 23.0094L146.881 23.2633ZM37.6414 23.8395L37.547 23.9014L37.1581 23.3252L37.2557 22.9931L37.3501 22.9084L37.5649 23.1119L37.7341 23.3235L37.8577 23.5758L37.6414 23.8395ZM39.3709 23.2209L39.3954 23.3512L38.9772 23.0891L38.9658 22.8986L39.0195 22.8107L39.2684 23.0142L39.3709 23.2209ZM41.2453 23.0696L40.959 23.2031L40.5994 22.7879L40.6124 22.6919L40.6466 22.6186L40.7133 22.5715L40.9313 22.7863L41.19 22.8628L41.2453 23.0696ZM35.7116 23.4667L35.6254 23.641L35.4561 23.5123L34.5645 23.317L34.2635 23.2958L33.4923 23.0809L33.2579 22.967L33.0904 22.8173L33.1473 22.5421L33.2612 22.3761L33.3295 21.9138L33.5247 21.725L33.9072 22.0685L34.3318 22.3647L34.5775 22.4998L35.3276 22.8026L35.5928 22.954L35.7116 23.4667ZM37.5209 22.0977L37.5486 22.3468L37.2443 22.2866L37.0246 21.9936L37.2053 21.7852L37.3192 21.7103L37.4331 21.9871L37.5209 22.0977ZM36.3446 22.9068L36.2111 23.037L35.9801 23.0061L35.7377 22.8531L35.422 22.578L35.0672 22.3322L34.6182 22.1775L34.3367 22.1303L34.2245 22.0733L34.3318 21.5964L34.628 21.5671L35.5847 22.0099L35.8938 22.2508L36.3446 22.9068ZM40.2658 21.4971L40.5555 21.6957L40.7931 21.5654L40.7832 21.7347L40.7361 21.8975L40.4562 22.3647L39.9877 22.2573L39.8802 22.1059L39.846 21.9936L39.9144 21.9236L39.9518 21.6941H40.1536L40.2658 21.4971ZM42.8252 21.3359L42.853 21.6762L43.1132 21.8422L43.18 22.0929L43.1344 22.495L42.8904 22.9589L42.7814 23.0809L42.4576 22.9866L42.3501 22.8319L42.3078 22.7114L42.3534 22.6252L42.1143 22.5161L42.2688 22.3387L42.163 22.0896L41.5008 22.2459L41.3088 22.2508L41.2746 21.9675L41.3023 21.8536L41.8116 21.4954L42.1159 21.4287L42.4429 21.5004L42.8252 21.3359ZM32.9699 22.3615L32.7585 22.4982L32.5046 22.2833L32.2963 21.9724L32.1873 21.6484L32.088 21.1178L32.062 20.7369L32.1889 20.5139L32.2817 20.522L32.6559 20.7483L32.9033 21.1325L33.0399 21.2529L33.0675 21.6062L32.9765 22.0099L32.9699 22.3615ZM10.3859 20.2062L11.3751 21.4824L11.777 21.6534L12.3107 22.2329L12.4409 22.4347L12.3058 22.8416L12.1886 24.004L11.9332 24.2937L11.31 24.1505L11.3035 23.947L10.9439 23.0712L10.2931 22.5828L10.0376 22.5568L9.87004 22.057L9.54133 21.4661L8.54882 20.3853L9.30219 20.3934L9.66825 20.1297L9.75286 19.9197L9.81304 19.866L10.3859 20.2062ZM33.266 20.2322L33.3002 20.815L32.9602 20.662L32.695 20.4309L32.2703 20.2599L31.7561 20.2046L31.3787 20.0532L31.1151 19.783L31.1037 19.6576L31.1297 19.5567L31.2143 19.477L33.1652 20.0011L33.266 20.2322ZM135.539 22.3387L134.669 23.1086L134.403 23.4814L134.171 23.8818L133.827 24.3263L133.434 24.7186L133.237 24.8341L132.75 25.0457L132.47 25.1272L131.943 25.1548L130.355 25.4673L129.834 25.5032L129.315 25.4901L128.333 25.412L128.128 25.3713L127.735 24.9676L127.293 24.6486L126.902 24.6144L126.504 24.6486L123.632 24.6714L122.628 24.7316L121.629 24.8732L121.084 24.8081L120.545 24.6486L120.138 24.5916L119.728 24.6079L117.844 24.8488L117.369 24.826L116.416 24.5183L115.862 24.4565L115.317 24.5395L114.811 24.8162L114.619 25.0018L114.095 25.6366L113.799 26.0989L113.573 26.6752L113.381 27.2628L113.279 27.7447L113.272 28.2493L113.363 28.8158L113.505 29.3758L113.663 29.8039L114.317 30.7936L114.45 30.9336L115.161 31.2119L115.583 31.5701L115.981 32.5631L116.268 33.071L116.546 33.0775L116.858 33.0417L117.402 33.1067L117.939 33.237L118.463 32.9326L118.755 32.3563L119.05 31.9282L119.756 31.1143L120.158 30.7383L120.413 30.6146L120.675 30.6683L120.897 30.8831L121.154 31.0541L121.681 31.1469L122.213 31.0899L122.779 30.8246L122.983 30.6618L123.152 30.4566L123.632 30.289L124.772 30.2873L125.36 30.3476L126.411 30.2808L126.396 30.1311L126.193 29.9715L126.141 29.843L126.336 29.7599L127.013 29.5744L127.703 29.4425L128.206 29.5369L128.653 29.7957L128.826 30.0627L128.902 30.3834L128.73 31.2152L128.645 31.4089L128.287 31.5082L127.95 31.3975L127.617 30.9678L127.145 30.8099L126.476 30.9401L126.245 31.0638L126.04 31.2347L125.662 31.6808L125.348 32.1838L124.667 32.9667L123.881 33.6472L123.5 33.9076L123.074 34.0818L121.709 34.5327L121.349 34.868L121.069 35.3027L120.76 35.4508L120.402 35.4981L120.134 35.4166L119.59 35.1708L119.411 35.3727L119.38 35.6804L119.647 35.7894L120.08 36.1296L120.413 36.6098L120.627 36.7124L121.103 36.8686L121.303 37.0184L121.661 37.4303L122.226 38.3874L122.418 38.9051L122.732 39.3283L123.686 40.0462L123.739 40.2496L123.681 40.4873L123.754 40.7022L124.096 41.114L124.177 41.381L123.804 41.7196L123.783 42.2079L123.554 42.8656L123.503 43.087L123.51 43.2888L123.671 43.476L123.858 43.6241L124.115 43.7023L124.34 43.8309L124.772 44.3437L124.999 44.4788L125.142 44.666L125.127 44.9443L125.324 45.1071L125.505 45.3985L125.783 45.4685L125.911 45.3854L126.001 45.2601L126.229 45.3073L126.362 45.5108L126.44 45.7712L126.466 46.0578L126.455 46.6014L126.341 46.7968L126.092 46.787L125.645 46.5624L125.623 46.7252L125.654 46.8814L125.427 46.9335L125.166 46.9107L124.512 46.9319L123.305 47.2705L122.882 47.4707L122.607 47.8337L122.587 48.086L122.693 48.6151L122.532 48.8007L121.979 48.8707L121.206 48.729L120.739 48.5874L120.479 48.4686L120.14 48.1121L120.012 47.6563L120.262 46.3003L120.332 46.1261L120.454 45.9715L120.583 45.7257L120.614 45.4359L120.244 45.0827L119.688 44.9427L119.218 44.6481L117.398 42.9942L117.296 42.8347L117.293 42.5612L117.366 42.3056L117.963 41.4022L118.04 41.2296L118.113 40.5166L118.095 39.929L118.028 39.3413L117.745 38.9718L117.239 38.8595L116.717 38.8416L116.207 38.9588L115.706 39.255L114.782 39.8769L114.414 40.2399L114.382 40.7103L114.593 41.171L114.867 41.591L115.013 42.0517L115.215 43.6844L115.208 43.8683L114.971 44.3437L114.876 45.405L114.979 46.9042L115.142 47.8239L115.072 48.3237L114.639 49.3981L114.507 49.9873L114.497 50.2299L115.007 51.3531L115.124 51.7975L115.186 52.2581L114.644 52.0319L114.393 52.0433L114.138 52.1117L113.573 52.1849L112.999 52.1947L112.799 52.2793L112.392 52.5788L112.145 52.6993L111.93 52.7221L111.201 52.3477L110.77 51.9407L110.373 51.4996L110.299 50.995L110.438 50.4773L110.635 49.9239L111.027 49.0041L111.007 48.3872L111.142 47.8809L111.367 47.391L111.448 46.9384L111.502 45.1674L111.447 45.0094L110.908 43.9579L110.846 43.782L110.843 43.4988L110.902 43.227L110.913 42.9844L110.789 42.7972L110.571 42.6263L110.308 42.5514L109.75 42.6247L108.63 42.9079L108.3 42.6588L108.052 42.2747L107.891 41.7375L107.799 41.1759L107.841 40.6485L108.007 40.139L107.873 39.7825L107.667 39.395L107.665 39.1948L107.782 39.0207L107.984 38.8741L108.231 38.7895L108.462 38.6349L109.076 38.1156L109.271 37.6582L109.286 37.0949L109.442 36.5578L109.754 36.0612L110.125 35.6022L110.244 35.1285L110.064 34.3764L110.135 34.0346L110.073 33.6326L110.067 33.2353L110.296 32.4882L110.976 30.9596L111.64 30.1474L111.904 29.9341L112.249 30.3118L112.511 30.7561L112.515 30.3541L112.437 29.9683L112.174 29.0486L111.944 27.2547L112.008 27.0854L112.241 27.1131L112.478 26.9552L112.602 26.6736L112.356 26.0078L112.345 25.7718L112.82 24.8357L113.207 24.4956L113.376 24.2856L113.474 23.7142L113.676 23.4993L113.929 23.3447L114.265 22.9491L114.445 22.451L114.556 22.4135L114.686 22.3956L114.888 22.8303L115.114 23.0061L115.573 23.1477L115.965 22.9801L116.074 22.7619L116.222 22.5747L116.46 22.3794L116.66 22.1564L116.883 21.6404L117.177 21.1699L117.379 21.0055L117.621 20.9029L117.891 20.8395L118.152 20.8313L118.729 21.1259L119.065 21.1846L119.408 21.1634L119.624 21.2122L119.789 21.3457L119.938 21.6127L120.122 21.8438L120.293 21.9577L120.48 22.0115L121.738 21.9171L122.838 22.1775L124.338 22.2361L124.852 22.3891L125.347 22.5893L125.95 22.941L126.172 23.0191L126.419 22.9996L126.727 22.6675L126.967 22.5958L127.212 22.5828L128.178 22.6447L130.775 23.0517L131.159 22.9963L132.724 22.2166L133.352 21.4776L133.913 21.2724L134.102 20.9371L134.216 20.5367L134.415 20.4292L134.885 20.3153L135.07 20.1964L135.404 19.7032L135.798 19.267L135.991 19.1351L136.548 19.2051L136.793 19.3956L137.106 20.0369L137.052 20.1444L136.683 20.4634L136.575 20.5985L136.167 21.5004L135.887 21.9431L135.539 22.3387ZM29.6881 17.421L29.9338 17.7938L29.9858 18.0347L29.8053 18.3114L29.7385 18.7363L29.2064 19.07L28.7411 18.9902L28.5898 18.8714L28.2953 18.2268L28.3246 17.6798L28.5085 17.4715L28.9413 17.504L29.3805 17.2045L29.6881 17.421ZM148.526 23.0061L148.858 23.107L149.203 23.0794L149.374 22.8759L149.421 22.6121L149.595 22.1222L149.997 21.7901L150.279 21.738L150.479 21.598L150.445 21.235L150.466 20.8785L150.764 20.4976L151.683 19.9669L152.209 19.7781L152.89 19.7179L152.967 19.9214L152.889 20.2111L153.021 20.649L152.955 21.834L152.799 22.0017L152.095 22.4103L151.325 22.7375L151.109 22.8742L150.918 23.1998L150.935 23.5237L151.563 23.9551L152.537 24.3588L152.737 24.5476L152.868 24.8651L152.903 25.2199L153.139 25.3892L153.47 25.4706L153.688 25.6383L153.854 25.8743L152.213 25.3225L151.784 25.0799L151.267 25.0507L150.754 24.9774L150.232 24.7658L149.67 24.7153L149.402 24.8683L149.298 25.1678L149.234 25.5032L149.358 25.9199L149.347 26.1739L149.241 26.6312L149.648 27.984L150.157 29.0583L150.907 30.1767L151.278 30.5608L151.693 30.9076L151.019 30.805L150.816 30.4323L149.963 30.0611L149.799 29.8397L149.242 28.7783L149.08 28.5798L148.567 28.2184L148.341 27.9531L148.264 27.5949L148.321 27.2189L148.292 26.698L148.312 26.1804L148.417 25.5488L148.234 25.3257L147.994 25.1174L147.716 24.6339L147.633 24.0837L147.656 23.7679L147.77 23.4879L147.924 23.2454L147.959 23.0077L147.558 22.6643L147.139 21.6843L147.101 21.1764L147.635 20.1981L147.623 19.7228L147.729 19.4411L147.786 19.1416L148.066 18.4905L148.52 17.9354L149.291 17.1573L149.584 16.988L149.914 16.8773L149.944 17.0677L149.892 17.2371L149.322 18.0282L149.246 18.2072L149.231 18.5393L149.503 18.7363L149.799 19.1384L149.856 19.6723L149.867 20.242L149.802 20.815L149.693 21.0071L149.226 21.5834L148.164 22.2589L148.073 22.4266L148.081 22.6121L148.276 22.8368L148.526 23.0061ZM9.71224 17.434L9.68612 17.5366L9.2143 17.0597L8.68061 16.7943L8.90187 16.7259L9.34281 16.7992L9.51859 16.8675L9.68781 17.1052L9.71224 17.434ZM151.82 17.5415L151.097 17.6196L150.933 17.4031L150.743 16.4264L151.255 15.645L151.901 15.186L152.342 15.0704L152.497 15.0639L152.89 15.6272L152.591 16.7585L152.246 17.3364L151.82 17.5415ZM137.908 14.8181L137.861 14.9191L137.692 14.3867L137.833 14.1197L138.037 14.2175L138.087 14.3118L137.893 14.5658L137.908 14.8181ZM5.73884 16.1415L5.45243 16.1838L5.17585 16.0862L4.94644 15.8257L3.71956 15.0704L3.33881 15.059L3.07196 14.8653L2.74662 14.7986L2.40162 14.294L2.32843 14.0237L2.57899 13.8919L2.73679 13.6151L3.14525 13.7372L3.61062 14.2256L4.08403 14.4079L4.21264 14.5007L4.44364 14.7709L5.52572 15.4351L5.64281 15.6613L5.71769 15.8876L5.73884 16.1415ZM62.4709 13.664L62.2479 13.9017L62.0104 13.7535L62.3781 13.2717L62.4643 13.2391L62.4709 13.664ZM48.1915 13.8577L48.0011 13.8756L47.9441 13.7405L47.9522 13.5077L47.9359 13.3221L47.8806 13.1838V12.951L48.0564 13.0666L48.1915 13.1756L48.3477 13.2538L48.4746 13.3058L48.5412 13.3417L48.416 13.6705L48.1915 13.8577ZM50.5865 12.5212L50.58 12.8338L50.2644 12.6498L50.2025 12.3031L50.3067 12.1908L50.5231 12.251L50.5865 12.5212ZM102.522 11.9596L102.465 12.1094L102.074 11.7431L101.972 11.4778L102.019 11.271L102.424 11.2532L102.626 11.3834L102.522 11.9596ZM139.052 11.2532L138.938 11.3915L138.383 11.1376L138.411 10.7355L138.336 10.5369L138.186 10.3286L138.126 10.1251L138.188 9.90209L138.53 10.1869L138.722 10.6395L138.985 11.0692L139.052 11.2532ZM144.504 9.74094L144.429 9.793L144.265 9.67094L144.163 9.53582L144.169 9.4007L144.286 9.33234L144.524 9.53905L144.529 9.65301L144.504 9.74094ZM143.899 9.25906L143.91 9.45117L143.634 9.0149L143.526 8.4989L143.746 8.68281L143.992 9.06373L143.899 9.25906ZM103.555 7.84122L103.708 8.27585L103.731 8.44192L102.883 8.66979L102.372 8.13586L102.481 7.91937L102.922 7.92915L103.555 7.84122ZM59.8626 10.0991L59.2378 10.2667L58.8766 10.0323L59.2671 9.74416L59.4054 9.72464L59.4966 9.66766L59.529 9.55047L58.8229 9.36001L58.6211 9.19235L58.4292 8.76587L58.434 8.49398L59.3419 7.77615L59.5535 7.69964L59.5876 7.99751L60.2141 8.74957L60.2418 9.25092L60.2173 9.43164L59.8626 10.0991ZM97.4762 7.05011L97.6406 7.14778L97.8684 7.14455L98.1385 7.07291L98.8023 7.14127L99.9771 7.15592L100.786 7.32686L101.577 7.81032L101.97 7.90799L102.14 7.91122L102.102 7.94868L101.79 8.08052L101.642 8.34098L102.073 8.73979L102.102 9.00511L102.436 9.24282L102.844 9.61232L102.86 9.73279L102.999 9.89881L103.069 10.1023L102.781 10.3041L102.395 10.3416L102.109 10.1511L101.847 9.91346L101.778 10.2081L101.575 10.3774L100.833 10.3286L100.303 10.3302L99.7754 10.4034L100.039 10.449L100.278 10.5434L101.1 11.2955L101.276 11.5738L100.988 12.1273L101.127 12.3536L101.445 12.4838L101.832 12.7589L102.107 12.7866L102.306 12.9428L102.314 13.2131L102.429 13.4572L102.117 13.5566L102.426 13.6216L102.703 13.747L102.551 13.874L102.434 14.0286L102.561 14.1116L102.94 14.2532L103.106 14.3851L103.192 14.7383L103.563 15.3162L104.24 16.0618L104.388 16.3336L104.387 16.5843L104.274 16.7992L103.889 17.0499L103.581 17.382L103.544 17.5024L103.124 17.6554L103.316 17.7678L103.469 17.9208L103.76 18.3814L104.455 19.1302L104.805 19.4102L106.241 20.426L107.006 20.8688L107.982 21.8812L108.488 22.1157L108.588 22.3973L108.165 22.8303L107.55 23.0468L106.533 23.1624L105.513 23.0109L104.985 22.8873L104.526 22.6382L104.165 22.1385L103.687 21.8682L103.871 22.171L103.986 22.4803L103.926 22.8173L103.739 23.0809L103.417 23.2747L103.072 23.4326L102.925 23.5432L102.05 25.3062L101.908 25.7831L101.642 27.7626L101.637 28.3226L102.031 29.3693L102.065 29.9178L102.143 30.1555L102.091 30.3525L101.905 30.4697L101.154 30.7887L100.623 31.0541L100.192 31.4317L99.8437 31.9022L99.5378 32.2424L99.1311 32.4051L98.8349 32.3807L98.5974 32.2245L98.4297 31.9217L98.3337 31.5912L98.2719 31.8354L98.2833 32.0747L98.4233 32.3303L98.4769 32.6005L98.3956 32.8756L98.2215 33.0954L97.7497 33.3347L97.4893 33.5398L97.4388 33.9028L97.3136 34.1062L97.1329 34.2641L96.4675 34.6255L96.3178 34.7704L96.2088 34.9543L96.5635 34.925L96.8888 34.9543L96.9133 35.3141L97.0158 35.5827L96.8857 36.1703L96.3844 36.5675L96.6351 36.6505L96.8612 36.7808L97.364 36.8768L97.5333 37.2935L97.4584 37.7982L97.3672 38.2507L97.006 38.376L96.7815 38.293L96.5586 38.3011L96.3943 38.4379L96.352 38.6723L96.6627 38.5567L96.6448 39.1427L96.5602 39.7141L96.4577 40.0299L96.2673 40.2871L95.9793 40.3701L95.7076 40.1764L95.6523 40.4011L95.7352 40.5899L96.1226 41.0489L95.885 41.1498L95.7125 41.3061L95.6343 41.534L95.213 42.0566L95.0259 42.4407L94.9461 42.8509L94.7493 43.1765L91.5617 44.596L88.9828 45.7908L88.7973 45.7094L88.672 45.5271L88.5842 43.6697L88.2652 42.7207L88.2181 42.1852L87.8536 42.6621L87.6307 42.6133L87.3899 42.4912L87.2093 42.3349L87.1947 42.1298L87.3899 41.5405L87.1539 41.8645L86.8968 42.1135L86.63 42.0826L86.399 41.9589L86.3144 41.7668L86.1923 41.7375L85.6277 42.2617L84.8841 42.5433L84.4692 42.5384L84.1439 42.3772L84.16 41.9768L84.1259 41.5861L84.0348 41.3566L83.8347 41.2736L83.6508 41.3028L83.1171 41.5063L82.9267 41.4819L82.8178 41.5845L81.4054 40.1618L81.1206 41.3143L80.1444 41.9263L79.4252 42.2828L78.7109 42.1494L77.9869 41.9214L77.2644 42.1965L76.4802 42.8705L76.2638 42.973L76.0377 42.9714L75.8716 42.8835L75.9286 42.3724L75.9351 41.8612L75.8766 40.7234L75.8147 40.4987L75.5886 40.1862L75.2892 39.9599L75.1232 40.1243L74.9719 40.3506L74.3763 40.3408L73.7954 40.1601L73.3009 40.2627L72.3181 40.7136L71.7974 40.7836L71.5176 40.681L71.3386 40.4385L71.4411 40.2155L71.6575 40.0446L71.254 40.1796L70.9107 40.4076L70.7609 40.5541L70.5998 40.4808L70.1703 39.9664L69.2722 40.1585L69.1517 40.2171L68.9304 40.3929L68.7173 40.305L68.6115 40.1178L68.5741 39.0434L68.1169 36.9777L67.9916 35.9229L67.8907 35.6739L67.3668 35.2946L67.3847 34.7509L67.6581 34.2951L67.715 33.7644L67.6369 33.1882L67.4725 32.6249L67.2659 32.2001L66.9698 31.837L66.5777 31.4301L66.0944 31.1257L65.0531 30.7839L64.5048 30.8148L64.2997 30.6796L64.163 30.5055L64.2184 30.1636L64.4039 29.9292L64.6528 29.8706L64.6837 29.7372L64.1549 29.4621L63.714 29.0876L63.5756 28.863L63.5333 28.6156L63.5366 28.0442L63.6635 27.6828L63.7335 27.4875L63.8686 26.8835L64.1566 26.6996L64.111 26.5889L63.9874 26.5059L63.8083 26.3073L63.6602 26.0794L63.3235 25.692L62.7296 25.2265L62.6287 24.4223L62.5522 23.2372L62.601 22.6984L62.7914 21.6908L63.1217 21.3734L63.3837 21.2855L63.5806 21.1503L63.4178 21.1308L63.2779 21.1813L63.0273 21.2155L63.234 20.3137L63.3267 20.0532L63.7417 19.5486L64.2281 19.1025L64.4332 18.5767L64.7097 18.1161L65.8536 17.6408L65.442 18.2366L65.4875 18.4531L65.5883 18.6452L65.8845 18.7802L65.9691 19.5144L66.3417 19.9311L66.716 20.312L66.9926 20.4992L67.2969 20.7711L67.51 21.0234L67.7345 21.235L68.073 21.4417L68.989 22.3224L69.3714 22.5812L69.6561 22.8401L69.8579 22.9312L70.3574 22.8579L71.8332 22.2263L72.0984 22.1857L72.5784 22.0766L73.4261 22.1108L74.3227 22.3257L74.6139 22.3322L74.8905 22.2035L75.2745 22.241L75.6325 22.3078L75.8114 22.2524L76.3321 21.7917L77.0415 21.655L77.271 21.1992L77.4483 20.7695L77.5329 20.312L77.829 20.1281L78.2439 19.9686L78.859 19.7667L80.9921 19.7309L81.1988 19.8188L81.2427 20.0532L81.1988 20.2307L81.2834 20.3364L81.5665 20.3462L81.8284 20.4537L82.891 20.8215L83.3433 20.9355L83.5955 20.9062L84.0934 21.235L84.3651 21.1227L84.7247 20.8915L85.0663 20.5806L85.3723 20.3348L85.8164 20.2388L86.3924 20.2518L87.0726 20.1672L87.5852 20.0353L88.1579 20.2534L88.3108 20.1851L88.41 19.9718L88.7062 19.5046L88.838 19.1905L88.9519 18.5882L89.0316 18.4449L89.2497 18.3619L89.4725 18.2479L89.5311 18.0673L89.6125 17.8573L89.5458 17.6815L89.4189 17.5333L89.2854 17.0303L89.3277 16.8008L89.4108 16.6299L89.6402 16.5436L90.2455 16.1741L90.7823 15.7411L91.0769 15.5295L91.2054 15.3927L91.2135 15.1941L90.9793 14.9874L90.7547 14.8881L90.7385 14.6488L90.7466 14.4828L90.8149 14.3265L90.7808 14.1751L90.7792 13.9489L90.9223 13.7047L91.2526 13.3433L91.513 13.1089L91.8026 13.2538L92.1394 13.187L92.4599 13.0698L92.6373 12.6433L92.665 12.4399L92.6227 12.2771L92.7333 11.6699L92.7609 11.582L92.9708 11.1995L92.992 10.9422L92.8732 10.3449L92.948 9.8923L92.9823 8.95628L93.1075 8.78862L93.2523 8.30352L93.4867 7.79731L93.9601 7.5222L94.2075 7.16079L94.3164 7.09244L94.4792 7.08921L95.0519 7.3529L95.566 7.0599L96.0314 7.02572L96.4154 7.06477L96.6318 7.18523L96.8449 7.27152L97.3037 6.98662L97.4762 7.05011ZM144.342 8.53631L144.158 8.63075L143.862 8.59657L143.829 8.36542L144.13 7.95032L144.329 7.51241L144.117 7.40337L143.91 7.12339L143.902 6.7978L144.072 6.19551L144.322 6.24434L144.563 6.5048L144.662 6.99313L144.82 7.36427L144.485 7.86889L144.342 8.53631ZM5.87062 3.09122L6.43034 3.13191L7.47001 2.88452L8.04115 2.90891L8.57971 3.08799L9.05808 3.19053L10.2491 3.05868L10.4737 3.09286L10.6885 3.1954L10.8707 3.35819L11.4158 3.95074L12.3367 4.68L12.602 5.14717L12.7532 5.67296L12.8493 5.79506L13.8906 6.79944L14.0028 7.21941L13.8565 7.80054L14.1591 8.26284L15.1678 8.69746L15.7634 9.01326L15.8903 9.207L15.9781 9.43815L16.3084 9.77998L16.7218 10.003L18.012 10.5906L19.7042 11.818L20.6659 12.4008L21.4614 13.2863L21.7494 13.7096L21.987 14.167L22.4702 14.8328L23.2919 15.6548L23.5003 15.9055L23.7215 16.2685L23.977 16.6055L24.2828 16.9147L24.6473 17.1524L25.0199 17.2289L25.6203 17.8231L25.9441 18.0086L25.8936 17.5431L25.6203 17.1362L25.6252 16.8919L25.6724 16.6722L25.8953 16.4883L26.1638 16.4362L26.6682 16.6055L27.4866 17.3103L27.8316 17.7205L28.0903 18.287L28.3083 18.8747L28.6337 19.1677L29.0828 19.2702L29.5823 19.3125L30.0411 19.4932L31.1151 20.3072L31.4714 20.6897L31.7415 21.139L31.9269 21.6713L32.0425 22.2296L32.114 22.3582L32.8039 23.0321L33.1668 23.317L33.6094 23.4554L34.903 23.6067L35.3569 23.8395L35.7344 24.227L35.8922 24.6209L35.6238 24.9692L34.6133 25.5032L33.5346 25.8727L34.584 25.7457L35.1145 25.5911L35.6026 25.3502L36.0859 25.0425L36.8538 24.6127L37.1385 24.5249L37.4737 24.5558L37.778 24.6779L38.2336 25.0995L38.6632 25.5455L38.9837 26.0648L39.1838 26.6427L38.8161 26.9454L38.2824 27.1684L37.5486 27.7268L37.4705 27.9482L37.6218 28.0898L37.4428 28.5L37.8545 28.754L37.9163 28.9688L37.56 29.2765L37.5942 29.4669L38.0237 30.2808L38.2288 30.4664L38.8844 30.8799L39.8835 31.2982L40.4367 31.4903L41.0648 31.6385L41.3332 31.6352L41.8034 31.5668L41.8995 31.7296L42.1012 32.5305L42.1988 33.0384L42.3437 34.1176L42.5259 34.5653L42.5145 35.1123L42.7536 35.5778L43.2467 35.8757L43.769 36.1182L44.0163 36.3559L44.0131 36.714L43.9285 36.9973L43.7527 37.217L43.2093 37.6842L43.1117 37.886L43.0352 38.4005L43.1279 38.6365L43.3459 38.6495L43.5152 38.5258L44.166 37.8356L44.3417 37.7152L44.5874 37.6175L44.838 37.5556L46.0274 37.5507L46.5334 37.6598L46.9809 37.8845L47.3762 38.166L48.8261 39.9648L49.4883 40.9578L49.5403 41.2052L49.5517 41.4624L49.4394 41.661L48.8374 42.3398L48.7609 42.527L48.5738 43.266L48.608 43.7983L48.8081 44.0213L48.9692 44.2639L48.9562 44.4836L48.5592 45.5775L48.5185 45.7647L48.7691 47.544L48.7869 48.0258L48.7365 48.6362L48.7723 49.6194L48.4469 52.6602L48.3867 52.8409L48.1377 53.3065L47.8107 53.3032L47.5455 53.2218L47.3616 53.0444L47.2591 52.8246L47.1094 52.6439L46.3187 52.0823L46.112 52.1751L45.3082 52.8719L45.0951 52.9744L44.8266 52.8897L44.4036 52.6814L43.0775 51.9489L42.9962 52.1833L42.9782 52.5007L43.2419 53.2983L43.2792 53.6467L43.0385 53.715L42.9034 53.7004L42.3518 53.2381L41.8425 52.7253L41.2649 52.0319L40.8418 51.7031L40.4611 51.3352L39.3872 49.9385L39.1074 49.7252L37.4428 48.7404L37.1077 48.506L36.6813 48.0991L36.2241 47.736L35.2203 47.1647L33.4793 45.7159L32.7226 44.8841L31.8815 43.5428L31.6065 43.2009L30.1925 42.1949L29.4212 41.5861L29.0991 41.2361L28.349 40.0169L28.1293 39.6067L27.8527 39.2437L27.3988 38.949L26.9985 38.6039L26.2045 37.5019L25.9539 37.0624L25.7651 36.587L25.7993 35.6348L24.1153 32.7519L23.6922 31.8533L23.3001 30.6064L23.2139 30.4811L22.2945 29.3644L21.9708 29.0063L21.577 28.6709L21.2565 28.2786L20.6219 27.004L20.386 26.6508L20.0557 26.3904L18.8548 25.9085L18.4074 25.6399L18.0543 25.259L17.8379 24.7723L17.6004 23.7402L17.0325 22.1726L16.3979 20.0727L15.9684 19.1318L15.4786 18.3928L15.3355 18.2219L13.1551 16.8919L12.7825 16.695L12.3872 16.5778L11.8226 16.4931L11.3914 16.1497L11.2156 15.5327L11.1164 14.7058L11.009 14.2125L10.8903 13.9326L9.97909 13.3482L9.62107 12.8859L9.32334 12.3764L9.05163 11.9824L8.04929 10.6216L7.70598 10.2651L7.28133 10.016L6.02356 9.75231L5.65423 9.52603L5.04406 8.7528L4.67473 8.35891L3.56832 7.49125L1.6987 5.67623L1.31636 5.22367L1.03005 4.75164L0.797362 4.24538L0 2.84219L0.0651475 2.55893L0.183923 2.26429L0.166047 2.02013L0.0781571 1.77919L0.096033 1.5627L0.333583 1.43409L0.865687 1.2697L1.41726 1.28923L1.92811 1.35922L2.42277 1.49434L2.89787 1.78898L3.74727 2.53454L4.23052 2.79336L4.76749 2.91869L5.87062 3.09122ZM0.707784 0.432988L0.618305 0.561603L0.346593 0.494836L0.0472717 0.0797322L0.157903 0L0.341726 0.0423251L0.693185 0.138351L0.724071 0.292997L0.707784 0.432988Z" fill="white"/>
</svg>
