<svg width="66" height="64" viewBox="0 0 66 64" fill="none" xmlns="http://www.w3.org/2000/svg">
<path d="M34.7254 2.73355L34.9964 2.65399L35.4556 2.36831L35.8385 2.27741L36.0575 2.49656L36.1809 2.62155L36.421 3.11499L36.4891 3.62796L36.5962 4.05488L36.7909 4.22692L37.5227 4.28374L38.063 4.44122L38.2057 4.58404L38.3907 5.52878L38.4913 5.66189L38.626 5.55152L38.759 5.39567L38.944 5.37135L39.2604 5.43139L39.6774 5.45086L40.1074 5.55479L40.7012 6.08722L40.6785 6.26249L40.5633 6.56932L40.5227 6.81444L40.6249 6.91341L40.7824 7.16665L40.745 7.45883L40.5925 7.66337L40.5309 7.8322V7.94098L40.5877 8.03188L40.7093 8.11139L41.5871 8.21854L42.3903 8.11139L42.8965 7.81273L42.9825 7.49781L43.1253 7.14391L43.4271 6.84525L43.6348 6.74464L43.8262 6.86635L43.505 8.11466L43.7402 8.43279L43.7743 8.90682L43.8587 9.32235L44.1459 9.31422L44.4931 9.39051L44.7397 9.54314L45.0269 9.78984L45.4406 10.0171L45.7311 10.0966L45.8365 10.285L46.0718 10.5041L46.4418 10.9619L46.7727 11.267H46.9333L47.2416 11.1469L47.6992 11.0706L48.0594 11.0771L48.2135 11.3092L48.5689 11.4164L48.6938 11.5024L48.8334 11.6631L49.0702 11.728L49.3558 11.6631L49.5635 11.4504L49.841 11.3531L50.12 11.3855L50.2807 11.5024L50.5857 11.6761L50.7577 11.6387L51.1033 11.7459L51.4505 12.0835L51.5965 12.4211L51.6338 12.6062L51.7831 12.8075L52.3656 13.7133L52.5506 13.7571L52.7534 13.6208L52.8848 13.426L53.0746 13.387L53.3797 13.4779L53.576 13.5802L53.6701 13.9714L53.7367 14.046L53.8681 13.9616L54.1033 13.9438L54.4797 14.0395L54.9957 13.9292L55.4094 13.7652L55.6204 13.7717L55.9612 14.2278L56.3505 14.3983L57.2072 14.5363L58.1272 14.7505L58.489 14.9242L58.7357 15.0102L58.7616 15.6125L58.687 15.7034L57.7703 16.9078L57.3841 17.338L57.1878 17.95L57.0531 18.8882L56.7821 19.7761L56.3765 20.617L56.2288 21.2468L56.3392 21.6656L56.2694 22.323L56.0212 23.2174L55.979 23.8911L56.1445 24.3456L56.3733 24.4382L55.8232 24.7433L55.6983 25.0112L55.4825 25.3634L55.132 25.5111L54.7799 25.5598L54.4943 25.5144L54.3321 25.3731L54.3402 25.2417L54.1893 25.1297L53.8145 25.1329L53.4267 25.3748L53.1168 25.7708L53.2126 25.9916L53.4981 26.05L53.5728 26.1377V26.2513L53.4721 26.3877L53.3521 26.6214L52.7534 27.3162L52.1498 28.0158L52.0524 28.2268L51.861 28.3745L51.0936 28.7479L51.014 28.8972L50.9702 29.519L50.8842 30.0287L50.3147 30.5075L49.7485 30.9831L49.6073 31.2737L49.5051 31.6097L49.3282 31.9895L49.2925 32.1908L49.5797 32.5171L49.5456 32.7866L49.4548 33.1697L49.1838 33.4407L48.882 33.5949L48.8885 34.0105L49.0492 34.0689L49.4126 34.0381L49.9269 33.7362L50.2628 33.3466L50.0649 32.9781L50.0405 32.9067L50.0892 32.819L50.4867 32.4164L50.9735 32.1746L51.6533 32.1292L52.4727 32.272L52.5538 32.3321L52.5149 32.5788L52.5911 32.9424L52.7388 33.1973L52.536 33.9196L52.6901 34.1452L52.9286 34.4163L53.1071 34.663L53.3635 34.8887L53.5922 35.2702L53.6701 35.4861L53.3034 35.8594L52.6836 36.21L52.6138 36.4356L52.622 36.6905L52.6917 36.8918L53.0341 37.1499L53.4024 37.7326L53.636 38.2521L54.1471 38.7488L54.2721 38.8965L54.2396 39.0199L54.105 39.2309L53.9297 39.9354L53.7204 40.0458L53.4868 40.0912L52.854 40.6058L52.5717 40.5425L52.1709 40.549L51.8772 40.7178L51.9097 41.0376L52.1677 41.3298L52.3185 41.6479L52.3802 41.9791L52.6658 42.2242L53.0681 42.3703L53.2985 42.38L53.4478 42.4677L53.5387 42.5813L53.7123 43.2891L53.6085 43.466L53.391 43.5407L53.2613 43.8312L53.0032 44.2581L52.8572 44.6006L53.0195 44.9026L53.0876 45.1266L53.0016 45.3571L53.1168 45.7142L53.4219 46.068L54.251 46.5648L55.0217 46.969L55.2602 47.0355L56.3019 46.7758L56.4738 46.7985L56.6004 47.107L56.6556 47.3147L56.5388 47.6264L56.2516 48.0663L55.9465 48.4088L55.7616 48.6994L55.8005 48.9639L55.8119 49.3146L55.5636 49.4184L55.5555 49.3503L55.4533 49.2902L55.3657 49.3243L55.2975 49.4006L55.2878 49.5354L54.7588 49.7594L54.3938 49.9915L52.9513 51.3745L52.2763 51.7787L52.1433 52.0222L52.0054 52.4767L51.6095 52.8663L51.2623 53.0513L50.404 53.2412L49.5408 53.6535L49.1514 53.475L48.1454 53.4945L47.5175 52.9978L46.3103 52.6829L45.9177 51.9573L45.3676 51.9102L45.0074 51.9329L44.7916 51.8225L44.7365 51.5741L44.7316 51.3356L44.3503 51.4459H44.0582L43.8846 51.5417L43.7483 51.6521L43.5861 51.5823L43.492 51.6066L43.5001 51.7462L43.1496 51.782L42.7683 51.6959L41.7705 51.321L41.6179 51.2625L40.9251 51.118L40.646 50.9671L40.4189 50.5953L40.2469 50.4785L40.1447 50.4087L39.4989 50.597L39.275 50.8891L38.9262 51.2316L36.5313 52.9069L36.0932 53.6065L35.587 54.634L35.548 55.1129L35.7655 56.6388L36.2523 57.4374L36.3139 57.6224L36.043 57.6241L35.5902 57.5234L35.2154 57.4L34.8569 57.4682L34.5129 57.6338L34.2111 57.7344L33.9937 57.762L33.8493 57.8578L33.7795 58.0477L33.7665 58.1808L33.3852 58.1484L32.5042 57.8757L31.7124 57.6874L31.2467 57.9016L30.9482 58.1013L30.7389 58.0704L30.5782 57.8594L30.4711 57.6533L30.1613 57.4634L29.4603 57.1793L29.496 57.0429L29.6161 56.8514L29.6128 56.7329L29.4782 56.5576L28.8324 56.3693L28.5274 56.3222L28.3343 56.452L28.1948 56.6112L27.8362 56.0268L27.5798 55.9066L27.1936 55.8872L26.7507 55.7086L26.2899 55.4797L25.172 55.1145L24.8653 55.0707L24.742 55.1291L24.6592 55.3482L24.6155 55.9651L24.5684 56.0332L24.0492 56.0544L23.4099 55.9683L23.1162 56.0105L22.855 56.0121L22.6084 55.8482L21.5034 56.0349L21.3201 55.944L21.054 55.6664L20.7554 55.4408L20.525 55.3255L20.3271 55.1924L20.1486 55.1713L19.876 55.2995L19.4996 55.3547L19.1881 55.3385L19.0209 55.3564L18.32 54.6714L18.2178 54.4846L17.8689 54.4327L17.4374 54.4246L16.3373 53.9799L15.8359 53.7412L15.7629 53.5984L15.7694 53.4831L15.6834 53.5091L15.5293 53.712L15.4481 53.8776L15.3411 53.9084L15.1837 53.8824L15.0376 53.7883L14.9484 53.6682L15.0441 53.4588L15.2129 53.1844L15.2826 52.8858L15.2664 52.6179L14.989 52.4459L14.5801 52.3744L14.2799 52.3533L13.8905 52.2007L13.7056 52.0904L13.5271 51.7917L13.5206 51.5741L14.2621 51.3826L14.9289 50.5953L15.5617 47.7254L16.0193 44.302L16.3584 43.6527L16.7867 43.4741L16.4411 43.0001L16.2253 43.2403L16.1345 43.4952L16.0209 43.6235L16.2756 40.45L16.4573 39.2812L16.7673 38.0541L17.4017 38.541L17.9274 39.0361L18.1983 39.4646L18.5423 40.8866L18.8036 41.1853L19.1929 41.484L19.0388 41.1577L18.7711 40.9077L18.3525 39.0101L18.0896 38.4696L17.6807 38.0151L16.3632 37.0557L16.2448 36.8691L16.1799 36.5022L16.6163 36.5184L16.9928 36.697L16.949 36.4925L16.837 36.2782L16.6618 35.4974L16.5158 33.668L16.5352 33.3547L16.4703 32.9684L16.0484 32.8823L15.711 32.8677L15.3476 32.7151L13.553 31.6308L12.9397 30.5075L12.3118 29.6764L12.1609 29.3128L12.1706 28.9443L12.4967 28.1651L12.2095 27.6717L11.9289 27.5743L11.6855 27.3292L11.9062 26.9217L12.0895 26.6604L12.4578 26.5906L12.9397 26.6766L13.3973 26.9136L13.7558 26.9769L12.6963 26.3422L10.9765 26.5565L10.6049 26.4754L10.2933 26.3341L10.17 25.8666L10.415 25.6572L10.6357 25.2676L10.3858 24.9949L10.0614 24.891L9.55183 24.8959L9.07643 24.9787L8.95641 24.8212L9.24682 24.3862L9.00018 24.2271L8.6708 24.3018L8.19381 24.391L7.73787 24.2547L7.30629 23.7596L7.02069 23.7629L6.82436 23.8245L6.53395 23.633L6.2273 23.586L6.00824 23.6492L5.71783 23.3652L3.92655 22.7938L3.1542 22.724L2.44519 22.9821L2.05411 22.8928L1.76697 22.5227L1.52682 21.9026L0.384539 21.4238L0.610083 21.1089L1.14228 21.0342L1.75395 20.8166L1.97464 20.5358L1.49597 20.2095L1.14228 20.1284L0.996257 20.0115L0.846967 19.7177L1.0579 19.583L1.20719 19.6544L1.63877 19.6966L2.37542 19.6252L2.1012 19.3281L1.81564 19.2616L1.68418 19.1869L1.08385 19.1544L0.811266 19.2567L0.197964 19.2177L0.0649151 18.898L0 18.622L0.189843 18.0084L1.05305 17.4581L3.20451 16.8559L4.12937 16.9436L4.77025 16.8348L5.53933 16.455L5.87846 16.1287L6.97201 15.9371L8.01046 16.2829L8.96775 17.588L9.42532 18.0295L10.5465 17.2633L12.216 17.2861L12.56 17.7178L12.6995 17.3542L13.0062 16.9273L13.2512 17.1221L13.3762 17.3867L15.1382 17.312L15.4157 17.2357L14.9419 16.9257L14.5557 16.1823L14.4746 13.434L13.9862 12.663L13.4264 11.4277L13.1685 10.6924L13.1442 10.4375L13.2301 10.069L13.9181 10.0885L14.4503 10.1827L15.4644 9.90511L15.9511 10.095L15.9219 10.6697L16.0712 11.3936L16.2399 11.7443L16.4979 12.1419L17.3141 12.1062L18.1951 12.34L19.3098 12.3757L20.9371 12.7783L21.63 12.5445L22.3017 12.0462L23.5803 11.7183L23.6825 11.5462L22.9458 11.6144L22.2709 11.2979L22.18 10.9554L22.2579 10.6469L22.5321 9.93592L24.4889 8.81101L25.8907 8.47827L27.3543 7.85657L28.0909 7.21862L28.5777 6.39237L28.735 6.21057L28.9378 6.05799L28.7496 5.76091L28.8762 2.57934L29.0125 2.00307L29.2981 1.53072L29.7329 1.16548L30.3917 0.769423L32.8206 0.222376L33.1808 0L33.2311 0.34409L33.4079 0.783987L33.5296 1.02425L33.4274 1.33752L33.5069 1.59562L33.8363 2.05989L34.2468 2.49656L34.6135 2.77576L34.7254 2.73355ZM16.3259 35.6305L16.1653 36.2019L15.8602 35.676L15.4579 35.2149L15.3654 34.7881V34.6744L15.8376 34.9861L16.3259 35.6305ZM64.8607 55.3125L64.7423 56.2199L64.8283 56.4845L64.9938 56.6696L65.07 56.8725L65.2079 59.2781L65.182 59.4697L64.6255 60.4323L64.5005 60.7131L64.4729 61.9013L64.3788 62.2195L64.1809 62.5328L63.8288 63.5457L63.5237 64.0002L62.6897 63.4451L62.1982 63.2048L61.958 62.9467L61.8006 62.7682L61.9028 62.5296L62.1268 62.2812L62.1625 62.0848L61.6351 61.864L61.3934 61.7163L61.3966 61.4566L61.5783 61.0524L61.4956 60.718L61.1906 60.7342L60.9537 60.6839L60.9228 60.5102L61.0964 60.2878L61.3203 59.9973L61.3139 59.6758L61.0429 59.5379L60.7979 59.2765L60.6989 58.921L60.8888 58.6775L61.197 58.5217L60.9699 58.1565L60.8174 58.1484L60.6957 58.0688L60.7963 57.9L61.0348 57.6467L61.3674 56.8887L61.8298 56.53L62.6508 56.2995L62.8731 56.1972L63.0759 55.9294L63.3015 55.7573L63.5757 55.78L63.8288 55.8823L63.9845 55.9927L64.1014 55.8774L64.2149 55.5447L64.1452 55.2525L64.1809 54.449L64.3269 53.9928L64.5638 53.9668L64.7812 54.2184L64.7715 54.4409L64.8526 54.9668L64.8607 55.3125Z" fill="white"/>
</svg>
