<svg width="58" height="85" viewBox="0 0 58 85" fill="none" xmlns="http://www.w3.org/2000/svg">
<path d="M52.1268 19.1249L52.0991 19.4223L51.9521 19.5416L51.7267 19.5678L51.3804 19.3554L51.1272 19.4093L50.874 19.4223L50.5179 19.1756L50.3954 18.9321L50.116 18.7327L49.5378 18.8128L49.0608 18.8177L48.6623 18.7719L48.3046 18.8389L48.0007 19.0955L47.7737 19.3962L47.5074 19.6479L46.725 19.8162L46.3085 19.8211L45.9344 19.9861L45.3774 20.0466L44.9968 20.1937L44.3222 20.2737L43.5136 20.3505L43.0628 20.5745L42.8831 20.6725L42.4241 20.9814L41.6253 21.4684L41.1843 21.6383L40.6518 22.1662L40.0131 22.6613L39.5982 22.9244L38.989 23.0454L38.7358 23.1794L38.6427 23.3378L38.6965 23.5242L38.592 24.0013L38.4058 24.8822L38.3552 25.3153L38.3094 25.5211L37.906 26.2304L37.4715 26.8889L37.2575 27.3253L37.1383 27.6456L37.2722 27.9103L37.4486 28.3891L37.5973 28.7715L37.6397 29.0314L37.5875 29.3288L37.4045 29.6017L37.1154 29.7798L36.7266 29.8289L35.9262 30.3077L35.0344 31.0169L34.742 31.347L34.6587 31.6591L34.5296 32.1461L34.5835 32.3994L34.742 32.5726L34.902 32.9861L34.9151 33.2002L34.7828 33.3195L34.5296 33.3456L34.3025 33.3865L34.1294 33.4927L33.9563 33.4665L33.7978 33.5189V33.6937L33.8501 33.8931L33.8239 34.1071L33.7178 34.2395L33.6247 34.3327L33.7178 34.4667L33.8762 34.5876L34.1164 34.787L34.4496 35.1743L34.7028 35.2413L34.9151 35.3753L34.9413 35.5877L34.8612 35.8018L34.675 35.895L34.6619 36.0829L34.9151 36.3101L35.0883 36.4702L35.2614 36.7104L35.4215 37.0454V37.2579L35.5946 37.5259L35.7008 37.753V37.9671L35.9801 38.1795L36.2202 38.3413L36.3918 38.4884L36.5649 38.5816L36.6057 38.7417L36.5829 38.9852L36.8311 39.3872L37.2869 39.6879L37.656 40.1242L37.8945 40.4413L38.3372 40.9511L38.3535 41.5362L37.8063 42.2078L37.2575 42.8811L38.1542 42.8631L39.069 42.8762L40.0262 43.069L40.6714 43.2537L41.0651 43.3371L41.3444 43.5527L41.4767 43.8878L41.5829 44.1623L41.6107 44.5578L42.0092 44.8797L41.9815 45.1869L41.97 45.62L42.1464 45.6266L43.3176 45.6282L44.5982 45.6298L45.8299 45.5497L46.2954 45.4452L46.8573 44.9189L47.1954 44.7637L47.5205 44.5186L47.9158 44.0708L48.2294 43.8698L48.494 43.6214L48.8877 43.373L49.0511 43.19L49.185 43.123L49.4904 43.0021L49.3581 43.2439L49.2552 43.4907L49.2242 43.8469L49.3696 44.2358L49.2487 44.5267L49.0511 44.7866L49.0478 45.4713L49.0445 46.442L49.0396 47.2738L49.0347 48.3164L49.0298 49.4979L49.0265 50.284L49.2356 50.1287L49.5264 49.9899L49.9037 50.351L50.1732 50.5079L50.4036 50.5455L50.6404 50.534L50.9622 50.4572L51.6678 50.1549L52.1513 49.9114L52.7051 49.9277L53.4646 50.0225L53.9024 50.0127L54.4757 51.0193L54.8956 51.758L55.3742 52.5996L55.758 53.2778L56.3428 54.3074L56.8475 55.198L57.3866 56.1474L57.9991 57.2276L57.8015 57.5022L57.6414 57.7212L57.6593 58.0921L57.4176 58.2899L57.1612 58.4092L56.859 58.7229L56.6531 58.9925L56.6433 59.3798L56.6826 61.3442L56.6319 61.8786L56.4751 62.3378L56.3134 62.5698L56.2154 62.7529L56.449 63.2088L56.6727 64.1272L56.8426 64.3102L57.0517 64.6844L57.1465 65.0391L57.104 65.1747L56.6842 65.343L56.5339 65.4868L56.4947 66.0147L56.3134 66.2043L56.0063 66.4526L55.8086 66.737L55.6421 66.9347L55.4787 67.0491L55.3986 67.3972L55.2892 67.7502L54.907 67.9839L54.8416 68.417L54.8367 68.7748L55.0393 69.1327L55.6976 69.8861L55.7645 70.0658L55.3889 70.5201L55.1716 70.8355L54.6358 71.7997L54.626 71.9762L54.7583 72.4321L55.5571 74.3866L55.6927 74.5452L55.9393 74.7314L56.3428 74.7102L56.9521 74.921L57.2477 75.1629L57.2755 75.2822L57.2069 75.3623L56.8851 75.524L56.5274 75.7364L56.4033 75.9375L56.3787 76.2562L56.4604 76.7284L56.3052 76.882L55.9475 77.0651L55.6388 77.3298L55.3301 77.7694L54.8057 78.4394L54.6244 78.6225L54.546 78.8545L54.2471 78.9313L53.6901 79.3872L53.5953 79.6176L53.6852 79.8366L53.971 80.0213L54.1621 80.2877L54.2128 80.6292V80.8416V80.8482L53.8665 81.1685L53.4156 81.5362L52.8603 81.6081L52.6496 81.7928L52.6969 82.1834L52.8766 82.7341L52.875 83.1654L52.7051 83.659L52.3081 84.1999L51.7005 84.5725L51.1272 84.7719L50.6763 84.7735L50.2402 84.8127L50.054 84.8699L49.7175 84.5431L48.2229 83.4629L47.6544 82.8861L47.1268 82.6164L45.8413 81.6914L45.7139 81.3956L45.5554 80.4462L45.3888 80.1798L44.9462 79.8366L43.837 79.3807L43.4058 79.1535L42.955 78.7385L42.2918 78.4443L41.5698 77.8413L41.1402 77.3609L40.6584 77.0422L39.1621 76.5977L38.4124 76.1515L37.0092 75.5224L36.3836 75.122L34.8824 74.635L34.4365 74.403L32.9599 73.2639L31.9242 72.8913L31.0896 72.2524L28.5708 70.8944L28.1755 70.4597L27.79 69.7897L27.2313 69.3909L26.6025 68.4741L25.6681 67.9349L24.7681 67.2207L24.4365 66.5719L23.8387 65.7467L23.6623 65.3071L23.1395 64.8659L23.1036 63.9981L22.7393 63.5993L23.0007 63.4016L23.2767 63.315L23.6214 61.9668L23.4401 61.2919L22.5058 60.0679L22.1627 59.4812L21.9193 58.7295L21.5453 58.2833L20.9899 57.3437L20.6502 56.5119L19.9086 55.9088L19.706 55.6915L19.5933 55.3843L19.18 55.167L19.1588 54.5296L18.8713 53.3203L18.4597 52.7107L16.9781 51.5734L16.9537 51.1354L16.836 50.3396L16.5061 49.4783L14.8579 46.8081L14.4447 46.0138L14.033 44.7245L13.6622 43.994L13.2539 42.6932L12.638 41.7045L12.2493 40.8482L11.8376 39.7843L11.8017 39.2156L11.0536 38.2384L10.6567 37.3428L9.95918 36.5927L9.27802 36.0224L8.98236 35.6188L8.0121 33.7035L7.8798 33.1364L7.21987 32.0841L6.56485 31.329L6.1516 30.7195L5.62236 30.172L2.40771 28.4872L1.27574 27.7877L0.893496 27.4544L0.71708 26.9298L0.790582 26.6226L1.12218 26.335L1.58119 26.5572L1.86214 26.464L2.08103 26.0899L2.08591 25.5228L1.80496 24.7923L0.774256 23.382L0.852669 23.0829L1.04706 22.7446L0.650107 22.0665L0.217242 21.5223L0 21.1056L0.245008 19.5187L0.480246 19.1167L2.03855 17.5071L2.46651 16.8191L3.13623 16.3942L3.81902 15.7454L4.64065 15.2519L4.75989 15.3369L4.87422 15.4202L4.88078 15.5869L4.91181 15.7307L5.00328 15.8664L5.01143 16.1148L5.11761 16.2814L5.12414 16.4694L5.13232 16.7259L5.0784 16.8551L5.13069 17.0773L5.30709 17.4891L5.23849 17.6165L5.07187 17.6999L4.90528 17.8143L4.73866 18.0709L4.48709 18.0627L4.12447 17.9499L3.88108 18.0921L3.79125 18.365L3.8664 18.5922L3.88925 18.803L4.0477 18.9844L4.50997 18.9991L4.09343 19.5809L3.88925 19.8456L3.93337 20.0123L4.18329 20.1545L4.3695 20.1643L4.78275 19.9518L5.06372 19.6413L5.22217 19.4681L5.48841 19.3994L5.83633 19.5433L6.29861 19.8309L6.83765 20.0842L7.05816 20.2231L7.45346 20.1839L7.78506 20.125L8.06437 20.3342L8.34696 20.5107L8.41229 21.1104L8.623 21.5484L8.88109 21.885L9.19472 22.2871L9.48384 22.4227L9.85627 22.426L10.3626 22.5747L10.5603 22.4766L10.7334 22.1955L10.8249 22.0371L11.083 21.9684L11.1059 21.7886L11.052 21.568L11.1369 21.3115L11.3476 21.0843L11.8899 20.7542L12.1513 20.6153L12.2052 20.4127L12.3032 20.1397L12.2656 19.9894L12.1562 19.8015L12.1823 19.5351L12.3261 19.1805L12.5302 18.7654L12.7066 18.2359L12.7736 17.9875L12.9631 17.829L13.035 17.6002L13.1379 17.3306L13.3715 17.0283L13.3649 16.703L13.4629 16.5593L13.4711 16.1965L13.7047 15.4513L13.7129 15.296L13.8158 15.2552L13.9938 15.3026L14.1474 15.4725L14.1947 15.6392L14.2584 15.7144L14.4038 15.6997L14.5704 15.6049L14.559 15.4545L14.4381 15.3074L14.4038 15.2192L14.4561 15.0803L14.7093 14.778L14.9853 14.4266L15.5783 13.6961L15.936 13.3987L16.8589 13.0833L17.5596 12.8431L18.2293 12.6143L19.1408 12.2858L20.428 11.8217L21.3509 11.4883L22.1758 10.8935L22.8145 10.4327L23.3601 10.0356L24.0526 9.52899L24.9902 8.43735L25.6371 7.68399L26.1075 7.13326L26.4342 6.78516L26.6939 5.80628L26.9912 4.69016L27.1219 4.19334L27.1791 4.02014L27.3065 4.09365L27.4535 4.21459L27.6315 4.21947L27.7998 4.21459L27.906 4.14596L27.7491 3.03144L27.772 2.78796L27.8602 2.49706L27.8422 2.34017L27.558 2.11794L27.1023 1.67179L26.9128 1.27466L26.7985 0.941324L26.48 0.720692L26.1516 0.52784L26.1794 0.369348H26.3738L26.8671 0.524598L27.2232 0.475574L27.4878 0.457571L27.7459 0.294192L28.0203 0H28.2049L28.4156 0.0392488L28.7995 0.34157L29.0265 0.51971L29.3009 0.666781L29.559 0.719047L29.7942 0.735405L29.9592 0.722338L30.0556 0.92332L30.1699 1.17008L30.4623 1.3368L30.8086 1.4953L31.0879 1.76819L31.2774 1.95122L31.5012 2.16696L31.7184 2.45457L31.9145 2.95952L32.0141 3.30274L32.1268 3.4923L32.1007 3.6851L32.3326 4.03645L32.5041 4.23095L32.8047 4.35512L33.3846 4.49566L33.6949 4.8127L33.9694 4.93528L34.2601 5.26209L34.5182 5.35854L34.8449 5.34054L35.1716 5.49908L35.4199 5.80793L35.5799 6.19523L35.8282 6.41422L35.9507 6.81129L35.8102 7.27704L35.9426 7.52381L36.199 7.72649L36.6155 7.93729L36.9961 7.88498L37.1905 7.95525L37.3147 8.1481L37.3849 8.3785L37.5515 8.93741L37.6381 9.292L37.4829 9.63522L37.4257 9.8738L37.5107 10.1908L37.906 10.3461L38.2654 10.4719L38.4875 10.7187L38.7358 10.7856L39.0837 10.7709L39.528 10.7105L39.7763 10.5683L39.9347 10.5258L40.1128 10.5879L40.5081 10.7236L40.9883 10.8772L41.4244 10.7889L41.8017 10.7481L42.1758 10.6582L42.5548 10.4016L42.8749 10.4114L43.1118 10.2382L43.4107 9.96038L43.7064 9.68095L43.9367 9.61886L44.3091 9.75286L44.822 9.94567L45.1128 10.1957L45.335 10.2611L45.5669 10.4457L46.0112 10.449L46.4865 10.3493L46.8671 10.0421L47.2608 9.95225L47.5303 9.86562L47.7786 9.91789L48.7374 10.4817L49.0004 10.7726L49.3304 10.8298L49.6015 10.9883L50.054 11.1599L50.3023 11.3364L50.6192 11.4426L50.8511 11.6877L51.2154 11.8397L51.5322 11.9231L51.6744 12.1224V12.2548L51.6319 12.343L51.2971 12.8627L50.6404 13.8808L50.0491 14.7976L49.1196 16.2422L48.6019 17.0495L48.7342 17.0838L49.5427 17.4368L49.7436 17.4499L50.0393 17.36L50.232 17.2195L50.4133 17.1999L50.6028 17.3355L50.8691 17.5104L51.0602 18.0251L51.2023 18.2768L51.5355 18.468L51.8916 18.7866L52.1268 19.1249Z" fill="white"/>
</svg>
