<svg width="103" height="91" viewBox="0 0 103 91" fill="none" xmlns="http://www.w3.org/2000/svg">
<path d="M74.8361 2.23141L74.8426 2.44984L75.0218 2.74973L75.2075 2.86061L75.5985 3.01382L75.8999 3.03501L76.3105 3.10674L76.5891 3.2795L76.6054 3.54846L76.5354 3.84836L76.3659 4.12383L76.2698 4.33409L76.3594 4.45472L76.506 4.54923L76.664 4.5753L76.7716 4.54436L76.8531 4.37812L77.0078 4.17437L77.0942 4.14826L77.0876 4.26401L77.161 4.40742L77.6644 4.64703L78.7691 5.09367L79.2024 5.10183L79.5527 5.15396L79.6553 5.34139L80.3592 6.02928L80.527 6.01132L80.8398 6.02764L81.2178 5.97223L81.4915 5.84344L81.6707 5.86463L81.8695 5.99829L82.1008 6.11399L82.4006 6.34057L82.6678 6.61933L82.8519 6.71061L83.9614 6.52313L84.2091 6.68778L84.4714 6.68613L84.7663 6.64375L85.4082 6.73016L85.9296 6.70897L85.9768 6.64052L86.0208 6.02112L86.1039 5.80106L86.2277 5.74236L86.5357 5.78639L87.6582 6.15314L88.1209 6.38295L88.5657 6.56228L88.9534 6.58182L89.2109 6.70245L89.5709 7.28922L89.509 7.58424L89.5416 7.69348L89.579 7.89722L89.5693 8.12375L89.6638 8.27209L89.8349 8.29004L90.0532 8.24602L90.2927 8.15803L90.713 7.90697L90.8385 7.86623L91.5423 8.15146L91.8535 8.34217L91.961 8.5492L92.1223 8.76111L92.3325 8.79205L92.6323 8.59158L93.0999 8.3764L93.8949 8.56552L94.7796 8.83935L95.1625 8.87193L95.1755 8.73828L95.2456 8.54756L95.3906 8.45141L95.6089 8.4237L95.912 8.32263L96.2573 8.15638L96.6174 8.08794L96.9938 8.2118L97.4483 8.31288L97.7204 8.31123L97.8507 8.70241L98.0707 8.85075L98.157 9.18979L97.753 9.36583L97.5151 9.39026L97.4418 9.96891L97.5558 10.1319L97.7823 10.2851L97.8442 10.4628L97.8898 11.3104L97.4271 11.8205L96.7787 12.3927L93.6049 14.2264L92.849 15.1115L92.5606 15.3152L90.2014 15.8711L88.5527 16.4643L87.7625 16.6795L86.7752 17.708L86.3075 18.122L86.6806 18.2361L87.1156 18.7267L86.969 18.9435L86.3352 19.2793L86.0583 19.382L85.9084 19.3282L85.7666 19.3738L84.7043 21.1424L83.7659 22.4105L83.238 22.9614L82.6971 23.7813L81.5452 25.8889L81.5371 26.4952L82.1041 28.58L82.4299 29.126L82.8861 29.584L83.7496 29.9735L83.9631 30.3566L83.6649 30.7217L82.8014 31.3688L81.2992 32.2425L80.6606 32.9304L80.5254 33.5921L80.0855 33.8904L79.9193 34.8146L79.6521 35.4258L79.6016 35.6328L79.3181 36.0957L79.2806 36.4332L79.745 36.8961L79.5152 37.0966L79.2855 37.1846L78.756 37.2383L76.9752 37.297L75.5431 38.2962L74.8279 39.1797L74.1794 40.8178L73.3925 41.7811L73.0455 41.9588L72.5062 41.5366L71.8317 41.4714L71.1784 41.6116L70.8362 41.9473L70.3018 42.1348L69.7789 41.9734L68.6482 41.8854L68.1448 41.9017L67.3578 42.1739L66.6833 41.993L65.5445 41.9001L63.0794 42.1169L62.7682 42.2179L62.4603 42.6222L61.675 43.3182L60.4808 43.3426L59.4006 43.7859L59.1301 44.0696L58.6772 44.8503L58.5355 45.4192L58.441 45.4241L58.3237 45.2839L58.1575 45.3296L58.0711 45.7631L57.6655 45.9604L57.3266 46.0321L56.4908 45.6816L55.7934 45.1552L55.4285 45.1177L54.8355 44.2962L54.5797 43.7729L54.3988 43.2057L54.4363 42.9889L54.3858 42.808L53.8595 42.5781L53.7308 42.0566L54.1153 41.3768L54.4298 41.0883L54.6253 41.0052L54.1495 41.0346L53.8058 41.4714L53.3659 40.7705L51.5721 39.4029L51.6878 39.0884L51.6682 38.9189L51.3668 39.2856L51.1615 39.3802L50.2443 39.3215L49.1885 39.4894L48.9099 38.0648L48.7779 37.5171L48.7437 37.1617L49.0158 36.3402L49.3139 36.0045L49.7099 35.3117L50.1986 34.7347L50.7151 34.5978L50.9432 34.513L51.1338 34.0664L51.2414 33.685L51.1632 33.6476L50.5603 33.7258L49.4785 32.1203L49.5127 31.8643L49.6479 31.4845L49.7376 31.0037L49.7603 30.6239L50.0422 30.2963L50.474 29.967L50.8373 29.4976L51.0198 29.0396L51.0572 28.6223L50.852 28.324L50.2605 28.1594L49.6496 26.9662L49.5143 26.2181L49.3889 26.1399L49.0125 25.7992L48.6508 25.157L48.5987 25.0559L48.9718 24.9435L50.5098 24.9386L50.8308 24.7968L50.8796 24.7479L51.1599 24.2474L51.4531 23.4244L51.5216 22.9207L51.4287 22.712L50.9187 22.2019L50.896 22.0519L50.9774 21.8106L51.2804 21.5531L51.6894 21.2597L51.9126 21.0071L51.8588 20.8082L51.7399 20.6012L51.7203 20.4073L51.7953 20.1693L51.823 19.3543L51.8751 19.1457L51.7953 18.4024L51.6959 17.7944L51.3717 17.0055L51.4303 16.8311L51.5802 16.6844L52.0706 16.4106L52.4617 15.7651L53.0303 15.2239L53.7748 14.7887L54.2962 14.3046L54.5014 13.933L54.6465 13.8352L54.6041 13.6624L54.5064 13.4114L54.2098 13.1653L53.8269 13.0251L53.4017 13.0316L53.1378 12.9811L53.0612 12.7887L53.0905 12.2672L53.0677 11.7505L52.9863 11.5125L52.7891 11.3332L52.3998 11.3805L52.0625 11.2338L51.8067 11.1996L51.6584 11.3153L50.9041 11.281L50.5896 11.1979L50.3697 11.0952L50.2296 11.1522L50.1497 11.2533L50.1367 11.4114L50.0846 11.6201L49.8141 11.8092L49.1967 11.9966L48.6981 11.9819L48.2403 11.8482L48.0937 11.7488L47.8737 11.6608L46.9434 11.77L46.831 11.6902L46.51 11.8841L46.0376 12.1156L45.772 12.1286L45.6758 12.0797L45.6416 11.977L45.4428 11.6168L45.495 11.4261L45.8763 10.867L45.8339 10.7334L45.6775 10.5524L45.5374 10.2916L45.4966 10.1563L45.2539 10.1335L44.9948 10.2705L44.0091 10.5524L43.7729 10.6551L43.346 10.9257L42.9143 11.3397L42.5705 11.4261L42.4516 11.3039L42.4108 10.3324L42.9354 9.68528L43.3085 9.2941L43.1342 9.21422L42.7383 9.22566L42.766 8.92247L42.9518 8.77578L43.1309 8.44489L42.9208 8.30308L42.7563 8.08465L42.766 7.51415L42.8116 7.2827L42.7579 7.0317L41.9514 7.37075L41.7445 7.32021L41.7363 6.8964L42.1827 6.24929L42.2284 6.05047L41.7054 5.95427L41.3144 5.63641L41.0765 5.35119L40.8223 4.94205L40.8207 4.57371L41.0846 3.71141L41.461 3.46041L41.7869 3.30556L42.476 2.70735L43.4258 2.81823L44.014 2.68945L44.5419 2.38303L44.8449 2.31453L45.3321 2.04722L45.3158 1.68539L45.148 1.41643L45.2946 1.16378L45.8404 0.854085L46.4465 0.443358L47.1422 0.363471L47.8493 0L48.3234 0.234687L48.7388 0.154849L49.2162 0.433559L49.8435 1.07086L50.7624 1.32679L51.4955 1.12628L52.7908 1.0839L53.4376 1.16866L54.5878 1.01058L55.246 1.06763L56.3132 0.751415L57.1392 1.14588L58.7408 1.33002L59.702 1.65276L62.3642 2.19391L63.3254 2.20047L64.6859 1.89565L65.2626 1.66743L65.7905 1.80273L66.5644 1.54029L66.9359 1.59411L67.4197 1.96738L69.1223 2.47103L69.5687 2.04398L69.901 1.95106L71.1263 2.21187L72.3612 2.74322L73.0032 2.78072L73.9416 2.63567L74.6861 2.28683L74.8361 2.23141ZM102.672 23.9785L102.589 24.047L101.183 23.3608L100.723 23.2842L100.611 23.1798L100.624 22.8229L100.66 22.6648L101.601 22.5931L102.362 22.8473L102.771 23.5319L102.802 23.6493L102.672 23.9785ZM97.4206 24.285L97.8589 24.4822L98.3216 24.3045L98.5676 24.3599L98.8104 24.4561L98.869 24.831L98.6539 25.2483L98.3525 25.6721L98.0984 26.1366L97.8768 26.6696L97.4646 26.9842L97.0915 27.1733L96.303 26.7772L95.8435 26.6778L95.7067 26.5295L95.5975 25.9394L95.3906 25.7519L95.0859 25.6688L94.8187 25.8204L94.4701 26.1317L94.2843 25.8204L93.9894 25.7617L93.8786 25.5743L93.8835 25.333L95.7751 23.9003L96.3225 23.5824L97.4842 23.2124L97.6617 23.2679L97.5102 23.4863L97.5216 23.5857L97.6666 23.6917L97.6324 23.8611L97.4858 24.0079L97.4206 24.285ZM89.6459 29.4194L89.4797 29.7796L88.784 29.6525L88.6308 29.5074L88.7807 29.0999L88.9811 29.051L88.9942 28.7609L89.2043 28.4691L90.1917 28.2327L90.4149 28.4316L90.4621 28.7168L89.8723 29.3395L89.6459 29.4194ZM90.3269 30.8619L90.2242 30.9385L89.9212 30.8684H89.4666L89.4487 30.6321L89.5188 30.4674L89.6067 30.2996L89.8837 30.6288L90.322 30.6907L90.3269 30.8619ZM20.3232 84.4636L20.012 84.8059L19.665 84.682L19.8311 83.9322L19.9924 83.7089L20.6246 83.3813L21.1508 83.2493L21.3056 82.9004L21.4783 82.7651L21.664 82.9722L21.5239 83.2134L21.4132 83.9664L21.0629 84.2077L20.3232 84.4636ZM1.49241 86.6331L1.37835 86.6722L1.27409 86.2631L0.731539 85.259L1.06064 84.8108L1.66022 84.7994L1.90295 85.1123L1.98445 85.435L1.87039 85.6209L1.9046 85.9974L1.84105 86.2403L1.49241 86.6331ZM18.1237 88.3071L17.503 88.8922L16.8822 88.757L16.7763 88.6608L17.3987 88.5124L17.964 88.0675L18.3273 87.0813L18.896 85.9893L19.01 85.5263L19.2348 85.3454L19.5444 85.3291L19.678 85.3633L19.8149 85.6062L19.8132 86.1555L19.652 87.0666L19.3538 87.8719L18.1237 88.3071ZM8.34987 87.2199L7.96702 88.4L7.61023 88.8613L7.39842 89.0161L6.87218 89.1449L6.24654 88.413L5.92067 87.6681L5.74148 87.4285L6.02658 87.2394L6.44204 87.272L7.33488 87.1139L7.51571 87.0504L8.42321 86.2973L9.31604 86.2044L9.33722 86.4522L8.34987 87.2199ZM4.46252 89.0667L4.27512 89.1106L4.05357 88.9819L3.81894 88.5728L3.977 88.2696L4.12198 88.131L4.324 88.1522L4.71177 88.3755L4.8307 88.607L4.84214 88.7504L4.46252 89.0667ZM12.6201 88.4196L12.5924 88.8172L12.7 89.2182L12.6723 89.8262L12.454 90.1555L11.8935 90.4831L11.4519 90.4244L11.2027 90.2924L10.7595 89.7594L10.7497 89.2084L11.1555 88.8498L11.3298 88.3853L12.3823 88.4733L12.4735 88.3837L12.5517 88.3576L12.6201 88.4196ZM1.24639 90.1604L0.804876 90.9998L0.247658 90.6868L0.112418 90.5825L0 90.4097L0.536037 90.3755L1.07859 89.9533L1.24639 90.1604Z" fill="white"/>
</svg>
