<svg width="44" height="31" viewBox="0 0 44 31" fill="none" xmlns="http://www.w3.org/2000/svg">
<path d="M37.0552 19.0803L37.5454 19.7614L38.1666 20.1244L39.6046 20.5072L39.7338 20.4608L39.7471 20.3896L39.6477 20.2901L39.6327 20.1641L39.7023 20.0084L39.901 20.0001L40.2258 20.1393L40.8453 19.9371L41.7565 19.3935L42.5946 19.2841L43.3567 19.6056L43.7476 19.9802L43.9993 20.3365L43.9198 20.7757L43.8718 21.0491L43.6713 22.1777L43.5322 22.5987L43.3086 23.0693L40.9414 23.6312L41.0938 23.3611L41.0391 22.8887L40.9397 22.5308L41.16 22.2092L40.6283 22.0916L40.3947 22.2689L40.2125 22.5771L40.3732 23.2881L40.1148 23.6809L40.0154 23.8997L40.0038 24.4184L39.8498 24.6404L39.82 24.8857L40.1976 24.8228L40.027 25.2686L39.318 26.1237L39.0695 26.6342L39.1308 28.6478L38.8144 29.8476L38.7896 30.2006L38.0374 30.2122L37.8122 30.1841L37.0999 30.0051L36.2998 29.6869L35.831 29.0671L35.5311 28.6246L34.8519 28.8251L34.7244 28.7721L34.5372 28.5583L34.027 28.4141L33.3959 28.4108L31.9795 27.6004L31.8238 27.4645L30.7106 27.6004L29.0441 28.0014L27.7735 28.497L26.46 29.377L25.9281 30.0432L25.3103 30.3962L24.4323 30.6581L22.8636 30.5603L21.2286 30.2255L19.4743 29.8659L18.5251 30.0647L17.2429 29.9156L15.3081 29.4864L13.867 29.3554L12.4456 29.609L12.2071 29.4151L12.1557 29.193L12.2104 28.8798L12.4108 28.6262L12.7554 28.434L12.936 28.2384L12.9558 28.0412L12.5698 27.723L11.778 27.2838L11.4517 27.0087L11.3721 26.9408L11.3506 26.6938L11.1866 26.4999L10.8785 26.3574L10.6416 26.1005L10.4727 25.7276L10.5091 25.3763L10.7493 25.0465L11.0574 24.9023L11.4318 24.9471L11.5875 24.8526L11.5246 24.6222L11.1585 24.3256L10.4875 23.966L9.80507 24.1615L9.10763 24.9139L8.60736 25.0349L8.29928 24.5294L7.7526 24.2261L6.96578 24.1317L6.48208 23.9378L6.30151 23.6444L5.95693 23.419L5.19822 23.1787L5.18831 22.95L5.31086 22.8954L5.58091 22.8738L5.94197 22.8257L6 22.6948L6.00334 22.5755L5.71842 22.4247L5.43178 22.3219L5.28103 22.2192L5.18498 22.1048L5.16506 21.9855L5.24959 21.9043L5.36556 21.8993L5.47981 21.8281L5.54441 21.5513L5.70012 21.3226L5.81114 21.243L5.80456 21.074L5.68859 20.9166L5.53117 20.7807L5.29923 20.6978L4.57702 20.4592L4.21263 20.1277L3.98898 20.1144L3.63612 19.9305L3.25515 19.6421L2.92382 19.2311L2.56762 18.9643L2.4749 18.8549L2.46661 18.7522L2.53284 18.6361L2.5295 18.5102L2.43678 18.1075L2.49977 17.6799L2.48319 17.2771L2.47824 17.0965L2.40858 17.0401L2.3473 17.1015L2.25954 17.1777L2.1734 17.1926L1.91002 16.8993L1.57707 16.301L1.3517 16.1005L0.912796 15.8254L0.541732 15.5934L0.276629 15.0929L0 14.705L0.182195 14.5426L1.23745 14.3139L1.72944 14.5377L1.94975 14.4565L2.16349 14.2758L2.2827 14.13L2.30423 13.9758L2.41029 13.7836L2.76639 13.6925L3.71063 13.8101L4.08999 13.54L4.23083 13.3942L4.31697 13.0693L4.41636 12.8075L4.75426 12.6682L4.74931 12.4296L4.69795 12.1711L4.89339 11.5893L5.01269 11.3507L5.2049 11.2645L5.43512 11.0806L5.83601 10.6994L5.74319 10.3679L5.82276 10.121L6.24023 9.52108L6.55822 8.94102L6.55326 8.64935L6.59967 8.39576L6.88125 8.11734L7.17618 7.7544L7.56545 6.6175L7.70619 6.42693L7.96138 6.20985L8.15187 5.9944L8.17168 5.24531L8.35064 5.02819L8.6935 4.78456L9.03474 4.39346L9.31147 3.92942L9.5251 3.7123L9.80841 3.65429L10.1149 3.47201L10.4577 3.40403L10.7907 3.49355L11.0011 3.44713L11.3208 3.22176L12.1342 2.36661L12.2484 2.19587L12.4175 2.07823L13.0767 1.78489L13.244 1.48988L13.471 1.2247L13.7642 1.24463L14.7217 1.90091L15.7454 1.85949L15.9326 1.88432L15.9939 1.89757L16.1198 1.95062L17.4814 2.27543L17.6918 2.23896L17.7499 2.21413L18.2982 2.48097L18.7835 2.44612L19.244 2.26051L19.7228 2.19754L20.1634 2.3086L20.4981 2.68479L21.3677 3.48359L21.6261 3.78189L22.0237 3.73718L22.4643 3.58803L22.91 3.05602L24.2799 2.44946L25.3252 2.29864L26.3456 2.05501L27.5267 1.88265L27.868 1.38549L28.0568 1.04571L28.191 0.41599L28.8271 0.233662L29.4318 0.104389L29.6472 0.0248329L30.0878 0L30.4306 0.0530039L30.9591 0.364604L31.3302 0.754041L31.4759 1.06397L31.7923 1.50151L32.1253 2.11303L32.493 2.92675L32.5726 3.33611L32.7117 3.78027L32.985 4.31886L33.5068 4.91551L33.5797 5.02652L33.8166 5.4458L34.2738 6.37225L34.6565 6.74181L34.9895 7.14455L35.1501 7.54891L35.3886 7.91518L35.9486 8.40076L36.4024 8.84159L36.7653 10.1061L37.0187 10.6862L37.1811 11.1286L37.1032 12.0236L37.2042 12.4064L36.9971 13.1041L36.6228 14.5029L36.5316 15.6132L36.5962 16.2099L36.6045 16.5927L36.6956 16.8363L36.795 17.3401L36.81 17.7777L36.6758 17.902L36.4886 18.0064L36.4158 18.0975L36.588 18.2947L36.8232 18.661L37.0552 19.0803Z" fill="white"/>
</svg>
