<svg width="34" height="70" viewBox="0 0 34 70" fill="none" xmlns="http://www.w3.org/2000/svg">
<path d="M26.7103 9.03994L26.4953 9.08388L25.9629 9.09204L25.4972 9.5368L25.1763 9.72254L24.6732 9.87726L24.1391 10.1282L23.9844 10.5697L23.9698 10.8889L23.8834 11.2458L23.0171 11.7638L22.7761 11.71L22.6084 11.5178L22.3527 11.5569L22.1802 11.653L21.9749 11.64L21.7454 11.7573L21.4441 11.7214L21.1673 11.5569L21.0077 11.5145L20.8172 11.5129L20.7814 11.7068L21.0648 12.4578L21.138 12.8032L20.2114 13.8164L20.3141 14.4681L20.0633 14.9682L19.5031 15.3706L18.4528 16.4068L17.9789 16.4295L17.6223 16.6641L16.8439 18.3617L16.8358 18.9432L16.7137 19.3685L16.7398 19.7757L16.3995 20.5773L16.0444 20.9161L15.9662 21.3527L16.4694 22.2503L16.5264 22.4084L16.8196 22.8906L16.9612 23.2343L17.1859 23.5781L17.9952 24.4692L18.3567 24.7413L18.7915 24.9253L19.5796 25.7269L19.9769 26.2368L19.7963 26.5838L19.8858 27.3185L19.324 27.1019L19.3892 27.1882L20.0583 27.5906L21.0582 28.9981L21.9294 29.6921L22.8136 30.4806L23.0904 31.2284L23.8884 31.7236L24.7758 32.4404L24.7383 32.6017L24.9777 32.7939L25.5737 33.1735L25.9369 33.5759L26.0769 33.9571L26.2967 34.019L26.5458 33.9245L26.7934 33.8887L26.9692 33.918L27.2363 34.3367L27.6092 34.7098L27.7883 35.0535L27.9349 35.0079L28.0553 35.06L28.0862 35.3467L28.14 35.5357L28.6399 36.0864L28.8777 36.6044L29.4737 37.4451L29.915 37.9224L30.2276 38.1912L30.5874 38.4209L30.9392 39.3511L31.1297 40.195L31.5059 41.1285L31.7908 41.5357L31.8006 42.303L32.0319 43.0931L32.2777 43.6259L32.351 44.17L32.4275 44.4404L32.522 44.644L32.7907 45.5645L32.7206 45.993L32.5334 45.5743L32.5578 46.8091L32.7223 47.4624L32.649 48.2623L32.82 48.5425L33.1261 49.4467L33.3427 49.7709L33.3231 50.8738L33.4371 51.4309L33.1473 51.0986L32.9372 50.7206L32.6555 50.921L32.4031 51.2159L32.7955 52.4019L32.3494 52.2895L32.3885 53.8827L32.5741 54.2542L32.5871 54.4317L32.5334 54.6435L32.4096 54.4106L32.3836 54.1711L32.3135 54.2248L32.3168 54.3486L32.167 54.6288L32.123 54.9759L32.2842 55.2724L32.3119 55.4972L32.1963 55.7758L32.0107 56.0706L31.5857 56.1097L31.488 56.6864L31.343 57.2973L30.5843 57.3951L30.0338 57.9343L29.3531 58.1347L28.7458 58.6674L28.0765 59.161L27.6401 59.2262L27.2672 59.3321L26.8389 60.1499L26.1257 60.2444L24.8442 60.9124L24.4126 61.2349L24.0203 61.3603L23.4584 61.6389L23.338 61.5395L23.1507 61.3L22.6654 61.1762L22.4277 60.9074L22.3593 60.562L22.2958 60.4269L22.1915 60.6224L22.1101 61.4434L22.0238 61.6292L21.817 61.7106L21.4083 61.4776L21.0191 61.0036L20.4639 61.331L20.6332 61.3701L20.8856 61.344L21.0811 61.4255L21.2471 61.7416L21.2406 61.9126L21.1543 62.113L20.6348 62.1456L19.9412 62.0755L19.8141 62.1016L20.4475 62.4095L21.0256 62.587L21.2813 62.7809V62.9422L20.9572 63.2012L20.7065 63.5189L20.7016 63.716L20.6967 63.936L20.415 64.1249L20.2407 64.0874L19.7458 63.7568L18.3177 62.4551L18.5326 62.8233L20.0128 64.3025L20.2733 64.7896L20.3092 65.1333L20.156 65.306L19.9053 65.5097L19.4201 65.5243L18.6254 64.9753L17.3537 63.6558L16.9205 63.4765L18.2069 64.9851L18.4186 65.3516L18.6352 65.7736L18.5733 66.0245L18.4626 66.2607L15.4142 67.6568L14.9583 68.258L14.5968 68.9992L13.9975 69.4114L13.6458 69.7877L12.6298 69.9995L12.0745 69.9327L12.6509 69.2485L12.2942 68.9944L12.2763 67.23L12.4164 65.293L12.6818 64.3253L13.0645 64.0842L13.5465 63.936L13.5579 63.7323L13.5106 63.4993L13.2517 63.1686L12.9684 63.0155L12.5451 62.9487L12.2194 62.543L11.9718 62.5594L11.5876 62.6946L11.3547 62.5203L11.2684 62.2482L10.9117 61.9094L10.5015 61.5802L10.687 61.5281L10.902 61.3392L11.1333 61.0964L11.7064 61.0622L12.2812 61.0736L12.4424 61.0101L12.6753 60.7527L13.0515 60.4219L13.3381 60.2379L13.4065 60.0896L13.2925 59.741L13.229 59.3826L13.3348 59.2702L13.8542 59.3337L14.4258 59.5015L14.5643 59.5765L14.8915 59.1366L14.9811 59.0828L15.1961 59.0845L15.7627 59.003L16.3164 58.8874L16.5786 58.9069L16.8326 59.2018L17.0263 59.4918L17.1273 59.5146L17.4155 59.3907L17.6532 59.5455L18.1516 59.798L18.4495 59.8094L18.3014 59.2213L18.4674 58.8026L18.4349 58.6886L18.1548 58.4964L17.2038 57.7274L17.041 57.4977L17.0638 57.136L17.0313 56.605L16.9466 56.271L16.9612 56.0755L17.0198 55.9191L17.1941 55.8572L17.3634 55.8361L17.4986 55.6992L17.7265 55.3489L18.1695 55.3799L18.7915 55.5786L19.2507 55.7025L19.5226 55.678L19.5829 55.6275L19.5747 55.4385L19.6073 54.6338L19.5894 54.4627L19.9818 54.3845L20.5811 54.3666L20.897 54.3194L21.1918 53.9805L21.9506 53.8632L22.4993 53.4054L22.9944 52.9346L23.237 52.8092L23.5448 52.7277L23.776 52.7391L24.0658 53.0112L24.3052 52.8466L24.582 52.5273L24.7269 52.2145L24.8067 51.7111L24.753 50.9389L24.6065 50.3345L24.468 49.8816L24.4404 49.4288L24.7595 48.5181L25.0347 47.526L24.9826 47.135L24.683 46.5159L24.3785 45.7616L24.0463 44.9308L23.9209 44.807L23.8313 44.5756L23.7808 44.3052L23.9127 43.4564L23.9323 43.1713L24.3149 42.7836L24.5202 42.3405L24.7123 41.8501L24.6391 41.5911L24.6129 41.0633L24.6618 40.8075L24.5706 40.6006L24.4599 40.2992L24.5332 40.1037L24.8018 39.936L24.9598 39.6476L25.1617 39.3104L25.2513 39.0025L25.1064 38.745L24.8442 38.3589L24.3654 38.0103L23.8134 37.564L23.5431 37.2887L23.3281 37.0085L23.1311 36.6826L23.0237 36.4219L23.1279 36.2509L23.9127 35.8583L24.056 35.7166L24.1391 35.4983L24.0772 35.2848L23.8655 35.1692L23.6196 35.091L23.2582 34.8433L22.584 34.164L22.2746 34.0125L21.9489 33.817L21.7763 33.6117L21.5874 33.0481L21.5012 32.9976L21.3138 33.1687L21.0761 33.3462L20.8775 33.3153L20.6967 33.1556L20.6104 32.9406L20.4101 32.6457L20.1919 32.4062L20.1349 31.5982L20.1007 31.3343L19.9932 30.9661L19.8239 30.8341L19.6448 30.7364L19.2214 30.0652L18.9283 29.7182L17.7265 28.7733L17.5767 28.6218L17.2527 28.2325L16.6893 27.6802L16.2871 27.2354L15.994 26.7744L15.8572 26.3736L15.8165 26.0608L15.4973 25.6129L15.2221 25.2447L14.9551 25.1257L14.6505 25.0752L14.3753 24.8569L13.8722 24.3617L13.6491 24.044L13.5172 23.829L13.5237 23.6074L13.6442 23.2392L13.7907 23.0291L13.7957 22.8645L13.6524 22.7309L13.0938 22.4931L11.8302 22.1331L11.358 21.8577L10.9216 21.5058L10.5926 21.2664L9.05219 20.2482L8.58486 20.0788L8.18423 19.8979L8.06208 19.722L8.08325 19.5526L8.24774 19.4271L8.68415 19.1648L8.84705 18.8651L8.79487 18.4724L8.62233 18.0749L8.70701 17.9381L8.84864 17.9218L9.14173 17.9104L9.7491 17.8876L11.0583 18.2493L11.2473 18.2102L11.9588 17.5536L12.2259 17.161L12.2878 16.8336L12.4278 16.6251L12.8023 16.2829L12.8072 15.9702L12.6232 15.5514L12.436 15.3902L12.2748 15.3201L11.7552 15.3755L11.6544 15.281L11.5859 14.9699L11.5615 14.7792L11.3905 14.5561L10.8288 14.3655L10.3533 14.3117L10.2426 14.2319L10.4249 14.0168L10.7489 13.8051L10.9948 13.6813L11.1886 13.4613L11.2244 13.2365L10.9834 13.0361L10.6691 12.8129L10.1595 12.3877L9.45272 11.9365L9.02287 11.7817L8.79815 11.8029L8.01974 12.1906L7.60132 12.4431L7.25286 12.8928L6.8897 12.9889L6.52166 12.7901L6.10483 12.5865L4.95033 12.29L4.46343 12.0424L3.45543 10.5273L3.30724 10.2194L3.40335 9.87075L3.47332 9.37065L3.5743 9.04645L3.75181 8.73691L3.80071 8.46158L3.75668 8.19118L3.61177 8.03641L3.42124 7.99077L3.27961 7.92887L3.14604 7.57375L3.06464 7.61934L2.9409 8.05108L2.79271 8.20579L2.59562 8.28241L2.44257 8.21395L2.34487 8.04128L2.30253 7.74805L2.20155 7.3538L2.07781 7.09637L1.64309 6.83412L1.43785 6.49361L0.793019 5.75239L0.252446 5.2327L0 4.76512L0.221437 4.59081L0.499923 4.3383L0.799579 3.94405L1.13501 3.44883L1.27505 3.14581L1.37434 3.0236L1.57143 2.93401L1.78313 2.98289L2.15434 3.18329L2.71449 3.43903L3.21442 3.74206L3.41637 4.04672L3.69486 4.3383L3.90815 4.4263L4.01559 4.40348L4.33641 4.18354L4.61321 3.96364L4.61977 3.71436L4.8738 3.48955L5.20596 3.11975L5.36389 2.86889L5.48275 2.84278L5.61792 2.91612L6.1423 3.69154L6.24327 3.73882L6.39136 3.62313L6.59819 3.01709L6.82619 2.78253L6.90431 2.84114L8.1729 3.98318L8.29336 3.97503L8.43011 3.92451L8.51966 3.74857L8.61905 3.35273L8.80789 2.92914L9.21498 2.69294L9.53253 2.6473L9.64981 2.8493L9.92501 3.12791L10.2588 3.16699L10.9688 2.67335L11.2017 2.5952L11.4491 2.6033L11.7016 2.58376L11.9426 2.39479L12.1965 2.14556L12.2829 1.65357L12.3366 1.21204L12.5109 1.03286L12.7193 0.913937L13.1101 0.746144L13.9927 0.317688L14.2207 0.114049L14.3883 0L14.7319 0.185741L15.1423 0.544146L15.3898 0.814554L15.556 1.10619L15.6357 1.34891L16.2886 1.5607L16.7056 1.86044L16.9824 2.09013L17.256 2.08038L17.5295 2.01849L17.7053 1.83439L18.0131 1.83111L18.3779 1.8588L18.5407 1.93213L18.842 2.35571L18.9771 2.41433L19.2458 2.385L19.762 2.23515L20.1772 2.16346L20.5518 2.33289L21.265 2.80371L21.0648 3.13929L20.9051 3.50098L20.5925 3.75508L20.3613 3.81862L20.2147 4.17215L20.1496 4.69348L20.2294 4.95901L20.4085 5.04373L20.6072 5.21968L20.6886 5.45265L20.7163 5.96741L20.7049 6.5474L20.7325 6.73961L20.8872 6.70376L21.0337 6.63535L21.3301 6.72494L21.6982 6.87648L21.931 7.0296L22.1394 7.01006L22.3023 7.15991L22.3626 7.44667L22.5547 7.64703L23.0888 8.02333L23.5171 8.05595L23.8785 8.55281L24.2531 8.38989L24.4257 8.60497L25.2024 8.52999L25.7431 8.328L25.9369 8.37523L26.4237 8.78902L26.7103 9.03994ZM25.02 10.4605L24.3622 11.0714L24.1098 11.0617L24.3345 10.3709L24.442 10.2064L24.8376 10.4442L25.02 10.4605ZM24.6471 11.8746L24.3915 12.0016L24.0886 11.987L24.4517 11.7491L24.6358 11.4543L24.784 11.3516L24.7823 11.609L24.6471 11.8746ZM21.6494 12.4138L21.5972 12.5083L21.3643 12.2786L21.2097 12.1792L21.3269 11.8697L21.6005 12.2085L21.6494 12.4138ZM22.4081 12.7478L22.2192 12.7673L21.8561 12.3731L22.0515 12.1646L22.4635 12.3112L22.5595 12.4073L22.5563 12.492L22.457 12.6793L22.4081 12.7478ZM23.0302 61.6438L22.6475 61.9224L22.6215 61.6878L22.9536 61.5363L23.0709 61.4174L23.1556 61.419L23.0302 61.6438ZM8.84705 61.6731L8.93332 61.9028L8.90072 62.4404L8.72321 62.9666L8.77539 63.1963L8.63853 63.3429L8.33411 62.3574L7.95136 61.9305L7.86668 61.766L8.08981 61.7774L8.48875 61.507L8.68087 61.5004L8.84705 61.6731ZM20.5159 69.5401L20.3873 69.5499L20.2896 69.4554L20.7032 69.154L20.6625 69.3543L20.6771 69.4554L20.5159 69.5401Z" fill="white"/>
</svg>
