<svg width="56" height="50" viewBox="0 0 56 50" fill="none" xmlns="http://www.w3.org/2000/svg">
<path d="M43.6967 1.78661L43.7638 1.94902L43.9148 2.39852L44.2968 3.54038L44.6313 4.43286L45.0396 5.66654L45.1675 6.13901L45.2217 6.46549L45.8153 7.81733L46.1678 8.92469L46.4253 9.82373L46.7894 11.1329L46.9468 11.589L46.6893 11.8269L46.1744 12.675L45.625 15.3606L44.8396 17.4491L44.751 18.7533L44.6248 19.2225L44.2508 19.8821L43.7982 20.5268L42.9931 20.1938L41.6813 19.0585L40.9171 17.979L40.0972 17.2801L39.3231 16.3532L39.1117 15.6855L39.1199 15.2557L38.7821 14.2073L38.5311 13.7103L37.5866 12.593L37.316 11.9958L37.1094 11.7317L36.9011 11.3544L36.5584 9.89592L36.1845 8.96735L35.7582 9.22494L35.8336 9.6154L35.4614 10.1551L35.2368 10.7802L35.4089 11.2904L36.1813 12.0664L36.337 12.406L36.5174 13.1393L36.488 14.1352L36.6126 14.4715L37.1914 15.2097L37.3981 15.6478L37.5227 16.0251L37.7145 16.3663L38.2884 17.0062L39.1133 18.2234L39.8954 19.0437L40.4612 19.4391L40.7006 19.8345L40.7548 20.8533L40.7122 21.3389L41.209 22.2527L41.3926 22.7137L41.8715 23.0893L42.0913 23.5176L42.2929 24.2148L42.5963 26.2704L43.0128 26.7741L44.3001 29.463L45.3856 31.1577L45.9104 32.4209L46.7123 33.9532L48.2816 37.3065L49.2147 38.3368L49.5869 38.9159L50.2625 39.3605L50.9938 40.0036L50.2969 39.9413L50.1199 39.979L49.8755 40.0889L49.7591 40.4794L49.7082 40.7976L49.7935 42.4792L49.9854 43.3356L50.5987 44.9516L51.0562 45.4355L51.2792 45.7489L51.5908 45.9769L53.0453 46.5282L53.8964 47.6896L55.8084 49.1563L55.9954 49.5616L56.0003 49.6551L54.49 49.6567H52.9797H51.4694H49.9591H48.4505L46.9386 49.6583H45.4299H43.9197H42.4093H40.899H39.3888H37.8802L36.3699 49.66H34.8595H33.3493H31.839H30.9781L31.1257 49.2203L31.2159 48.9103L31.1142 48.6937L30.8206 48.6395L30.6287 48.7084L30.1779 49.6288L29.9417 49.6649H29.4055H27.6475H25.888H24.1302L22.3722 49.6633H20.6143H18.8565H17.0985H15.3406L13.5828 49.6617H11.8232H10.0653H8.30735H6.54952H4.79158L3.03205 49.66H1.27421V48.551V47.4387V46.3247V45.2108V44.0935V42.9747V41.8542V40.732V39.6066V38.4812V37.3524V36.2204V35.0885V33.9532V32.8163V31.6777V30.5359V29.3924V28.2473V27.1005V25.9489V24.7972V23.6422V22.4857V21.3258V20.1642V18.9994V17.833V16.6633V15.4919V14.3173V13.141L1.23478 12.9211L0.978955 12.1189L0.747753 11.0985L0.495232 9.8418L0.462404 9.43326L0.0393344 8.13394L0 7.76481L0.106593 7.50236L0.8019 6.40481L1.01178 5.86995L1.18724 5.22851L1.24629 4.70682L1.04131 3.90621L0.8019 3.18601L0.72153 2.44773L0.6871 1.72097L1.04291 1.22387L1.46928 0.757951L1.62832 0.472524L1.88094 0.150949L2.058 0L2.404 0.652963L3.12553 0.76451L5.47708 0.183743L8.07295 0.769466L9.5045 0.992561L11.7117 1.48967L13.0547 2.37559L13.4237 2.48714L14.3896 2.46906L15.0225 2.9924L17.5413 3.24343L18.886 3.81925L19.6485 4.2786L20.106 4.41969L20.511 4.39676L21.0571 4.22448L21.7475 3.9013L22.4968 3.45176L24.0531 2.29518L24.6041 2.09176L24.9632 2.14588L25.401 2.12946L25.583 1.81615L25.8142 1.60122L25.9586 1.35679L26.1947 1.06145L27.0048 0.979444L28.6266 0.474126L28.4445 0.713693L26.9671 1.27969L27.6 1.35023L28.2478 1.15663L28.9873 1.03357L29.1218 0.792397L29.2185 0.341251L29.3595 0.277266L29.8712 0.362579L31.3913 1.0582L31.7701 1.07132L32.841 0.692365L33.0689 0.611958L33.4165 0.821936L34.2069 1.68653L33.9314 1.6685L33.0853 0.926924L33.0098 1.29771L32.5277 1.94737L33.1295 2.22789L33.6199 2.33293L33.8822 2.69546L34.0478 3.01704L34.5316 2.87595L34.8776 2.43792L34.6972 2.19345L34.5759 1.94081L34.7333 1.93426L35.0694 2.14258L36.0321 2.97438L36.3568 3.14661L36.7306 3.11712L37.5129 2.88416L37.731 2.92026L38.7804 2.61345L38.9034 2.8382L39.0772 3.06134L39.9234 2.81196L41.25 2.81522L42.3372 2.54456L43.5966 1.88504L43.6967 1.78661Z" fill="white"/>
</svg>
