<svg width="78" height="71" viewBox="0 0 78 71" fill="none" xmlns="http://www.w3.org/2000/svg">
<path d="M64.3903 0.329588L64.6116 0.482121L64.887 0.391942L65.3705 0.283698L65.7901 0.364018L66.7162 0.706767L66.8556 0.877317L67.0736 1.70869L67.2391 1.78416L67.7604 1.58899L68.1914 1.68737L68.675 1.95631L68.9864 2.21544L69.1929 2.49418L69.4142 2.94677L69.4994 3.30754L69.6044 3.73882L69.5764 4.95228L69.4191 5.1507L69.2847 5.40818L69.3174 5.63282L69.4699 5.80993L69.7698 5.93128L70.0468 6.0067L70.196 6.19857L70.4009 6.87746L70.5386 6.9824L70.8795 6.97915L71.4959 6.83152L72.0302 6.59867L72.258 6.54947L72.3137 7.19394L72.6284 7.4399L73.0677 7.7269L73.2497 7.82198L73.7643 8.09422L74.7363 8.44022L75.6788 8.68784L76.377 8.8715L76.7147 8.88296L76.9557 8.89117L77.6523 8.84198L77.9998 8.7567L77.5277 9.05186L76.9508 9.41593L76.2689 9.8423L75.6689 10.2194L75.0953 10.5785L74.5461 10.9229L74.4626 11.1902L74.3266 11.5821L73.8233 11.8806L73.3218 12.0954L73.2054 12.2217L73.1677 12.3906L72.9252 12.7284L72.4564 13.0137L72.0679 12.9858L71.822 12.9006L70.5156 13.3925L69.9092 13.381L69.4371 13.6992L69.0863 13.9911L68.3848 14.3092L67.9078 14.3108L67.203 14.1222L66.336 13.7615L65.9852 13.5532L65.6672 13.5647L64.9001 13.5155L64.1494 13.3368L63.2544 13.1252L62.8119 13.035L61.9039 12.8481L61.3121 13.0973L60.7778 13.3203L60.3434 13.4729L59.9845 14.1649L59.832 14.4092L59.6583 14.7568L59.5763 15.0028L59.6484 15.2964L60.1746 15.503L60.3942 15.7883L60.427 16.0392L60.2369 16.2966L60.0779 16.5L60.0795 16.6787L60.1647 16.8591L60.291 16.9936L61.0384 17.0772L61.4826 17.0789L61.6547 17.151L61.676 17.3953L61.5121 17.7233L60.8826 17.9873L60.527 18.2661L60.4122 18.6351L60.4171 18.9286L60.5401 19.1237L60.8417 19.3484L61.1252 19.6042L61.2122 19.8125L61.1761 20.0978L61.063 20.4881L60.7532 20.9423L60.4942 21.2653L60.4762 21.3801L60.5401 21.554L60.7483 21.8065L61.1023 22.1787L61.5432 22.4788L61.8268 22.5625L61.917 22.6362L62.0054 22.9839L62.0399 23.3496L61.9268 23.6251L62.153 23.8514L62.7447 23.8399L63.2266 23.9366L63.4298 23.8399L63.5725 23.912L63.4822 24.7287L63.5479 25.2108L63.6773 25.3469L64.151 25.5437L65.0624 25.5191L65.6016 25.747L66.1966 26.0077L66.5129 26.2964L66.6556 26.5112L66.6163 26.8572L66.29 27.2622L65.7606 27.4557L65.4509 27.5394L63.9232 28.297L63.4462 28.6167L63.0758 29.0004L62.9397 29.289L62.8676 29.5695L63.1987 30.5862L63.2544 30.901L62.9823 31.9948L62.902 32.3998L63.0053 32.6835L63.3299 32.7884L63.4003 33.0262L63.4315 33.2083L62.8676 33.6084L62.271 33.9626L62.0824 33.9609L61.5121 34.6251L60.5631 35.9517L60.0582 36.401L60.0222 36.6191L59.9828 36.8421L60.1746 37.216L60.2139 37.5325L60.0009 37.849L59.6435 38.2146L58.9485 38.5312L58.0716 38.8575L57.6783 39.0543L57.3815 39.907L57.1078 40.7613L56.9849 41.0778L56.5129 42.06L55.6867 43.5031L55.4769 43.818L54.1984 44.5116L52.8953 45.266L52.6642 45.5512L52.397 46.2367L52.1463 46.9878L51.9119 47.3797L51.0825 48.2586L50.8104 48.9326L50.7235 49.3721L50.0187 49.6181L49.2189 49.8526L48.0551 49.928L47.5716 50.051L46.1456 50.6561L45.7915 50.6823L45.5129 50.5823L45.303 50.3757L45.108 50.0313L45.0146 49.5017L44.7392 49.2622L44.3688 49.0572L43.9786 49.0491L43.5853 49.2737L43.246 49.5197L43.0132 49.723L42.787 49.9608L42.3494 50.7577L41.6429 51.9007L40.8545 52.7305L40.5628 52.9781L40.3808 53.1667L40.1333 53.4421L39.9907 53.7078L39.7957 54.5753L39.6826 55.3427L39.735 55.5149L39.8531 55.6608L40.2842 55.8822L40.9053 56.2528L41.7135 56.4627L42.3937 56.4988L42.6494 56.6562L42.8001 56.8694L42.8427 57.0481L42.8067 57.6811L42.7297 58.36L42.4789 59.0881L42.4822 59.5046L42.5821 59.9129L43.3378 60.946L43.6164 61.0526L44.1835 61.0756L44.4474 61.0542L44.7409 60.9493L44.949 61.0215L45.1047 61.1477L45.144 61.3576L45.1194 62.3858L45.3522 62.8515L45.803 63.4845L46.1587 64.2077L46.4947 65.0719L46.8175 65.7474L46.9421 66.1L46.7323 66.2706L46.6127 66.4477L46.5815 66.6838L46.6258 66.933L46.598 67.1085L46.7504 67.325L46.929 67.3971L46.9241 67.548L46.6422 67.7431L46.3914 67.7366L46.198 67.8317L45.8243 68.2416L45.6505 68.3236L45.4161 68.3613L45.1555 68.3203L44.7851 68.1547L44.6785 67.894L44.7195 67.6201L44.6359 67.4561L44.3704 67.4873L43.4509 67.7677L42.5739 68.1137L42.4215 68.3499L42.2183 68.5942L41.8167 68.6959L41.2234 68.7271L40.8152 68.6893L40.4382 68.4253L40.094 68.1859L39.5613 68.1744L38.6024 68.2105L38.0713 68.2072L37.7583 68.1187L37.4502 68.1859L37.0649 68.0875L36.8928 68.2187L36.7305 68.2318L36.6011 68.0055L36.5142 67.9809L36.4126 68.0137L36.3225 68.0908L36.2699 68.2236L36.2519 69.7322L35.6193 69.7224L35.1685 69.7191L34.6735 69.8011L34.2211 69.9159L33.9982 70.0537L33.6802 70.2685L33.6048 70.5702L33.4523 70.7899L33.2328 70.4653L33.0918 70.3144L32.9278 70.4259L32.6951 70.4128L32.2754 70.0422L32.0887 70.4161L31.3953 70.5014L31.3084 70.2192L31.292 69.9569L30.9102 70.1471L30.6363 69.8552L30.5135 69.4633L30.4086 69.3551L30.2889 69.2304L30.0004 69.096L29.7448 68.6795L29.7202 68.2367L29.648 67.7103L29.1104 65.7557L28.7843 65.5753L26.9534 65.2276L26.8599 64.8849L26.9861 63.9633L26.9353 63.3812L26.3419 62.6121L26.1765 62.0742L25.6928 61.6134L25.2126 61.479L24.7274 61.5396L24.4668 61.7217L24.3243 62.0299L25.3601 61.9578L25.5929 62.0709L25.8715 62.2727L25.5749 62.2645L25.2306 62.1693L24.7996 62.1759L23.1851 62.4022L22.2475 62.7285L20.9903 62.6318L19.4037 62.9532L18.0924 62.9712L17.5515 63.596L17.2515 63.4829L17.0221 63.3303L15.2191 62.84L15.0944 62.635L14.7929 62.4874L14.4618 62.7498L14.2241 62.7925L13.2357 62.5744L12.4801 62.74L12.1998 63.0221L12.1802 63.4599L11.236 63.3746L10.7017 63.2369L9.99036 63.3894L8.37747 63.1877L7.95459 63.2369L7.36614 63.5288L7.12023 63.7551L6.77108 63.8436L6.46295 63.5288L6.23346 63.3894L6.02046 63.4812L5.73194 63.7403L4.89599 63.8616L4.14036 63.8272L3.32742 63.5845L3.42406 63.5025L3.55031 63.0795L3.66336 61.5659L3.80762 61.0182L3.765 60.7197L3.79452 60.6295L4.11415 60.3639L4.19119 60.2524L4.31244 59.4751L4.44689 58.6126L4.59606 58.3026L4.72061 58.219L5.72864 57.8303L5.90081 57.5729L6.42033 57.6336L6.46785 57.5713L6.51548 57.2728L6.75638 56.9498L7.09072 56.6841L7.34153 56.5906L8.24791 56.4233L8.77904 56.1905L8.93801 56.1659L10.3493 56.2249L10.6459 56.1364L10.6919 56.0544L10.7755 55.1722L11.0328 55.0344L11.0721 54.9606L10.9853 54.349L11.0344 53.9407L11.3245 53.698L11.3065 53.5602L11.1 53.2699L10.823 53.0847L10.6886 53.0404L9.53136 53.2158L9.05276 53.1584L8.82986 53.0519L8.78234 52.9731L8.82816 52.7944L8.83636 52.5042L9.00354 52.0516L9.05436 51.781L8.9183 50.2117L8.72332 49.1671L8.82816 48.1291L8.80685 47.9143L8.76753 47.8651H8.62167L7.91687 47.9569L7.31692 47.2879L6.94326 47.0238L5.92042 46.6909L5.47133 46.6254L4.81405 46.3367L4.20589 45.7054L3.58633 45.0577L3.33562 44.6428L3.0586 43.936L2.27507 42.5799L2.28167 42.229L2.18493 42.0142L1.4195 41.1204L0.876974 40.4842L0 39.4544L1.75225 40.0316L3.11753 40.4727L5.32547 41.1844L7.0383 41.737L7.512 41.8272L12.5325 41.3549L14.3863 41.7124L14.9748 41.9125L15.0633 41.7961L15.3124 41.5534L15.7452 41.3074L16.332 41.1122L16.9171 41.0057L17.7564 40.9909L18.3268 41.0073L18.748 41.0663L19.561 41.0319L19.9511 40.9368L21.287 40.5465L22.1853 40.2841L23.544 39.8758L24.5357 39.5757L24.7832 39.4166L25.0389 39.1313L25.1618 38.8739L24.8569 38.477L24.8176 38.1278L25.0176 37.6834L25.1257 37.0061L25.1044 36.0402L25.0389 35.4827L25.3159 34.4447L25.547 33.8609L26.0076 33.5821L26.3288 33.4116L26.4616 33.2853L26.5927 33.146L27.0844 32.3523L27.5352 31.9816L27.9712 31.757L28.4498 31.7865L28.8547 32.0931L29.6414 32.2276L30.4037 32.1374L31.0642 31.9062L31.3642 31.7177L31.7149 31.552L31.6953 31.3618L31.2969 31.1978L31.0691 30.965L30.9806 30.6796L31.2035 30.5058L31.7247 30.455L33 29.758L33.5196 29.2989L33.6605 29.0841L33.9064 29.0611L34.3915 29.2743L34.9603 29.3448L35.316 29.1316L35.6701 29.0841L36.0175 29.3169L36.2044 29.5957L36.5192 29.9269L36.9174 29.9926L37.3976 29.8155L37.9025 29.4317L38.3811 28.8938L38.8056 28.3625L38.7008 26.6735L38.6303 25.6749L38.8548 25.1468L39.1745 24.8238L39.3859 24.3203L39.381 23.876L39.6056 23.5021L39.8285 22.4804L40.1317 22.2394L40.7579 22.0721L41.7544 21.9754L42.5362 21.508L43.3231 21.0096L43.4279 20.5701L43.1329 20.1011L42.7379 19.1893L42.3822 18.6432L41.5135 17.6626L41.6134 17.0576L42.0969 16.8099L43.2869 17.2297L43.6181 17.3117L44.0328 17.3707L45.1293 17.3609L46.0242 17.1969L46.9585 16.823L47.1421 16.4328L47.1307 15.9687L47.147 15.585L47.1618 15.052L46.8257 14.7093L46.6226 14.4026L46.5618 14.1567L46.7962 14.0222L47.0241 13.7713L47.2421 13.3154L47.76 12.7694L48.0731 12.2774L48.3682 12.0446L48.814 11.7231L49.0992 11.2525L49.2304 10.9705L49.4877 10.695L49.5745 10.5146L49.5041 10.3522L49.3762 10.1489L49.2304 9.91937V9.69632L49.3516 9.46182L49.4844 9.25028L49.4221 8.95347L49.3516 8.46975L49.109 8.1844L48.9451 7.52357L48.6877 6.85124L48.5501 6.58886L48.2977 6.25762L47.7338 5.90666L47.5716 5.67216L47.7912 5.21961L48.16 4.93917L48.8533 4.24551L49.232 3.76669L49.5745 3.43215L50.0171 3.48795L50.2761 3.45842L50.5039 3.1485L50.9563 2.87461L51.761 2.30727L52.043 1.92353L52.4708 1.73001L52.8265 1.68572L53.3051 1.55126L53.7657 1.34467L54.187 1.18724L54.8459 1.15446L55.8933 1.06098L56.4571 0.962591L57.8126 0.887125L59.2879 0.852695L59.4583 0.849442L60.0975 1.05277L60.5303 1.22332L60.7008 1.20856L61.4171 0.801901L62.5054 0.303365L63.0118 0.0819716L63.284 0L63.7052 0.00490428L64.0445 0.136119L64.3903 0.329588Z" fill="white"/>
</svg>
