<svg width="145" height="91" viewBox="0 0 145 91" fill="none" xmlns="http://www.w3.org/2000/svg">
<path d="M97.208 35.3061L97.1249 36.3511L96.8479 37.2054L95.9369 38.9809L95.5572 40.0797L94.8223 43.2066L94.5958 45.2478L94.542 46.2064L94.4785 46.3417L94.5469 46.4819L94.3709 48.5964L94.4654 50.3963L94.4051 50.6751L94.1379 51.2164L93.9505 51.9647L94.0238 52.2973L94.0206 52.5271L94.2943 53.6635L94.3823 54.5161L95.1987 55.9736L95.6567 56.4823L96.2254 56.9225L96.434 57.1703L96.3313 57.7881L96.0999 58.0996L96.0005 58.5952L95.8864 58.186L95.9304 57.6545L96.1113 57.3692L96.1178 57.1605L95.7838 56.9372L95.1727 56.2051L94.4263 54.9074L94.9576 56.9796L95.1401 57.3105L95.2819 57.4474L95.5198 57.5925L95.5817 57.8175L95.5833 57.9838L96.2384 59.4185L96.9799 60.8988L97.019 61.3031L97.3156 61.8004L99.2043 63.8709L100.36 65.4131L100.761 66.8739L101.002 67.3288L101.121 67.9515L101.877 68.6493L102.108 69.0993L102.514 69.3487L102.841 70.1019L103.457 70.5422L103.311 70.5503L102.771 70.3286L102.807 70.4753L103.26 70.7867L104.148 71.0932H104.37L104.02 70.9334L103.723 70.7182L103.827 70.6872L104.448 70.9546L106.184 71.0426L106.948 71.667L107.939 71.936L108.472 72.7333L109.091 73.5647L109.487 73.6039L109.795 73.6071L110.724 73.4669L112.168 72.9436L112.665 72.6876L113.634 72.3404L115.119 72.2768L115.578 72.3746L116.688 72.1578L117.218 71.892L117.402 71.6508L117.488 71.473L118.516 71.2187L118.72 71.1682L119.761 71.1225L120.265 71.0279L120.857 70.9725L121.284 71.3475V71.5301L120.998 71.7029L121.132 71.8708L121.639 72.148L122.568 72.2605L122.869 72.2165L123.298 71.8072L124.052 71.4111L124.036 70.9497L123.901 70.697L123.682 70.6807L123.63 70.5389L123.783 70.1998L123.744 70.0856L123.275 70.4117H123.167L123.219 70.2601L123.317 70.1395L124.693 69.4286L125.045 69.1368L125.52 68.8792L126.506 67.9124L126.717 66.0897L126.914 65.7702L127.567 65.2093L127.637 65.0398L127.68 64.6583L127.662 63.698L127.698 62.9416L127.67 62.0857L127.787 61.3211L127.893 61.1075L128.268 59.8815L129.047 59.3386L130.398 58.6946L130.707 58.5887L135.011 57.9072L135.616 57.7409L136.356 57.2991L136.897 57.1491L137.882 57.1605L138.186 57.1018L138.246 57.0415L138.248 56.9812L138.43 56.9208L139 56.9796L140.066 57.2469L140.454 57.3138L141.407 57.6235L142.457 57.7474L142.607 57.6936L142.745 57.599L142.851 57.4181L142.742 57.26L142.639 57.2714L142.462 57.3561L142.25 57.3643L141.834 57.2338L141.917 57.1246L142.341 57.1344L142.613 57.0823L143.016 56.8915L143.444 57.035L144.008 57.6675L144.409 57.8681L144.442 58.7843L144.502 58.9522L144.648 59.1935L144.448 59.9027L144.223 60.488L143.941 60.9673L143.332 61.7221L142.592 62.3254L141.676 63.6638L141.468 64.2899L141.472 64.792L141.627 65.2762L141.583 65.4555L141.471 65.6365L141.285 65.6202L140.923 65.8517L140.457 66.5397L140.447 66.7484L140.651 66.9408L140.917 66.8478L141.262 66.8397L141.456 66.7826L141.66 66.7973L141.614 67.1918L141.396 67.4722L141.257 67.5603L141.01 67.6076L140.733 67.7673L140.591 67.9141L140.604 68.3689L140.757 68.4048L141.083 68.0657L141.272 68.082L141.309 68.2254L140.887 69.3879L140.615 70.5796L140.247 71.2693L140.117 72.2719L139.923 72.6991L139.698 73.1213L139.566 73.0985L139.211 72.298L138.847 72.0926L138.767 71.8985L138.974 70.9269L138.88 70.3889L138.687 70.4101L138.446 70.7051L138.125 70.9611L138.132 71.3312L137.764 71.9458L137.672 72.148L137.322 72.1007L136.914 72.1268L136.633 72.2752L136.344 73.0202L135.624 74.0685L135.337 74.5756L135.102 74.75L134.918 74.8185L134.713 74.6994L134.221 74.4125L133.841 74.5494L133.709 74.8788L133.714 75.2945H132.753L131.12 75.2929L129.04 75.2913L127.036 75.2896L125.357 75.288L125.351 76.2221L125.346 77.0487L125.341 77.978L124.416 77.9699L123.436 77.9617L123.514 78.0546L123.85 78.2291L124.285 78.6448L124.799 79.292L125.421 79.8072L126.153 80.1904L126.633 80.5653L126.866 80.9321L126.984 81.2435V81.5011L127.251 81.7049L127.729 81.8402L127.976 82.0701V82.2576L127.825 82.6831L127.781 83.1526L127.839 83.5765L127.497 83.583H126.668L125.405 83.5847H124.243H123.327L121.943 83.5863L121.564 84.2384L120.933 85.3209L120.361 86.3008L119.882 87.1241L119.804 87.3409V87.517L120.397 88.2865L120.288 88.5099L120.081 88.6272L120.014 88.8082L120.027 89.1016L119.887 89.4913L119.933 89.7603L120.008 90.0913L119.884 90.3782L119.783 90.6553L119.664 90.776L119.528 90.6716L118.31 89.3935L117.038 87.9865L116.538 87.5268L116.054 87.1779L115.402 86.529L113.691 85.1025L112.808 84.4503L111.977 83.6694L111.231 83.2358L110.496 82.9537L110.168 82.7907L109.881 82.5771L109.722 82.5641L109.642 82.8543L109.899 82.9994L110.207 83.1233L110.45 83.1314L110.706 83.2341L111.46 83.6303L111.584 83.8341L109.438 83.0418L108.565 82.9684L108.47 82.8445L108.905 82.4304L108.77 82.2804L108.615 82.2592L108.147 82.5461L107.975 82.5657L107.944 82.3766L107.965 82.1989L107.663 81.938L107.473 81.9478L107.316 82.1304L106.909 82.4744L106.922 82.6097L107.72 82.7564L107.996 82.8396L107.932 82.9309L107.248 82.9293L106.401 83.0858L104.892 84.0428L103.487 84.4536L101.466 85.3731L100.575 85.4204L100.107 85.5671L98.748 85.215L97.0255 84.3509L94.4182 84.0786L92.6615 82.9456L90.9178 82.4793L89.8113 81.3903L89.1448 81.343L88.7163 81.1685L87.1323 80.774L85.5663 80.5132L84.0394 79.5594L83.0404 79.2561L82.1767 78.8763L80.275 78.2274L79.5694 77.8671L78.9029 77.3096L77.816 76.7325L77.3515 76.2499L76.8333 76.0771L76.0919 75.1673L75.7056 74.7842L75.3781 74.6049L75.0277 74.5429L74.0158 74.6163L72.5051 74.2136L71.8077 74.1109L70.3492 73.5175L68.4132 72.8539L67.7793 72.0909L67.2367 71.3785L66.2589 70.4394L65.6495 70.0384L64.5919 69.5623L64.0052 69.1759L63.1008 68.8792L61.5657 68.126L61.0785 67.4804L60.7933 66.9065L59.9769 66.2087L59.0822 64.9062L58.8508 64.4252L58.6781 63.6867L58.4712 63.2579L58.2267 62.922L58.3522 62.6775L58.8068 62.3759L59.563 62.3074L60.0975 61.9814L60.1675 61.7123L60.1333 61.5461L59.7911 61.1352L59.3658 61.026L59.035 61.0195L58.9502 60.863L59.1996 60.6918L59.4847 60.2907L59.9052 59.8016L60.2018 59.35L60.2572 58.7126L60.2197 58.0751L60.3321 57.5355L59.3136 56.9127L59.1947 56.647L58.8736 55.9313L58.318 55.0998L58.3343 53.4352L57.6645 51.9549L56.9719 51.218L56.6134 50.9604L55.6406 49.8143L54.873 49.1475L54.1218 47.8905L53.3787 47.09L52.4335 45.745L51.7507 45.0733L48.6399 42.799H48.8142L49.7268 43.3583L49.88 43.3126L49.9012 43.0403L49.7969 42.7143L49.6274 42.636L49.3846 42.7094L49.057 42.6409L48.8924 42.5333L48.4019 42.4648L47.7876 42.085L47.5236 41.6904L47.4942 41.2405L46.6126 40.2802L46.2786 39.7438L46.4497 39.783L46.6844 39.9982L46.9223 40.0601L47.1993 40.0617L47.3997 39.9753L47.328 39.8156L47.139 39.6819L45.8549 39.1748L45.4312 38.8195L44.3785 38.226L44.1292 38.0173L43.9629 37.4435L43.7055 37.4158L43.479 37.5755L42.8581 37.7321L42.7 37.5495L42.6772 37.3734L43.1156 37.1875L43.5181 36.6446L43.5099 36.4555L43.2883 36.6739L42.9526 36.9169L42.6071 37.0522L42.0938 37.1647L41.8298 37.0832L41.6001 36.9609L41.2301 36.4865L41.0444 34.9409L41.3703 34.4046L41.7516 33.8731L42.0759 33.5584L42.2633 33.7965L42.4556 33.8258L42.3203 33.5568L42.0009 33.3057L41.8885 33.0546L41.8771 32.8248L41.7255 32.3977L40.7804 31.4993L39.8971 31.5678L39.537 31.5368L39.1997 31.1945L38.9129 30.6173L38.7727 30.1331L38.7548 29.8756L38.6701 29.6163L37.1464 29.1924L36.6885 28.8288L36.2289 28.3708L36.0383 27.9974L35.859 27.7219L35.7124 27.2393L35.6081 26.6769L35.7776 25.9481L35.9992 25.596L34.9513 25.3335L34.5423 25.3221L34.2115 25.4704L33.9133 25.2797L33.2941 25.0677L32.5575 24.3031L31.6922 22.9141L30.7405 22.4674L30.4341 21.9832L30.0447 21.5463L29.7041 21.005L29.6519 20.7686L29.5493 20.6365L29.0734 20.2583L28.5389 19.6176L28.4004 19.1024L28.257 18.3133L27.9001 18.0346L27.5498 17.9058L27.4813 17.5291L27.5025 17.3188L27.3836 16.9194L26.66 15.9608L26.2934 15.1717L26.0913 14.9255L25.9022 14.5652L25.8061 13.8267L25.5063 12.9072L24.9261 11.8002L24.4421 11.0535L24.201 10.3003L24.3085 9.53243L24.227 9.05803L24.1651 8.94718L24.214 8.7923L24.3753 8.87867L24.5106 8.74011L24.4943 8.24939L24.3248 8.10103L23.8555 7.94779L23.6485 7.84182L22.5078 7.64131L21.8544 7.36249L21.812 6.71366L21.5056 6.41529L21.2335 6.23105L20.3731 5.84795L20.2378 6.04358L20.1221 6.40549L19.7636 6.48375L19.4507 6.50007L18.926 6.24901L17.624 5.29201L17.3486 5.13877L16.9428 5.05722L16.7391 4.89747L15.8591 4.39207L16.0351 4.66109L16.2893 4.93986L16.5158 5.75014L16.2502 6.33379L16.0954 8.3684L16.2649 8.77275L16.6462 9.41994L16.9102 10.4455L16.9917 11.2084L17.2296 11.8133L17.1546 13.2316L17.2459 13.6621L17.6093 14.368L18.2823 15.0299L18.4225 15.3772L19.3057 15.8809L19.8435 16.5347L20.9092 17.4248L21.2449 17.7998L22.2064 19.1839L22.2373 19.5948L22.4149 20.0985L22.9543 19.9942L23.1955 20.3773L23.1678 20.5534L23.233 20.6887L23.5149 20.6594L23.7577 20.7637L24.2694 22.2522L24.5432 22.4559L24.8952 22.5424L25.2879 22.7071L25.314 23.0869L25.2993 23.3901L25.6317 23.8287L25.5747 24.4221L25.8436 24.9243L25.8029 25.4101L25.9137 25.7932L26.7431 26.6605L27.7649 27.3485L27.9783 28.2501L28.3955 29.0734L28.8225 29.2805L29.2527 29.6212L29.1989 29.9766L29.2299 30.1934L29.8067 30.8407L29.8996 31.664L30.3967 32.2036L30.5368 32.246L30.646 32.1612L30.2842 31.62L30.1098 31.2678L30.087 30.7135L30.2092 30.6402L31.2408 31.5173L31.3499 32.171L31.6954 32.5411L31.7215 33.04L31.9317 33.3367L31.9953 33.7671L32.3277 34.4763L32.3359 35.4594L32.5118 36.1751L33.162 37.2723L33.6884 37.5021L33.7829 38.0402L34.3305 39.4292L34.9628 40.1808L35.2773 40.8182L35.3196 41.2144L35.0833 41.8013L35.0573 42.2089L35.4011 43.4512L35.9144 44.087L36.4897 44.2402L36.5891 44.3315L36.5434 44.5011L36.7357 44.6527L36.9525 44.4587L37.0584 44.1832L36.9492 43.862L36.9297 43.6289L37.0274 43.4609L37.2148 43.4365L38.3132 44.2843L38.4973 44.6103L38.9047 44.9902L39.2795 45.4581L39.4408 45.8266L39.7407 46.1314L39.8955 46.839L40.6598 47.1553L41.0655 47.7389L41.0932 48.109L40.8961 49.0546L40.725 49.3269L40.109 49.7295L39.6608 50.2072L39.2274 50.5023L38.7678 50.6816L38.3898 50.6409L38.0247 50.0915L37.5913 48.4269L37.3012 48.0764L37.0975 47.5531L36.7585 47.1194L35.5364 46.4624L34.9204 45.7679L34.3223 45.3032L33.6786 44.6299L31.9252 43.5131L31.1984 42.9442L30.7193 42.3801L30.4113 42.3882L30.1734 42.4469L30.0821 42.292L30.0691 41.9985L29.9632 41.8078L28.9382 40.9568L28.7263 40.4856L28.6823 39.9379L28.9137 38.526L29.0164 37.6978L28.9512 37.2706L28.8437 37.212L28.7459 36.9804L28.7231 36.2974L28.4754 35.5539L27.5449 34.0263L26.8653 33.7247L26.2608 33.5046L24.6035 32.1498L24.1537 31.4716L24.0445 31.0852L23.9875 30.2994L23.7594 30.7543L23.4546 31.0917L22.7523 31.0673L21.9635 31.4472L21.4942 31.0901L21.24 30.6841L20.8538 30.1967L20.4203 30.1005L20.1433 30.0875L19.6235 29.4826L19.203 29.2903L18.6017 29.2152L18.09 28.9088L17.932 28.5729L17.8472 28.0985L17.6565 27.8181L16.8532 27.2621L16.1997 26.6475L15.5837 26.253L15.4028 25.9302L15.3882 25.7085L16.3627 25.7704L17.5213 26.0068L18.077 25.94L18.4225 25.7117L18.7533 25.547L18.8054 25.7247L18.7451 26.0475L19.0629 26.3443L19.4996 26.5839L19.8092 26.5611L19.5078 26.2986L19.3236 25.7639L19.4067 25.5715L19.4018 25.3041L18.97 25.3644L18.9097 25.2291L19.2796 24.8216L19.7033 23.7488L19.9054 22.6891L19.4621 21.7598L18.7141 21.1142L17.0911 19.2182L16.1215 18.2416L15.8412 17.878L15.5837 17.7068L14.7934 17.4835L14.1301 16.9357L12.9682 16.1597L12.4712 15.7586L12.129 14.8179L11.8569 14.6892L11.9432 14.037L11.8243 12.8811L11.6287 12.5844L10.9997 12.2958L10.8498 11.5084L10.8188 10.7585L10.6966 10.2351L9.62596 9.35312L9.56566 8.92599V8.52L9.45647 8.11735L8.88449 7.27448L8.19356 6.53758L7.95236 6.18543L7.92304 5.47132L7.67859 5.27897L7.77149 5.23007L7.99799 5.24798L8.12674 5.15345L8.14141 4.65457L7.10174 3.87036L6.80188 2.78947L6.24783 2.21561L6.11746 2.00854L5.81925 0.984717L7.12779 0.868941L8.43637 0.753215L9.74491 0.637439L11.0535 0.521713L12.362 0.405937L13.6706 0.290211L14.9792 0.174435L16.2877 0.0587089L16.8108 0L16.5207 0.815158L16.3024 1.12005L18.4713 1.91888L20.6403 2.71608L22.8093 3.51169L24.9783 4.30565L27.1473 5.09961L29.3162 5.89193L31.4852 6.68266L33.6542 7.47175L35.2707 7.46847L36.8873 7.46523L38.5038 7.46195L40.1204 7.45871L41.7369 7.45543L43.3535 7.45215L44.97 7.44891L46.5866 7.44563L46.5898 6.8457L46.5915 6.24573L46.5947 5.64416L46.598 5.04255L47.6034 5.04906L48.6089 5.05558L49.6144 5.06051L50.6198 5.06702L51.6253 5.0719L52.6307 5.07842L53.6362 5.08494L54.6416 5.09145L54.6775 5.10125L54.7198 5.12245L55.1272 5.58058L55.5444 6.29792L56.0365 6.79839L56.6037 7.08208L57.57 7.91679L58.9356 9.30093L60.0241 10.2205L60.8373 10.6802L61.3816 11.0747L61.6602 11.4057L62.035 12.123L62.7423 13.7745V14.531L63.0128 15.2467L63.5538 16.1727L64.0264 16.7173L64.4305 16.8819L64.8722 17.2096L65.3513 17.7003L65.9037 18.0296L66.5294 18.1976L67.3931 18.6378L68.4947 19.3486L69.2509 19.7105L69.6599 19.7268L70.0184 19.4986L70.3248 19.0274L70.6262 18.7242L70.9228 18.5889L71.0434 18.372L70.988 18.072L71.1884 17.4004L71.6447 16.3537L72.189 15.7863L72.8229 15.6983L73.2368 15.501L73.4324 15.1946L73.7713 15.1619L74.2553 15.4016L75.0424 15.5565L76.1326 15.6249L76.7763 15.6021L76.9735 15.4847L77.0761 15.4912L77.0843 15.62L77.2456 15.6755L77.5601 15.6559L77.8339 15.8353L78.1859 16.4043L79.395 17.3139H79.3967L79.4993 17.6254L79.9198 18.0737L80.6954 18.7633L81.1338 19.3567L81.2365 19.8556L81.6324 20.643L82.3218 21.7174L82.6281 22.2962L82.5532 22.3793L82.6069 22.6809L82.7911 23.201L83.1317 23.6412L83.632 24.0015L84.1371 24.6471L84.6472 25.578L85.2664 26.2856L85.9932 26.7682L86.4039 27.2181L86.5 27.6339L86.4935 27.9893L86.3827 28.2843L86.4299 28.5648L86.6336 28.8305L86.7021 29.1566L86.6222 29.6082L86.6271 29.7353L86.6858 29.838L87.3311 30.614L87.6635 31.2401L87.9275 32.2378L87.9292 32.246L88.2225 32.8427L88.6462 33.0856L89.2964 33.1769L89.7901 33.384L90.1275 33.7084L90.5544 33.904L91.0678 33.9709L91.5599 34.1861L92.0325 34.5464L92.9124 34.7828L94.1998 34.8969L95.1792 35.1904L95.8522 35.6632L96.1472 35.7593L96.227 35.7659L96.2645 35.6942L96.315 35.5605L96.5757 35.4072L97.208 35.3061ZM16.9542 5.43873L16.8026 5.46157L16.5191 5.21539L16.5403 4.98876L16.6022 4.96593L16.8858 5.16484L16.9819 5.33927L16.9542 5.43873ZM23.9908 19.4431L23.9582 19.5344L23.4905 19.2116L22.4312 18.1128L22.0466 17.5618L21.9831 17.3026L22.0157 16.7254L22.3791 16.7939L22.7995 17.1803L22.982 17.5389L22.9902 17.9482L23.7756 18.1421L23.8864 19.0274L23.9908 19.4431ZM28.3466 19.6877L28.0028 20.9137L27.6508 20.8941L26.924 20.5078L26.8474 20.2665L27.1261 18.8416L27.3379 18.6541L27.9718 18.4617L28.0712 18.6378L28.138 19.0584L28.3466 19.6877ZM0.725153 20.017L0.52961 20.2159L0.00487364 19.1301L0 18.8676L0.153171 18.7372L0.407396 18.7617V19.0339L0.620867 19.2638L0.703967 19.4888L0.725153 20.017ZM14.7755 24.5362L14.7135 24.7026L13.9411 24.3586L14.3648 23.7569L14.3029 23.1244L14.487 22.9923L14.6549 23.201L14.8765 24.0064L14.7755 24.5362ZM33.3902 35.0061L33.4472 35.1887L33.4163 35.2409L33.2289 35.1137L32.9127 35.8702L32.8198 35.9387L33.0105 34.9034L33.2109 34.7551L33.4326 34.7257L33.3902 35.0061ZM29.0131 42.429L28.9202 42.4844L28.5291 41.9057L28.4705 41.5078L28.3108 41.3399L27.9164 41.2062L28.257 40.3959L28.5454 38.7151L28.6726 39.0232L28.3678 40.7253L28.3825 40.947L28.5243 41.1541L28.6774 41.5046L28.6954 41.8828L28.9643 42.235L29.0131 42.429ZM35.8281 40.1351L35.9584 40.696L35.7238 40.6128L35.4174 40.3079L35.2072 39.9183L35.2267 39.7438L35.2675 39.7112L35.7026 39.9411L35.8281 40.1351ZM30.6525 43.1903L30.5906 43.4267L29.2136 42.4925L29.5444 42.4045L29.929 42.4697L30.6525 43.1903ZM39.3137 44.4L39.2143 44.4163L38.9797 44.1522L38.877 43.5017L38.9243 43.4332L39.3659 44.2386L39.3577 44.338L39.3137 44.4ZM54.4184 56.9453L54.2847 57.348L53.9393 57.1866L53.8154 56.9339L53.791 56.5198L53.9833 56.4497L54.2619 56.6258L54.319 56.7431L54.4184 56.9453ZM144.919 58.7615L145.001 58.9979L144.921 58.9701L144.816 58.7925L144.741 58.5707L144.805 58.5658L144.86 58.6425L144.919 58.7615ZM143.887 63.3149L143.65 63.4665L143.521 62.9318L143.71 62.4101L143.94 62.1101L144.393 62.0759L144.693 61.9764L144.73 62.1085L144.484 62.5128L143.887 63.3149ZM34.2392 70.8519L33.9638 70.953L33.5581 70.6579L33.6656 70.4247L33.897 70.2666L34.1137 70.5617L34.2392 70.8519ZM122.191 71.16L121.676 71.2709L121.585 71.1666L122.623 70.6758L122.801 70.697L122.863 70.7639L122.325 70.997L122.191 71.16Z" fill="white"/>
</svg>
