<svg width="279" height="205" viewBox="0 0 279 205" fill="none" xmlns="http://www.w3.org/2000/svg">
<path d="M169.994 196.489L170.222 196.703L170.37 197.014L170.492 197.586L170.565 198.113L170.105 198.447L169.692 198.582L168.865 199.865L168.693 200.27L168.553 200.439L168.509 200.614L168.526 200.79L168.311 201.404L168.123 202.16L168.003 202.469L167.765 202.706L167.465 202.826L167.27 202.844L167.093 202.909L166.656 203.32L166.163 203.629L166.246 203.771L166.251 203.906L166.035 204.055L165.796 204.026L165.102 204.148L164.849 204.379L164.589 204.804L164.49 204.863L164.071 204.962L163.752 205L163.208 204.699L162.938 204.611L162.22 204.489L161.52 204.286L161.029 204.054L160.024 203.485L159.907 202.456L159.734 201.9L159.723 201.702L159.79 199.987L159.86 199.798L159.988 199.634L160.431 199.25L160.94 198.946L161.669 198.309L162.199 198.018L162.643 197.599L162.383 197.617L162.191 197.563L162.379 197.204L162.582 197.012L162.818 196.908L163.289 196.983L163.725 196.908L164.046 196.59L164.352 196.521L165.515 196.625L166.321 196.479L166.724 196.185L166.914 196.173L167.509 196.256L167.73 196.562L167.71 196.357L167.736 196.157L167.845 196.178L168.623 196.557L168.625 196.094L168.669 195.972L168.911 195.778L169.033 195.782L169.335 196.156L169.629 196.373L169.994 196.489ZM167.699 191.156L167.868 191.325L168.319 191.206L168.402 191.421L168.399 191.521L168.238 191.769L167.864 191.578L167.492 191.622L167.223 191.606L167.15 191.489L167.356 191.248L167.699 191.156ZM177.998 188.493L177.551 188.596L177.455 188.575L177.611 188.323L178.016 188.149L177.998 188.493ZM178.665 188.679L178.578 188.776L178.444 188.599L178.407 188.345L178.311 188.209L178.531 188.037L178.628 187.846L178.888 187.884L178.995 187.941L178.766 188.139L178.713 188.223L178.665 188.679ZM182.154 182.788L182.191 183.016L181.835 182.669L181.733 182.65L181.564 182.52L181.465 182.302L181.741 182.294L181.995 182.552L182.154 182.788ZM203.255 174.409L203.103 174.71L202.833 174.659L202.825 174.446L202.77 174.385L202.844 174.186L202.893 174.131L203.198 174.3L203.255 174.409ZM210.724 169.601L210.385 169.833L210.173 169.723L210.17 169.411L210.277 169.129L210.154 168.926L210.274 168.686L210.526 168.614L210.617 168.765L210.758 168.845L210.802 168.928L210.804 169.086L210.669 169.346L210.775 169.487L210.724 169.601ZM217.246 156.237L216.848 156.36H216.698L216.711 155.986L217.036 155.63L217.168 155.749L217.242 155.934L217.246 156.237ZM221.446 147.981L221.429 148.079L221.041 147.739L220.854 147.684L220.943 147.49L221.205 147.441L221.413 147.867L221.446 147.981ZM222.502 146.866L222.458 147.108L222.336 147.074L222.173 146.643L222.261 146.538L222.492 146.564L222.502 146.866ZM222.009 146.494L221.943 146.596L221.379 146.295L220.768 146.232L220.557 145.967L220.519 145.551L221.163 145.569L221.956 145.944L222.126 146.136L222.009 146.494ZM220.032 138.419L219.658 138.571L218.472 138.115L217.634 137.612L217.134 137.003L217.062 136.751L217.645 136.793L218.216 137.013L218.342 137.347L218.573 137.453L218.729 137.648L219.785 138.102L219.948 138.238L220.032 138.419ZM227.45 0.212951L227.657 0.235719L227.771 0.234082L227.99 0.0813014L228.596 0.352736L229.754 1.15895L230.48 1.51655L230.781 1.4288L231.106 1.65147L231.462 2.18462L231.902 2.49832L232.695 2.64296L233.481 3.22487L233.798 3.25741L233.909 2.93067L234.203 2.74376L234.677 2.695L235.364 2.9827L236.263 3.60524L236.827 3.87831L237.056 3.80356L237.296 3.91893L237.49 4.20991L237.507 4.5691L237.441 4.76092L237.657 5.06326H237.905L238.312 5.2079L238.63 5.74105L238.916 5.98813L239.116 6.20103L239.152 6.37821L239.169 6.55704L239.111 6.69519L239.002 6.92436L238.968 7.1698L239.106 7.44614L239.611 7.64605L239.782 7.8525L239.821 8.1158L239.979 8.40678L240.323 8.74325L240.453 9.0244L240.373 9.25035L240.476 9.4389L240.645 9.58682L240.68 10.1216L240.695 10.4288L240.973 10.7734L241.03 11.4788L241.223 12.2574L241.875 13.3221L242.091 13.8975L242.035 14.5801L242.13 14.9004L242.427 15.0548L242.568 15.3425L242.552 15.7635L242.667 16.0252L242.762 16.3031L242.698 16.7355L242.793 17.1239L242.945 17.3515L243.053 17.7709L243.113 18.2942L243.55 19.12L244.36 20.248L244.858 21.1225L245.038 21.7434L245.039 22.2538L244.862 22.6537L244.853 22.9446L245.012 23.1267L245.059 23.3721L244.996 23.6826L245.259 24.0499L246.149 24.6871L245.793 25.6624L245.699 26.3467L245.746 27.0651L245.967 27.5706L246.359 27.8632L246.602 28.1688L246.698 28.4873L247.17 28.8336L248.014 29.209L249.098 29.2757L250.419 29.0302L251.226 28.9896L251.524 29.1522L251.626 29.3992L251.53 29.7292L251.754 29.9453L252.297 30.0494L252.669 30.2558L252.874 30.5679L253.124 30.6557L253.421 30.5208L253.711 30.5402L253.992 30.7126L254.174 30.6524L254.333 30.4639H254.588L254.849 30.4671L255.012 30.9239L255.275 31.1807L255.639 31.2376L256.193 31.7919L257.308 33.3669L258.032 33.9244L258.759 34.0984L259.662 34.1341L259.954 34.742L259.717 35.3841L259.657 35.9188L259.862 36.1106L260.144 36.7381L260.544 37.1021L260.62 37.3899L260.806 37.7117L260.728 38.305L260.385 39.1713L260.479 39.9093L261.009 40.5188L261.314 41.1056L261.394 41.668L261.525 42.0093L261.712 42.1296L262.255 42.0873L263.157 41.8841L263.816 41.9183L264.239 42.193L265.28 42.2028L266.942 41.9492L267.992 41.8712L268.43 41.9687L268.82 41.6062L269.163 40.7821L269.483 40.3953L269.784 40.444L270.258 40.1791L270.91 39.5988L271.475 39.3176L272.192 39.3468L272.955 39.3761L273.433 39.1323L273.881 38.6236L274.659 38.1733L276.318 37.5833L276.716 37.4906L276.906 37.5231L277.459 37.6158L277.95 37.8466L278.413 38.3098L278.484 38.6073L278.432 38.9974L278.33 39.2233L278.14 39.4769L277.961 39.8881L278.076 40.2083L278.344 40.8927L278.565 41.3868L278.809 41.9687L278.7 42.1768L278.552 42.5798L278.099 43.2609L277.852 43.521L277.586 43.7745L277.126 43.8363L276.929 43.8948L276.707 44.0021L276.567 44.2427L276.408 44.4117L276.144 44.7498L276.123 45.0408L276.242 45.4731L276.3 45.9152L276.003 46.3102L275.772 46.9165L275.702 47.0985L275.589 47.5569L275.555 47.7162L275.482 48.6785L275.184 49.3335L274.77 50.0942L274.863 50.5477L274.936 50.9671L274.833 51.1703L274.807 51.3475L274.747 51.7505L274.617 51.905L274.24 52.1569L274.015 52.4609L274.062 52.9208L273.946 53.3191L273.774 53.6702L273.594 53.8993L273.334 54.0456L273.161 54.1692L273.031 54.6145L272.993 54.9591L272.871 55.3021L272.945 55.6516L272.814 55.9539L272.443 56.1652L272.234 56.2904L272.04 56.3408L271.67 56.6691L271.339 57.7923L271.264 58.4441L271.34 59.0227L270.876 59.3852L270.531 59.6729L270.315 59.5689L270.086 59.4713L269.56 59.3462L269.296 59.2617L268.767 59.0731L267.919 58.8342L267.09 58.5562L266.57 58.41L266.161 58.2929L265.85 58.1011L265.589 57.7582L265.329 57.8963L265.088 58.3027L264.687 58.5432L264.505 58.987L264.344 59.3267L263.928 59.7802L263.743 59.9671L262.929 60.2743L262.745 60.3767L262.081 60.4417L261.855 60.5766L261.621 60.8627L261.558 61.1472L261.724 61.4462L261.982 62.0444L262.102 62.4524L262.278 63.2602L262.867 65.7845L262.677 66.2185L262.5 68.0992L262.542 68.4372L262.525 68.9639L262.536 69.3491L262.658 69.445L262.817 69.5799L262.898 69.8042L262.877 70.1488L262.796 70.4007L262.671 70.8998L262.505 71.6198L262.321 71.8962L262.201 72.1156L262.099 72.2668L262.086 72.7755L262.018 73.1103L261.73 73.229L261.444 73.4241L261.105 73.3525L260.806 73.3915L260.437 73.5216L259.776 73.6727L259.392 73.8743L259.209 74.0206L259.082 74.1961L259.059 74.3652L259.147 74.4546L259.519 74.5229L259.774 74.8382L259.81 75.1828L259.546 75.3794L259.416 75.1632L259.197 75.095L258.789 74.791L258.49 74.4562L258.268 74.0856L258.278 73.294L258.24 73.1754L257.834 73.0128L257.714 72.7755L257.52 72.6633L257.246 72.7349L257.039 72.6601L256.875 72.5301L256.681 72.5154L256.512 72.7202L256.421 73.1607L256.136 73.8905L256.11 74.331L255.988 74.9585L255.866 75.7533L255.764 75.9191L255.447 75.9435L255.338 75.9955L255.171 76.2653L254.971 76.3108L254.794 76.1531L254.516 75.9955L254.252 75.9744L254.014 76.132L253.735 76.475L253.576 76.7513L253.519 77.0114L253.475 77.3316L253.192 77.6372L252.936 77.7981L252.404 78.2483L252.235 78.4352L251.855 78.4369L251.441 78.419L250.882 78.5409L249.972 78.6027L249.428 78.51L248.755 78.5962L248.23 78.7424L248.156 78.9619L248.175 79.287L248.279 79.4983L248.407 79.6397L248.625 80.0753L248.854 80.4963L249.2 80.7677L249.345 81.0603L249.351 81.3318L249.187 81.6731L248.939 82.1185L248.706 82.3932L248.533 82.3834L248.266 82.2242L248.086 82.0226L247.655 81.9478L246.602 82.0762L246.076 81.9868L245.824 81.8227L245.384 81.8113L244.703 81.5919L244.287 81.522L244.091 81.3822L244.053 81.0603L243.858 80.8393L243.748 80.5743L243.501 80.2411L243.264 80.0737L243.03 80.0038L242.775 80.2054L242.502 80.3874L242.299 80.3467L242.199 80.3971L242.089 80.5483L241.65 80.8572L241.548 81.14L241.374 81.7398L241.252 82.3558L241.148 82.5736L240.971 82.611L240.791 82.7963L240.412 83.3733L240.07 83.9049L239.572 84.264L239.337 84.5924L239.217 84.8915L238.862 85.3092L238.342 85.384L237.928 85.5059L237.675 85.5384L237.493 85.7074L237.36 85.9643L237.296 86.0667H237.061L236.827 86.2845L236.253 86.7802L235.785 86.8729L235.2 87.2028L234.685 87.4532L234.471 87.5946L234.414 87.7506L234.339 87.9489L234.091 87.9879L233.85 87.9782L233.314 88.4317L233.043 88.8169L231.988 89.6361L231.558 90.0961L231.447 90.691L231.392 90.6471L231.017 91.1656L230.279 91.6581L228.703 91.7687L228.204 91.4192L228.024 91.6598L227.884 91.9833L227.47 92.0905L226.825 92.1198L226.463 92.3327L226.269 92.57L225.384 92.6464L225.059 92.9634L224.506 93.0755L222.204 94.4571L221.702 95.0374L221.226 95.7152L220.893 96.0549L220.594 96.2923L220.323 96.3898L220.056 96.6238L219.787 96.6531L219.512 96.5458L219.205 96.5832L219.002 96.8661L219.173 97.235L219.078 97.3911L218.474 97.591L217.574 97.7226L217.194 97.9632L217.06 98.0998L216.862 98.168L216.671 97.6934L216.602 97.066L216.974 96.9148L217.317 96.8352L219.216 95.9672L218.979 95.3137L219.148 95.0293L219.574 94.5661L219.85 94.3369L219.701 94.2524L218.454 94.4051L217.741 94.3938L217.374 94.3466L217.485 93.95L217.423 93.5534L217.337 93.4055L217.972 92.9536L218.26 92.8431L218.479 92.8496L218.463 92.5765L218.281 92.1653L218.477 91.6337L219.77 91.008L220.081 90.4391L220.599 89.9076L221.548 88.5845L221.605 88.3585L221.881 87.736L221.93 87.4873L221.491 87.1232L221.317 86.6128L220.034 85.6896L219.925 84.8947L219.805 84.9288L219.61 85.4847L219.442 85.6636L218.848 85.6798L218.567 85.4701L216.913 85.3336L216.508 85.6928L216.131 86.2471L215.762 86.6437L215.392 86.8469L215.07 87.2077L213.741 89.3435L213.239 89.5061L210.875 90.7918L209.691 91.2957L208.779 92.1832L208.466 92.7195L208.188 93.3145L208.019 94.2133L207.177 95.304L206.888 95.538L206.594 95.6323L206.203 95.5982L205.865 95.6665L205.289 95.5706L204.584 95.9151L203.791 96.2126L203.108 95.4633L202.618 95.278L201.821 95.4861L201.45 95.8193L200.683 97.4658L200.396 98.407L200.415 98.7922L200.862 99.9592L201.367 100.611L202.5 101.354L204.908 101.864L205.473 101.682L206.079 101.681L206.718 102.165L207.117 102.965L207.153 103.509L207.166 103.698L207.312 103.859L207.398 104.133L207.145 104.361L206.95 104.475L206.786 105.318L206.776 106.25L206.982 106.558L207.501 106.992L208.302 107.35L209.043 107.426L210.458 107.254L211.036 106.693L211.002 106.451L211.017 106.137L212.263 105.313L212.973 104.582L212.862 104.389L212.726 104.26L212.851 104.185L213.239 104.133L214.971 103.369L216.334 103.994L217.112 104.712L217.883 104.832L218.415 105.2L219.031 105.512L219.834 105.533L220.511 105.598L220.718 105.309L220.93 105.118L221.171 105.156L221.442 105.534L222.212 105.825L222.922 105.811L223.42 105.705L223.715 105.84L223.288 106.324L223.351 107.105L223.025 107.352L222.711 107.748L222.896 108.01L223.06 108.121L223.044 108.437L222.758 108.618L222.229 109.089L221.923 109.081L221.779 108.99L221.676 108.821L221.6 108.55L221.415 108.371L220.901 108.303L220.368 108.368L219.169 109.067L217.998 109.622L216.771 110.063L216.36 110.341L216.068 110.417L215.559 110.208L215.252 110.221L215.187 110.365L215.579 110.752L215.681 111.054L215.64 111.287L215.418 111.389L215.095 111.22L214.799 111.462L214.666 111.87L214.659 112.841L214.464 113.057L213.923 113.176L213.348 113.484L213.143 113.341L213.062 113.167L213.122 112.722L213.051 112.504L212.787 112.516L212.391 112.649L212.089 112.942L211.985 113.119L212.383 113.689L212.761 113.748L212.854 113.876L212.554 114.154L211.805 114.567L211.679 114.913L211.457 115.245L211.151 115.508L210.943 115.786L210.69 115.931L210.276 116.093L209.767 116.756L209.395 117.376L208.953 117.694L208.604 118.738L207.978 119.303L207.748 120.207L207.91 120.762L208.597 120.757L208.94 120.952L209.652 121.68L210.503 122.154L211.387 122.421L212.471 123.092L212.77 123.377L213.025 123.954L213.494 125.612L213.832 126.431L213.855 126.859L214.362 127.663L214.903 129.045L215.527 130.238L215.645 131.176L215.444 131.603L215.446 132.157L216.068 132.666L217.452 133.256L217.673 133.43L217.944 133.716L217.957 134.605L218.172 134.888L218.352 135.06L219.19 135.436L219.541 135.748L219.913 136.245L220.021 136.691L220.066 137.294L219.598 137.315L219.221 137.247L217.722 136.463L217.332 136.442L216.781 136.551L215.996 136.406L215.168 135.537L214.57 135.273L213.928 135.14L212.398 135.888L212.008 135.834L211.896 135.919L211.723 136.047L212.433 136.208L213.145 135.963L213.827 135.6L214.823 135.793L214.991 136.12L215.155 136.671L215.837 137.043L216.373 137.208L217.056 137.695L217.722 138.456L219.134 139.337L219.706 140.169L219.926 140.706L220.125 141.471L219.631 141.718L219.2 141.752L218.526 141.873L218.03 142.144L217.533 142.619L216.108 143.365L215.839 143.831L215.653 144.238L215.306 144.438L214.433 144.247L213.611 144.264L212.68 144.811L212.448 145.034L212.602 144.99L212.748 144.92L213.168 145.003L213.816 144.711L214.45 145.603L215.686 145.458L216.848 144.717L217.298 144.704L217.673 144.818L218.094 145.111L219.212 146.409L219.826 146.551L220.427 146.855L220.76 146.889L221.061 146.98L220.251 147.454L219.207 148.478L218.742 148.722L218.43 148.995L219.272 148.859L219.87 148.37L220.172 148.249L220.414 148.363L220.537 148.966L220.307 150.816L220.013 150.848L219.727 150.346L219.392 150.187L219.111 150.291L218.554 150.288L218.341 150.515L218.162 150.837L218.495 150.904L219.151 151.464L219.218 151.762L219.043 151.955L218.583 151.872L219.142 152.29L218.994 152.722L218.814 152.893L218.489 153.002L218.289 153.376L218.576 153.998L218.867 154.795L218.903 155.178L218.448 155.013L217.738 155.499L217.364 155.539L217.111 154.899L216.788 155L216.571 155.185L216.284 155.871L215.933 156.49L215.631 156.659L215.268 156.61L214.969 156.628L215.043 156.796L215.358 156.999V157.236L214.685 157.989L214.576 158.28L214.593 158.527L214.24 158.828L214.43 159.333L214.331 159.689L214.022 160.17L213.697 160.487L213.315 161.001L212.831 161.298L212.193 162.373L212.004 162.909L211.957 163.463L211.757 163.655L211.415 163.896L211.025 163.774L211.012 163.405L210.843 163.372L210.747 163.13L210.718 162.823L210.758 162.574L210.596 162.651L210.495 162.938L210.238 163.172L209.97 163.078L209.681 162.886L209.689 163.163L209.844 163.44L209.91 163.718L210.31 163.779L210.578 164.097L210.789 164.586L210.831 164.77L210.995 164.988L211.018 165.175L210.636 165.347L210.159 165.669L209.585 166.22L209.112 166.587L208.685 166.591L208.427 166.548L208.058 166.337L207.634 166.249L208.203 166.992L208.513 167.124L208.903 167.096L209.281 166.82L209.819 166.849L209.954 167.277L209.811 167.759L209.517 168.385L209.457 168.926L209.821 169.7L209.837 169.932L209.701 170.048L209.273 169.845L208.921 169.588L208.565 169.656L208.196 169.547L207.818 169.638L207.663 169.817L207.767 170.111L208.107 170.355L208.297 170.731L208.069 170.862L207.106 170.774L206.891 170.846L206.604 171.259L206.791 171.87L206.578 172.249L206.181 172.338L205.66 172.644L205.338 172.715L205.354 172.849L205.59 172.982L205.715 173.162L205.431 173.785L204.991 173.99L204.315 173.887L203.783 174.027L203.324 173.762L202.833 173.757L202.5 174.092L202.464 174.48L202.141 174.519L201.967 174.49L201.722 174.518L201.748 174.726L201.887 174.908L202.55 174.989L202.669 175.251L202.695 175.654L202.001 176.348L201.705 176.816L201.26 176.803L200.924 177.179L200.744 177.687L200.521 177.587L200.006 177.668L199.855 177.91L199.975 178.011L199.986 178.185L199.78 178.755L199.556 178.916L199.458 178.682L199.385 178.32L199.205 178.292L198.904 178.625L198.553 178.864L198.253 178.963L198.025 178.742L197.468 178.627L197.241 179.584L196.779 179.932L196.563 180.041L196.186 180.074L196.427 180.205L196.501 180.451L196.367 180.694L195.99 180.743L195.77 180.933L195.686 181.787L195.462 182.086L194.89 182.11L194.462 181.912L194.326 182.068L194.254 182.221L194.03 182.375L193.598 182.416L192.638 182.798L192.198 182.687L191.673 182.543L191.31 182.684L191.19 182.977L191.023 183.204H190.497L190.074 182.923L189.644 182.72L189.168 182.895L188.805 183.253L188.36 183.373L188.277 183.596L188.084 183.706L187.613 183.659L187.434 183.107L187.163 183.025L186.895 183.305L186.799 183.523L186.674 183.688L186.718 184.139L186.453 184.149L186.107 183.872L185.743 183.823L185.403 184.08L185.231 184.017L185.049 183.963H184.752L184.638 184.031L184.42 184.072L184.274 184.212L184.261 184.223L183.878 184.129L183.408 183.755L183.072 183.134L182.644 182.799L182.456 182.505L182.383 181.977L182.305 181.725L182.331 181.445L182.461 181.197L182.001 181.322L181.661 181.554L181.731 181.847L181.647 182.118L181.14 182.26L181.171 182.374L181.205 182.494L181.601 182.864L181.683 183.175L181.843 183.341L182.154 183.823L182.146 184.756L182.316 185.02L182.259 185.281L182.136 185.634L182.124 185.639L182.033 185.532L181.884 185.553L181.824 185.672L181.814 185.779L181.788 185.784L181.525 185.862L181.304 185.928L181.125 186.023L180.844 186.301L180.31 186.369L180.035 185.719L179.666 186.153L179.556 187.039L179.419 187.19L179.19 187.316L178.756 187.008L178.378 187.214L178.082 187.424L177.96 187.617L177.743 187.827L177.325 187.624L176.989 187.32L177.073 187.091L177.026 186.941L176.875 186.827L176.708 186.843L176.791 187.141L176.846 187.71L176.693 187.874L176.458 188.001L175.949 187.897L175.603 187.685L175.182 187.507L174.812 187.474L174.73 187.833L174.49 188.123L174.267 188.158L174.045 188.113L173.752 188.425L173.614 188.653L173.254 188.893L172.295 189.01L171.96 189.247L171.512 189.21L171.164 189.267L170.964 189.254L170.786 189.126L170.584 189.122L170.492 189.519L169.949 189.686L169.461 189.732L168.919 190.255L168.532 190.572L168.245 190.605L168.033 190.493L167.928 190.024L167.821 189.969L167.759 190.41L167.656 190.775L167.458 190.975L166.831 191.43L166.651 191.882L166.771 192.3L167.614 192.402L167.718 192.632L167.637 192.819L167.435 192.975L167.375 193.209L168.28 193.953L168.308 194.234L168.168 194.395L167.999 194.741L167.522 195.034L166.511 195.184L165.668 195.032L165.413 194.699L165.429 194.462L165.639 194.53L165.876 194.509L165.804 194.291L165.704 194.164L165.315 193.971L165 193.449L165.06 193.015L164.89 192.679L164.701 192.398L164.513 192.228L164.41 192.019L164.602 191.359L164.496 190.975L164.857 190.504L164.946 189.972L165.59 189.782L165.634 189.275L165.172 189.26L164.852 188.888L164.779 189.046L164.522 189.062L164.1 188.344L163.973 188.253L163.769 188.24L163.871 188.997L163.375 189.282L162.969 189.407L162.394 189.459L162.066 189.547L161.76 189.475L161.835 189.246L161.998 188.973L161.853 188.744L161.528 188.568L161.031 188.578L160.688 188.529L160.347 188.549L160.222 188.446L159.905 188.087L159.637 187.864L159.517 187.642L159.637 187.383L159.536 187.225L159.018 187.208L159.021 187.578L159.075 188.015L159.226 188.347L159.119 188.532L158.855 188.659L158.574 188.308L158.446 188.222L158.311 188.238L158.209 188.588L157.954 188.898L157.496 188.864L157.138 189.056L156.706 189.143L156.412 188.887L155.926 188.474L155.733 188.427L155.193 188.628L154.418 188.703L154.246 188.488L153.872 188.651L153.512 188.155L153.085 188.123L152.552 187.747L152.36 187.547L152.3 187.261L152.137 187.112L151.929 187.131L151.697 186.978L151.33 186.827L151.034 186.738L150.888 186.806L150.734 186.842L150.706 186.65L150.717 186.071L150.69 185.558L150.608 185.325L150.41 185.15L150.231 185.065L150.152 184.8L150.217 184.28L150.363 183.927L150.594 183.864L150.906 183.611L151.065 183.25L151.265 182.915L150.553 182.445L150.18 182.276L149.765 182.348L149.25 182.497L148.982 182.526L148.847 182.468L148.547 182.045L148.384 181.972L148.02 181.944L147.713 181.948L147.538 182.131L147.265 182.193L146.992 182.203L146.716 181.974L146.3 181.675L145.648 181.463L145.569 181.221L145.403 180.93L145.156 180.66L144.747 180.303L144.404 180.117L144.236 180.231L144.009 180.434L143.128 180.862L142.738 181.029L142.53 181.148L142.357 181.327L142.303 181.767L142.217 182.258L141.963 182.507L141.723 182.695L141.471 182.715L141.224 182.707L140.992 182.785L140.283 183.277L139.95 183.238L139.676 182.96L139.559 182.759L139.242 182.804L138.836 183.04L138.647 183.463L138.548 183.858L138.459 184.033L138.322 184.083L138.202 184.092L136.937 182.952L136.859 182.894L136.631 183.128L136.425 183.732L136.277 183.848L136.176 183.801L135.653 183.027L135.518 182.954L135.4 182.98L135.242 183.23L134.911 183.599L134.657 183.823L134.651 184.072L134.374 184.292L134.054 184.511L133.947 184.534L133.734 184.446L133.456 184.155L133.255 183.851L132.756 183.549L132.197 183.294L131.827 183.094L131.616 183.045L131.419 183.134L131.32 183.256L131.18 183.558L130.845 184.053L130.547 184.446L130.269 184.698L130.048 184.872L129.882 184.709L129.577 184.576H129.218L128.745 184.826L128.373 184.326L128.275 184.301L128.132 184.344L127.967 184.462L127.853 184.742L127.733 185.124L127.495 185.374L127.299 185.485L127.356 185.699L127.468 185.932L127.46 186.135L127.531 186.455L127.655 186.775L128.095 187.3L128.264 187.573L128.298 187.811L128.314 188.653L128.296 189.004L128.209 189.68L128.202 190.07L128.386 190.245L128.563 190.455L128.555 190.569L128.477 190.61L128.225 190.842L128.119 190.873L127.954 190.777L127.739 190.706L127.569 190.613L127.378 190.463L126.928 190.48L126.189 190.707L126.036 190.642L125.931 190.514L125.872 190.247L125.908 189.935L125.843 189.735L125.705 189.616L125.804 189.059L125.541 188.838L125.578 188.77L125.491 188.167L125.502 188.017L125.456 187.967L125.271 187.919L124.995 188.014L124.155 188.41L123.434 189.143L123.104 189.306L122.771 189.373L122.379 189.246L121.945 189.163L121.326 189.348L121.021 189.262L120.88 189.113L120.754 188.885L120.831 188.596L120.784 188.383L120.537 188.275L120.249 188.183L120.079 187.905L120.01 187.601L120.077 187.206L120.111 186.782L119.973 186.587L119.552 186.481L118.491 186.288L117.562 186.182L117.172 186.232L116.854 186.185L116.67 186.107L116.581 185.974L116.576 185.782L116.727 185.342L116.897 184.911L117.33 184.283L117.356 183.848L117.333 183.346L117.547 182.674L117.919 182.172L118.103 182.014L118.059 181.79L117.91 181.585L117.697 181.471L117.344 181.34L116.795 181.304L116.041 181.169L115.169 180.87L115.27 180.296L115.255 179.937L115.148 179.641L114.971 179.432L114.87 179.245L115.027 178.731L114.824 178.169L114.585 177.944L114.339 177.653L114.319 177.34L114.431 177.047L115.036 176.418L115.04 176.265L114.891 176.278L114.719 176.291L113.893 176.52L113.804 176.376L113.508 176.293L112.906 176.277L112.2 176.319L111.308 176.543L110.49 176.936L110.118 177.206L109.801 177.374L109.544 177.429L109.247 177.31L109.263 176.925L109.822 176.218L109.901 175.732L109.732 175.314L109.713 174.979L109.516 174.767L109.242 174.662L109.096 174.425L109.086 173.729L109.331 173.013L109.729 172.787L109.971 172.678L110.036 172.538L109.913 172.034L109.932 171.714L110.17 171.095L110.407 170.625L110.855 170.703L111.057 170.586L111.279 170.418L111.521 170.136L111.684 169.799L111.882 169.019L112.017 168.902L112.582 169.032L112.751 168.941L113.06 168.483L113.352 167.923L113.776 167.751L114.082 167.733L114.223 167.548L114.215 167.275L113.924 166.841L113.802 166.495L113.838 166.283L114.254 166.155L114.356 165.903L114.295 165.35L114.465 164.686L114.568 163.907L114.602 163.325L114.597 162.881L114.556 162.415L114.498 161.563L114.308 160.82L114.342 160.541L114.316 159.639L114.199 158.868L113.965 158.733L113.529 158.483L113.292 158.434L113.094 158.525L113.019 158.793L112.828 159.044L112.592 158.982L112.48 158.732L112.329 158.403L111.824 156.841L111.768 156.391L111.679 155.942L111.51 155.718L111.331 155.585L110.928 155.058L110.717 154.839L110.615 154.803L110.394 154.84H110.176L109.999 154.577L109.836 154.255L109.674 154.098L109.401 154.01L109.122 154.044L108.958 154.322L108.847 154.479L108.636 154.85L108.295 155.362L108.139 155.551L107.988 155.453L107.33 154.92L107.013 154.772L106.581 154.933L105.906 154.806L105.646 154.782L105.084 154.356L104.855 154.304L104.057 154.582L103.882 154.779L103.78 154.782L103.567 154.683L103.393 154.551L103.382 154.468L103.598 154.26L103.614 154.114L103.603 153.966L103.913 153.547L104.759 152.734L104.618 152.392L104.285 151.719L104.241 151.393L104.096 151.245L103.692 151.365L102.85 151.976L102.735 151.91L102.756 151.698L102.668 151.082L102.935 150.897L103.344 150.671L103.659 150.419L103.732 150.216L103.646 150.153L103.182 150.232L102.998 150.094L102.694 149.527L102.472 149.304L102.27 149.184L101.585 149.476L100.788 149.878L99.9014 150.437L99.9063 150.723L99.8007 150.796L99.6317 150.977L99.466 151.225L99.3246 151.313L99.1589 151.321L98.821 151.251L98.2085 150.969L97.544 150.734L97.401 150.76L96.4976 150.595L96.4684 150.461L96.3319 150.2L96.0752 149.962L95.8299 149.883L95.1231 150.383L94.3255 150.756L93.8722 151.196L93.4984 151.633L93.0695 151.718L93.05 151.988L92.8697 152.23L92.5448 152.529L91.8998 152.909L91.4627 153.114L90.0752 153.301L89.5797 153.428L89.3717 153.628L89.1491 154.135L88.9737 154.601L88.5902 154.987L87.8916 155.5L87.0711 155.916L86.8453 156.193L86.8047 156.357L86.9071 156.417L87.0077 156.542V156.731L86.9021 156.936L86.3661 157.293L86.0638 157.464L85.7632 157.573L85.427 157.592L85.1036 157.543L85.0142 157.485L84.8859 157.56L84.5902 157.634L84.3335 157.659L83.7697 158.055L83.4595 158.059L83.0727 157.973L82.5626 157.904H82.1938L82.1824 157.695L82.2392 157.066L82.0719 156.919L81.5618 156.765L80.9866 156.56L80.7104 156.342L80.556 156.269L80.34 156.305L79.994 156.534L79.6657 156.804L79.4058 156.827L79.1394 156.701L78.8859 156.536L78.015 156.303L77.6251 156.269L76.9281 156.308L76.3595 156.259L76.2701 156.188L76.2717 156.058L76.3562 155.806L76.4049 155.557L76.3384 155.416L75.7584 155.242L75.2286 155.117L74.6649 155.07L74.2864 155.157L73.9159 155.352L73.6105 155.703L73.1685 155.856L72.6405 156.118L72.3854 156.362L71.9988 156.885L71.4366 157.527L70.9265 158.153L70.6616 158.761L70.3107 159.143L69.9549 159.418L69.6982 160.173L69.4301 159.934L69.123 159.591L69.0499 159.122L69.4139 157.873L69.4999 157.353L69.4073 157.155L69.2937 156.643L69.0776 156.474L68.4602 156.206L68.2636 156.198L68.0523 156.383L67.846 156.5L67.5715 156.617L66.8826 156.836L66.2716 156.939L66.1255 157.02L66.08 157.166L66.1287 157.34L65.7356 157.274L65.3244 157.236L64.993 157.261L64.1824 157.592L63.9078 157.625L63.6022 157.591L63.1864 157.581L62.3951 157.591L61.7144 157.506L61.1603 157.043L60.7688 156.838L60.3513 156.68L59.9305 156.562L59.7908 156.313L59.6575 156.188L59.3114 156.147L59.0368 156.238L58.8663 156.864L58.7201 156.987L58.3723 157.043L58.0068 156.883L57.5016 156.562L57.3033 156.204L57.1344 156.089L56.8679 156.246L56.8532 156.705L56.8013 157.012L56.4844 157.137L56.3009 157.046L56.153 156.731L55.781 155.981L55.4122 155.543L55.0401 155.25L53.8199 155.258L52.9149 155.172L52.5056 155.052L52.3512 154.762L52.5007 154.184L52.6762 153.732L52.6713 153.626L52.5219 153.572L52.2618 153.537L51.2854 153.826L51.0189 153.792L50.8499 153.693L50.6437 153.608L50.473 153.473L50.3544 153.277L49.5096 152.794L49.261 152.529L48.8109 152.197L48.4308 151.971L48.1904 151.325L47.971 150.702L47.8508 150.37L47.4885 150.195L47.0969 150.062L46.4341 150.333L45.8898 150.539L45.4901 150.561L44.9133 149.922L44.4503 149.231L43.9027 148.628L43.5388 148.324L42.8938 148.295L42.1675 147.955L41.1928 147.181L40.4893 146.604L39.2772 145.962L38.9945 145.692L38.8873 145.463L38.7216 145.011L38.4681 144.582L37.6087 144.395L36.6371 144.262L35.6119 144.525L34.8743 145.809L34.5184 146.089L34.213 146.105L33.9628 145.779L33.7564 145.436L33.6444 145.055L33.1342 144.774L32.5574 144.407L32.2617 144.121L31.9286 143.942L31.6184 143.865L31.0205 143.623L30.343 143.35L30.0245 143.313L30.0018 143.118L30.0977 142.703L30.0392 142.305L29.8344 142.142L29.5257 142.185L28.8108 141.619L28.7751 141.59L28.572 141.429L28.2195 141.198L27.6248 141.214L27.1748 141.299L26.845 141.063L26.3673 140.689L26.2813 140.606L26.1398 140.47L25.6557 139.748L25.0838 138.893L24.7946 138.768L24.6451 138.833L24.4762 139.287L24.3494 139.241L24.1366 139.272L23.8864 139.431L23.646 139.472L23.4916 139.425L23.4266 139.313L23.4948 138.713L23.3486 138.526L23.4786 138.108L23.6979 137.747L23.4737 137.479L23.1975 137.096L23.1666 136.748L23.3161 136.309L23.3892 135.933L23.3437 135.795L23.1261 135.585L22.2958 134.552L22.2519 134.443L22.1122 134.098L22.0472 133.578L21.9401 133.206L21.8133 132.92L21.823 132.785L21.9189 132.715L22.4372 132.645L22.9164 132.601L23.2317 132.504L23.3958 132.712L23.4721 133.03L23.5549 133.198L23.8588 133.5L24.2293 133.789L24.5882 133.752L24.9051 133.628L25.1796 133.157L25.373 133.042L25.5988 133.021V132.986L25.5858 132.682L25.6654 131.933L25.6379 131.632L25.5354 131.361L25.5534 131.059L25.5192 130.62L25.2609 130.319L25.0919 130.204L25.0643 130.041L25.1521 129.74L25.2122 129.394L25.1228 129.139L25.1081 129.1L24.8986 128.968L24.6533 128.746L24.3608 128.445L24.2163 128.227L23.979 127.987L23.6898 127.613L23.6362 126.792L23.607 125.927L23.5062 125.496L23.3454 124.809L23.3697 124.578L23.4672 124.402L24.2828 123.847L24.4599 123.63L24.4892 123.466L24.4566 123.222L24.3023 122.951L23.9774 122.74L23.5127 122.395L23.0919 122.036L22.3835 121.816L21.5241 121.548L21.3177 121.287L21.1097 120.646L20.7556 119.668L20.3786 118.622L20.0879 117.977L20.0732 117.667L20.247 116.873L20.2259 116.704L20.0732 116.646L19.7824 116.75L19.5501 116.875L19.3519 116.81L19.1682 116.677L19.1309 116.631L19.1163 116.613L18.7719 116.7L18.0814 116.748L17.8425 116.74L17.5078 116.729L16.8156 116.547L15.8815 116.301L14.918 115.96L14.4078 115.689L14.2292 115.594L13.7921 115.311L13.4818 115.068L13.4265 114.429L13.2007 114.478L12.6711 114.708L12.0601 114.855L11.7223 114.856L11.5857 114.754L11.3826 114.079L11.2348 113.889L10.9602 113.814L10.6613 113.696L10.5102 113.52L10.4761 113.298L10.6094 113.042L10.7669 112.846L10.7945 111.643L10.6922 111.215L10.6061 110.856L10.3867 110.409L10.1821 110.133L9.87337 109.876L9.39401 109.609L8.96671 109.51L8.45007 109.705L8.28595 109.631L8.06987 108.805L7.93184 108.636L7.01387 108.296L6.59788 108.218L6.11862 108.324L5.84572 108.415L5.62637 108.264L5.28356 108.072L4.9472 107.94L4.52972 107.935L4.25999 108.016L4.19176 107.969L4.06176 107.818L3.50614 107.361L3.48661 107.246L4.33793 106.796L4.84 106.625L5.10318 106.489L5.15842 106.518L5.28842 106.726L5.61983 106.862L5.85385 106.825L5.97563 106.721L6.38835 106.472L6.71004 106.183L6.89042 105.946L6.79284 105.572L6.28601 105.118L5.96432 104.876L5.86516 104.712L5.94806 104.219L6.06497 103.73L5.98703 103.543L5.89114 103.384L5.8489 102.849L5.62796 102.202L5.38748 101.825L5.32095 101.315L5.30795 100.837L5.5987 100.086L5.49151 99.7609L5.18608 99.4716L4.13326 98.9482L3.05445 98.602L2.64342 98.615L2.38827 98.5939L2.08611 98.8994L1.90574 99.2993L1.65396 99.3351L1.19413 99.166L0.887122 98.9092L0.669357 98.3744L0.500382 97.6853L0.404589 97.4691L0.453279 97.2821L0.558889 97.1164L0.853009 96.9603L0.901699 96.801L0.857868 96.6043L0.620668 96.3557L0.378509 96.0046L0 95.2747L0.0730839 94.8716L0.133177 94.2913L0.110469 93.9858L0.493936 93.9061L0.982914 93.7485L1.2104 93.4868L1.36797 93.2202L1.40208 93.0544L1.25423 92.4156L1.05927 92.1311L1.03983 91.9101L1.13563 91.741L1.26404 91.4501L1.51096 90.8519L1.75144 90.47L1.88303 90.374L2.17715 90.2847L2.89519 90.179L3.66699 89.9108L4.58326 89.1079L4.88869 88.8787L5.28842 88.7632L5.57431 88.7714L5.62637 88.6739L5.44113 88.1748L5.48665 87.9944L5.59543 87.853L5.73357 87.788L6.36881 88.0513L6.85462 88.0237L7.44603 87.8676L8.72138 86.9867L8.88064 86.9997L9.00896 87.1183L9.16335 87.6498L9.33878 88.7681L9.43625 88.9079L10.3234 88.9225L10.9278 88.5162L11.1925 88.4203L11.6215 88.487L11.8489 88.2968L12.0862 88.1635L12.3607 88.6316L12.7149 88.4073L13.0967 88.0513L13.2836 87.6823L13.5419 87.2841L13.7433 86.7786L13.8246 86.3007L13.9237 86.0764L14.1382 85.8456L14.6662 84.8589L15.0464 84.607L15.407 84.5176L16.299 84.6883L16.7621 84.6672L18.1203 84.7972L18.7475 84.607L19.1862 84.4185L19.8295 84.4477L20.5915 84.2982L21.607 83.0547L21.6199 82.7898L21.6816 82.5086L22.0488 82.2307L22.5054 81.9755L23.4152 81.3659L25.2658 80.3988L25.9286 80.0103L26.2049 80.02L26.8872 79.7762L28.083 79.3016L28.4209 78.71L28.7362 78.5913L30.1334 78.4856L30.2211 78.4174L30.2698 78.3166L30.1919 77.8875L30.1009 77.5185L30.2097 77.4096L30.3268 77.2406L30.3089 77.0033L30.083 76.2328L29.9628 75.5013L29.8832 74.8398L29.8978 74.5928L30.0667 74.1653L30.2861 73.7768L31.0773 73.4143L31.6021 73.3054L31.6232 73.0681L31.1992 72.9201L30.8921 72.6828L30.8385 72.548L30.8531 72.3935L30.9246 72.2521L31.4575 71.9856L31.9596 71.7206L32.572 71.8815L32.6923 71.7791L32.728 71.5142L32.5964 71.2476L32.473 70.8104L32.1902 70.5861L32.1788 70.3179L32.3528 69.8546L32.1123 68.9964L31.8507 68.2373L31.4071 66.9337L31.1131 66.5566L30.949 65.9536L30.7654 65.6366L30.7816 65.1668L30.8126 64.8369L30.7654 64.1819L30.6793 63.4699L30.7654 62.7466L30.9312 62.2687L30.8872 62.085L30.975 61.9485L31.2252 61.903L31.3438 61.7063L31.2252 61.5048L30.793 61.3487L30.3105 61.1065L29.7305 61.1342L29.1358 61.1764L28.8385 60.9976L28.5786 60.7684L28.5639 60.6222L28.9214 60.2353L29.4185 59.8338L30.1902 59.6567L31.0399 59.3917L31.4705 59.1999L32.0441 59.0618L32.7069 59.0032L33.04 59.0422L33.893 58.7854L35.235 58.288L36.4535 57.8703L36.863 57.6216L37.1684 57.8703L37.3097 58.418L37.6655 58.7009L38.0181 58.8374L38.2212 58.8309L38.8288 58.618L39.4851 58.4619L39.7435 58.5465L40.0766 58.826L40.4502 59.0763L40.6453 59.065L40.8158 58.8716L40.9881 58.4814L41.0969 57.9841L41.1197 57.4574L41.0546 57.1356L40.923 57.0169L40.3252 56.8268L39.7549 56.5163L39.6899 56.2318L39.7029 56.0287L39.854 55.5313L40.226 54.6162L40.5998 53.35L40.798 52.3471L41.4234 50.8468L41.9158 49.2766L42.7118 47.0075L42.845 46.5573L42.9182 45.8372L42.9605 45.5398L43.2382 45.3837L43.7062 45.5365L44.8483 46.0567L45.7175 46.4939L46.0814 46.6418L46.6225 46.7962L47.4592 46.9783L47.9433 46.9246L48.3675 46.8173L48.9328 46.8076L49.8151 46.9425L50.088 46.9474L50.4276 46.9653L50.668 47.1863L50.7883 47.6853L50.9702 47.9096L51.3 47.8267L52.0019 47.3863L52.4504 47.04L53.0108 46.5378L53.5664 46.4695L54.1563 46.3574L54.3609 46.1086L54.5787 45.5235L54.941 45.0814L55.0012 44.519L54.8744 44.1224L54.6225 43.4755L54.6307 43.0382L54.5088 41.7688L54.3464 40.6228L54.5121 39.6979L54.8045 38.6609L54.9182 38.3424L55.1035 37.9246L55.3651 37.4223L55.7322 37.2647L56.7639 37.1574L57.7192 36.9461L58.2066 36.7283L58.7136 36.5966L59.0157 36.4374L59.5356 35.701L59.7826 35.2768L59.9646 34.1487L59.8313 33.6058L59.9418 33.1247L60.1937 32.8419L60.5479 32.5575L60.7851 32.5086L61.2903 32.4225L62.119 32.4518L62.5414 32.5899L62.9703 32.655L63.2416 32.5525L63.422 32.3364L63.6997 32.2681L64.1173 32.1641L64.5479 32.034L64.7851 32.0584L64.8339 32.3786L64.7948 32.6289L64.8777 32.9638L65.0483 33.1849L64.993 33.4238L64.7525 33.5619L64.5153 33.7489L64.4634 34.0041L64.764 34.321L64.8663 34.625L65.3699 34.807L65.7615 35.0118L65.9077 35.2085L65.8639 35.4296L65.6835 35.6669L65.5097 35.9221L65.487 36.0748L65.5422 36.2537L65.9191 36.3723L66.3561 36.569L67.0483 36.8226L67.5227 37.2939L67.9938 37.424L68.2213 37.8823L68.262 38.5472L68.7445 38.8852L69.4577 39.355L69.82 39.4411L70.0621 39.7077L70.4114 40.0295L70.7217 40.1303L71.0905 40.1775L71.6982 39.8784L72.3805 39.8491L72.7526 40.0198L73.1068 40.6635L73.357 40.8667L73.5049 41.0471L73.7437 41.2194L73.9858 41.2453L74.3465 41.1023L74.5658 40.8179L74.881 40.8764L74.9996 41.0617L75.0581 41.3786L75.2255 41.772L75.6251 42.0646L76.184 42.2385L76.262 42.3815L76.34 42.7733L76.4911 43.0447L76.6942 43.3991L76.8875 44.0444L76.9281 44.5775L77.0175 44.8701L77.2758 45.3463L77.6885 46.1071L78.0166 46.7507L78.3968 46.8759L78.7202 47.0791L78.9053 47.5537L79.2482 48.446L79.3034 49.028L79.3326 49.4619L79.4448 49.6586L79.4692 49.9041L79.1832 50.8354L78.9411 51.2548L78.9102 51.6075L79.0743 52.2203L79.3002 52.6949L79.3229 53.1484L79.1312 53.48L78.8014 53.8945L78.6422 54.1318L78.3854 54.3398L77.9923 55.1395L77.8152 56.0222L77.7746 56.4757L77.924 56.804L78.1743 57.1648L78.236 57.4769L78.647 58.1742L78.7559 58.605L78.9249 58.6196L79.1053 58.4782L79.5455 58.4684L79.9452 58.6212L80.3286 58.9398L80.7397 59.1089L81.3278 59.0666L81.6414 59.2373L81.9793 59.3771L82.6795 59.4258L83.2043 59.4242L84.0102 59.4291L84.6617 59.6436L85.8072 59.8127L86.5155 59.7997L87.4676 59.6404L88.0509 59.7412L89.7779 59.9785L90.7885 60.2272L91.4286 60.5067L91.8787 60.9488L92.3936 61.6381L92.8031 61.9534L93.903 62.1436L94.6585 62.9465L95.2483 63.2456L96.241 64.0209L96.9428 64.3233L97.7828 64.6012L99.1525 64.4826L99.2288 64.5866L99.1232 65.0059L99.0403 65.5797V65.9942L99.1817 66.2055L99.7048 66.3307L99.9518 66.5338L100.14 66.9239L100.249 67.1661L100.689 68.3592L101.395 70.1163L101.476 70.7908L101.716 71.2248L102.481 71.9124L102.883 72.4212L103.481 72.9543L103.677 73.4468L103.721 74.0824L103.872 74.2465L104.966 74.1002L105.913 73.9978L107.612 73.8158L109.952 74.1474L112.364 74.4676L114.498 74.7504L115.549 74.8886L117.924 75.186L119.245 74.8073L120.277 74.5114L120.745 74.5521L122.717 74.8853L123.874 75.0641L125.33 75.2884L126.34 75.3713L127.169 75.3664L127.551 75.4607L127.919 75.6054L128.165 75.8167L128.922 76.883L129.346 77.3527L130.186 77.7071L132.093 78.1118L133.149 78.3572L134.361 78.6384L135.161 79.0627L136.08 79.5552L137.271 80.1924L138.576 79.9144L139.98 79.6137L140.86 79.4251V80.7547L142.116 80.8604L142.509 80.8458L143.065 81.1383L143.377 81.0148L143.674 80.7271L144.046 80.272L144.581 80.0721L145.505 79.5617L145.731 79.4381L147.104 78.7116L149.154 77.8143L150.074 77.3787L150.348 77.2812L150.868 77.0585L151.219 76.9041L151.84 76.7805L152.682 76.7026L153.601 76.5335L155.681 76.2149L155.942 76.1856L157.11 76.054L157.608 75.9305L158.35 75.9955L159.32 76.041L159.963 76.1222L160.816 76.0589L161.989 75.9727L162.938 75.9857L163.409 75.8784L164.105 75.542L164.571 75.2754L165.304 74.9519L166.214 74.6155L166.847 74.3099L167.267 74.1067L167.775 73.9149L167.908 73.6679L168.055 73.4777L168.324 73.1607L168.81 72.5691L169.18 72.0506L169.362 71.8198L169.778 71.3013L170.115 70.9095L170.544 70.3812L170.904 70.2106L171.362 70.0659L172.566 69.5474L172.805 69.4352L173.005 69.4125L173.431 68.9931L173.791 68.629L174.027 68.3576L174.516 68.2584L174.766 68.0618L174.81 67.805L174.76 67.4116L174.524 67.0085L174.326 66.6558L173.627 65.9828L173.257 65.5651L172.88 65.0271L172.726 64.5215L172.467 64.1997L172.344 63.9136L172.383 63.5837L172.742 62.9953L172.856 62.623L173.005 61.9647L173.341 60.9781L173.616 60.5149L173.933 60.063L174.604 59.4551L175.218 59.3429L175.583 59.4632H176.401L176.945 59.4957L177.346 59.7997L177.79 60.3995L178.292 60.6189L179.855 61.0886L180.523 61.1878L181 61.2089L181.707 61.3633L181.944 61.3975L182.306 61.5031L182.605 61.3893L183.059 60.9879L183.629 60.5376L183.874 60.4336L184.328 60.2386L184.555 60.0549L184.953 59.5477L185.47 59.1544L186.1 58.5627L186.41 58.1173L186.479 57.8296L186.547 57.5176L186.742 57.3534L187.125 57.2022L187.557 57.1616L188.38 57.4298L189.491 57.3534L189.739 57.3144L190.752 57.16L191.208 57.0332L191.852 56.9113L192.345 56.4139L193.007 55.8206L193.488 55.4906L193.808 55.4273L194.207 55.0843L194.404 54.7153L194.352 54.3902L194.277 54.1221L194.513 53.623L194.939 52.7486L195.335 52.3406L195.663 52.0106L195.873 51.4791L196.131 51.3263L196.448 51.2678L196.895 50.9069L197.223 50.8338L197.769 51.0061L198.576 51.05L199.091 51.0678L199.385 51.0028L199.493 50.8094L199.489 50.5103L199.653 49.8439L199.715 49.6245L199.863 49.5221L200.36 49.5091L200.695 49.748L200.926 49.9463L201.246 49.9723L201.575 49.8423L202.016 49.3026L202.75 48.9889L203.14 48.9093L203.832 48.6541L204.269 48.7467L205.072 48.8215L205.382 48.7565L205.72 48.8215L206.027 48.4558L206.271 48.368L206.787 48.5371L207.112 48.8199L207.72 49.1742L208.495 49.34L209.143 49.2555L209.809 49.405L210.203 49.3921L210.389 49.2523L210.935 48.9548L211.065 48.5517L211.012 48.1632L211.075 47.7227L210.914 47.3976L210.576 46.9165L210.445 46.5947L210.433 46.1737L210.222 45.7722L209.715 45.2878L209.382 45.0635L208.697 44.2248L208.464 44.0281L208.385 43.8899L208.305 43.6087L208.051 43.4738L207.718 43.2544L207.54 43.0301L207.423 42.64L207.353 42.3848L207.059 42.1735L206.765 42.0548L206.433 41.9053L205.884 41.6859L205.567 41.2486L205.008 40.4278L204.692 40.1515L203.512 40.0458L203.088 39.8459L202.609 39.9141L202.323 40.0458L201.689 40.0442L201.361 40.1254L200.943 40.6667L200.389 41.3689L199.933 41.7964L199.608 42.2401L199.457 42.3994L199.161 42.3035L198.755 41.8045L198.175 41.3575L197.637 41.1543L197.406 41.0422L196.765 40.9284L196.269 40.9642L195.637 41.1332L195.02 41.1023L194.742 40.995L194.349 41.0065L193.637 41.4713L193.268 41.9996L192.831 42.1654L192.436 41.8192L191.982 41.4095L191.546 40.8959L191.278 40.4196L191.129 39.1551L191.65 38.778L192.316 38.3537L192.367 37.6824L192.342 36.9331L192.474 36.0976L193.081 35.3255L193.408 34.6851L193.449 34.2853L193.741 33.6205L194.021 32.9183L194.402 31.995L195.125 30.3501L195.98 28.3963L196.407 27.4178L197.345 28.0241L197.949 28.3395L198.971 28.8173L200.025 28.9246L201.034 29.4415L201.554 29.5975H201.832L203.26 28.3395L204.467 27.2715L205.855 26.436L206.875 26.3223L207.642 26.0784L208.152 25.703L208.456 25.0755L208.549 24.1946L208.344 23.6598L207.844 23.4745L207.715 23.2876L207.956 23.0974L208.134 22.7284L208.246 22.1791L208.536 21.6557L208.999 21.1615L209.255 20.6121L209.303 20.0075L209.582 19.4028L210.09 18.7998L210.37 18.2374L210.417 17.7173L210.675 17.0801L211.377 15.9504L211.832 14.6452L212.609 13.7479L213.857 12.8247L214.635 11.9063L214.945 10.9928L214.921 10.1834L214.56 9.48116L214.49 8.76597L214.714 8.03614L214.518 7.48999L213.902 7.12754L213.168 7.03815L212.315 7.22183L211.835 6.99261L211.73 6.35222L211.959 5.83371L212.523 5.43707L213.449 4.46994L214.739 2.92581L216.022 2.06919L217.936 1.82211L219.48 1.31337L221.052 0.796496L222.188 0.539645L222.381 0.71197L223 0.754233L224.045 0.666433L225.015 0.44376L225.912 0.0845257L226.622 0L227.143 0.190183L227.45 0.212951Z" fill="white"/>
</svg>
