<svg width="38" height="69" viewBox="0 0 38 69" fill="none" xmlns="http://www.w3.org/2000/svg">
<path d="M12.5222 0.541044L12.4881 0.825426L12.6001 0.885526L12.7576 0.752285L12.9574 0.428928L13.1766 0.246944L13.4138 0.206332L13.6655 0.427292L13.9319 0.908286L14.2048 1.18126L14.3331 1.21211L14.4256 1.43148L14.4402 1.64272L14.3104 2.08791L14.0911 2.60466L13.7776 3.24483L13.8799 3.78265L14.3071 4.2214L14.8154 4.47974L15.3546 4.40824L15.6421 4.27664L15.8776 4.07025L16.0953 3.97277L16.3714 3.94678L17.2289 4.09787L17.4903 4.24738L17.5294 4.54475L17.4238 5.30681L17.557 5.86575L17.7989 6.45395L17.8282 6.99014L17.5277 7.87244L17.2776 8.70764L17.008 9.11385L16.7985 9.37547L16.7368 9.5526L16.7546 9.71995L16.9463 9.97017L17.1509 10.2935L17.2013 10.6023L17.1786 10.9809L17.0389 11.5008L16.5192 12.6268L16.1066 13.6424L16.3226 13.8455L16.7319 13.9934L17.0031 14.138L17.2873 14.0453L17.8899 13.4458L18.408 13.0005L19.0528 12.5553L19.0902 12.5163L19.6553 12.1881L19.9136 11.8859L20.0532 11.5008L20.2531 11.353L20.5113 11.439L20.8393 11.2717L21.2372 10.8492L21.5426 10.6542L21.7554 10.6868L22.1355 10.9483L22.6843 11.439L23.1717 11.7315L23.5988 11.8258L23.8083 12.0078L23.7969 12.2791L23.8927 12.4514L24.0925 12.5245L24.1818 12.4952L24.1591 12.3636L24.3524 12.1703L24.7617 11.9168L25.1775 11.7673L25.5997 11.7234L25.8742 11.5219L26.0545 10.9987L26.316 10.6006L26.5498 10.4203L26.839 10.3293L26.9153 10.2025L26.7756 10.04L26.7886 9.87432L26.9558 9.70696L27.3148 9.63546L27.867 9.65981L28.5118 9.8288L29.2524 10.144L29.738 10.2464L29.9703 10.1327L30.4218 10.6201L31.0942 11.7088L31.6692 12.5309L32.1515 13.0867L32.6583 13.5124L33.1893 13.8097L33.571 14.2143L33.9186 14.9812L33.6587 16.039L33.5889 16.9539L33.6213 18.0734L33.9348 18.9313L34.5292 19.5276L34.8752 20.0086L34.9727 20.3758L35.4355 20.691L36.2654 20.9527L36.6114 21.1899L36.4701 21.4028L36.4587 21.6497L36.5757 21.9308L36.8647 22.1648L37.3211 22.3484L37.594 22.5434L37.6801 22.7482L37.6704 23.0812L37.5648 23.5411L37.3748 23.8937L37.0986 24.139L37.0645 24.334L36.993 24.6297V25.2358L37.1896 25.6388L37.2497 26.1506L37.1425 26.5682L37.0385 27.4212L37.0255 27.7511L36.9265 28.0355L36.6861 28.3085L36.3174 28.5652L35.8692 28.7943L35.5947 28.895L35.5297 28.9421L35.3332 29.2005L35.0961 29.4507H34.9126L34.7745 29.324L34.677 29.1599L34.6201 28.8008L34.2061 28.6237L33.7513 28.5116L32.8255 28.6886L32.0768 28.7845L31.2371 28.6627L30.4478 28.8154L30.1181 28.8381L29.7397 28.8137L29.3726 28.817L29.0234 28.7618L28.3802 28.5424L28.1334 28.5603L27.6152 28.7423L27.0728 28.869L26.5531 28.9568L25.7848 29.3305L25.2294 29.8715L25.0653 30.2534L24.7893 30.6385L24.4076 31.2478L23.9123 31.8312L23.5679 32.0977L23.6637 32.2552L23.5777 32.4437L23.0384 32.5282L22.6178 32.5623L22.5415 32.6566L22.5919 33.8297L22.7396 34.2733L23.0109 34.8079L23.1878 35.102L23.321 35.9697L23.36 36.7058L23.9528 37.1705L24.2874 37.5247L24.5262 37.8367L24.4433 38.0349L24.3004 38.628L24.4384 39.3965L25.2668 41.0539L25.3382 41.1709L25.2391 41.1839L25.1092 40.8654L24.6885 40.3276L24.5587 39.754L24.0649 39.122L23.7888 38.8717L23.6994 39.0813L23.5419 39.3055L23.058 38.9806L22.6421 38.641L22.2605 37.9829L22.2118 38.1356L22.1256 38.2738L21.6904 37.7571L21.2357 37.3443L20.8264 37.1965L20.5747 37.06L20.331 36.8406L19.821 36.6131L18.5509 36.9414L16.9349 36.6862L16.3129 36.93L16.0579 36.7789L15.9003 36.4978L16.0514 36.0168L16.0855 35.0094L16.2788 34.301L16.1878 33.7615L16.282 33.508L16.3535 33.1619L16.0985 33.0206L14.9567 32.746L14.7164 32.5282L14.411 32.7784L13.0402 32.9182L12.5237 33.1278L12.0462 33.5308L11.9228 34.041L12.1989 34.3773L12.3759 34.9607L11.8839 36.2345L11.801 36.6131L11.991 38.1698L11.9147 39.0228L11.6467 39.5948L11.2229 40.1082L11.0474 40.9776L10.7144 41.3805L10.2679 42.3002L9.9657 43.4457L9.75139 43.9754L9.62628 44.9503L8.70537 46.4274L8.48937 47.2609L8.15966 47.5762L8.27505 47.8247L8.29448 48.2407L8.17919 49.3505L8.14182 50.2702L8.28149 50.7625L8.72163 51.739L8.61774 52.0218L8.5657 52.4247L8.93763 52.6067L9.20399 52.6604L10.708 52.1989L11.2163 52.3175L11.4079 52.7481L11.5314 53.1235L11.7864 55.148L11.918 55.5234L12.2217 55.8808L12.5546 56.2611L12.6683 56.1928L12.6894 56.0514L12.7122 55.8922L13.0094 56.2757L13.2416 56.9906L14.0342 60.7684L14.2632 61.2478L14.4532 61.7531L13.9693 61.5077L13.8393 60.6693L13.7013 60.3167L13.5307 60.2647L13.2611 60.2712L13.2432 60.1217L13.4462 59.8487L13.4138 59.5205L13.1361 59.2508L12.6878 59.4653L12.7008 60.0535L12.9005 60.5036L13.6607 61.511L13.8978 61.9319L14.1998 62.0521L14.64 61.9855L15.1662 62.4144L15.5804 62.8125L16.6085 63.4218L17.2305 63.3568L17.9029 63.2057L18.3528 63.2447L18.7946 63.4007L19.3256 63.9093L20.1686 65.1832L21.5458 66.2426L21.3964 66.5059L21.3364 66.9072L20.7938 67.4418L20.7062 67.7505L20.508 68.1421L20.1313 68.3517L19.8064 68.3907L19.6196 68.3533L19.4897 68.2753L19.2688 67.9049L19.1567 67.7927L19.0625 67.7668L18.369 68.0218L17.6983 68.3046L17.5748 68.5581L17.3962 68.8538L17.2013 68.9708L17.047 69L16.8992 68.8261L16.6426 68.6003L16.4444 68.3891L16.4948 68.0479L16.8716 67.5458L16.9203 67.1948L16.8732 66.5904L16.7709 66.2426L16.6621 66.2312L16.4769 66.1744L15.9539 66.2312L15.6924 65.838L15.5901 65.4058L15.4115 65.2515L15.2344 65.1572L14.843 65.3067L14.5425 65.2173L13.547 64.842L13.1653 64.2359L12.9606 64.218L12.7804 64.2847L12.7089 64.4228L12.6033 65.1199L12.5173 65.3327L11.3755 63.9288L10.5894 63.3503L10.6999 62.3023L10.4611 62.0992L10.1623 62.0797L9.93646 61.7888L10.1363 61.1649L9.82772 61.2835L9.40057 61.2608L9.04975 61.0885L8.78497 60.2241L8.61605 59.9609L8.25066 59.5075H7.7683L7.60751 59.2898L7.64647 58.7309L7.29406 58.388L6.83113 58.1085L6.45106 57.9444L6.06297 57.0426L5.75755 56.8216L5.49773 56.6413L5.13551 56.7631L5.01695 57.0881L4.77656 57.4017L4.50217 57.3627L4.25038 57.184L3.94338 56.2821L3.89312 55.7297L3.96132 54.7028L4.34456 53.7815L4.55085 52.3061L4.87728 51.3783L5.10627 51.0631L5.41972 49.7941L6.06128 48.1708L6.13434 47.8231L6.2643 47.4331L6.36175 47.0643L6.39426 46.4826L6.31139 46.1771V46.0049L6.4462 45.7855L6.9026 45.4167L7.53435 44.809L8.28476 43.9543L9.0546 42.6414L9.43625 41.8793L9.59704 41.6096L9.76596 41.5251L10.029 41.2635L10.2094 40.9743L10.2191 40.828L9.80174 39.3998L9.52725 38.9335L9.38917 38.3826L9.31442 37.9845L9.21381 37.6189L9.26248 37.2744L9.1114 37.06L8.7704 36.7886L8.41631 36.3841L8.20516 35.7227V35.3539L7.97944 35.0305L7.90311 34.6925L8.03952 34.3692L8.21656 34.0897L8.19545 32.8613L8.12397 32.4941L8.03624 31.8377L7.80567 31.342L7.47914 30.762L7.10889 30.2827L6.14089 29.415L5.45065 28.8349L5.10954 28.3052L4.67595 27.6959L4.36567 27.2572L3.97431 26.7031L3.77456 25.9475L3.66403 25.1416L3.7242 24.8751L3.91096 24.6996L4.15621 24.5582L4.35437 24.5258L4.91306 24.1553L5.30116 24.1878L5.39216 24.1081L5.42953 23.9391L5.37917 23.2047L5.39702 22.2217L5.46849 21.4206L5.55295 20.8925L6.58261 20.2783L6.79871 20.0118L6.9026 19.7242V19.4708L6.81487 19.2709L6.66062 19.1604L5.99467 19.6901L5.86481 19.5732L5.55949 18.7022L5.42785 18.4357L5.23781 18.1173L5.03321 17.672L5.0007 16.9018L4.85289 16.52L4.02139 15.706L3.64946 15.2673L3.14112 14.6335L2.53207 13.8731L1.91003 13.1695L1.6177 12.7194L1.5153 12.6171L1.4812 12.4432L1.66964 11.959L1.57547 11.4716L1.26688 10.8216L1.13365 10.4186L1.17746 10.2643L1.02807 10.2042L0.682111 10.2383L0.35082 9.93278L0.0308293 9.28934L0 9.17559L0.103987 9.17722L0.505165 9.2877L0.641567 9.27149L0.925772 9.12362L1.35619 8.96762L1.61115 8.91565L1.69561 8.83924L1.7313 8.68329L1.51212 7.19488L1.5494 6.88457L1.95712 6.24108L1.91162 5.59114L2.0156 4.65846L2.47031 4.01992L2.81142 3.72582L2.91858 3.26432L3.07451 3.16683L3.35713 3.20258L3.94021 3.54706L4.18863 3.56333L4.54272 3.55356L4.92278 3.52757L5.09983 3.49504L6.31625 3.15874L6.58429 3.12299L6.84084 3.16524L7.0277 3.14898L7.21446 2.99461L7.34759 2.72327L7.50025 1.85232L7.58798 1.69796L7.7455 1.57449L8.00373 1.49163L8.30588 1.49812L8.70051 1.66548L8.94744 1.67198L9.22679 1.60211L9.46391 1.48186L9.62143 1.32913L9.6929 1.14551L9.62956 0.792897L9.44924 0.350928L9.4996 0.297324L9.83089 0.394812L10.3182 0.503705L10.6901 0.479308L10.9321 0.402944L11.1692 0.19334L11.4681 0L11.7588 0.043835L11.9846 0.2161L12.5222 0.541044ZM23.0254 39.8759L23.0401 39.9864L22.8029 39.9019L22.7201 39.9409L22.4554 39.91L22.3255 39.2682L22.3449 39.117L22.5334 39.1642L22.8029 39.4827L22.941 39.7037L23.0254 39.8759ZM23.8441 41.3204L23.7693 41.803L23.5094 41.6047L23.5712 41.361L23.6735 41.2505L23.8441 41.3204ZM12.3029 50.4489L12.2591 50.5252L12.082 50.379L11.9569 50.2133L11.8903 50.002L12.1632 50.0102L12.298 50.2052L12.3029 50.4489ZM12.2866 50.9575L12.3077 51.2175L12.2087 51.5294L11.7929 51.713L11.65 51.4628L11.6873 51.0777L11.7506 50.9803L12.1584 50.9997L12.2866 50.9575ZM4.25038 53.4126L3.99215 53.4614L4.02625 53.2112L4.09445 53.0535L4.21955 53.0113L4.2715 53.281L4.25038 53.4126ZM4.71322 58.6773L4.66455 59.0136L4.47779 59.0087L4.28776 59.2248L4.19844 59.2541L4.04409 58.5684L4.22114 57.6064L4.317 57.47L4.44854 57.725L4.83019 57.8388L4.66455 58.3929L4.71322 58.6773ZM5.54482 58.531L5.49119 58.6074L5.25893 57.7316L5.60172 57.9672L5.54482 58.531ZM7.76344 60.0941L7.882 60.645L7.71467 60.5329L7.57658 60.2924L7.57827 59.9397L7.61237 59.891L7.76344 60.0941ZM10.427 64.9785L10.3409 65.0061L10.1704 64.6373L10.3864 64.1027L10.6024 64.7575L10.427 64.9785Z" fill="white"/>
</svg>
