<svg width="46" height="88" viewBox="0 0 46 88" fill="none" xmlns="http://www.w3.org/2000/svg">
<path d="M32.5063 83.1966L32.1219 83.4453L32.0008 83.7383L31.9075 83.8528L31.654 83.9282L31.4021 83.9298L30.4435 83.3439L30.2226 83.3701L30.4418 83.1017L31.0373 82.8824L31.3726 82.5927L32.1464 82.8725L32.5063 83.1966ZM18.1303 63.6065L18.3233 63.7489L18.8075 63.7259L18.6472 64.0434L18.114 64.3969L17.7557 64.7456L17.3222 65.0369L17.1128 64.7014L16.869 64.7144L16.4961 64.0696L16.429 63.1041L16.9165 62.852L17.5905 62.8667L18.1303 63.6065ZM8.13026 48.5301L8.77806 48.7314L9.26061 48.7282L9.6892 49.3124L9.91824 50.2322L10.4532 51.1389L11.1533 51.9244L11.1811 52.4039L10.9308 52.6609L10.409 52.98L10.4106 53.3221L10.7558 53.1503L11.0535 53.0717L11.77 53.147L12.0203 53.4939L12.1937 54.0127L12.2853 54.4382L12.2232 54.8998L12.0301 54.7525L11.8338 54.34L11.6163 54.1502L11.3627 54.0471L11.4772 54.615L11.4314 55.3728L11.541 55.4431L11.8813 55.4562L11.6572 56.2287L11.1909 56.4382L10.6495 56.5167L10.5186 56.7901L10.4205 57.1419L10.1375 57.6656L9.76448 57.9619L9.30315 57.9013L8.85165 57.6672L8.45741 57.6198L8.18258 57.7589L8.00426 57.8882L7.83088 57.8653L7.33519 57.9144L6.86897 57.9046L6.80192 57.7L6.88209 57.0846L6.77736 56.9177L6.33245 56.8326L6.1672 56.6853L5.91035 56.2598L5.85968 56.0601L5.82368 55.7852L5.5521 55.43L5.22331 55.1747L5.03026 55.1616L4.64586 55.5773L4.3285 55.9979L4.43973 56.209L4.54277 56.4856L4.37103 56.6853L3.84919 57.1403L3.76737 57.317L3.62668 57.4136L3.37807 57.2876L2.75803 57.317L2.47342 57.2368L2.14133 56.9013L1.33159 56.6771L1.1958 56.1387L1.04039 56.0372L0.12266 55.1125L0 54.8032L0.119415 54.6183L0.461286 54.3384L1.61131 53.8736L1.79287 53.6871L1.83052 53.5217L1.49189 53.3336L1.18761 53.124L1.08457 52.9882L1.07638 52.8688L1.24977 52.7133L1.59658 52.7018L1.8714 52.7722L2.08897 52.6331L2.47177 52.4923L2.72863 52.3156L2.94943 51.859L3.18337 51.4482L3.20793 51.2256L3.41242 50.4417L3.52529 50.2469L4.25162 49.733L4.43483 50.0145L4.79308 50.0832L5.11368 49.8247L5.49814 49.008L5.76477 48.9573L6.05922 49.0244L6.63832 48.9213L7.66563 48.5399L8.13026 48.5301ZM13.9588 46.8608L13.3797 46.8673L13.1704 46.7969L12.92 46.6006L12.6387 45.4877L12.7401 45.0933L12.8546 44.9001L12.9822 44.7496L13.2881 44.6874L13.5924 44.8985L13.7069 45.0949L13.9621 45.8477L14.0096 46.4925L13.9588 46.8608ZM9.26061 42.9428L9.42586 43.9918L9.58781 44.6399L9.59924 44.8609L9.44712 45.1685L8.6897 45.5777L8.45087 45.5793L8.44103 45.4795L8.61117 45.0638L8.46395 44.5908L8.53593 44.2308L8.46559 44.1653L8.31837 44.216L7.77526 44.7872L7.59369 44.8428L7.57402 44.7267L7.70817 44.2586L7.72454 43.9378L7.80472 43.7414L7.95194 43.5598L8.12697 43.4239L8.2693 43.4043L8.41976 43.545L8.85819 43.1523L9.26061 42.9428ZM9.99023 43.892L9.89368 43.9787L9.66139 43.9542L9.57473 43.8216L9.52725 43.6187L9.52236 43.2471L9.66304 42.9804L10.2585 42.5778L9.98859 42.4354L9.97875 42.334L10.1326 41.9985L10.7722 41.4764L10.944 41.3814L11.114 41.3962L10.7836 42.3225L9.99023 43.892ZM10.872 39.5403L9.04305 40.0002L8.41322 39.9593L8.35601 39.7334L8.48197 39.5828L9.00381 39.4372L9.21483 38.3292L8.42635 37.8169L8.38542 37.6745L8.44762 37.4307L8.53923 37.3211L9.01689 37.0624L9.21808 37.0052L9.38168 37.0395L9.71865 37.339L10.0982 37.9659L10.6069 38.0657L10.9521 38.3308L10.872 39.5403ZM7.06202 37.5436L6.80192 37.5895L6.7823 37.4716L7.2354 36.9086L7.52824 36.8153L7.63128 36.871L7.41861 37.1983L7.06202 37.5436ZM3.34697 34.3604L2.94289 34.475L2.79402 34.4079L2.76786 34.3015L2.85947 34.0118L3.16864 33.9087L3.39275 34.0658L3.42874 34.2082L3.34697 34.3604ZM8.57193 34.367L8.43614 34.475L8.2644 34.4537L8.09427 34.3146L7.86852 33.9186L8.37563 33.6436L8.57847 33.8056L8.65535 33.9906L8.65864 34.1952L8.57193 34.367ZM4.11418 33.097L3.91953 33.1445L3.66597 33.0986L3.50892 32.9677L3.35021 32.4489L3.32081 32.1347L3.39115 31.5488L3.37478 30.8466L3.89826 30.8254L4.034 30.9268L4.12402 33.007L4.11418 33.097ZM9.18862 29.791L9.18208 30.1675L9.10031 30.611L9.205 31.0807L9.22956 31.4162L9.42256 31.5226L9.54038 31.6764L10.4008 31.8482L11.2008 31.7991L11.3545 31.9366L11.3725 32.1559L11.2466 32.3965L10.7901 32.8351L10.247 33.5438L10.0851 33.6911L9.91006 33.6976L9.7841 33.6338L9.69414 32.3736L9.1052 32.5356L8.63084 32.5176L8.37069 32.3638L8.18912 32.0675L7.82104 31.3049L6.7512 31.0038L6.44857 30.5815L6.35696 30.3262L6.3946 30.1855L6.61706 29.8713L6.89517 29.9825L7.06691 29.9138L7.1716 29.7731L7.17 29.6568L7.02437 29.3835L7.01783 29.2984L8.11224 28.9515L8.20874 28.4081L8.44597 28.3639L8.7175 28.5423L9.08888 29.1069L9.18862 29.791ZM4.31702 28.269L4.83561 28.7502L4.42335 29.5488L3.79028 29.5456L2.89871 28.9629L2.89547 28.8434L2.9691 28.6683L3.1032 28.5292L3.24228 28.4965L3.46309 28.5914L3.77066 28.4376L4.01603 28.4867L4.31702 28.269ZM8.94001 22.3789L8.35601 23.8993L8.12697 23.9369L7.92578 24.3166L7.30414 24.734L7.84725 24.7421L7.99936 24.8812L8.00266 25.1808L7.89957 25.3542L7.19781 26.0449L6.7152 26.3067L6.19501 27.0268L5.93162 27.035L5.67152 27.4916L5.45885 27.6929H5.33784L5.2004 27.5915L4.87815 27.1447L5.46379 26.7044L5.51776 26.4573L5.91854 26.1987L5.88419 26.1185L5.24782 25.7552L4.99756 25.5113L5.02048 25.3837L5.32635 25.1022L5.18243 25.0662L5.08428 24.914L4.9076 24.8551L4.85359 24.7143L4.82089 24.3412L4.86831 23.9599L5.05318 23.7913L5.12841 23.6112L5.20369 23.5556L5.48995 23.6521L5.78115 23.9582L6.12137 23.8404L6.51566 23.8976L6.5238 23.8272L6.23425 23.0761L6.28662 22.9222L6.44367 22.7471L7.35322 22.2087L8.48686 21.302L8.76168 21.1596L8.84511 21.284L8.95963 21.7537L8.94001 22.3789ZM23.1213 21.0451L23.1606 21.7619L23.1066 21.9795L22.997 22.2479L22.6502 22.7471L21.7374 23.4591L20.0672 25.0891L19.0791 25.8943L18.9433 26.2806L18.8697 26.8174L19.4603 26.9237L19.6893 27.1054L19.5486 27.377L18.6734 28.3214L18.4166 29.1724L19.0873 29.1413L19.6402 28.9776L20.7411 28.4474L21.7766 28.053L22.274 28.0366L23.2408 28.3508L23.4599 28.3607L23.8705 28.215L24.286 28.1888L27.0965 28.287L27.8784 28.102L28.3954 28.323L28.8272 28.8729L29.2378 29.886L29.2248 30.0546L28.9761 30.5144L28.518 31.0905L28.1238 31.8826L28.0093 32.3081L27.9324 32.7746L27.8081 33.205L27.0245 35.218L26.2605 36.3276L25.9203 37.1132L25.4999 37.7368L25.0942 38.1295L24.6623 38.3914L23.4125 38.6696L23.0624 38.8693L22.6453 39.2113L22.2069 39.3815L22.7205 39.3602L23.2293 39.1704L24.1568 39.1017L25.2234 39.7563L25.1237 40.2914L24.695 40.7137L23.7201 40.7808L22.8089 41.7186L22.3983 42.0066L21.9631 42.149L21.42 42.1064L20.4336 41.8561L20.0017 41.5942L20.3911 42.0213L20.8344 42.2439L23.4011 42.7693L23.5565 42.7136L24.3744 42.1605L25.4655 42.1523L27.5415 43.1702L28.1385 43.9476L28.9957 45.0556L29.4619 45.4877L29.7989 45.8788L30.0067 46.4631L30.4091 48.3877L30.8688 50.2567L31.4692 52.2697L31.7424 52.8262L32.1006 53.2157L33.9131 54.1093L34.3172 54.4055L35.0206 55.2631L35.6995 56.1747L36.3309 56.8735L37.0131 57.4381L36.6827 57.7311L36.4569 58.191L36.627 58.8145L36.9035 59.4086L37.4483 60.3578L37.9292 61.3905L37.7525 61.2351L37.566 61.15L37.3108 61.1761L37.0622 61.127L36.6025 60.803L36.1608 60.4053L35.2824 60.5657L34.7949 60.4937L34.3712 60.5051L35.1744 60.7343L36.0529 60.7506L37.9897 62.4805L38.6441 63.5017L39.0334 64.8454L38.7684 65.4476L38.3562 65.8372L37.9717 66.2807L37.6102 66.7831L38.685 67.518L38.9172 67.4967L39.1545 67.3936L39.3835 67.1432L39.7679 66.5327L39.9659 66.3167L40.6349 66.2381L41.196 66.2856L41.7539 66.4214L42.2462 66.3789L43.236 66.6407L43.7447 66.8764L45.006 67.9353L45.2791 68.5147L45.4051 69.2609L45.4198 70.0858L45.2072 70.837L44.9634 71.5145L44.8129 72.3868L44.7066 72.7011L44.5577 72.9465L43.8903 73.6323L43.447 73.9138L43.2605 73.7911L43.0593 73.8074L43.038 73.9727L43.249 74.3213L43.2507 74.7419L42.8564 75.0529L42.4556 75.1854L41.785 75.0201L40.8541 75.5995L41.5232 75.8973L41.659 76.2132L41.4921 76.768L41.0717 77.0152L40.6038 77.1248L40.1262 77.151L39.7303 77.2868L39.3508 77.5487L39.8268 77.4112L40.1572 77.5323L40.365 77.9971L40.5531 78.1313L41.4856 78.3293L42.0614 78.3277L43.1738 78.2148L43.7087 78.2164L43.8985 78.3015L43.9017 78.6861L43.82 79.6288L43.6727 79.8236L42.1988 80.6124L41.8962 81.1623L41.8128 81.4945L40.9506 81.4356L40.5466 81.7875L39.8481 82.0215L39.3082 82.2686L38.7799 82.5812L38.3447 82.6745L36.4684 82.303L35.3347 82.3341L33.7986 82.6582L33.4027 82.6041L32.8106 82.2948L32.202 82.0853L31.5035 81.9937L30.8999 81.7057L31.2761 82.2572L30.4402 82.7891L30.0541 82.8938L29.6533 82.8775L28.8354 83.0215L28.0747 82.9429L28.1893 83.3193L28.3921 83.6483L28.2268 83.7907L28.0535 83.8267L26.6106 83.5795L26.4062 83.6254L26.2278 83.8545L25.7027 83.7318L25.1923 83.3471L24.6509 83.0869L24.0816 82.9642L23.6301 83.0067L21.7701 83.6156L21.3988 84.2244L21.2123 85.0868L20.944 85.8511L20.5056 86.4387L19.9837 86.5156L19.493 86.1081L18.5605 85.6597L18.2432 85.3552L18.1418 85.3373L18.0371 85.4453L17.6706 85.5827L17.2927 85.5893L16.7087 85.7104L15.6929 86.0753L15.2822 86.3225L14.4005 87.005L14.2206 87.1932L13.8999 87.8789L13.4108 88L12.9626 87.5614L12.4522 87.4075L11.914 87.5565L11.5885 87.7905L11.4363 87.6007L11.4314 87.2111L11.824 86.7464L12.8726 86.3945L13.7936 85.4797L14.2451 84.9216L14.4251 84.6057L14.6459 84.4044L14.9338 84.3291L15.0827 83.9805L16.3603 82.5763L16.465 82.2539L16.5288 81.6745L16.6335 81.1165L17.6739 80.7548L18.1712 79.578L18.3086 79.4848L19.7596 79.2687L20.836 79.2868L21.9059 79.5175L22.4539 79.5388L23.0035 79.4586L23.4354 79.1394L24.1732 77.9873L24.5887 77.4783L25.0647 77.0184L25.5097 76.4931L26.2311 75.5177L25.7436 75.8548L25.1547 76.3883L24.8128 76.6977L23.7266 77.0086L23.2587 77.3261L22.4392 78.0413L22.2822 78.1002L21.0454 77.9284L20.126 77.0004L19.5388 76.6207L19.2967 76.5765L19.0448 76.6895L18.5082 76.8056L17.9618 76.786L18.2416 76.3556L18.6211 76.115L17.7704 75.9481L17.5332 75.8171L17.2633 75.5144L16.5959 75.4637L16.2785 75.5406L15.7419 75.9399L14.8945 76.3638L13.8721 75.7762L13.6726 75.5193L13.6775 75.0201L13.5237 74.6241L13.2407 74.4849L13.6022 73.9694L14.0406 73.6257L15.0025 73.2837L16.4601 72.4703L17.278 72.1233L18.0371 71.5243L18.3511 71.1578L18.5785 70.6553L18.8043 70.0399L19.1265 69.5375L18.8141 69.4181L18.6734 69.04L18.711 68.6554L18.855 68.3133L18.7258 67.8846L18.4951 67.4361L18.5082 67.0859L18.5703 66.7111L17.9847 66.7308L17.4007 66.8486L16.8707 67.1137L16.357 67.4738L15.9006 67.5409L15.9072 67.2528L16.1051 66.896L16.622 66.3854L17.175 65.9616L17.3713 65.6391L17.5267 65.2643L17.8015 64.9632L18.5245 64.3937L19.9101 63.7521L20.1163 63.7145L20.6594 63.7898L21.1943 63.6916L21.6621 63.4608L22.1283 63.4117L23.1786 64.0778L22.8661 63.0468L23.3291 62.7996L23.9998 63.7325L24.2485 63.8307L24.7752 63.6949L24.5724 63.5377L24.3351 63.5279L24.0243 63.3871L23.7626 63.0877L23.3274 62.1352L23.352 61.5689L23.6448 60.9797L23.9687 60.4364L23.6972 60.3284L23.4796 60.1205L23.4174 59.5755L23.5025 59.0927L24.0849 58.6672L24.2566 58.0191L24.3286 57.3039L24.2321 56.9749L23.653 57.0273L23.3716 57.1615L23.1197 57.3727L22.8612 57.3596L22.1464 56.5674L21.739 55.9668L21.0078 54.6936L20.9047 53.9292L21.4887 52.2763L22.3917 51.2141L23.455 50.8426L23.2489 50.7723L21.6278 50.7575L21.0928 50.8884L20.5972 51.3238L20.3174 51.458L20.023 51.5071L19.7547 51.7231L19.493 52.0226L19.2198 52.2157L18.6783 52.165L18.4166 52.2288L18.2284 52.0554L18.0698 51.7689L17.8636 51.692L17.633 51.7804L17.1455 52.1666L16.6515 52.3941L16.0544 52.1503L15.2708 51.6953L15.117 51.8622L14.9436 52.2845L14.8438 52.9407L14.2876 52.3696L13.8149 51.6053L13.6546 51.1241L13.6431 50.5808L13.8999 50.3697L14.1797 50.5627L14.5952 49.2715L15.4229 47.5825L15.7158 47.0866L15.9203 46.4369L15.8859 46.0114L15.7043 45.6514L14.9338 44.8331L14.9436 44.1637L15.0254 43.4076L15.2348 42.9526L15.3231 42.8659L16.3455 42.8773L15.9464 42.6416L15.1514 41.9559L15.1661 41.712L15.3526 41.0754L15.2659 41.1392L15.0958 41.4338L14.7702 42.1458L14.5723 42.311L14.0096 42.4796L13.9065 42.8282L13.8165 42.9199L13.5368 42.9591L13.4501 43.2848L13.3879 43.3061L13.3077 42.9559L13.2996 42.3732L13.4108 41.8364L13.6235 41.4158L14.448 40.4584L14.0472 40.7546L13.1376 41.64L12.673 42.221L12.5487 42.4174L12.5111 42.5827L12.5127 42.7726L12.7205 43.7889L12.6599 44.2586L11.8764 47.3436L11.7275 47.6513L11.5918 47.8116L11.4625 47.8493L11.0765 47.7904L10.9047 47.5596L10.9063 47.2994L10.9783 46.9083L11.3038 45.4468L11.4445 45.0392L11.6539 44.6595L12.1152 43.9951L12.1038 43.9509L11.7962 44.0818L11.6653 44.0393L11.5705 43.9067L11.631 41.9248L11.8813 41.2702L11.9745 40.316L12.1905 39.4961L12.4407 38.8971L12.6321 38.1295L12.9184 37.7875L12.9953 37.2638L13.3176 36.6958L13.5662 36.1018L13.4321 36.1607L11.8404 37.7056L11.4347 37.9855L10.8818 37.9102L10.4597 37.7368L10.1293 37.3718L9.98204 36.6697L9.57473 36.6516L9.22627 36.5306L9.22956 36.4356L9.67941 36.0527L10.4008 35.9218L11.0765 35.3064L10.4761 34.8907L10.5268 34.7581L11.0502 34.403L11.7161 33.2099L11.8502 32.1084L11.5328 31.5897L11.4183 31.2492L10.782 30.8696L10.6757 30.3835L10.7493 30.1102L10.957 29.8434L11.2695 29.6372L11.7602 29.4375L11.3153 29.2248L11.1484 28.9727L11.0224 28.6078L11.011 28.3967L11.2416 27.454L11.3758 27.0645L11.6392 26.5669L12.8301 26.5948L12.9675 26.3754L13.1033 26.3673L13.7118 26.5686L13.6219 26.3525L12.6256 25.166L12.5356 24.9402L12.8203 24.2986L12.8399 24.0122L12.799 23.7062L12.8808 23.4721L13.1965 23.3625L14.1584 23.3723L14.3956 23.2643L14.2876 22.9533L14.0635 22.5442L14.0193 22.2005L14.0717 21.8961L14.0831 21.2823L14.1273 21.0107L14.3564 20.6031L14.5445 20.4821L14.7784 20.4117L15.3068 20.5475L15.508 20.7112L15.7403 21.099L15.9104 21.068L16.568 20.6457L16.766 20.5852L17.0359 21.0745L18.1597 20.685L19.6696 20.5115L20.5775 20.2546L21.5329 20.1613L22.4244 19.8684L23.37 20.0026L23.4027 20.1727L23.3536 20.4084L23.1213 21.0451ZM23.9507 19.0533L23.9065 19.0795L23.738 18.9174L23.4632 18.3365L23.8968 18.2203L24.1012 18.2923L24.0243 18.5394L23.9507 19.0533ZM22.8677 18.5885L22.6044 18.7063L22.3443 18.6981L21.9386 18.1859L21.7848 17.8128L21.8126 17.5656L21.9828 17.4822L22.3754 17.6033L22.5782 18.0304L22.6044 18.307L22.6518 18.4151L22.8956 18.5247L22.8677 18.5885ZM23.3618 16.4986L23.2996 16.7179L23.6481 16.713L24.1536 16.8995L24.4595 16.9224L24.7147 17.1548L24.574 17.5886L24.4218 17.7113L24.2501 17.7358L23.6481 17.3021L22.8596 17.4822L22.7025 17.4265L22.5995 17.3071L22.557 17.1581V16.8537L22.5144 16.7637L22.2281 17.0517L22.1038 17.0174L22.0335 16.8799L22.0024 16.5952L22.0335 16.1844L22.202 15.5968L22.485 15.479L22.907 15.5477L23.3912 15.8799L23.5369 16.0845L23.5336 16.2482L23.3618 16.4986ZM25.6962 14.695L25.1776 14.7049L25.4459 14.1746L25.7584 14.0404L26.3489 14.0993L26.2442 14.3383L25.6962 14.695ZM24.8684 15.0944L24.4742 15.317L24.3057 15.1337L24.2615 14.5575L23.792 14.3104L23.563 14.1566L23.3863 13.8653L23.4305 13.7753L23.7364 13.6558L24.2599 14.1844L24.4742 14.6099L24.8619 14.7359L24.911 14.8014L24.8684 15.0944ZM31.3923 2.75767L31.4872 3.41395L31.7243 3.24376L32.0826 3.87219H32.2658L32.5668 3.62344L32.5063 4.2077L32.1939 5.82302L32.1055 6.09635L32.0466 6.58568L31.9845 6.68225L31.8929 7.66912L31.6818 7.99316L31.5051 8.76564L31.4332 8.84093L31.1747 8.5447L31.4332 7.3647L31.5395 6.67733L31.4708 6.32055L31.3252 5.99815L30.9293 5.98832L30.5956 6.13725L30.5252 5.94741L30.5155 5.69209L30.4353 5.60701L29.992 5.62499L29.8611 5.55462L29.7744 5.31895L29.758 5.13076L30.1588 4.98344L30.5351 5.03911L31.0847 4.66432L30.7412 3.40578L30.2848 3.28629L30.1801 3.16355L30.2684 2.94916L30.5187 2.83296L30.9032 2.18977L31.1338 2.0883L31.4201 2.10631L31.3923 2.75767ZM32.6126 2.97862L32.4965 3.08501L32.0482 2.1374L32.3803 1.04907L32.7827 1.08343L32.8465 1.3682L32.8073 1.63171L32.6028 1.65461L32.5848 1.73479L32.6486 2.24051L32.6519 2.82642L32.6126 2.97862ZM33.8428 0.18657V0.294601L33.604 1.08671L33.6072 1.38947L33.2228 1.36003L33.1623 1.26346L33.0903 0.810109L33.1394 0.327315L33.1934 0.201304L33.3046 0.150559L33.4256 0.245505L33.6171 0L33.7168 0.00491959L33.8428 0.18657Z" fill="white"/>
</svg>
