<svg width="94" height="94" viewBox="0 0 94 94" fill="none" xmlns="http://www.w3.org/2000/svg">
<path d="M78.5641 0.881077L78.6598 1.18289L78.676 1.46524L78.2446 1.72809L77.9608 1.8806L77.6202 2.60594L76.9893 3.09756L76.8839 3.24686L76.8887 3.38155L77.3169 3.60383L77.4596 3.81478L77.5261 4.09708L77.3347 5.10636L77.2147 5.87875L77.0574 6.88961L77.0639 7.27417L77.2261 7.73499L77.3866 8.0936L77.4369 8.49925L77.3802 9.49714L77.5764 10.0732L77.7337 10.6038L77.3591 11.2642L77.1985 11.8467L77.0979 12.6791L77.0574 13.2032L76.8157 13.6867L76.5011 14.1395L76.1459 14.4218L75.708 14.6652L75.2036 14.9848L74.7949 15.8399L73.9109 16.5507L73.726 16.794L73.6433 17.362L73.6644 18.1489L73.8201 18.7736L74.2434 19.6953L74.6148 20.7078L74.7154 21.2157L74.8581 21.4087L75.3804 21.7398L76.2838 22.1876L76.4508 22.371L76.8985 23.0654L77.3234 24.3084L77.4564 25.1294L78.2835 25.7817L79.0474 26.382L79.7805 26.9094L80.5769 27.4806L80.692 27.6558L80.9564 28.8646L81.2207 30.0621L81.5095 31.3781L81.8014 32.6956L82.1452 34.242L82.3398 35.1166L82.5751 36.1761L82.8524 37.4158L82.4064 37.6787L81.9036 38.0146L82.2701 38.6506L82.9773 39.6842L83.4038 40.5166L83.5531 40.8784L83.8855 41.9088L84.1564 42.9051L84.2261 43.228L84.325 43.9939L84.2034 46.0968L84.398 48.7562L84.6608 50.077L84.2472 51.2664L83.8936 52.4006L83.9163 52.9702L84.111 53.8578L84.3024 54.5133L84.5618 54.8573L84.5116 55.959L84.4029 56.3582L83.6082 56.9342L82.7275 57.4615L82.4842 57.9078L82.4145 58.4043L82.5313 58.8083L83.1362 59.7007L84.0461 61.0362L85.0468 62.503L85.1295 62.8713L85.17 63.9098L85.5869 65.2128L86.0378 65.7807L86.2064 66.2042L86.5259 66.5076L86.8438 66.7299L87.0417 66.7558L88.1657 66.4021L90.0876 66.9863L91.9057 67.5802L92.0387 67.697L92.4361 68.4483L93.0865 69.6733L93.5682 70.6517L93.9996 71.5263L91.643 73.0321L89.2848 74.5347L86.9282 76.034L84.5716 77.5284L82.215 79.0212L79.8567 80.5108L77.5002 81.997L75.1436 83.4785L73.5801 84.4602L72.5859 85.3267L71.3386 86.409L70.1611 87.4831L69.235 88.3285L68.0349 89.4189L67.4299 89.969L66.0918 91.1843L65.6896 91.4001L63.9169 91.7587L62.2901 92.0865L60.7883 92.3899L59.7616 92.5976L58.7674 92.7972L57.3223 93.0795L56.2908 93.2823L55.1782 93.4998L55.0046 93.5371L54.8035 93.5452L54.6527 93.5371L54.3445 93.417L53.9731 93.133L53.7249 92.987L53.6633 92.7631L53.8077 92.4646L53.9877 92.1968L54.0558 91.9859L54.1791 91.8252L54.338 91.6954L54.3445 91.5121L54.2132 91.2102L54.098 90.7933L54.1028 90.0355L54.1061 89.7823V89.6915L53.7736 89.4011L53.1459 89.0798L52.5686 88.8916L52.3058 88.8266L51.6684 88.713L50.7877 88.5102L50.4779 88.3707L49.9071 87.6648L49.6265 87.4847L48.3046 87.3647L47.8651 87.2479L47.505 87.0807L47.1969 86.8535L47.0233 86.4657L46.9714 86.1493L46.8563 85.9984L45.3982 85.2326L45.0268 84.9729L44.8305 84.7311L44.8241 84.3726L44.863 83.9329L44.8013 83.5418L44.7397 83.3503L44.0731 82.8862L42.5826 81.8445L41.0921 80.8028L39.6016 79.7595L38.1111 78.7145L36.6206 77.6679L35.13 76.6197L33.6396 75.5699L32.149 74.5185L30.6585 73.4637L29.1664 72.4107L27.6775 71.3527L26.187 70.2948L24.6965 69.2352L23.2043 68.1724L21.7138 67.108L20.2233 66.0419L18.9631 65.1414L17.5732 64.1873L16.54 63.4879L15.515 62.7902L14.4121 62.0422L13.6952 61.5781L12.8405 61.0232L11.9841 60.4666L11.1278 59.9101L10.2714 59.3535L9.41508 58.7969L8.5587 58.2388L7.70395 57.6806L6.84762 57.1208L5.99124 56.561L5.13655 56.0012L4.28017 55.4414L3.42384 54.88L2.56746 54.3186L1.71113 53.7555L0.854746 53.1925L0 52.6294V51.5877V50.7391V49.4897V48.4025V47.3154V46.5657V45.7836L0.0227187 45.4299L0.10706 45.279L0.569303 45.0243L1.29269 44.4434L1.56026 44.1854L1.90248 43.9241L3.11404 43.1371L3.36543 42.9165L4.54294 42.0094L4.81863 41.8764L5.45119 41.7871L5.71555 41.6168L6.07073 41.2533L6.59297 40.8379L6.93196 40.64L7.01304 40.6043L7.23037 40.575L8.31869 40.6983L8.77604 40.7908L9.32262 40.8687L9.49294 40.8152L9.6389 40.6854L9.84485 40.3949L9.88866 40.0493L9.90162 39.7475L9.93404 39.6161L10.0298 39.5561L10.2682 39.5787L10.5861 39.6193L11.2364 39.6063L11.457 39.5641L12.195 39.4993L13.2379 39.3029L14.065 39.0465L14.7235 38.8437L15.429 38.3099L15.9464 37.7468L16.4833 36.9063L16.9098 36.1761L17.7743 35.7202L18.496 35.4427L18.9096 35.334L19.847 34.9478L20.6401 34.3637L21.3846 33.8152L21.9538 33.7422L22.674 33.6514L22.8345 33.5491L23.0162 33.3544L23.0259 33.0104L22.8086 32.7687L22.5458 32.6421L22.3593 32.5025L22.1745 32.4766L22.0755 32.3111L22.1306 32.006L22.1582 31.7237L22.2766 31.4414L22.2442 31.0422L22.0593 30.643L22.0025 30.3558L22.0155 30.0703L22.1063 29.848L22.3723 29.7003L22.6821 29.6435L23.1168 29.7149L23.8677 29.6191L25.7896 28.9279L25.9226 28.7154L26.0459 28.2367L26.1837 27.8164L26.3832 27.6753L26.4919 27.6445L27.1325 27.5309L28.0392 27.3719L28.3798 27.3491L29.3691 27.3945L30.0892 27.4286L31.2537 27.4838L32.0809 27.5114L32.801 27.5357L33.719 27.5682L33.9444 27.4708V27.1641L33.779 26.593L33.8796 26.236L34.2332 25.905L34.6743 25.535L34.4683 25.084L34.1164 24.7822L33.625 24.4187L33.3703 24.271L32.9243 23.8313L32.6518 23.3299L32.4669 22.272L32.1279 21.6781L31.8814 20.9447L32.1004 19.5963L31.7728 18.7801L31.7225 18.4264L31.7192 18.0094L31.8198 17.2873L31.7549 16.2699L31.3689 15.2185L31.5505 14.8599L31.6349 14.6733L31.6073 14.5126L31.2554 14.1784L31.1062 13.9009L31.184 13.6413L31.3673 13.2632L31.3511 13.1042L30.7818 12.6434L29.8216 11.8954L29.5524 11.5676L29.421 11.1571L30.3406 11.2626L30.8158 11.2123L31.9058 10.719L32.7718 10.0521L33.4449 9.71294L34.0369 8.98116L34.5737 8.51871L35.349 8.01897L37.5856 6.93992L37.9278 6.9318L38.6641 7.17682L39.3048 7.10056L39.7427 6.72249L40.2147 5.81056L40.9461 5.25403L41.869 4.69586L43.1243 4.162L43.9466 3.67034L45.2474 3.24359L48.5122 2.97263L50.1892 2.73088L51.3294 2.78604L52.481 2.00395L53.0567 1.74596L55.5496 1.6859L56.7254 1.11312H61.1824L61.7273 1.30461L62.2625 1.61291L63.1741 2.35444L63.6282 2.51666L64.2169 2.36251L65.5858 1.65995L67.1298 1.29322L67.97 0.87459L68.3268 0.262892L69.0501 0.0373367L69.4572 0.507908L71.058 0.981698L72.0409 0.845374L72.4723 0.702613L72.3166 0L73.3562 0.186634L74.1542 0.525734L74.9895 1.20398L75.5312 1.33867L76.5173 1.03359L78.5641 0.881077Z" fill="white"/>
</svg>
