<svg width="133" height="142" viewBox="0 0 133 142" fill="none" xmlns="http://www.w3.org/2000/svg">
<path d="M117.256 141.327L116.977 141.702L116.431 140.552L116.197 140.482L116.189 139.934L116.316 139.718L116.948 139.476L117.113 139.611L117.435 140.677L117.256 141.327ZM116.543 138.927L116.11 139.359L115.921 139.099L115.999 138.919L116.183 138.819L116.355 138.68L116.543 138.927ZM115.216 136.544L114.862 136.549L114.758 136.353L114.609 136.15L114.722 135.953L114.909 135.902L115.174 136.221L115.236 136.447L115.216 136.544ZM115.647 135.727L115.432 135.896L115.379 135.873L115.348 135.743L115.34 135.652L115.301 135.488L115.28 135.199L115.45 134.957L115.621 135.007L115.528 135.254L115.647 135.727ZM22.3357 134.754L22.2707 134.81L22.2041 134.832L22.1586 134.825L22.1342 134.768L22.1472 134.726L22.2057 134.775L22.2837 134.729L22.3714 134.585L22.3925 134.537L22.4104 134.564L22.3925 134.646L22.3357 134.754ZM113.841 134.843L113.977 135.014L113.725 134.984L113.491 134.726L113.553 134.484L113.641 134.385L113.841 134.843ZM112.229 130.777L112.029 130.803L111.906 130.647L111.891 130.465L112.005 130.347L112.112 130.285L112.219 130.301L112.327 130.608L112.229 130.777ZM110.933 124.256L110.795 124.414L110.326 124.29L110.36 123.816L110.249 123.351L110.33 123.156L110.683 122.823L110.969 122.676L111.167 123.127L111.259 123.567L110.933 124.256ZM21.0264 121.268L20.9923 121.297L20.9892 121.212L21.0314 121.077L21.0801 120.988L21.0948 120.998L21.0818 121.086L21.0574 121.204L21.0264 121.268ZM111.8 120.44L111.578 120.533L111.355 120.418L111.529 120.231L111.558 119.851L111.786 120.062L111.773 120.302L111.8 120.44ZM113.278 117.406L113.482 118.043L113.114 117.766L112.996 117.566L113.179 117.431L113.278 117.406ZM111.911 113.565L111.766 113.867L111.737 113.22L111.805 113.139L111.878 113.116L111.971 113.177L111.911 113.565ZM111.935 119.725L111.834 119.834L111.687 119.712L111.263 118.882L111.19 118.349L111.073 118.164L111.222 117.899L111.409 117.811L111.519 117.512L111.558 117.057L111.722 116.685L111.805 116.581L112.146 116.578L112.232 116.531L112.185 116.175L111.987 116.02L111.917 115.921L111.925 115.068L111.977 114.724L112.101 114.475L112.013 113.961L112.072 113.77L112.317 113.5L112.426 112.925L112.325 112.752L112.559 111.865L112.546 111.27L112.851 110.676L113.329 110.404L113.48 110.398L113.499 110.906L113.545 111.074L113.269 111.374L113.532 111.766L113.498 111.907L113.392 112.218L113.218 112.523L112.976 112.648L112.788 113.055L112.681 113.207L113.04 113.635L113.155 115.084L112.892 115.481L112.578 115.56L112.652 116.526L112.595 116.742L112.284 117.215L112.226 117.421L112.052 117.616L112.125 117.858L112.276 117.964L112.28 118.162L112.14 118.671L112.128 119.251L111.935 119.725ZM48.1003 19.6969L48.0889 19.679L47.8209 19.2809L48.1003 19.6969L47.9509 20.1357L47.9817 20.4834L48.2578 20.867L48.482 21.1351L48.2627 21.4958L48.1328 21.9134L48.2789 22.1004L48.2107 22.7L48.2757 22.8121L48.43 22.8592L48.6704 22.8186L48.8539 23.1111L48.6883 22.8479L48.6687 22.8186L48.919 22.6594L49.1317 22.6285L49.2584 22.674L49.4274 22.2206L49.5768 22.1556L49.8659 22.2807L50.4377 23.1355L50.9217 23.857L51.024 23.9561L51.0614 23.9935L51.1474 24.0763L51.625 24.4501L51.9547 24.6857L52.4047 24.6013L52.9992 24.585L53.3516 24.8158L53.5546 24.9766L53.5644 24.9994L53.592 25.0043L54.3067 25.5698L54.6153 25.5275L54.82 25.69L54.8784 26.0881L54.7827 26.5025L54.8054 26.6975L55.1237 26.7349L55.8011 27.0079L56.3988 27.25L56.709 27.3264L57.0421 27.5052L57.3377 27.7912L57.9143 28.1584L58.4244 28.4396L58.5364 28.8198L58.335 28.7386L58.0686 28.7808L57.7973 28.9498L57.669 29.0571L57.0502 29.712L56.7253 29.9135L56.4345 30.2076L55.7638 31.0932L55.3755 31.9188L55.0929 32.6939L55.0977 33.2415L54.9938 33.8834L54.7046 34.249L54.5276 34.3726L54.3181 34.9234L54.167 35.5653L54.2548 35.7733L54.6153 36.0528L54.9662 36.3258L55.4129 36.6215L55.8417 36.9027L56.1178 36.9384L56.1941 36.7792L56.2948 36.6265L56.61 36.7077L56.9933 36.9823L57.2435 37.2017L57.3539 37.2748L58.0166 37.6437L58.5656 37.9476L59.2608 38.3327L59.4297 38.5683L59.5792 38.8186L59.9073 39.1501L60.7049 39.7368L61.387 40.1576L61.9425 40.4989L62.3778 40.7378L62.5793 40.7004L62.8002 40.572L62.9935 40.4989L63.2192 40.5671L63.5604 40.7491L64.3611 41.3049L65.1083 41.7388L65.9221 41.6608L66.1381 41.7306L66.2908 42.1239L66.3932 42.522L67.3028 42.7853L67.9005 42.9039L68.5843 43.1201L68.9302 43.2809L69.2941 43.0794L69.3607 42.9023L69.6482 42.7983L70.1258 42.8438L71.0158 43.1525L71.3878 43.2452L71.6997 42.9527L72.2796 42.8178L72.5833 42.6651L73.2168 42.99L74.3603 43.3963L74.95 43.6498L75.0897 43.8985L75.153 44.1341L75.1481 44.7061L75.2927 44.9644L76.4394 45.5446L76.8179 45.7899L77.1232 45.8696L77.2954 45.8794L77.414 45.9525L77.5163 46.2823L77.5975 46.3587L77.8185 46.44L78.0588 46.4871L78.8044 46.2011L79.3144 45.985L79.6782 46.0402L79.9138 46.2807L79.9479 46.6317L80.0843 47.0022L80.3442 47.1826L80.6236 47.2021L81.3155 46.9519L81.8727 47.1436L82.3827 47.2135L82.9512 47.3337L83.1721 47.4247L83.7601 47.7302L84.4796 48.039L84.7574 48.0049L85.9156 47.4296L86.0146 47.4995L86.2502 48.0487L86.6026 48.2454L87.1533 48.4176L87.7282 48.1008L88.1815 48.1918L88.7304 48.221L89.2568 48.0682L89.7132 48.0293L90.3775 48.3055L90.5237 48.2421L90.6504 48.065L90.9086 47.272L91.1376 46.57L91.1165 46.1507L90.907 45.5348L90.3694 44.7321L90.3304 44.4883L90.5107 43.0859L90.7104 42.275L90.8811 41.8915L91.0694 41.3439L91.1035 41.0904L91.0841 40.8613L90.9005 40.7215L90.8518 40.5476L90.8973 40.4014L91.0434 40.3201L91.6542 40.2177L92.3429 39.9984L92.6174 39.8814L92.8237 39.7644L93.0349 39.5791L93.2314 39.5872L93.8486 39.8554L94.0646 40.0244L94.1783 40.5363L94.2709 40.7345L94.1897 41.2545L93.8193 42.5123L93.8925 42.9819L94.1994 43.3248L94.4675 43.5637L94.4236 43.6596L93.8714 44.0642L93.7723 44.2803L93.8941 44.4916L94.1134 44.6703L94.2124 44.8409L94.3148 45.3707L94.5958 45.5202L95.1513 45.8615L95.6402 46.1101L96.4799 45.9443L96.7172 46.0564L97.1297 46.1735L97.4513 46.2092L97.6381 46.297L97.7421 46.3815L97.7274 46.4887L97.7454 46.5992L98.205 46.6285L98.447 46.6919L99.2641 46.5781L100.084 46.4221L100.461 45.9492L100.628 45.9151L101.1 45.7315L101.564 45.933L102.074 46.2076L102.35 46.2905L102.894 46.3344L103.424 46.3035L104.691 46.1718L105.388 46.2401L106.028 45.8468L106.159 45.8485L106.44 46.1524L107.143 46.18L107.517 46.0337L107.92 45.9216L108.177 45.8859L108.383 45.8826L108.631 45.9118L108.867 45.8111L108.974 45.6079L108.95 45.3008L108.781 44.9661L108.633 44.7694L108.604 44.6654L108.649 44.4233L108.779 44.082L109.018 43.6921L108.843 43.3134L108.597 42.8795L108.417 42.8373L107.962 42.9381L107.47 42.9185L107.082 42.6569L106.793 42.3287L106.723 42.054L106.807 41.7177L106.936 41.4089L106.963 41.2935H107.332L107.842 41.3618L108.229 41.4479L108.539 41.4447L109.102 41.0481L109.359 41.0238L109.655 40.949L109.783 40.8742L109.872 40.9328L110.196 40.9815L110.532 40.962L110.832 40.8531L111.134 40.6825L111.67 40.325L111.776 40.1203V39.9318L111.675 39.8066L111.573 39.7465L111.614 39.5824L111.839 39.3061L112.66 38.8901L113.358 38.3766L113.741 37.9915L113.917 37.5251L114.139 37.0181L114.347 36.8182L114.843 36.6914L116.23 36.5046L116.667 36.2998L117.312 35.9196L117.636 35.6205L117.817 35.3784L117.836 35.1086L118.265 35.0241L118.639 34.587L119.092 34.1467L119.889 33.7745L120.596 33.274L120.841 33.3536L121.098 33.5909L121.234 33.8525L121.264 33.9858L122.167 34.1515L122.31 34.1255L122.974 34.3595L123.586 34.6423L123.924 34.7122L124.09 34.704L124.231 34.6163L124.397 34.3676L124.566 34.1873L124.671 34.1141L124.666 33.8281L125.553 33.2691L126.349 32.8677L127.035 32.5752L127.236 32.6955L127.459 32.9181L127.762 33.4853L127.946 33.6234L128.41 33.5438L128.496 33.6072L128.423 33.8103L128.108 34.0622L127.699 34.2881L127.433 34.4733L127.52 35.0892L127.499 35.3004L127.615 35.3671L128.456 34.7561L128.86 34.6358L129.005 34.7837L129.049 35.1103L129.382 35.783L129.523 36.1243L128.677 36.9368L128.367 37.3561L128.378 37.5039L128.362 37.6502L128.146 37.8582L128.157 37.9411L128.331 38.0727L128.544 38.1718L128.646 38.1686L128.821 37.972L129.619 37.6941L129.848 37.7461L130.41 38.1718L130.67 38.1962L131.344 38.323L131.776 38.1621L132.093 38.3099L132.751 38.843L132.902 38.9405L132.846 39.2638L132.812 39.6197L132.98 39.9025L132.999 40.1527L132.962 40.3819L132.83 40.5395L132.465 40.6273L132.154 40.9003L131.661 41.2951L131.264 41.6104L130.977 41.8899L130.873 42.1824L130.905 42.5513L130.988 42.9364L131.908 44.347L131.899 44.5907L131.609 44.6589L131.222 44.4997L130.889 44.2722L130.514 43.6677L130.212 43.4873L129.911 43.4483L128.125 43.7587L127.746 43.8464L127.157 44.0723L126.744 44.5257L126.443 44.9401L126.135 45.1075L125.683 45.4292L124.431 46.4172L123.708 46.843L123.235 46.999L122.904 47.2232L122.725 47.5872L122.591 47.8489L122.552 48.4908L122.634 49.2805L122.813 49.7843L122.909 49.8899L122.924 50.0378L122.743 50.3091L122.506 50.5415L122.391 50.6846L122.285 51.4028L122.076 51.7554L121.689 52.2738L121.346 52.6655L120.809 52.9694L120.604 53.2147L120.408 53.6681L120.292 54.0516L120.286 54.1897L120.347 54.3116L120.572 54.4465L120.843 54.5765L120.973 54.7796L120.991 55.025L120.789 55.6149L120.427 56.4323L120.013 57.079L119.586 57.6949L119.483 57.8964L119.1 58.652L118.765 59.6904L118.54 60.3875L118.345 60.8653L118.104 60.8864L117.814 60.7337L117.104 60.5306L116.651 60.3664L116.321 60.2186L116.092 60.2251L115.777 60.3209L115.457 60.3875L115.267 60.3161L114.826 59.8854L114.692 59.9342L114.605 60.1438L114.903 61.3723L115.096 61.829L115.064 62.5911L114.987 63.5255L114.874 64.5444L114.797 64.78L114.609 65.0498L114.36 65.1229L114.134 65.0172L113.954 65.0416L113.894 65.2123L113.946 65.6527L113.725 66.1564L113.563 66.587L113.605 67.0047L113.683 67.4288L113.941 68.3453L113.943 68.6801L113.892 68.9807L113.758 69.1058L113.525 69.0847L113.399 69.2082L113.303 69.3967L113.041 70.0906L112.791 70.1637L112.539 70.0597L112.163 69.5966L111.932 69.4617L111.786 69.4698L111.721 69.5917L111.618 69.868L111.516 70.0532L111.264 70.2157L111.203 69.8745L111.068 68.0999L110.965 67.5344L110.883 66.7495L110.761 66.509L110.605 66.0784L110.433 65.7063L110.288 65.5487L110.196 64.8548L110.161 64.0049L110.163 63.6019L109.96 62.7683L109.762 61.8225L109.494 61.8615L109.335 61.6324L109.219 61.6372L108.843 61.8501L108.542 61.7802L108.319 61.8094L108.318 62.245L108.355 62.7081L108.271 62.8755L107.683 63.4183L107.519 63.7823L107.535 64.1641L107.608 64.6744L107.504 64.9344L107.249 65.1733L106.906 65.2984L106.604 65.2399L106.411 65.0319L106.231 64.5021L106.07 64.2129L105.901 64.1446L105.769 64.2226L105.751 64.5557L105.761 64.8304L105.719 64.8613L105.625 64.819L105.518 64.6841L105.237 63.3549L104.835 62.3295L104.811 61.9362L104.957 61.4292L105.137 60.6476L105.613 60.1601L105.675 59.9537L105.753 59.7896L105.868 59.757L106.479 59.8026L106.684 59.7246L106.864 59.4938L107.127 59.3085L107.39 59.2338L107.6 59.2062L107.936 59.3817L108.076 59.2809L108.178 58.9559L108.324 58.6342L108.419 58.4782L108.644 58.4083L108.932 58.392L109.028 58.3319L109.106 58.223L109.177 57.7956L109.544 56.8385L109.674 56.4128L109.694 56.338L109.682 55.8635L109.786 55.7952L110.395 56.0276L110.662 56.0244L110.806 55.9285L110.853 55.7546L110.775 55.5515L110.342 55.1956L109.572 54.7162L108.865 54.4221L107.559 54.466L106.266 54.5586L105.888 54.5115L105.415 54.3782L104.254 54.3977L102.85 54.4708L102.316 54.4302L102.053 54.4351L101.525 54.479L100.664 54.3425L100.068 54.167L99.5402 53.9736L98.9132 53.7997L98.7621 53.8014L98.6744 53.738L98.6143 53.5836L98.5932 53.3837L98.7232 52.4575L98.6078 51.0502L98.7134 50.5367L98.2001 49.3796L98.0247 49.1652L97.7876 49.1554L97.6365 49.3049L97.5764 49.5763L97.6625 49.8802L97.474 50.2181L97.0956 50.327L96.6538 50.2133L96.2867 50.054L95.814 49.7095L95.4583 49.2236L95.4275 48.6858L95.2667 48.3396L95.0474 48.1706L94.8866 48.1235L94.742 48.1609L94.6153 48.3494L94.7258 48.5362L94.8768 48.7995L94.8265 48.9782L94.6917 49.0059L94.4902 48.9295L94.1783 48.9701L93.8763 48.8336L93.6959 48.8223L93.5173 48.7719L93.5059 48.4615L93.2314 48.0682L92.7669 47.6279L92.3104 47.3549L92.0911 47.3923L91.9807 47.6929L92.0067 47.805L92.1675 47.8602L92.3981 48.0341L92.4469 48.2161L92.4128 48.3754L92.1285 48.6663L91.9271 48.9425L91.4772 49.3439L91.0938 49.8038L90.9931 50.1515L90.8485 50.4635L90.7917 50.8064L90.8924 51.0437L91.0776 51.1932L91.5584 51.3021L92.0619 51.7636L92.468 52.386L92.697 52.5745L93.1128 52.7841L93.9136 52.8084L94.0322 52.9791L94.1459 53.4357L94.3034 53.5966L94.7111 53.8111L94.7452 53.9687L94.6462 54.1507L94.4658 54.2937L94.1329 54.3847L93.8162 54.4205L93.4977 54.362L93.0251 54.3262L92.4891 54.323L92.109 55.4589L91.8378 55.857H91.6834L91.2693 55.6636L91.0922 55.6945L90.6147 56.702L90.548 56.9441L90.5155 57.1261L90.7689 57.5145L91.0727 57.8347L91.4349 57.9598L91.7192 57.8639L91.9498 57.9923L92.2194 58.314L92.6824 58.5269L93.3369 58.6293L93.7089 58.8828L93.7544 59.1022L93.7219 59.3248L93.6635 59.9033L93.6001 60.2364L93.2476 61.1107L92.9959 61.8631L93.1258 62.2206L93.22 62.3669L93.3094 62.479L93.592 62.7601L93.7885 63.038L93.6196 63.7481L93.7122 63.935L94.0907 64.0601L94.4984 64.156L94.6413 64.273L94.2872 64.9929L94.3619 65.4934L94.5113 65.963L94.6185 66.73L94.6348 66.8113L94.6055 67.0031L94.8378 67.5978L95.1968 68.7565L95.2244 69.1887L95.2033 69.6454L95.0977 70.4075L94.7388 70.4042L95.0587 70.9129L95.1611 71.2785L95.2049 71.7888L94.82 71.8521L94.547 71.7953L94.3197 71.3484L94.2141 71.7546L93.808 72.13L93.6618 71.9464L93.5773 71.7497L93.5611 71.402L93.7852 70.0743L93.7398 69.9249L93.6391 69.8257L93.4165 69.7721L93.3338 69.5023L92.9942 70.9194L93.1437 71.4979L93.0755 71.7611L92.442 71.9821L91.8004 71.4507L91.7192 71.2801L91.6818 71.5791L91.5665 71.9431L90.9655 71.8765L90.6682 71.5921L90.8615 71.1079L91.2335 69.9378L91.3034 69.4162L90.8047 69.0327L90.3824 68.7971L90.1404 68.2641L90.233 68.8491L90.4587 69.0571L90.7869 69.2033L91.1345 69.5023L90.8843 69.8663L90.6406 70.0922L90.1745 70.9502L89.6059 71.4296L88.9433 71.7903L86.7667 72.3201L86.3102 72.5346L85.6426 73.1944L85.2106 73.82L85.131 74.4538L85.3747 75.1379L85.5728 76.2072L85.7385 76.425L85.5062 76.8149L85.1018 77.2293L84.7671 77.7867L84.7981 78.0922L84.7119 78.2986L83.5652 78.9828L83.3248 79.3825L83.0097 79.779L82.6329 79.5515L82.412 79.5547L82.7157 79.87L82.6767 80.078L82.5695 80.1999L82.2804 80.3137L80.6236 80.8158L79.3566 81.2919L79.0009 81.2724L79.0659 81.1278L79.2884 80.9994L79.2657 80.4534L79.0334 80.3526L78.832 80.3137L77.8671 80.9799L77.4773 81.6381L77.5585 81.7632L77.7778 81.7323L78.4259 81.3601L78.7281 81.4658L78.7492 81.612L77.7648 82.1808L75.6938 84.0203L75.5964 84.3827L75.3268 84.7922L74.9548 85.1773L74.2872 86.1085L73.0072 87.4914L72.6515 88.0065L70.6017 89.0693L70.2281 89.3845L69.3867 90.418L68.5226 91.263L67.5139 91.9634L65.7645 92.8556L64.7006 93.699L64.3677 94.2596L64.3465 94.4595L64.4602 94.7308L64.6552 94.9844L64.699 95.1858L64.6031 95.5466L64.5512 95.7465L64.2393 96.2405L63.7049 96.5931L61.975 97.3293L61.746 97.3065L60.3345 97.1603L59.8066 97.2935L59.5889 97.638L59.1033 99.0632L58.6387 99.4418L58.4714 99.7847L58.4048 100.022L58.1254 100.015L57.885 99.9098L57.7097 99.9862L57.5082 99.5084L57.1703 99.4109L56.891 99.3768L55.6987 99.8578L55.2813 100.245L54.4042 102.066L54.1865 103.24L54.3929 104.533L54.6982 105.565L54.7583 106.031L54.7209 106.636L54.565 106.93L54.4545 107.278L54.6007 107.994L54.9694 108.932L55.0588 109.328L55.0669 109.736L55.3447 110.672L55.1578 110.503L55.0101 110.108L54.6592 109.605L54.2288 110.107L54.4659 110.468L55.2684 110.897L55.5055 111.248L54.989 114.369L54.5975 115.476L54.1166 116.201L53.8617 116.48L53.2915 117.631L52.8953 119.014L52.8156 119.545L52.9943 120.14L52.7913 120.491L52.5379 120.759L53.0203 120.639L53.1859 120.96L53.2477 121.294L53.2541 123.27L53.2006 125.327L52.8286 125.411L52.4209 125.432L52.0603 125.374L51.802 125.294L51.1588 125.403L50.8128 125.631L50.5351 126.008L50.5546 126.651L49.3623 128.27L49.1058 128.809L49.0115 129.328L49.1658 129.599L49.4712 129.877L49.8691 129.989L50.6375 130.101L51.0062 130.249L51.2563 130.524L50.3515 130.231L49.2877 130.173L46.744 130.923L46.0748 131.45L45.7012 131.907L45.4445 132.95L45.4007 133.647L45.0985 134.227L43.778 135.118L42.9432 135.392L42.6264 135.629L41.6421 135.322L40.5684 134.542L40.1169 134.123L38.5234 132.108L38.2327 131.853L37.9111 130.99L37.8607 130.668L37.7714 130.54L37.6203 130.452L37.5472 130.319L37.1882 129.331L37.0421 128.301L36.8131 127.148L37.0047 127.228L37.2711 127.607L37.4043 128.158L37.4205 128.928L37.6203 129.017L37.799 128.944L37.2874 127.17L36.8422 126.729L36.7253 126.7L36.6002 126.416L36.5872 126.058L36.6262 125.889L36.2705 125.307L36.1455 124.961L35.356 123.201L35.0003 121.939L34.4497 120.533L34.094 120.041L33.5401 118.955L33.0755 118.45L32.5834 117.772L32.1968 117.471L32.0458 117.314L30.9006 114.962L30.5481 113.661L30.2493 113.047L30.1015 112.579L29.7002 110.578L29.697 110.221L29.6483 109.829L29.3624 108.981L28.8605 108.063L28.7159 107.491L28.7176 107.268L28.3991 106.374L28.3309 105.966L28.1166 105.589L27.8665 105.243L27.6065 104.965L26.9941 104.059L26.7748 103.837L26.3575 103.249L26.0602 102.162L25.6801 101.736H26.2779L25.9124 101.333L25.7402 101.07L25.5486 100.908L25.8263 100.501L25.3715 100.513L25.1311 100.269L24.8014 99.5052L24.202 98.6407L24.0997 98.1792L23.5702 96.7248L23.1219 93.2261L22.7109 91.6644L22.7433 91.2159L22.2464 89.8607L22.0044 88.9507L21.9052 88.1788L21.7737 87.6717L21.6551 86.6642L21.465 86.3457L21.4439 86.154L21.5706 85.6941L21.9263 84.984L22.0579 84.5338L21.9036 83.9001L21.5803 84.5664L21.2783 84.7532L21.1337 84.256L21.132 83.5864L21.0948 83.4255L21.1743 83.2013L21.9734 83.3037L21.0638 82.8925L20.9567 82.6521L20.9225 82.4717L21.1175 82.1385L20.7861 81.8574L20.6529 80.9961L20.5554 80.7995L20.5181 80.6403L20.7065 79.4491L21.4894 77.1042L21.5479 76.5728L21.4797 75.8172L21.3059 75.2159L21.2312 74.5789L21.1841 74.4148L20.8998 74.3563L20.6302 74.1207L20.3183 73.1749L20.6042 72.8645L20.8251 72.6939L20.5213 72.7654L20.2712 72.7361L20.7455 72.299L21.1694 71.9643L22.1359 71.5759L22.5468 71.3273L21.9393 71.5515L21.3026 71.636L19.9512 71.5905L20.177 70.7065L20.4125 70.4107L20.6676 70.245L20.2923 70.2954L19.857 70.2255L19.9967 69.3268L20.3394 69.1318L20.7081 69.0944L21.1662 68.9661L20.6757 68.8182L20.1672 68.7467L19.5549 68.8946L18.9929 68.7857L18.309 68.7873L18.582 68.9076L18.8743 69.1806L18.7281 69.6681L18.59 69.972L18.2149 70.1816L17.9078 70.4985L17.8218 70.7763L17.648 70.9713L17.9485 71.1095L18.2571 71.2086L18.4357 71.4345L18.6469 71.7611L18.6355 72.3965L17.8266 73.8899L17.5473 74.223L15.5217 75.1233L14.7274 75.6124L13.0317 76.2478L12.3723 76.3664L11.6413 76.2397L10.5725 75.7571L8.94177 74.5204L8.51775 74.1125L7.21347 72.5216L6.27304 71.6782L5.55993 70.8934L4.6763 70.1491L3.84303 69.1448L3.66597 68.6866L3.72774 68.2202L4.03794 67.9667L4.40178 68.0691L4.68929 68.4623L4.89232 68.6378L5.06294 68.7093L6.30714 68.1064L6.78955 68.1308L7.11929 67.8286L7.53667 67.8952L8.38788 67.4239L8.74517 67.3947L9.17078 67.3005L9.85623 66.106L10.3695 65.3455L10.7025 65.1863L10.6829 65.001L10.5904 64.7589L10.3419 64.8207L10.168 65.0514L10.0397 65.3309L9.90976 65.4983L9.50696 65.3439L9.23571 65.3699L8.90112 65.4609L7.67804 65.9062L7.17451 66.3059L6.83337 66.3855L4.87934 65.9452L2.96922 64.9344L2.1651 64.2616L1.65672 63.402L1.14833 62.3766L1.31568 62.089L2.10502 61.4715L2.7873 60.9856L2.17492 61.2017L1.51217 61.5023L1.18412 61.7119L0.812149 62.1523L0.318336 62.2515L0.123428 61.5982L0 60.9612L0.315065 60.7467L0.535947 60.6118L0.984255 60.4981L1.4748 60.4168L1.91983 60.4201L2.54847 60.4298L2.56632 58.9348L2.61837 58.8032L2.70769 58.7268L2.81 58.6943L2.89606 58.717L3.02444 58.9413L3.18525 58.9283L3.35576 58.7983L3.73586 58.8958L4.04121 58.8292L4.34983 58.9169L4.87607 58.9185L5.82632 58.8828L6.35423 58.8942L6.69527 59.1314L7.06893 59.393L7.47332 59.4304L8.05972 59.3995L8.45767 59.2988L8.65912 59.0551L8.81011 58.821L9.67916 58.4798L10.592 58.2019L10.8552 58.171L10.9379 58.3336L10.8974 58.6049L11.003 58.8633L11.3701 59.0274L11.6283 59.0681L11.8606 59.0307L12.0327 58.9478L12.4031 58.5415L12.5948 58.4489L12.8433 58.4554L13.1227 58.2604L13.1275 58.1109L12.9505 58.0394L12.7995 57.8249L12.8286 57.651L12.7848 57.404L12.8156 57.17L12.9342 56.9945L13.1422 56.8255L13.0187 56.4761L12.7003 55.8066L12.3673 54.9486L12.0149 54.2336L11.5682 53.6064L11.3376 53.1448L11.362 52.1259L11.3229 51.9195L11.1686 51.7928L10.9623 51.7229L10.6715 51.827L10.4101 51.8464L9.8481 51.8237L9.57199 51.7197L8.82151 50.6943L8.72247 50.2913L8.7192 49.8769L8.96774 49.1554L9.04408 48.4826L9.07818 47.8554L9.03753 47.6782L8.88645 47.467L8.63473 47.311L7.96068 47.2736L7.15984 47.0656L6.54428 46.7L6.11541 46.479L6.00011 46.3344L5.94816 46.1653L6.06018 45.4032L6.25351 44.5435L6.39478 44.2803L6.63846 44.0073L6.8188 43.822L7.10789 43.5767L7.8892 42.7544L8.58923 41.6218L9.02296 40.8304L9.2487 40.5947L9.4794 40.3933L9.81558 40.1495L10.2054 39.9269L10.592 39.9366L10.9591 40.1397L11.232 40.377L11.3246 40.9019L11.5179 41.2415L11.7258 41.4463L12.0019 41.5454L12.3543 41.521L13.7659 40.9198L14.2467 40.7979L15.3999 40.7231L16.1909 40.4908L16.891 40.247L16.9771 39.8099L17.2468 39.142L18.0686 38.271L18.3009 37.8826L18.5495 37.1383L18.8142 36.4591L19.0433 36.1763L20.3361 35.4288L21.6015 34.7414L21.8094 34.4294L22.628 32.9994L23.0959 32.026L23.2177 31.7124L23.489 30.8657L23.7829 30.0207L24.1727 29.8241L25.0418 29.5023L25.7305 29.1871L26.0845 28.8263L26.2974 28.511L26.2583 28.1991L26.0683 27.8286L26.1073 27.6075L26.1414 27.3898L26.6433 26.9462L27.5838 25.6315L28.149 24.9734H28.3358L28.9255 24.6224L29.4858 24.2259L29.4534 24.0455L29.3835 23.8115L29.0619 23.7075L28.9596 23.4263L29.0392 23.0234L29.3088 21.9395L29.2535 21.6275L28.9255 20.6199L28.9985 20.3421L29.1334 20.056L29.5005 19.6758L29.9732 19.3589L31.4869 18.6082L31.794 18.5253L32.3186 18.3351L32.6402 17.9338L32.6792 17.5909L32.5379 17.378L32.2244 17.092L31.6347 16.8336L31.102 16.6078L30.1973 16.6321L29.7279 16.4388L29.5995 16.3039L29.5346 15.8261L29.6255 15.0169L29.4842 14.9453L29.2828 15.0412L28.8052 14.9453L28.2189 14.9567L27.9947 14.7309L28.1052 14.4594L28.0711 14.0971L27.9833 13.7526L27.8924 13.6811L27.6114 13.5982L27.1745 13.2992L26.822 12.9303L26.6157 12.68L26.5524 12.5078L26.5718 12.394L26.8285 12.0739L27.1338 11.6238L27.2459 11.2371L27.2801 10.9559L27.194 10.7495L26.9129 10.496L26.6124 10.2734L26.4923 10.08L26.4873 9.7875L26.5995 9.42191L26.9519 9.14563L27.5773 8.88398L27.7398 8.55901L27.7186 8.31849L27.548 8.24698L27.1078 8.24539L26.3672 8.16247L26.2422 8.02922L26.1577 7.85049L26.156 7.67335L26.3135 7.47186L26.502 7.21671L26.4679 6.9681L26.2502 6.68697L25.7288 6.4822L25.6573 6.19134L25.7385 5.94919L25.9107 5.60309L26.0618 5.36256L26.4175 4.67681L26.8496 4.52729L27.3791 4.30467L27.9639 4.05929L28.8654 4.24293L29.3039 4.33393L30.1908 4.54356L30.9347 4.71906L31.6949 4.76945L32.01 4.75645L32.3576 4.96444L33.2168 5.32031L33.9153 5.50722L34.3879 5.50559L35.0848 5.19033L35.4324 4.90106L35.9002 4.58417L36.4995 4.59716L37.7958 4.10804L38.0378 4.19254L38.4227 4.22017L38.8873 3.93744L39.126 3.60265L39.1634 3.43369L39.2787 3.31016L39.7758 3.09731L40.2744 2.80154L40.4093 2.4115L40.492 2.14663L41.0378 1.80539L41.6064 1.44952L42.2008 1.07738L42.8765 0.653273L43.4483 0.294129L43.9161 0L43.9681 0.0633784L44.1516 0.196632L44.3497 0.261597L44.582 0.136477L44.8728 0.0324827L45.0255 0.091001L45.0466 0.26001L44.8728 1.05298L44.8874 1.36338L45.1782 2.00852L45.555 3.05342L45.9091 4.03167L46.117 4.67195L46.3233 4.93355L47.1826 5.20169L47.8907 5.42108L48.3115 5.78023L48.776 6.12469L49.1009 6.33595L49.2552 6.60732L49.2877 6.85111L49.2584 7.01521L49.0814 7.23133L48.2659 7.78711L48.1685 7.96262L48.1441 8.19337L48.3049 8.88076L48.4056 9.31137L48.4349 10.1759L48.4885 10.9965L48.7776 11.3703L49.0147 11.6108L49.1593 11.8285L49.4517 12.1292L49.6969 12.3518L49.9065 12.4835L50.0088 12.7776L49.9487 13.1237L49.861 13.4243L49.8887 13.5868L50.0576 13.7022L50.3159 14.0029L50.35 14.4416L50.3321 14.7439L50.4344 15.0152L50.462 15.3158L50.3825 16.065L50.3955 16.403L50.1696 16.4241L49.9764 16.5395L49.7019 17.0107L49.3851 17.1343L49.0261 17.1716L48.6558 16.8824L48.3521 16.5801L48.2692 16.4128L48.1929 16.0942L48.0288 15.8863L47.7137 15.9838L47.2345 16.0276L46.7164 16.0975L46.6205 16.1674L46.6108 16.3022L46.7375 16.5883L46.8447 16.9604L46.9097 17.4804L47.0494 17.8249L47.0932 17.9338L47.9232 18.9673L48.1409 19.1769L48.1863 19.315L48.1003 19.6969Z" fill="white"/>
</svg>
