<svg width="120" height="143" viewBox="0 0 120 143" fill="none" xmlns="http://www.w3.org/2000/svg">
<path d="M95.1841 0L96.4077 0.541915L96.8254 0.530483L97.4339 1.54086L97.7505 1.45108L97.6901 2.06482L97.0766 2.357L96.1221 2.53329L95.9802 2.6557L95.1644 2.55777L94.706 1.73185L93.9408 1.52781L93.9424 1.26174L94.4384 0.634941L95.1841 0ZM119.377 18.6046L119.626 20.343L119.618 20.9469L119.501 21.5313L119.336 21.83L119.008 21.9606L118.213 21.9083L117.135 21.2244L116.438 20.5797L116.221 20.5519L116.127 20.6303L116.296 21.2767L116.25 21.7729L116.146 22.3115L115.999 22.7996L115.795 23.2076L115.368 23.7332L114.629 24.1478L112.594 24.9558L112.433 25.3116L111.777 27.5478L111.599 27.8743L111.359 28.1501L110.659 28.5076L110.32 28.0147L110.049 27.2654L110.111 26.5211L110.928 25.088L111.694 24.0678L111.909 23.7136L112.343 22.6837L111.465 20.0818L109.902 19.2902L108.122 18.0807L107.47 17.4343L106.453 16.0975L105.734 14.8928L105.084 14.8504L104.37 15.154L103.254 16.2541L102.603 16.8059L102.244 16.9691L102.157 16.9936L101.358 16.6818L100.47 16.6165L99.7556 16.7063L99.4864 16.8565L98.4912 18.6258L97.7945 19.5138L97.4111 19.819L97.1321 20.3316L96.9036 21.1738L96.393 24.0727L96.0129 25.1598L95.928 25.8225L96.0178 27.8204L95.9263 28.9206L95.4614 29.8249L95.1335 30.2313L94.7011 30.3145L94.135 30.5447L93.6406 31.0654L93.2914 31.7754L92.8983 33.3604L92.2326 33.9414L91.5963 33.7749L91.1428 33.1939L90.1687 32.7433L89.4426 32.4561L88.6285 31.8325L87.9107 31.3576L87.2547 31.2629L86.8812 31.8652L86.5809 32.4267L85.4616 32.8821L84.827 33.2428L84.0048 33.3228L83.6719 32.9229L82.4776 32.6585L81.0566 32.3451L80.6454 32.3483L80.5165 31.6318L80.1379 30.6279L79.1281 28.8847L78.7153 28.2677L77.937 26.8133L77.0315 25.3149L76.9026 25.2773L76.2957 25.2267L75.4065 25.2757L74.842 25.6169L74.4863 26.0445L74.4244 26.4003L74.7686 27.7584L74.6626 28.0963L74.4847 28.2595L73.6771 27.8792L72.6998 27.9053L72.4534 28.3232L71.8579 28.3689L70.1399 28.5272L70.8986 29.6306L71.1498 30.073L71.2004 30.7193L71.0683 31.9174L70.7044 32.9376L70.2802 33.7652L69.4628 34.5829L70.7044 35.3893L69.8609 36.4747L69.4661 36.8959L69.0092 36.824L68.1919 36.4502L66.2128 35.5427L65.2682 35.2015L64.423 35.0971L63.9727 35.1101L62.1812 34.3299L61.8354 34.4164L61.1925 34.7543L61.1208 35.5117L61.1615 37.3872L61.2561 38.8236L61.0196 39.6495L60.783 40.2094L60.0667 41.7127L58.4548 40.6909L57.3551 40.0119L56.6487 40.9145L54.8784 42.5631L53.9714 45.7885L53.9192 45.8929L53.3823 46.7074L52.6955 47.0812L52.175 47.2657L51.8716 48.214L52.578 49.5672L52.9402 50.2788L53.278 51.4247L53.2159 52.151L53.1377 52.6016L52.379 53.5221L50.7605 55.9395L49.2628 58.4434L48.6492 59.1584L48.9267 61.2608L48.429 61.8745L47.4142 62.5666L46.8953 62.8326L46.3374 62.9893L44.621 63.2652L44.9261 65.4851L45.0419 66.4628L45.0403 67.0406L44.8625 67.6037L44.6504 68.6762L44.3306 72.4793L44.0858 72.8858L43.7481 73.906L42.6615 76.3429L41.7903 77.9524L40.5324 80.2555L41.5554 80.9786L42.4885 81.5058L42.6827 82.3138L42.8116 83.6588L42.7806 84.5712L42.4233 85.389L42.146 85.9619L41.9518 86.241L40.6254 85.9635L38.9253 85.6061L38.4848 85.6028L37.496 85.8607L36.6036 86.3879L36.1337 86.8319L36.0081 87.0082L35.4142 88.0169L34.357 89.7994L33.7778 90.5747L33.9475 91.6406L32.975 93.6891L33.6114 95.7425L33.6391 95.811L33.9768 96.6369L33.6244 97.1691L33.4759 97.4547L33.5265 98.3933L33.6195 99.4396L33.5379 100.052L33.5037 100.729L34.3684 103.757L34.3586 104.462L34.3162 104.916L34.0486 106.778L33.6897 109.261L34.3162 109.909L35.207 110.683L35.7079 110.988L36.447 111.905L37.0115 112.798L36.9332 113.389L36.77 114.04L36.5334 114.494L36.3099 115.116L36.2104 115.575L36.106 115.697L35.1189 115.748L34.5984 115.921L34.326 116.115L34.419 117.156L35.0178 119.055L35.5154 120.396L35.6752 121.278L35.5121 122.169L35.3424 122.624L35.3375 123.236L35.207 124.451L34.822 125.063L34.3178 125.729L33.7566 126.225L33.3112 126.364L32.9294 126.421L32.6716 126.672L32.4383 127.412L32.2229 128.185L31.5197 129.135L31.5393 129.465L31.8069 130.585L32.0581 131.855L31.846 133.038L31.665 134.274L31.3468 135.095L30.8932 135.389L30.5604 135.242L30.1835 134.116L30.1639 133.849L30.0709 133.503L29.0006 133.159L28.8114 133.17L28.3904 132.968L28.1441 132.911L27.6383 132.795L27.2174 131.793L26.7719 130.957L26.7067 130.608L26.723 129.036L26.586 128.334L26.5435 127.567L26.2629 128.19L26.4261 129.175L26.0802 129.586L25.6413 129.787L25.6821 130.36L25.8616 130.469L25.899 131.062L25.793 131.94L24.9316 133.881L24.7586 134.088L24.6395 134.349L24.199 134.176L23.6329 134.715L23.0961 134.801L22.902 134.192L22.1465 133.384L21.7909 133.43L22.1106 133.828L22.4271 134.346L22.2477 134.687L22.0715 134.91L21.7631 135.026L20.6586 135.7L21.0518 136.153L20.7173 136.665L20.3323 136.74L20.1267 136.979L20.0549 137.302L18.9112 138.224L17.048 140.576L16.0902 141.239L15.4213 141.924L14.8323 141.908L14.0916 142.491L12.2153 143L10.9705 142.77L10.1041 142.972L9.63917 142.572L9.57877 142.298L9.60163 142.138L9.6783 141.946L9.51678 141.882L9.17741 141.849L9.03222 142.042L9.01265 142.481L8.85113 142.595L8.20505 142.344L8.04188 142.119L8.27356 141.66L8.67164 141.247L8.59984 141.162L8.52316 140.911L8.32903 140.878L7.75146 140.94L7.28158 140.865L5.75117 139.933L5.39387 139.433L4.15881 138.635L3.60574 137.786L3.29081 136.853L3.31531 136.004L3.46702 134.654L3.72643 134.32L4.83427 134.795L5.95511 135.585L6.12973 135.545L6.48214 134.925L7.16413 134.426L6.96994 134.289L5.95511 134.861L5.57824 134.545L4.99251 133.898V133.564L5.26501 133.229L5.35638 132.777L5.21442 132.349L5.28129 131.767L5.73324 131.148L6.41194 130.52L6.90143 129.911L7.40392 129.537L7.35174 129.411L6.77745 129.65L6.22761 130.054L5.58153 130.732L4.79349 131.279L4.21099 131.491L3.93366 131.667L3.50621 131.837L3.06407 132.619L2.5811 132.953L1.71638 132.988L1.52549 132.416L1.77026 130.379L2.03126 129.382L2.31845 128.675L2.76876 128.556L3.08528 128.037H3.34792L3.57636 128.277L4.459 128.509L4.89462 127.848L5.46079 127.75L6.49355 127.08L6.47233 126.958L5.77402 127.105L5.34985 127.126L4.74291 127.294L4.41987 127.173L4.2681 126.672L4.51123 126.219L5.48524 125.133L5.82297 124.657L6.01386 124.211L5.98289 123.907L6.14601 123.277L7.09885 122.175L7.87544 121.669L8.12996 122.104L7.91298 123.46L7.91462 124.018L8.52809 122.043L8.7989 121.572L9.10561 121.239L9.84963 121.015L10.0601 120.702L9.1921 120.804L7.08904 121.562L6.20312 122.236L5.96656 122.753L5.35145 123.534L5.06266 124.038L4.9354 124.779L4.58955 125.18L4.12127 125.329L3.47195 126.263L3.18476 127.012L2.53868 127.606L2.12915 128.063L1.99377 128.226L1.77185 128.674L1.58752 128.706L1.4276 128.443L1.39986 127.866L1.46514 126.938L1.77678 126.269L1.9252 125.615L1.71967 125.003L1.86322 124.614L2.13572 124.629L2.64473 124.805L3.18476 124.777L4.07397 124.293L3.93202 124.008L3.54863 123.968L2.83239 124.008L2.23032 123.534L1.76209 122.587L1.54998 121.317L1.69194 120.953L3.4246 119.654L3.89124 119.061L3.62038 119.002L2.96941 119.721L2.03942 120.165L1.45209 119.546L1.14698 118.878L0.970768 117.463L1.0344 116.733L0.961009 115.772L1.35909 115.459L1.80287 115.625L2.24172 115.687L3.23535 115.602L5.42813 115.023L6.84103 115.367L7.41537 115.336L8.29477 114.837L9.06319 114.786L9.63917 115.167L9.95404 115.604L9.99318 116.187L10.2591 116.575L10.4386 116.448L10.295 115.986L10.2657 115.269L12.5776 114.455L12.85 114.138L11.9315 114.027L11.6688 113.281L12.1533 112.148L12.1077 112.002L11.597 112.601L11.3457 113.44L11.4469 114.109L11.3457 114.419L10.8759 114.561L9.81861 114.613L9.13992 114.329L8.51176 114.176L8.29801 113.962L8.36981 113.484L8.25071 113.384L7.98965 113.813L7.75798 114.667L7.25873 114.865L5.88008 114.548L3.88472 114.734L2.98898 115.162L2.40982 115.106L1.41132 114.355L1.023 113.756L0.877759 112.545L0.936512 112.011L1.71315 111.786L2.10634 111.801L2.47504 111.513L2.14876 111.326L1.69029 110.957L1.37865 110.219L0.907136 109.978L0.59226 109.346L0.512296 108.391L0.602068 107.725L0.853312 107.511L1.45862 107.656L3.05426 107.544L4.5553 108.223L5.57501 108.605L7.63888 108.412L8.84785 107.807L8.62598 107.64L7.31419 107.989L6.10199 107.975L3.96463 107.291L3.08851 107.07L2.14384 107.168L1.65275 106.961L1.36396 106.282L1.57772 104.98L2.02474 104.699L2.26622 105.038L2.55824 105.059L2.85519 104.514L3.13746 104.203L3.36261 103.497L4.2094 102.827L4.5667 102.769L5.07899 102.461L5.40691 102.549L5.61579 102.859L5.88172 103.115L6.456 103.084L8.15605 102.546L8.33884 102.387L8.66999 101.945L7.59322 102.143L6.69913 102.456L6.1232 102.544L6.0416 102.151L6.2537 101.803L6.58655 101.431L6.74808 100.796L7.11518 100.525L7.51161 100.54L8.33067 100.424L8.90824 100.259L9.89858 100.368L11.3768 100.612L12.3279 101.202L12.6869 101.149L13.067 100.992L13.24 100.778L12.4927 100.533L12.4503 100.182L12.5433 99.9178L13.7637 99.4298L15.095 99.322L14.8666 98.9287L11.9494 99.5228L11.1875 99.1164L10.5854 99.1197L10.1922 99.3514L9.06976 99.6322L8.86418 99.433L9.07788 98.7442L9.7501 97.6114L9.80557 97.3339L10.1172 97.0597L11.8597 96.3986L12.6967 95.6282L13.0735 95.5303L13.4472 95.5842L14.0166 95.4944L15.1162 95.7147L15.6237 96.6778L16.0788 96.9797L17.5097 98.1778L17.446 97.8351L16.2061 96.2077L15.7329 95.8029L15.3789 94.9998L15.4996 94.2392L15.8978 93.7299L17.3123 93.4573L17.5652 93.1619L17.5913 92.6542L17.3743 92.3065L16.8538 92.3261L16.4247 92.1107L16.3072 91.5622L16.4786 91.1901L17.2943 90.5094L17.7398 90.2891L18.5131 90.0508L19.8559 90.5894L19.9586 90.8702L19.5818 91.5459L19.6193 91.9246L19.9489 91.9654L20.7157 90.8261L21.6179 90.6677L21.9915 90.4229L22.4255 90.2678L23.0439 91.2994L23.3164 91.6292L23.5203 91.7646L23.7177 92.6199L23.9086 92.6656L24.1811 92.238L24.6754 92.0111L25.3688 91.8626L26.5174 92.0895L27.0379 91.9213L27.2924 91.9458L27.0477 91.177L26.896 90.9534L27.1325 90.2646L27.3789 89.9952L28.1718 89.5105L28.9289 89.2934L29.4232 88.8331L30.0872 88.4071L29.9828 88.0675L29.7985 87.6725L29.3677 87.6481L29.1931 87.4326L29.7381 86.92L30.4853 86.3488L30.3548 86.1235L29.7936 85.8689L29.3677 86.0598L28.7347 86.5022L27.9972 87.2008L28.2371 87.4048L28.6058 87.9908L28.0919 88.7678L25.3639 90.8228L24.0636 91.4219L23.4632 91.3288L23.3196 90.7689L23.0439 90.356L22.747 89.499L22.2412 89.5219L21.954 89.7112L21.83 89.4305L22.047 88.5132L22.4744 87.7868L23.1907 87.2367L23.535 86.5708L23.858 85.5114L24.894 84.4994L26.4016 81.9824L27.6301 81.1745L28.0804 80.2881L28.8048 79.8964L29.4232 79.2027L29.9077 79.1341L30.7888 78.5073L31.288 77.7597L30.9618 77.714L30.1868 78.1988L29.7479 78.3947L29.7789 77.5933L29.991 76.769L30.6289 76.0132L33.6979 73.808L34.0046 74.1737L34.3717 74.82L35.2951 74.6747L36.3491 73.4228L37.1599 72.0566L36.7211 72.2949L36.2431 72.8548L35.3114 73.6301L34.8807 73.7525L34.6343 73.6513L34.4973 73.1339L34.1743 72.9658L33.8822 73.0817L33.5803 72.7128L33.5265 71.8003L33.9116 70.4374L34.2167 69.5331L34.5462 68.8459L35.8417 66.8872L36.1207 65.8131L36.7064 65.2451L37.4667 65.3708L37.6967 65.206L37.4357 64.4975L36.6069 63.936L36.5563 63.5818L39.3185 62.6498L40.6335 62.6808L41.0234 62.2156L41.7381 61.9153L42.2797 61.344L42.0007 61.091L40.6645 61.6166L39.8291 61.8631L39.4523 61.8549L39.157 62.0345L38.0899 62.103L37.8566 59.8227L38.0247 58.5773L38.4227 58.6034L38.5142 57.4102L38.9742 56.7035L39.6088 56.5451L39.9287 56.2432L40.3904 55.6261L41.154 55.7682L41.9388 55.6311L41.743 55.3389L40.769 54.9635L40.5291 54.3171L40.8717 53.9547L41.2454 53.6886L41.5749 53.6413L42.2258 52.373L42.6224 51.8295L43.0645 51.9242L43.6812 51.3627L44.2882 51.5536L44.8739 51.1864L45.6749 50.9432L48.6068 50.8501L48.6934 50.3262L48.0765 50.2054L45.8985 50.0699L44.7858 50.0813L44.3176 50.2168L44.1462 50.034L44.1772 49.7206L44.5818 49.2228L44.7727 48.6727L45.5819 47.3244L46.5298 46.4234L47.2559 46.6536L48.0276 47.5138L48.5774 47.6215L48.8337 47.899L49.235 49.0807L49.4259 49.1183L49.3394 47.9839L49.8696 47.0567L49.7326 46.8005L48.9364 47.1367L48.3262 46.7874L47.8449 46.0888L47.7079 45.4489L48.008 44.8156L48.2903 44.4957L48.0994 44.1219L46.8953 45.1192L46.0437 45.3527L45.7076 45.2139L45.8887 44.3096L45.7876 43.5898L46.9297 41.8106L47.3228 41.6049L47.964 41.7486L48.5432 42.2513L49.0277 42.1713L49.5531 41.902L49.4813 41.4189L48.3425 41.2263L48.0489 40.8247L48.1549 40.4281L48.9364 40.0102L49.7147 39.2545L50.6055 39.0341L51.3217 38.4612L51.4604 38.5918L51.5811 38.817L51.8389 40.9357L52.4801 42.6529L52.7167 42.7149L52.4704 41.2556L52.7004 40.8345L52.9908 40.5146L53.0822 40.149L52.7493 40.0249L52.4768 39.4993L52.0886 37.8132L52.2223 37.3725L53.0659 36.4682L54.1231 36.2609L55.2489 36.8942L55.6453 36.9007L56.2979 36.731L57.4057 36.2087L58.0584 36.0095H58.3977L58.4809 35.7451L58.166 35.5753L58.0648 35.4105L57.8185 35.3158L56.7939 35.5982L53.9665 35.5084L53.694 35.2065L53.6434 34.6825L53.9436 33.9316L54.2732 33.5154L55.3402 32.7662L56.4676 32.665L57.657 31.3282L58.1106 30.3227L58.3684 28.7639L59.0927 27.4972L60.9103 26.7741L60.9837 26.4542L60.7912 25.7899L60.8075 24.5918L61.3051 23.1897L61.6363 22.7016L61.7897 22.6428L62.1812 23.1031L62.6576 24.0793L63.4033 24.6375L64.3806 24.7338L64.6416 24.4596L63.883 23.9046L63.307 23.1766L63.2613 22.4437L63.5338 22.0552L63.958 22.0977L64.4898 22.0161L64.9858 21.5215L65.0576 21.1738L65.0789 20.7004L65.2028 20.2189L65.9306 19.0649L68.1722 18.3124L68.3355 18.6193L68.2147 20.8441L67.9569 22.274L67.965 23.3154L68.4023 22.274L68.9864 19.4061L69.4269 18.048L69.9229 17.2662L70.277 17.0899L70.6277 16.6834L71.0911 16.4419L71.2331 16.7536L71.3799 17.4767L71.1302 20.0002L71.1547 20.7935L70.8757 21.8528L69.8071 24.2017L69.856 24.5004L70.0975 24.3894L70.5102 24.0042L71.835 21.7712L72.9919 22.0536L73.0065 21.8708L72.6345 21.213L72.1826 20.5813L72.0456 19.7978L72.1059 17.6955L72.455 16.8581L73.4535 16.9462L74.0523 16.8304L74.3314 17.2107L74.9301 17.1829L75.3445 15.6649L76.1651 15.5311L76.8863 16.5365L77.7527 17.2107L78.4493 18.177L78.6467 17.9125L78.2715 15.6502L77.8603 14.821L76.9679 14.3885L76.0167 13.3618L75.7703 12.9047L75.8127 12.5652L76.6514 12.2371L77.7575 12.6142L78.743 11.754L79.0122 11.9906L79.7676 11.5401L80.2375 12.1474L80.5263 11.9678L80.6927 11.1533L81.8984 10.6473L82.6636 11.1158L83.0731 11.5973L83.264 12.5228L83.5561 14.3428L84.1531 15.3205L84.5252 15.7988L84.964 15.931L85.1761 15.4446L84.765 14.8569L84.654 14.3019L84.8515 12.9211L85.0815 12.3775L86.3721 10.3062L87.4522 9.22558L88.0983 9.13418L89.2305 6.6972L89.5504 6.2516L89.8456 6.14876L89.7706 5.54809L89.1522 5.16777L89.131 4.42018L89.9468 3.50937L90.9371 1.97341L91.425 1.87058L91.7317 2.29825L92.6959 2.99194L93.2865 3.78359L93.714 4.18187L93.9914 4.09863L94.2214 3.50449L94.4987 3.22536L95.1106 3.38208L95.476 3.76402L95.7616 3.81463L96.0194 4.04641L96.0798 4.55402L95.5495 5.10737L94.6456 6.565L93.7548 8.21358L93.4611 9.07868L93.1723 11.3361L92.4757 12.7709L92.4219 13.7731L92.7025 14.2432L93.4709 13.8743L94.4189 12.5375L94.6554 11.1109L97.026 7.20811L98.1387 5.03066L99.4015 3.21393L100.11 2.83687L100.442 4.04314L100.175 5.61011L99.6381 6.60418L100.035 7.05957L99.9596 8.2348L99.8355 8.88608L99.7572 9.56673L99.7621 10.1642L100.134 10.0042L101.614 8.77672L101.989 7.44153L102.337 6.43603L102.503 5.56605L103.079 4.73848L104.166 4.73196L104.208 4.40551L102.89 3.2678L102.735 2.74711L103.177 2.05177L104.392 0.719822L105.017 0.866745L105.391 1.17033L106.887 1.40211L108.036 2.35374L107.992 3.83747L107.735 4.45447L107.484 4.83315L106.014 5.94963L105.773 6.49969L106.234 6.68903L107.226 6.13407L107.484 6.63845L107.168 7.8953L107.114 9.77076L107 10.8595V11.8487L107.124 12.3791L107.523 10.2735L107.659 9.72996L108.243 8.93179L108.46 7.31747L109.031 5.3669L109.675 4.22758L110.049 3.91582L111.289 3.95988L111.821 4.38917L112.291 5.3408L112.641 5.72112L113.748 6.12428L114.126 6.62866L114.196 6.92898L114.467 6.98938L115.214 6.27282L115.699 6.15367L116.489 7.27013L116.33 8.09443L116.376 8.3556L117.332 8.30337L118.128 8.62656L119.641 10.3045L119.799 11.0848L119.724 12.0282L117.541 13.0614L116.598 14.0473L115.055 14.426L109.814 13.7666L109.92 14.4799L113.57 16.0322L113.779 16.4745L113.661 17.4016L113.66 18.1443L113.728 18.6503L113.997 19.1204L114.443 19.3408L115.351 19.2249L115.799 19.4779L116.105 19.1041L116.22 17.8424L116.484 17.5632L116.993 17.9305L117.215 19.2788L117.357 19.4175L117.613 18.4577L118.117 18.5263L118.667 18.4463L119.377 18.6046ZM85.3589 4.58341L85.2692 5.02087L85.1142 5.44525L84.7389 5.8925L83.6524 7.65697L83.0143 7.93936L82.8121 8.21523L82.5576 8.38008L81.7646 8.14013L81.533 8.49597L81.3143 8.73428L80.74 8.82568L80.4023 8.74897L79.5327 8.09934L79.0154 7.39418L78.7348 6.79025L79.5392 6.80166L79.8247 6.65476L80.3648 6.78208L80.6894 6.16019L81.3747 6.23526L82.6913 5.80271L83.1743 6.0443L84.2788 4.5932L84.6247 4.63076L85.1533 4.21452L85.3589 4.58341ZM88.0004 8.0226L87.1274 8.57104L86.6217 8.09934L86.4097 7.61453L86.3786 6.53561L86.4961 5.87618L86.9056 5.53504L87.1716 5.78478L87.2417 5.99369L87.7182 6.19773L88.2777 6.87675L88.0004 8.0226ZM86.16 8.27072L86.2449 8.91383L86.2774 9.44269L85.85 10.205L84.8646 11.2023L84.9216 11.47L84.5806 11.7262L84.07 11.9139L83.8008 11.7328L83.8367 10.8791L83.7551 10.6245L83.3684 10.964L82.9654 10.5281V10.0907L83.0715 9.71039L83.4451 9.13091L84.0667 8.73101L84.4762 8.88118L85.8434 7.34196L85.9903 7.66514L86.16 8.27072ZM68.541 12.8052L68.7743 12.9635L69.0059 12.8656L69.1968 13.0043L69.5803 13.716L69.9931 13.9951L70.0126 14.3509L69.6358 14.697L69.1382 14.8014L68.6046 14.6806L68.448 14.2367L68.2832 13.4972L67.8378 12.7709L67.7709 12.1327L68.1592 12.0315L68.541 12.8052ZM66.1949 14.8308L66.6011 15.5604L66.9616 15.4903L67.0694 15.216L67.3141 15.0789L67.8101 15.4658L67.7399 16.1203L67.053 16.9446L66.5603 18.1166L65.9306 18.3875L65.627 18.2472L65.0625 18.9213L64.6122 19.6199L64.144 20.5013L64.1146 20.9551L64.0412 21.3011L62.3264 21.6439L61.7032 21.8708L61.0424 21.5786L60.7291 20.9975L60.8303 20.6825L61.4894 20.5568L61.5107 20.0165L61.6787 19.6868L61.8925 19.5056L62.0491 18.8136L62.3101 18.6324L62.7964 18.8021L63.1243 18.2994L63.3086 18.2129L63.5354 18.6291L63.6448 18.0562L63.5354 17.5322L63.5925 17.178L64.2207 16.2558L64.4931 15.5817L64.8847 15.1458L65.2616 15.2144L65.3709 14.5713L65.2616 13.9118L65.3024 13.4809L65.6352 12.433L66.0007 12.3889L66.1688 13.321L66.1949 14.8308ZM73.1729 14.5174L72.9266 14.8292L72.548 14.9565L72.3441 14.7639L72.0537 14.6366L71.7307 14.6937L71.4598 14.1208L71.4908 13.6393L71.8611 12.9863L72.6035 12.6142L73.2039 12.7676L73.3573 12.9586L73.1729 14.5174ZM115.193 18.4283L114.324 18.8152L114.223 18.4969L114.413 18.0007L114.642 16.9821L114.999 17.023L115.361 17.4114L115.645 17.875L115.193 18.4283ZM58.1726 21.0726L58.7224 21.8218L58.9687 21.5933L59.4566 21.5068L59.8188 21.7712L60.1157 22.2462L60.4665 22.2674L60.6867 22.8877L60.7993 23.6924L60.5448 24.2915L60.1826 24.564L60.0848 25.2675L60.2218 26.2518L59.4093 26.5881L58.4695 26.7382L58.1008 26.2681L57.3503 27.1267L56.6047 28.4603L56.2457 28.617L56.2196 28.1958L55.6845 27.9037L54.9992 27.8873L55.022 27.574L55.1477 27.3536L55.7383 27.0255L55.8557 26.3465L55.7481 25.1321L55.8525 24.5396L55.8754 24.1315L56.2474 23.6516L57.5199 23.8769L57.675 23.4182L57.5787 23.1293L56.9212 22.6233L57.0223 22.2821L57.4971 21.9769L57.9457 21.9361L58.0812 21.4203L58.1041 21.1934L58.1726 21.0726ZM50.1927 34.343L50.2482 34.4311L50.8714 33.2232L51.5632 32.8462L51.6056 32.4234L51.8732 32.0154L51.8422 31.3461L51.9776 30.8026L52.3301 30.6573L52.5502 30.4729L52.7934 30.37L53.2356 30.8124L53.4835 31.3021L53.7935 32.3924L53.6646 33.4436L52.8341 34.2614L52.175 34.6286L51.5077 35.5623L51.1732 36.3246L50.8844 36.4894L50.7034 36.4274L50.5419 36.2446H50.2041L49.8322 36.904L48.7096 37.4394L48.2691 37.2843L48.2495 36.6282L47.9868 36.682L47.5659 37.4688L47.1547 37.7316L46.8791 37.8115L46.3716 37.5161L45.0077 38.8513L43.7285 39.0994L43.3076 38.946L43.306 38.1298L44.1331 37.0819L44.8103 36.3523L47.1434 35.8414L48.5971 33.6607L48.9479 31.2727L49.2904 30.4043L49.1289 29.913L48.739 29.8265L48.7146 29.0691L48.9185 28.2399L49.6804 27.0973L50.1046 26.6093L50.7947 25.2235L51.1276 24.9117H51.5061L51.8798 25.2757L51.8128 26.0184L51.2532 27.3536L50.4244 28.4864L50.5255 29.2976L50.8551 29.962L50.9367 31.0948L50.9579 32.1819L50.3298 33.6444L50.1927 34.343ZM47.6589 29.5196L48.2544 30.7993L48.5269 31.5453L48.3067 32.9474L47.7274 33.6525L46.835 33.7782L46.2085 33.7195L45.8137 33.3799L45.7647 32.9996L45.5363 32.887L44.9343 33.3767L44.5166 33.4419L43.9847 33.0633L43.8412 32.4561L44.4056 31.6938L44.6667 31.0996L45.2916 31.1519L45.4482 31.3363L45.8022 31.4522L46.0176 30.7357L45.9686 30.2395L46.1269 29.8934L46.8823 30.1431L46.884 28.7883L47.1776 28.6937L47.2983 28.7459L47.5153 29.0316L47.6589 29.5196ZM41.5504 38.0221L41.8229 38.2327L42.5342 38.1706L42.6778 38.249L42.5751 38.5967L42.2667 38.9786L41.619 39.2137L41.3269 39.7964L41.1181 39.9939L40.5585 39.9955L40.2272 40.131L39.821 40.6468L39.4963 40.2665L39.4049 40.5374L39.3463 41.0206L39.1651 41.161L38.6039 41.3356L38.4684 40.211L38.7263 39.8029L38.9285 39.3132L39.2385 39.2382L39.5159 39.279L40.0167 38.2213L40.7021 37.9193L41.1442 37.885L41.5504 38.0221ZM37.4226 42.8177L36.7455 43.4592L36.9919 42.2872L37.3574 41.0957L37.8632 40.4118L38.1144 40.6794L37.9985 41.2524L38.0002 41.8172L37.8926 42.0832L37.4226 42.8177ZM34.897 64.2347L34.4728 64.3082L34.543 63.8104L34.8856 63.337L35.0178 63.0138L35.0863 62.6319L35.3897 62.343L35.8172 62.7135L35.8254 63.3403L35.6132 63.9116L34.897 64.2347ZM35.3082 65.823L34.9411 65.8556L34.9443 65.3969L35.1548 64.9791L35.4876 64.6999L35.9167 64.6265L36.3964 64.5938L36.5416 64.8158L36.2659 65.1276L35.3082 65.823ZM32.8282 68.8933L32.5247 69.2344L31.9586 69.1365L31.8982 68.8426L32.0597 68.255L32.404 68.0118L32.8478 68.0592L32.9897 68.304L32.8282 68.8933ZM29.4558 77.2048L29.216 77.5051L28.6825 77.2652L27.6301 77.4512L27.206 77.1591L27.5437 76.5878L28.4948 75.9871L29.0055 76.0148L29.526 76.7526L29.4558 77.2048ZM16.8146 89.8402L16.2893 89.8647L15.9728 89.6329L16.7249 89.1726L17.9045 88.7319L18.0171 88.4528L18.159 88.4185L18.363 88.7612L18.3891 89.2313L18.2586 89.4648L16.8146 89.8402ZM15.1276 93.219L14.679 93.2255L14.1455 93.0688L13.811 92.7342L13.7588 92.4388L14.3739 92.0715L14.9922 91.856L15.2794 92.2608L15.3006 92.9235L15.1276 93.219ZM0.73257 115.336L0.326328 115.455L0 115.353L0.115863 114.448L0.285549 114.301L0.531913 114.249L0.797845 114.734L0.73257 115.336ZM1.31502 122.597L1.32971 123.692L0.908779 123.609L0.719525 123.189L0.664058 122.92L0.698314 122.285L0.603662 121.629L0.72769 121.302L0.881045 121.258L1.1535 121.842L1.31502 122.597Z" fill="white"/>
</svg>
