<svg width="42" height="57" viewBox="0 0 42 57" fill="none" xmlns="http://www.w3.org/2000/svg">
<path d="M11.2334 2.1656L11.1272 2.32252L11.1778 1.19964L11.6793 0L11.8917 0.0277826L11.6744 0.353044L11.6107 0.580193L11.5225 1.03294L11.5617 1.26832L12.7069 1.33367L12.573 1.54291L11.4114 1.68347L11.2334 2.1656ZM17.7992 1.85999L17.827 2.00544L18.4984 2.21628L18.7811 2.55296L19.0947 3.06292L19.1258 3.79515L18.7239 4.32142L18.3906 4.65486L19.6502 4.52902L19.776 4.82974L19.9671 5.155L20.6451 4.92291L22.3474 5.88233L23.3767 5.41487L23.6397 5.38709L23.8733 6.16181L23.6168 6.93982L22.7101 7.76681L22.911 8.27678L23.2019 8.38955L24.0563 8.28166L25.4106 8.78345L25.6932 8.62653L26.7911 7.46774L27.2306 7.21765L28.6748 7.03948L28.9378 6.58842L29.5226 6.13567L29.8984 5.64042L30.8019 4.69407L31.7363 4.86405L32.282 5.04551L32.8799 5.13704L33.424 6.14545L34.8028 7.25525L36.0689 7.15884L36.5182 8.2065L36.7175 9.49442L37.1063 9.89814L37.4477 10.1613L38.4786 10.4358L38.5194 10.4522L38.5537 10.6254L38.6174 11.2629L38.7041 11.7892L39.2351 13.8845L39.2252 14.3944L39.2187 14.5301L39.0243 15.2444L38.6796 15.8442L38.2238 16.1826L37.9722 16.5584L37.9264 16.972L38.4999 17.696L39.694 18.7306L40.1761 19.6132L39.9489 20.3455L39.8803 20.8816L39.9686 21.2215L40.1597 21.4945L40.4538 21.7004L40.5714 22.0175L40.5109 22.4457L40.5664 22.7431L40.787 22.954L40.7658 23.0357L40.6596 23.3332L40.5142 23.8742L40.4309 24.2697L40.0944 24.8058L40.1973 25.2618L40.4603 25.7979L40.6613 26.0676L40.725 26.3226L40.5975 26.9273L40.6613 27.0826L41.4928 27.5271L41.6284 27.7314L41.7085 28.1581L42.0009 29.0685L41.7591 30.2191L41.5467 30.8483L41.073 31.8437L41.05 31.9352L40.9961 32.0562L40.854 32.2294L40.6564 32.2556L40.3573 32.1265L40.1531 31.9597L40.2005 31.5315L40.0682 31.5021L39.9048 31.239L39.8411 30.9562L39.6647 30.8402L39.0227 30.7208L38.8037 30.6375L38.6355 30.698L38.5097 30.899L38.5897 31.0804L38.709 31.2569L39.0652 31.5364L39.0292 31.6476L38.2614 31.9205L37.7793 32.1984L37.3301 32.3553L36.8727 32.6429L35.9693 32.9665L35.306 33.0515L35.1688 33.1365L34.9221 33.6841L34.7554 33.7985L34.5937 33.7397L34.4728 33.6497L34.3192 33.7233L34.1591 33.9047L33.9908 33.975L33.8455 33.9734L33.5857 34.4506L32.8309 34.5945L32.7427 34.8413L32.6038 35.1273L32.4927 35.1976L32.1529 35.0848L31.6808 35.0211L31.4096 35.1779L31.0844 35.2646L30.6875 35.2907L30.2448 35.6029L29.8134 36.1504L29.5716 36.6343L29.441 36.8075L29.2302 36.3531L28.9721 36.0426L28.7891 35.8808H28.6258L28.5833 35.9478V36.1847L28.7581 36.5787L28.9737 36.8483L29.008 37.0477L29.124 37.4073L29.4393 37.8012L29.9327 38.1118L30.2692 38.419L30.5192 38.844L30.5209 38.9747L30.4522 39.148L30.3346 39.3115L30.2349 39.5239L29.9605 39.9522L30.0422 40.1401L30.266 40.3755L30.4637 40.6582L30.7185 41.1159L31.0681 41.9167L31.2936 42.2452L31.6007 42.5852L31.9013 42.8434L32.3751 42.8353L32.8652 43.3289L33.401 44.0415L33.8013 44.3668L34.0807 44.4665L34.3127 44.7231L34.5169 45.0908L34.5969 45.3033L34.7783 45.4569L35.2684 45.4275L35.899 46.0061L36.2878 46.4278L36.4936 46.7677L36.4397 46.9034L36.4136 47.3267L36.4202 47.7745L36.358 48.0116L36.077 48.3237L35.9317 48.3907L35.8533 48.4577L34.9891 48.0508L34.9204 48.1194L34.8665 48.1701L34.6345 49.3452L34.476 49.5708L34.2375 49.7784L33.7442 49.981L33.401 50.0628L33.1331 50.1657L32.2852 50.656L31.9046 50.9503L31.6579 51.3196L31.6563 51.5321L32.068 52.1549L32.5434 52.7988L32.545 53.3627L32.3359 53.7844L32.2869 53.9462L32.4274 54.0083L32.6904 54.0312L32.9109 54.1031L33.0041 54.4006L32.9763 54.9154L32.9012 55.3975L32.8227 55.6003L32.6103 55.6166L32.2019 55.409L31.8833 55.1671L31.7608 55.0184L31.7543 54.8402L31.8229 54.7274L31.7102 54.5085L31.3181 54.3041L30.8982 54.3924L30.5895 54.5281L30.3885 54.5199L30.1729 54.3238L29.8396 54.1734L29.405 54.0737L29.1338 53.9691L29.0767 54.0312L29.1077 54.4545L29.0244 54.6392L26.8744 54.8843L26.2193 55.1132L25.7423 55.409L25.3894 55.5365L25.3028 55.7179L24.9532 55.9565L24.5595 56.0317L24.4631 55.9549L24.2099 56.0644L23.7785 56.1707L23.4992 56.1363L23.3668 55.9435L23.1005 55.6476L22.9928 55.4433L23.0042 55.311L22.4014 55.2848L22.0223 55.1279L21.2153 55.1638L21.0159 55.0968L20.9751 55.1671L20.8542 56.0072L20.6941 56.3504L20.436 56.7051L20.1044 56.9029L19.8413 56.9389L19.8527 56.6806L19.9197 56.3684L19.7286 56.2949L19.4427 56.2606L19.3055 56.1674L19.3414 55.9288L19.2744 55.7898L19.1568 55.6231L18.8693 55.409L18.2615 55.0919L17.8482 54.9334L17.693 55.1017L17.3973 55.2701L16.9317 55.2145L16.8174 55.2815L16.0185 54.7749L15.2523 54.2878H14.999L13.8701 54.3859L13.8375 54.3434L13.6398 54.0655L13.4666 53.9772L13.362 54.023L13.2918 54.1031L13.1709 54.09L12.6644 53.6422L12.457 53.5768L12.1695 53.6373L11.8296 53.8792L11.681 54.175L11.7267 54.345L11.9015 54.4185L12.3639 54.3695L12.4308 54.4185L12.4472 54.515L12.3965 54.6081L12.0224 54.6849L11.9146 54.7977L11.8051 54.8255L11.7349 54.8435L11.3363 54.7258H10.7432L10.2645 54.9334L9.49999 55.0167L8.44951 54.9759L8.0721 54.8206L7.84176 54.7274L7.67514 54.2698L7.71762 53.5915L7.96755 52.691L8.03779 52.029L7.92671 51.6073L8.07539 50.9731L8.48381 50.1265L8.75663 49.2325L8.89224 48.2878L9.08992 47.6716L9.47875 47.2384L10.4018 46.0257L10.4769 45.9342L10.4508 45.3278L10.2025 45.2412L9.83817 45.0663L8.91183 44.8505L8.04926 44.7116L7.65714 44.54L7.31407 44.0807L7.10169 44.0742L6.68508 44.2393L6.16558 44.3504L5.78657 44.254L5.5497 44.272L5.41733 44.3569L5.35037 44.2818L5.25559 43.8879L5.05791 43.7849L4.75079 43.6934L4.55964 43.7326L4.42732 43.9287L4.22311 44.066L4.03685 44.0219L3.45038 43.1098L3.30006 42.9072L3.26247 42.7209L3.11544 42.3809L2.76585 42.0409L2.41785 41.9331L2.2447 41.9707L2.26429 41.549L2.3999 40.9361L2.53058 40.6157L2.70378 40.3542L2.8884 40.1712L2.92923 39.841L2.89981 39.5288L2.68742 39.4798L2.15486 39.2493L1.83956 39.0058L1.60593 38.7001L1.29877 38.2801L1.16809 37.8519L1.16156 37.4253L1.19751 37.2341L1.22034 37.1017L1.46703 36.4348L2.33618 35.8366L2.23981 35.2335L2.22675 34.8625L2.01595 34.6206L1.59447 34.5225L1.48339 34.3542L1.43602 34.1891L1.74478 33.8181L1.37066 33.5255L1.20075 33.2362L0.681242 32.8538L0.625701 32.7214L0.875633 31.6018L0.684532 31.2749L0.447613 31.1082L0.171507 31.0265L0.0440733 30.8712L0 30.6931L0.0490091 30.5836L0.374125 30.6162L0.475383 30.5002L1.24976 29.8399L1.28246 29.7124L1.17462 29.6405L1.03413 29.6029L0.998181 29.4639L1.00307 29.2809L1.41643 28.3248L1.53893 27.9161L1.5667 27.6268L1.54057 27.3408L1.30206 26.8914L1.07172 26.5318L1.06354 26.2457L0.895276 26.0954L0.418198 25.3256V25.0281L0.687773 24.796L1.06514 24.6489L1.19098 24.5263L1.41643 24.4495L2.01595 24.6718L2.28388 24.8646L2.35907 24.8254L2.60082 24.6163L3.0256 24.6489L4.0532 24.2272L4.20676 24.0246L4.32113 23.8088L4.33095 23.714L3.9323 23.2972L3.92088 23.1436L3.97318 22.9703L4.0859 22.8331L4.32113 22.7399L4.57111 22.5568L5.13145 22.0371L5.32584 21.586L5.38632 21.0956L5.39773 20.7295L5.24417 20.4386L5.08897 20.2506L4.87823 20.2801L4.46816 20.2654L4.08426 20.1019L3.87352 19.8371L3.82122 19.6051L3.91759 19.458L3.947 19.2781L3.88493 19.0967L3.90946 18.9448L4.08261 18.8222L5.29647 18.8254L5.38796 18.6914L5.46963 17.9853L5.7735 16.9082L6.05938 16.3068L6.1068 16.0534L6.10186 14.6233L6.1411 13.8959L5.93359 13.5544L5.48104 13.1801L5.57747 12.3988L5.72773 11.7876L6.18357 11.0357L6.54459 10.8297L8.12111 10.7072L9.86265 10.7579L10.5864 11.8938L10.3184 12.4756L10.7416 12.7469L10.9458 12.6473L11.101 12.1406L11.2039 11.5783L11.3526 11.4083L11.8917 11.8284L12.0812 12.1161L12.0926 13.0379L12.292 11.7876L12.1433 10.9098L12.2446 10.0567L12.4619 9.61209L12.6612 9.32932L13.9387 9.63498L15.3503 9.47806L15.8845 9.80821L17.0918 11.4541L17.4953 11.7238L18.0034 11.8088L17.3026 11.4574L15.8388 9.45357L15.4009 9.20513L14.7278 9.12996L14.308 8.93383L14.0433 8.62982L13.9665 8.35688L13.9812 6.32197L13.7296 6.01796L13.4029 5.91336L13.1987 6.05232L12.7805 6.05392L12.6922 5.59139L12.7952 5.24817L13.6349 5.01279L14.1887 4.69736L14.2132 4.14001L13.8636 3.70033L13.4453 2.89293L12.9536 2.13293L12.8981 1.24708H12.8997L13.7558 1.26339L13.9649 1.29775L15.262 1.7129L15.579 2.00379L15.9776 2.01686L16.6965 1.74557L17.2339 1.62626L17.4414 1.7946L17.7338 1.86488H17.7992V1.85999ZM12.5174 2.75567L12.3393 2.95015L11.9015 2.92725L11.6564 2.74419L11.7365 2.54972L11.9685 2.40098L12.1613 2.37808L12.4521 2.46961L12.5174 2.75567ZM35.9987 5.35766L36.113 5.88558L35.9905 6.15527L35.4759 5.70746L34.958 5.71399L34.6492 6.40207L34.4188 6.4315L33.62 5.80552L33.4909 5.49986L33.4648 5.24488L33.5791 4.36232L33.5579 4.08444L33.8095 3.78043L33.8487 3.33915L34.2915 2.87498L34.6867 2.85697L34.811 3.25087L35.0004 3.52221L35.6637 3.82622L35.7634 3.96349L35.8239 4.15472L35.5151 4.52737L35.4106 4.71861L35.5086 5.02427L35.9987 5.35766ZM24.8747 5.08143L24.1706 5.09614L23.9011 4.78235L23.6315 4.70225L23.7769 4.31489L23.9664 4.17268L24.6477 4.42602L24.8617 4.92126L24.8747 5.08143ZM38.3006 8.73766L38.2401 8.98122L38.3103 9.35551L38.1209 9.32773L37.5523 9.41596L36.9903 9.29177L36.8825 8.82595L36.9724 8.37808L36.7469 8.06918L36.5394 7.88777L36.5084 7.62955L36.5427 7.35985L37.5114 8.08225L38.3006 8.73766Z" fill="white"/>
</svg>
