<svg width="72" height="57" viewBox="0 0 72 57" fill="none" xmlns="http://www.w3.org/2000/svg">
<path d="M67.5159 2.57491L68.0161 5.41456L68.3961 7.84322L68.4221 9.38654L68.4399 9.7894L68.5958 10.0607L68.9497 10.3337L70.3787 12.556L70.0734 12.941L70.2878 13.6282L70.658 13.9222L71.8467 15.2413L72.0009 15.5013L71.936 15.7092L71.103 17.2574L70.9616 17.6359L70.796 19.6032L70.6791 20.9889L70.5167 22.8864L70.3252 25.1526L70.1708 27.0581L69.9663 29.5729L69.773 31.9447L68.578 33.2444L66.4572 35.5447L64.7312 37.4129L63.8656 38.6621L62.1752 41.0973L61.4251 42.6699L60.8373 43.4903L60.5401 43.8395L60.8032 44.9896L61.2611 46.9976L60.4427 47.0106L59.9734 47.1535L59.3808 47.61L58.7182 47.7903L57.9128 48.1884L57.4029 48.5068L56.9239 48.7586L56.2646 49.3743L56.0503 49.8421L55.3943 49.9347L54.4769 49.8584L53.8939 49.3857L52.5429 48.8934L51.666 48.6936L51.2601 48.6335L49.1962 48.549L46.9944 48.7423L45.8723 48.9714L45.6677 49.0218L45.0312 49.319L44.5035 49.6488L43.0762 51.158L41.1861 51.1077L40.0754 50.9403L39.1319 50.7047L37.7891 49.9997L36.1442 48.9227L35.5093 48.7765L34.9393 48.692L34.7493 48.7066L32.7845 49.7788L32.4062 49.756L31.9434 49.8763L31.6381 50.1427L31.4124 50.2759L31.177 50.2986L30.8668 50.2402L30.5648 50.0761L30.2627 49.7772L29.4525 48.5831L29.2852 48.3736L28.9393 48.0194L28.358 47.4671L27.9635 47.2104L27.7231 47.1438L27.4373 47.1877L25.859 46.7133L24.2823 46.2113L23.9348 46.2763L23.688 46.3803L23.1424 46.7507L22.4994 46.8189L21.6826 46.7896L21.2344 46.7393L20.5134 46.8628L20.0328 47.0106L19.4028 47.2624L18.586 47.9463L18.3522 48.0341L18.1541 48.1477L17.8813 50.0192L17.6588 50.5813L17.2447 51.3237L16.4313 52.032L15.8726 52.4608L15.8596 53.0392L15.8158 53.9847L15.8077 54.6329L15.845 55.0552L15.7509 55.2567L15.7135 55.4403L15.7427 55.7148L15.8759 55.8464L15.9538 56.0186L15.9019 56.1583L15.6388 56.324L15.3481 55.9016L14.9747 55.6044L14.5655 55.4711L14.2878 55.255L14.1449 54.9561L13.6074 54.3713L12.3701 53.213L12.2435 53.1854L12.0372 53.1399L11.6881 53.278L11.4738 53.4681L11.3227 53.5428L11.0954 53.5542L10.5076 53.7004L10.0367 53.8889L10.0237 54.0448L10.2494 54.9204L10.1423 55.3947L9.93279 55.169L9.25404 54.2852L8.78476 53.6305L8.70195 53.4843L8.63535 53.2585L8.68084 53.161L8.86757 53.0928L9.2979 53.0067L9.37743 52.9385L9.39854 52.7582L9.33199 52.4219L9.09651 51.967L8.84482 51.6648L8.70518 51.6063L8.447 51.5966L8.16771 51.6372L7.64322 52.006L7.41101 52.0742L6.86869 52.0434L6.38643 51.9719L6.09252 51.7818L5.21887 51.0475L4.25276 50.2726L3.84681 50.1622L3.75261 50.0826L3.68928 49.4863L3.70553 48.7683L3.7591 48.5799L4.16178 48.692L4.59047 48.7439L4.72853 48.614L4.38428 48.3589L3.89225 48.1006L3.70875 47.7091L3.56747 47.5727L3.34666 47.4329L3.0917 47.3615L2.83679 47.251L2.66142 47.1373L2.374 47.0853L2.07197 47.0025L1.63515 46.3673L1.20972 45.7483L0.959671 45.261L0.870374 44.9685L0.997035 44.4698L0.870374 44.2733L0.396237 43.7664L0 43.2953L0.097424 42.5659L0.178644 41.9567L0.181865 41.5717L0.245195 41.354L0.295543 41.1087L0.558577 41.0307L1.22761 41.0372L2.52827 41.1509L3.57074 41.0226L3.62922 40.9998L4.36475 40.3467L5.17992 39.6612L6.4059 39.5946L7.72766 39.5231L8.77014 39.4874L10.2868 39.4354L11.5111 39.3899L12.9303 39.338L12.9726 39.0228L13.0602 38.9448L13.1999 38.9334L14.2423 39.1024L15.2231 39.2665L15.2978 38.6703L16.1584 37.9246L16.6472 37.7719L16.7673 37.6419L16.9216 37.3901L17.0174 37.0002L17.0597 36.7241L17.2415 36.4934L17.3747 36.0694L17.55 35.3286L18.0355 34.5488L18.3132 33.4897L18.3538 32.4662L18.4074 31.688L18.5519 31.5289L18.547 30.1431L18.5438 28.7477L18.5389 27.5666L18.534 26.0948L18.5308 24.8017L18.5259 23.3965L18.5227 22.1342L18.5194 21.2959L19.5148 21.0961L20.5427 20.8882L22.0463 20.5844L23.675 20.2563L25.4498 19.8972L25.8525 19.6812L27.1921 18.4644L27.7978 17.9137L28.9994 16.822L29.9266 15.9756L31.1055 14.9002L32.3542 13.8166L33.3496 12.9491L34.915 11.9663L37.2743 10.4831L39.6337 8.99503L41.9947 7.50372L44.3541 6.00913L46.7135 4.51296L49.0728 3.01188L51.4339 1.50758L53.7932 0L56.1672 0.575089L58.4227 1.11934L60.6911 1.66677L61.2254 1.9673L62.4286 3.03791L63.9696 4.40573L64.0361 4.42521L64.106 4.43175L65.5869 3.62598L67.5159 2.57491Z" fill="white"/>
</svg>
