<svg width="18" height="22" viewBox="0 0 18 22" fill="none" xmlns="http://www.w3.org/2000/svg">
<path d="M8.80544 1.94506L8.60699 1.83663L9.65913 1.52467L10.3244 1.42958L10.4428 1.47132L9.24061 1.88163L8.80544 1.94506ZM11.1414 1.43792L12.0651 1.30949L12.0602 1.26112L11.8167 1.18273L11.0297 1.19606L10.7779 1.2511L10.8296 1.34283L11.1414 1.43792ZM13.956 0.902483L13.7576 0.869088L13.1806 1.03591L13.1406 1.11263L13.3007 1.16939L13.956 0.902483ZM8.22516 2.49053L7.84337 2.47383L7.28644 2.97262L7.35982 3.06436L8.22516 2.49053ZM16.1436 0H15.9268L15.525 0.156794L15.3999 0.36531L15.8334 0.338635L16.1436 0ZM3.08965 17.1133L2.49272 17.4236L1.71241 17.3152L1.1188 17.0883L0.353494 17.1317L0 17.2501L0.140034 17.8973L0.246789 18.1025L0.385144 18.236L0.568582 18.2626L0.780312 18.1025L1.07544 17.934L1.55065 18.0124L1.8958 18.1676L2.01919 18.3294L2.24761 18.4829L2.58111 18.5196L3.22638 18.2259L3.84666 17.7772L4.02836 17.4653L4.09675 17.1834L3.55987 17.3769L3.08965 17.1133ZM17.9993 2.69238L17.3474 2.55055L16.9273 2.34204L16.6655 1.96507L16.2153 1.44963L15.0331 1.50298L14.0493 1.65143L12.6871 1.71486L11.805 1.96507L10.2077 2.79913L9.80583 3.22451L9.3957 4.14028L8.00508 5.19457L7.19475 5.59989L6.96633 5.44478L6.63782 5.34302L6.37607 5.87851L6.21431 6.3606L5.67076 9.18473L5.30058 10.2056L4.80206 11.063L4.01839 12.1106L3.65823 12.4676L3.43811 12.6027L3.16302 13.1065L2.9429 13.7103L2.79284 13.9922L3.67156 15.0298L3.78163 15.3268L3.89668 15.5002L3.06461 15.6087L3.41811 15.944L3.8633 16.1842L4.16178 16.2993L4.32517 16.5412L4.00506 16.6529L3.70326 16.6596L2.50941 15.7705L1.84578 15.607L0.932049 15.6587L0.70195 15.7521L0.465185 16.0224L0.800361 16.4327L1.11045 16.6746L1.60902 16.7063L2.20925 17.0099L3.07296 16.7564L3.69324 17.0683L4.10174 17.1801L4.46856 17.3669L4.79204 17.4069L4.93375 17.3235L4.84374 16.8715L5.10716 16.6295L5.39899 16.5178L5.53067 16.7147L5.79914 16.9148L6.00924 16.9165L6.57945 16.396L6.71287 16.4994L6.83627 16.6846L6.86293 16.8331L6.88461 16.9899L7.01299 17.0549L7.46153 17.0216L7.68995 16.7397L7.86835 16.5629L8.00177 16.6829L8.06675 17.0299L8.19015 17.482L8.7254 17.9858L9.17725 18.1292L9.7325 18.0308L9.95258 17.9407L10.101 18.0158L10.2494 18.2827L10.5695 18.5879L11.2415 18.8031L11.4482 18.9249L11.5916 19.1301L11.5499 19.422L11.2298 20.1476L11.1881 20.3611L11.2315 20.4329L11.1681 20.5664L10.7513 21.0518L10.7146 21.2236L10.853 21.5022L10.968 21.7324L11.2181 21.8441L11.4532 21.8808L11.8984 21.8958L12.3736 21.9109L12.6287 20.7682L12.4337 20.4346L12.1918 20.2644L11.9101 20.181L11.78 20.0225L11.735 19.8407L11.785 19.7289L12.1168 19.7623L12.2202 19.6439L13.0106 18.97L13.0439 18.8398L12.9338 18.7664L12.7905 18.7281L12.7538 18.5863L12.7588 18.3994L13.1806 17.4236L13.3057 17.0066L13.3341 16.7113L13.3073 16.4194L13.0639 15.9606L12.8288 15.5936L12.8205 15.3017L12.6487 15.1482L12.1619 14.3626V14.059L12.437 13.8221L12.8222 13.672L12.9505 13.5469L13.1806 13.4685L13.7926 13.6953L14.066 13.8922L14.1427 13.8522L14.3895 13.6386L14.823 13.672L15.8718 13.2416L16.0285 13.0347L16.1452 12.8146L16.1552 12.7178L15.7484 12.2925L15.7367 12.1356L15.7901 11.9588L15.9051 11.8187L16.1452 11.7236L16.4003 11.5368L16.9722 11.0063L17.1707 10.5459L17.2324 10.0455L17.2441 9.67181L17.0873 9.37486L16.9289 9.18305L16.7138 9.21308L16.2953 9.19806L15.9035 9.03124L15.6884 8.76103L15.635 8.52415L15.7334 8.37403L15.7634 8.19051L15.7 8.00536L15.7251 7.85019L15.9018 7.72512L17.1407 7.72842L17.234 7.59164L17.3174 6.87105L17.6275 5.7717L17.9193 5.15787L17.9677 4.89931L17.9627 3.4397L17.9993 2.69238ZM1.78243 14.9931L2.19093 14.8747L2.80953 15.3785L3.38977 15.215L3.35476 15.0749L3.2564 14.9431L2.79951 14.5311L2.0509 14.4793L1.62733 14.6061L1.62901 14.7546L1.78243 14.9931ZM6.72122 4.89096L7.18472 4.3405V3.46469L6.49946 4.18035L6.35602 4.61072L6.43774 4.73915L6.72122 4.89096Z" fill="white"/>
</svg>
