<svg width="28" height="28" viewBox="0 0 28 28" fill="none" xmlns="http://www.w3.org/2000/svg">
<path d="M24 19.9911C23.2879 19.9951 22.5901 20.1909 21.98 20.5579L18.167 16.7456C18.7103 15.9306 19.0001 14.9731 19.0001 13.9938C19.0001 13.0145 18.7103 12.057 18.167 11.242L20.714 8.69614C21.3583 9.00635 22.0917 9.0786 22.7842 8.9001C23.4767 8.72159 24.0836 8.30385 24.4975 7.72087C24.9113 7.13789 25.1054 6.42731 25.0453 5.715C24.9852 5.00269 24.6748 4.33462 24.1691 3.82916C23.6635 3.32369 22.9951 3.01344 22.2825 2.95337C21.5698 2.89331 20.8589 3.0873 20.2757 3.50098C19.6925 3.91466 19.2745 4.52133 19.096 5.21352C18.9174 5.90571 18.9897 6.63875 19.3 7.28277L16.753 9.82864C15.9376 9.28562 14.9798 8.99586 14 8.99586C13.0202 8.99586 12.0624 9.28562 11.247 9.82864L7.433 6.01633C7.80001 5.40678 7.99587 4.70964 8 3.99823C8 3.20745 7.7654 2.43444 7.32588 1.77693C6.88635 1.11943 6.26164 0.606965 5.53074 0.304349C4.79983 0.00173236 3.99556 -0.0774458 3.21964 0.0768266C2.44372 0.231099 1.73098 0.611893 1.17157 1.17105C0.612164 1.73022 0.231202 2.44263 0.0768607 3.21821C-0.0774802 3.99379 0.00173312 4.7977 0.304484 5.52828C0.607234 6.25886 1.11992 6.8833 1.77772 7.32263C2.43552 7.76196 3.20888 7.99645 4 7.99645C4.71207 7.99251 5.40989 7.79672 6.02 7.4297L9.833 11.242C9.28974 12.057 8.99986 13.0145 8.99986 13.9938C8.99986 14.9731 9.28974 15.9306 9.833 16.7456L6.019 20.5579C5.40918 20.191 4.71173 19.9953 4 19.9911C3.20888 19.9911 2.43552 20.2256 1.77772 20.665C1.11992 21.1043 0.607234 21.7287 0.304484 22.4593C0.00173312 23.1899 -0.0774802 23.9938 0.0768607 24.7694C0.231202 25.5449 0.612164 26.2574 1.17157 26.8165C1.73098 27.3757 2.44372 27.7565 3.21964 27.9108C3.99556 28.065 4.79983 27.9858 5.53074 27.6832C6.26164 27.3806 6.88635 26.8682 7.32588 26.2106C7.7654 25.5531 8 24.7801 8 23.9894C7.99605 23.2776 7.80018 22.5801 7.433 21.9702L11.247 18.1589C11.7792 18.5126 12.3743 18.7609 13 18.8906V22.1742C12.3328 22.41 11.7704 22.8739 11.4124 23.4841C11.0543 24.0942 10.9235 24.8112 11.0432 25.5084C11.1629 26.2056 11.5253 26.8381 12.0663 27.294C12.6074 27.7499 13.2923 28 14 28C14.7077 28 15.3926 27.7499 15.9337 27.294C16.4747 26.8381 16.8371 26.2056 16.9568 25.5084C17.0765 24.8112 16.9457 24.0942 16.5876 23.4841C16.2296 22.8739 15.6672 22.41 15 22.1742V18.8906C15.6257 18.7609 16.2208 18.5126 16.753 18.1589L20.567 21.9713C20.2 22.5808 20.0041 23.2779 20 23.9894C20 24.7801 20.2346 25.5531 20.6741 26.2106C21.1136 26.8682 21.7384 27.3806 22.4693 27.6832C23.2002 27.9858 24.0044 28.065 24.7804 27.9108C25.5563 27.7565 26.269 27.3757 26.8284 26.8165C27.3878 26.2574 27.7688 25.5449 27.9231 24.7694C28.0775 23.9938 27.9983 23.1899 27.6955 22.4593C27.3928 21.7287 26.8801 21.1043 26.2223 20.665C25.5645 20.2256 24.7911 19.9911 24 19.9911ZM14 10.9951C14.5933 10.9951 15.1734 11.171 15.6667 11.5005C16.1601 11.83 16.5446 12.2983 16.7716 12.8462C16.9987 13.3942 17.0581 13.9971 16.9424 14.5788C16.8266 15.1605 16.5409 15.6948 16.1213 16.1142C15.7018 16.5335 15.1672 16.8191 14.5853 16.9348C14.0033 17.0505 13.4001 16.9912 12.8519 16.7642C12.3038 16.5372 11.8352 16.1529 11.5056 15.6598C11.1759 15.1666 11 14.5869 11 13.9938C11.0008 13.1987 11.3171 12.4365 11.8796 11.8743C12.442 11.3121 13.2046 10.9959 14 10.9951ZM2 3.99823C2 3.60284 2.1173 3.21633 2.33706 2.88758C2.55683 2.55883 2.86918 2.3026 3.23463 2.15129C3.60009 1.99998 4.00222 1.96039 4.39018 2.03753C4.77814 2.11466 5.13451 2.30506 5.41422 2.58464C5.69392 2.86422 5.8844 3.22043 5.96157 3.60822C6.03874 3.99601 5.99914 4.39796 5.84776 4.76325C5.69639 5.12854 5.44004 5.44076 5.11114 5.66043C4.78224 5.88009 4.39556 5.99734 4 5.99734C3.46957 5.99734 2.96086 5.78672 2.58579 5.41181C2.21072 5.03691 2 4.52842 2 3.99823ZM4 25.9885C3.60444 25.9885 3.21776 25.8712 2.88886 25.6516C2.55996 25.4319 2.30362 25.1197 2.15224 24.7544C2.00087 24.3891 1.96126 23.9871 2.03843 23.5993C2.1156 23.2116 2.30608 22.8553 2.58579 22.5758C2.86549 22.2962 3.22186 22.1058 3.60982 22.0287C3.99778 21.9515 4.39992 21.9911 4.76537 22.1424C5.13082 22.2937 5.44318 22.55 5.66294 22.8787C5.8827 23.2075 6 23.594 6 23.9894C6 24.5196 5.78929 25.028 5.41422 25.4029C5.03914 25.7778 4.53043 25.9885 4 25.9885ZM24 25.9885C23.6044 25.9885 23.2178 25.8712 22.8889 25.6516C22.56 25.4319 22.3036 25.1197 22.1522 24.7544C22.0009 24.3891 21.9613 23.9871 22.0384 23.5993C22.1156 23.2116 22.3061 22.8553 22.5858 22.5758C22.8655 22.2962 23.2219 22.1058 23.6098 22.0287C23.9978 21.9515 24.3999 21.9911 24.7654 22.1424C25.1308 22.2937 25.4432 22.55 25.6629 22.8787C25.8827 23.2075 26 23.594 26 23.9894C25.9992 24.5193 25.7882 25.0273 25.4133 25.4021C25.0384 25.7768 24.5302 25.9877 24 25.9885Z" fill="#C4E538"/>
</svg>
