<svg width="28" height="28" viewBox="0 0 28 28" fill="none" xmlns="http://www.w3.org/2000/svg">
<path d="M14 0C12.2863 0 10.6428 0.680767 9.431 1.89254C8.21923 3.10431 7.53846 4.74783 7.53846 6.46154C7.53846 10.0305 13.1589 18.8925 13.1589 23.6923H14.8411C14.8411 18.9086 20.4615 9.73969 20.4615 6.46154C20.4615 4.74783 19.7808 3.10431 18.569 1.89254C17.3572 0.680767 15.7137 0 14 0ZM14 3.23077C14.8569 3.23077 15.6786 3.57115 16.2845 4.17704C16.8904 4.78293 17.2308 5.60469 17.2308 6.46154C17.2308 7.31839 16.8904 8.14015 16.2845 8.74604C15.6786 9.35192 14.8569 9.69231 14 9.69231C13.1431 9.69231 12.3214 9.35192 11.7155 8.74604C11.1096 8.14015 10.7692 7.31839 10.7692 6.46154C10.7692 5.60469 11.1096 4.78293 11.7155 4.17704C12.3214 3.57115 13.1431 3.23077 14 3.23077ZM7.37046 18.6103L7.30262 18.6448C5.31569 18.9937 3.63138 19.4718 2.35631 20.1255C1.71769 20.4518 1.16738 20.8385 0.740923 21.3026C0.313385 21.7678 0 22.372 0 23.0526C0 24.0735 0.676308 24.8715 1.48077 25.4423C2.28523 26.0131 3.30077 26.4492 4.54354 26.8218C7.02585 27.5671 10.3438 28 14 28C17.6562 28 20.9742 27.5671 23.4565 26.8218C24.6982 26.4492 25.7148 26.0142 26.5192 25.4423C27.3237 24.8705 28 24.0735 28 23.0526C28 22.3698 27.6877 21.7345 27.2591 21.2692C26.8305 20.804 26.2855 20.4518 25.6437 20.1245C24.3622 19.4708 22.6617 18.9926 20.6629 18.6437C20.5224 18.6165 20.3778 18.6175 20.2377 18.6468C20.0976 18.6761 19.9647 18.733 19.8468 18.8142C19.729 18.8955 19.6285 18.9994 19.5513 19.1199C19.474 19.2405 19.4216 19.3752 19.3971 19.5162C19.3725 19.6572 19.3763 19.8018 19.4083 19.9413C19.4402 20.0808 19.4997 20.2126 19.5831 20.3289C19.6666 20.4452 19.7724 20.5437 19.8944 20.6186C20.0164 20.6935 20.1521 20.7434 20.2935 20.7652C22.1491 21.0883 23.6912 21.546 24.668 22.0435C25.1569 22.2912 25.5005 22.5572 25.6782 22.75C25.8558 22.9428 25.8462 23.0192 25.8462 23.0526C25.8462 23.1032 25.7772 23.3358 25.2743 23.6923C24.7714 24.0488 23.9142 24.4397 22.8168 24.7692C20.6231 25.4272 17.4806 25.8462 14 25.8462C10.5194 25.8462 7.37692 25.4272 5.18215 24.7692C4.08585 24.4397 3.22862 24.0488 2.72677 23.6923C2.22277 23.3358 2.15385 23.1032 2.15385 23.0526C2.15385 23.0203 2.14631 22.9417 2.32185 22.75C2.49846 22.5583 2.84631 22.2912 3.332 22.0435C4.30123 21.5471 5.82831 21.0894 7.67308 20.7642C7.81658 20.7467 7.95517 20.7009 8.08075 20.6293C8.20633 20.5577 8.31637 20.4618 8.40446 20.3471C8.49254 20.2325 8.55689 20.1015 8.59374 19.9617C8.6306 19.8219 8.63922 19.6762 8.61911 19.5331C8.599 19.3899 8.55055 19.2522 8.4766 19.128C8.40266 19.0038 8.30469 18.8956 8.18844 18.8096C8.07218 18.7237 7.93996 18.6618 7.79952 18.6276C7.65907 18.5934 7.51321 18.5875 7.37046 18.6103Z" fill="#C4E538"/>
</svg>
