<svg width="27" height="28" viewBox="0 0 27 28" fill="none" xmlns="http://www.w3.org/2000/svg">
<path d="M2 19.0002V26H5V19.0002H2ZM12 16.0002V26H15V16.0002H12ZM22 13.0003V26H25V13.0003H22ZM20.8359 0.0122886L21.0332 0.0650219L25.332 1.68413C25.783 1.85401 26.0404 2.31561 25.9688 2.77395L25.918 2.96926L24.3164 7.26995C24.1235 7.7869 23.5485 8.05027 23.0312 7.85783C22.5136 7.66524 22.2508 7.08835 22.4434 6.57075L23.2031 4.52782L2.39453 13.9905C1.89191 14.2191 1.29907 13.9969 1.07031 13.4944C0.841677 12.9917 1.06367 12.3989 1.56641 12.1702L22.3711 2.70559L20.3281 1.93608L20.1465 1.84624C19.7527 1.5984 19.5737 1.09938 19.7441 0.647041C19.9146 0.195637 20.3772 -0.0605769 20.8359 0.0122886ZM7 27C7 27.5523 6.55228 28 6 28H1C0.447715 28 0 27.5523 0 27V19.0002C0 18.4698 0.210864 17.9612 0.585938 17.5861C0.961012 17.2111 1.46957 17.0002 2 17.0002H5C5.53043 17.0002 6.03899 17.2111 6.41406 17.5861C6.78913 17.9612 7 18.4698 7 19.0002V27ZM17 27C17 27.5523 16.5523 28 16 28H11C10.4477 28 10 27.5523 10 27V16.0002C10 15.4698 10.2109 14.9613 10.5859 14.5862C10.961 14.2111 11.4696 14.0003 12 14.0003H15C15.5304 14.0003 16.039 14.2111 16.4141 14.5862C16.7891 14.9613 17 15.4698 17 16.0002V27ZM27 27C27 27.5523 26.5523 28 26 28H21C20.4477 28 20 27.5523 20 27V13.0003C20 12.4699 20.2109 11.9613 20.5859 11.5863C20.961 11.2112 21.4696 11.0003 22 11.0003H25C25.5304 11.0003 26.039 11.2112 26.4141 11.5863C26.7891 11.9613 27 12.4699 27 13.0003V27Z" fill="#C4E538"/>
</svg>
