<svg width="972" height="413" viewBox="0 0 972 413" fill="none" xmlns="http://www.w3.org/2000/svg">
<path d="M971 0.5H0.5V1.5H970V412.5H971V0.5ZM963 8H0.5V9H962V412.5H963V8ZM955 15.5H0.5V16.5H954V412.5H955V15.5ZM947 23H0.5V24H946V412.5H947V23ZM939 30.5H0.5V31.5H938V412.5H939V30.5ZM931 38H0.5V39H930V412.5H931V38ZM923 45.5H0.5V46.5H922V412.5H923V45.5ZM915 53H0.5V54H914V412.5H915V53ZM907 60.5H0.5V61.5H906V412.5H907V60.5ZM899 68H0.5V69H898V412.5H899V68ZM891 75.5H0.5V76.5H890V412.5H891V75.5ZM883 83H0.5V84H882V412.5H883V83ZM875 90.5H0.5V91.5H874V412.5H875V90.5ZM867 98H0.5V99H866V412.5H867V98ZM859 105.5H0.5V106.5H858V412.5H859V105.5ZM851 113H0.5V114H850V412.5H851V113ZM843 120.5H0.5V121.5H842V412.5H843V120.5ZM835 128H0.5V129H834V412.5H835V128ZM827 135.5H0.5V136.5H826V412.5H827V135.5Z" stroke="url(#paint0_linear_333_1174)" stroke-dasharray="12 12"/>
<defs>
<linearGradient id="paint0_linear_333_1174" x1="485.75" y1="-275.879" x2="406.495" y2="120.265" gradientUnits="userSpaceOnUse">
<stop offset="0.08" stop-color="#192C28"/>
<stop offset="1" stop-color="#F8FCF7"/>
</linearGradient>
</defs>
</svg>
