<svg width="121" height="19" viewBox="0 0 121 19" fill="none" xmlns="http://www.w3.org/2000/svg">
<path d="M9.07501 0.201389C14.0763 0.201389 18.15 4.26945 18.15 9.30417C18.15 14.3389 14.0763 18.407 9.07501 18.407C4.07367 18.407 0 14.3792 0 9.30417C0 4.22917 4.07367 0.201389 9.07501 0.201389ZM80.223 0V15.95C80.223 17.1583 80.7071 17.4806 81.6347 17.7222L81.6751 17.9236H76.5527V15.95C75.9477 17.4 74.6974 18.2861 73.084 18.2861C70.3414 18.2861 68.5264 15.7889 68.5264 12.0833C68.5264 9.98889 69.1314 8.21667 70.2607 6.8875C71.3497 5.59861 72.8421 4.91389 74.4957 4.91389C75.3024 4.91389 75.988 5.075 76.5527 5.4375V3.2625C76.5527 2.77917 76.4317 2.45695 76.1897 2.21528C75.8671 1.93333 75.3427 1.8125 74.5361 1.89306H74.4957V1.69167L80.223 0ZM99.6637 4.95417V15.95C99.6637 17.1583 100.148 17.4806 101.075 17.7222V17.9236H95.9531V15.9097C95.3481 17.3597 94.0171 18.2861 92.5247 18.2861C90.7501 18.2861 89.6207 17.4806 89.1771 15.9097L89.0964 15.507C89.0157 15.1042 88.9754 14.7014 88.9754 14.2986V8.41806C88.9754 7.12917 88.6931 6.72639 87.5637 6.64584H87.5234V6.44445L92.6457 4.95417V14.2181C92.6457 15.5875 93.2507 16.3528 94.3801 16.3528C95.0657 16.3528 95.6304 15.9903 95.9531 15.3861V8.41806C95.9531 7.08889 95.7111 6.68611 94.7834 6.60556H94.7431V6.40417L99.6637 4.95417ZM62.678 4.91389C64.0494 4.91389 65.3804 5.39722 66.2677 6.24306C67.276 7.20973 67.8004 8.61945 67.8407 10.4722V10.5125H60.137C59.9757 13.1708 61.6294 15.3458 63.8074 15.4264C65.3804 15.5472 66.7517 14.5806 67.518 13.0097L67.7197 13.0903C67.2761 16.0306 65.5417 18.2458 62.5167 18.2458C59.0884 18.2458 57.1524 15.3861 57.0717 11.8014V10.875C57.233 9.30417 57.717 7.89445 58.564 6.84722C59.0884 6.20278 59.6934 5.71945 60.4194 5.39722C61.0244 5.075 61.9117 4.91389 62.6377 4.91389H62.678ZM116.039 4.95417C118.217 4.95417 119.548 6.32361 119.548 8.65973V16.1514C119.548 17.0375 119.951 17.4806 120.96 17.7222H121V17.9236H115.837V8.78056C115.837 7.33056 115.313 6.60556 114.224 6.60556C113.337 6.60556 112.893 7.25 112.651 7.81389C112.691 8.09584 112.732 8.37778 112.732 8.65973V16.2722C112.732 17.1986 113.014 17.5208 113.821 17.7222H113.861V17.9236H109.061V8.78056C109.061 7.33056 108.497 6.60556 107.448 6.60556C106.601 6.60556 106.157 7.20973 105.956 7.69306V16.3125C105.956 17.2389 106.238 17.5611 107.045 17.7625H107.085V17.9639H102.285V8.37778C102.285 7.08889 101.963 6.68611 100.874 6.60556H100.833V6.40417L105.956 4.99445V7.12917C106.48 5.75973 107.69 4.95417 109.223 4.95417C110.957 4.95417 112.167 5.8 112.57 7.33056C113.095 5.88056 114.426 4.95417 116.039 4.95417ZM42.471 0.805556L47.2707 12.0431L52.0704 0.805556H57.233L57.1927 1.00695L57.1341 1.01997C56.2447 1.22241 55.781 1.55455 55.781 2.65833V16.3528C55.8617 17.2389 56.3457 17.5208 57.1927 17.7222H57.233V17.9236H50.6587V17.7222H50.699C51.546 17.5208 52.03 17.2389 52.1107 16.3528V3.02083L45.7784 17.8833H45.4154L39.2444 3.42361V16.0306C39.2444 17.1583 39.7284 17.4806 40.656 17.682H40.6964V17.8833H36.905V17.682H36.9454C37.873 17.4806 38.357 17.1583 38.357 16.0306V2.65833C38.357 1.53056 37.873 1.20833 36.9454 1.00695H36.905V0.805556H42.471ZM86.4747 4.95417V15.95L86.4753 16.0244C86.4951 17.1717 86.978 17.4856 87.8864 17.7222L87.9267 17.9236H82.8044V8.41806C82.8044 7.12917 82.5221 6.72639 81.3927 6.64584H81.3524V6.44445L86.4747 4.95417ZM23.595 0.725C26.0554 0.725 28.1124 4.59167 28.1124 9.30417C28.1124 14.057 26.0957 17.8833 23.595 17.8833C21.0943 17.8833 19.0777 14.057 19.0777 9.30417C19.0777 4.55139 21.0943 0.725 23.595 0.725ZM30.5324 1.61111C31.46 1.61111 32.1457 5.075 32.1457 9.30417C32.1457 13.5333 31.4197 16.9972 30.5324 16.9972C29.6539 16.9972 28.9336 13.6023 28.9192 9.43081L28.919 9.30417C28.919 5.075 29.645 1.61111 30.5324 1.61111ZM75.1007 5.63889C73.4874 5.63889 72.479 7.77362 72.479 11.0764C72.479 12.6472 72.7614 14.0167 73.2454 14.9431C73.689 15.8292 74.3344 16.3125 75.0604 16.3125C75.7864 16.3125 76.3107 15.9903 76.5527 15.3861V6.525C76.2704 5.96111 75.7461 5.63889 75.1007 5.63889ZM62.6377 5.67917C61.1857 5.67917 60.3387 7.41111 60.2177 9.82778V9.86806H64.614C64.6947 7.975 64.372 6.72639 63.767 6.12223C63.4444 5.84028 63.0814 5.67917 62.6377 5.67917ZM84.4984 0.120833C85.6681 0.120833 86.5554 1.00694 86.5554 2.175C86.5554 3.34306 85.6681 4.22917 84.4984 4.22917C83.3287 4.22917 82.4414 3.34306 82.4414 2.175C82.4414 1.00694 83.3287 0.120833 84.4984 0.120833Z" fill="#333333"/>
</svg>
