<svg width="67" height="28" viewBox="0 0 67 28" fill="none" xmlns="http://www.w3.org/2000/svg">
<path fill-rule="evenodd" clip-rule="evenodd" d="M67.0006 14.3335C67.0006 9.59272 64.6928 5.85195 60.2819 5.85195C55.8525 5.85195 53.1724 9.59272 53.1724 14.2965C53.1724 19.8706 56.3364 22.6854 60.8775 22.6854C63.0922 22.6854 64.7673 22.1854 66.0328 21.4817V17.778C64.7673 18.4076 63.3156 18.7965 61.4731 18.7965C59.6678 18.7965 58.0672 18.1669 57.8625 15.9817H66.9634C66.9634 15.7409 67.0006 14.7779 67.0006 14.3335ZM57.8066 12.5742C57.8066 10.4816 59.0908 9.61124 60.2633 9.61124C61.3986 9.61124 62.6083 10.4816 62.6083 12.5742H57.8066Z" fill="#333333"/>
<path fill-rule="evenodd" clip-rule="evenodd" d="M45.9884 5.85193C44.1645 5.85193 42.992 6.70379 42.3406 7.29639L42.0986 6.14823H38.0041V27.741L42.657 26.7595L42.6756 21.5187C43.3456 22.0002 44.332 22.6854 45.9698 22.6854C49.3012 22.6854 52.3348 20.0187 52.3348 14.1483C52.3162 8.77788 49.2453 5.85193 45.9884 5.85193ZM44.8717 18.6113C43.7736 18.6113 43.1222 18.2224 42.6756 17.7409L42.657 10.8705C43.1408 10.3334 43.8108 9.96308 44.8717 9.96308C46.5653 9.96308 47.7378 11.852 47.7378 14.2779C47.7378 16.7594 46.5839 18.6113 44.8717 18.6113Z" fill="#333333"/>
<path fill-rule="evenodd" clip-rule="evenodd" d="M31.6018 4.7593L36.2732 3.75929V0L31.6018 0.981489V4.7593Z" fill="#333333"/>
<path d="M36.2732 6.16673H31.6018V22.3706H36.2732V6.16673Z" fill="#333333"/>
<path fill-rule="evenodd" clip-rule="evenodd" d="M26.5952 7.5371L26.2974 6.16672H22.2773V22.3705H26.9302V11.389C28.0282 9.96305 29.8893 10.2223 30.4663 10.426V6.16672C29.8707 5.9445 27.6932 5.53708 26.5952 7.5371Z" fill="#333333"/>
<path fill-rule="evenodd" clip-rule="evenodd" d="M17.2897 2.14815L12.7485 3.11112L12.7299 17.9446C12.7299 20.6853 14.7958 22.7039 17.5502 22.7039C19.0764 22.7039 20.193 22.4261 20.8072 22.0927V18.3335C20.2116 18.5742 17.2711 19.4261 17.2711 16.6853V10.1112H20.8072V6.1667H17.2711L17.2897 2.14815Z" fill="#333333"/>
<path fill-rule="evenodd" clip-rule="evenodd" d="M4.70865 10.8705C4.70865 10.1483 5.30421 9.8705 6.2906 9.8705C7.70506 9.8705 9.49174 10.2964 10.9062 11.0557V6.70381C9.36146 6.09269 7.83534 5.85195 6.2906 5.85195C2.51252 5.85195 0 7.81493 0 11.0927C0 16.2039 7.07228 15.3891 7.07228 17.5928C7.07228 18.4446 6.32783 18.7224 5.2856 18.7224C3.74086 18.7224 1.76807 18.0928 0.204724 17.2409V21.6484C1.93557 22.3891 3.68503 22.7039 5.2856 22.7039C9.15674 22.7039 11.8181 20.7965 11.8181 17.4817C11.7995 11.9631 4.70865 12.9446 4.70865 10.8705Z" fill="#333333"/>
</svg>
