<svg width="12" height="19" viewBox="0 0 12 19" fill="none" xmlns="http://www.w3.org/2000/svg">
<path d="M1.98099 0.298957C0.822211 2.08596 0.146921 4.14422 0.0213914 6.27175C-0.104139 8.39927 0.324405 10.523 1.26496 12.4344L4.38692 18.6924C4.43308 18.7849 4.50403 18.8627 4.59184 18.9171C4.67964 18.9715 4.78082 19.0003 4.88404 19.0003H11.3585C11.4532 19.0003 11.5464 18.976 11.6291 18.9298C11.7119 18.8836 11.7815 18.8169 11.8313 18.7361C11.8811 18.6553 11.9095 18.5631 11.9137 18.4683C11.918 18.3734 11.898 18.2791 11.8556 18.1941C11.8556 18.1941 3.14529 0.73222 2.92638 0.295461C2.8831 0.206558 2.81569 0.131682 2.73189 0.0794232C2.64809 0.0271643 2.55129 -0.000361437 2.45259 3.5838e-06C2.35389 0.000368604 2.2573 0.0286096 2.17388 0.0814869C2.09047 0.134364 2.02361 0.209736 1.98099 0.298957Z" fill="#333333"/>
</svg>
