<svg width="122" height="17" viewBox="0 0 122 17" fill="none" xmlns="http://www.w3.org/2000/svg">
<path d="M72.5133 0.000277678C69.9929 0.000277678 67.529 2.28886 67.2457 5.59562V0.272885H63.6262V16.3223H67.29V8.55374C67.29 6.37759 68.8283 3.30787 72.5133 3.30787V0.000277678Z" fill="#333333"/>
<path d="M110.945 13.753V2.75718H113.068C115.898 2.75718 118.197 4.53069 118.197 8.16642C118.197 11.8021 115.898 13.753 113.068 13.753H110.945ZM107.319 16.3246H113.51C117.313 16.3246 122 13.8417 122 8.16642C122 2.57982 117.313 0.274253 113.51 0.274253H107.319V16.3246Z" fill="#333333"/>
<path d="M93.4457 8.34394C93.4457 5.41764 94.9491 3.0234 97.4252 3.0234C99.813 3.0234 101.14 5.41764 101.14 8.34394C101.14 11.2703 99.813 13.6645 97.4252 13.6645C94.9491 13.6645 93.4457 11.2703 93.4457 8.34394ZM89.7314 8.52127C89.7314 13.3098 92.2074 16.6795 96.0987 16.6795C98.9285 16.6795 100.609 14.8173 101.493 11.8023V16.3248H105.118V0.27445H101.493V4.53089C100.698 1.69326 99.0173 0.0084229 96.3643 0.0084229C92.3843 0.0084229 89.7314 3.64413 89.7314 8.52127Z" fill="#333333"/>
<path d="M7.16333 16.6795C2.65308 16.6795 0 13.0438 0 8.52127C0 3.82148 2.91839 0.0084229 8.48986 0.0084229C14.2382 0.0084229 16.1838 3.91015 16.2722 6.12704H12.1157C12.0273 4.88559 10.9661 3.0234 8.40141 3.0234C5.6599 3.0234 3.89119 5.41764 3.89119 8.34394C3.89119 11.2703 5.6599 13.6645 8.40141 13.6645C10.8776 13.6645 11.9388 11.7136 12.381 9.76275H8.40141V8.16656H16.752V16.3248H13.0885V11.1816C12.8232 13.0438 11.6736 16.6795 7.16333 16.6795Z" fill="#333333"/>
<path d="M24.1799 16.6793C20.7309 16.6793 18.6084 14.3737 18.6084 9.76255V0.274253H22.3227V9.76255C22.3227 12.1568 23.4724 13.3096 25.418 13.3096C29.2208 13.3096 30.6357 8.60976 30.6357 5.32877V0.274253H34.35V16.3246H30.7241V10.3833C30.0166 13.6643 28.0711 16.6793 24.1799 16.6793Z" fill="#333333"/>
<path d="M56.5457 0C53.3767 0 51.3777 3.0695 50.7251 5.90761C50.6135 2.10419 48.7482 0 45.7636 0C43.185 0 40.7927 2.30578 40.1714 5.95354V0.273032H36.5506V16.3237H40.2178V10.5696C40.2178 9.14309 40.8109 3.28899 44.5026 3.28899C46.8941 3.28899 47.1434 5.45201 47.1434 8.40872V16.3237H50.809V10.5696C50.809 9.14309 51.4266 3.28899 55.1183 3.28899C57.5079 3.28899 57.7546 5.45201 57.7546 8.40872V16.3237H61.4252V6.82982C61.4418 2.27521 59.8381 0 56.5457 0Z" fill="#333333"/>
<path d="M80.3811 0C75.6337 0 72.4168 3.73262 72.4168 8.33971C72.4168 13.4161 75.4762 16.6794 80.3811 16.6794C85.1286 16.6794 88.4026 12.9468 88.4026 8.33971C88.4026 3.26338 85.2839 0 80.3811 0ZM80.3811 13.8384C77.6173 13.8384 75.8272 11.4922 75.8272 8.33971C75.8272 5.18727 77.6234 2.84101 80.3811 2.84101C83.1383 2.84101 84.863 5.18727 84.863 8.33971C84.863 11.4922 83.1367 13.8384 80.3811 13.8384Z" fill="#333333"/>
</svg>
