<svg width="8" height="10" viewBox="0 0 8 10" fill="none" xmlns="http://www.w3.org/2000/svg">
<path d="M5.39076 0.203504C5.33677 0.132691 5.26546 0.0770351 5.18373 0.0419167C5.10201 0.00679829 5.01262 -0.00659531 4.92422 0.00303109C4.83581 0.0126575 4.75138 0.0449783 4.67909 0.0968688C4.60679 0.148759 4.54907 0.218465 4.51151 0.299248L0.0562084 9.22714C0.0156212 9.3085 -0.00354192 9.39891 0.000538469 9.48979C0.00461886 9.58067 0.0318073 9.66899 0.0795225 9.74637C0.127238 9.82375 0.193896 9.88763 0.273168 9.93193C0.35244 9.97624 0.441695 9.9995 0.532458 9.9995H6.73624C6.8356 10.0018 6.9335 9.97517 7.01804 9.92279C7.10258 9.87042 7.17013 9.79457 7.21249 9.70446C8.55073 6.93292 7.73971 2.7188 5.39076 0.203504Z" fill="#333333"/>
</svg>
