<svg width="61" height="21" viewBox="0 0 61 21" fill="none" xmlns="http://www.w3.org/2000/svg">
<path d="M3.48038 14.9982C3.73601 15.6766 4.08994 16.2566 4.54222 16.7384C4.99449 17.2201 5.53031 17.5888 6.14966 17.8444C6.76907 18.1001 7.44253 18.2279 8.17009 18.2279C8.878 18.2279 9.5416 18.0951 10.161 17.8296C10.7804 17.5641 11.3211 17.1906 11.7832 16.7089C12.2453 16.2271 12.6042 15.652 12.8598 14.9834C13.1154 14.3149 13.2432 13.5677 13.2432 12.7418V0H16.3402V20.6464H13.2727V18.7292C12.5845 19.4567 11.7734 20.0171 10.8394 20.4105C9.90532 20.8037 8.89765 21.0003 7.81616 21.0003C6.71497 21.0003 5.68759 20.8086 4.73389 20.4252C3.78026 20.0417 2.95435 19.4961 2.25636 18.7882C1.55836 18.0803 1.00774 17.23 0.604667 16.2369C0.201534 15.2439 0 14.1379 0 12.9187V0H3.09695V12.7418C3.09695 13.5677 3.22474 14.3197 3.48038 14.9982Z" fill="#333333"/>
<path d="M21.6785 0V7.52117C22.3667 6.83297 23.1631 6.28737 24.0676 5.88423C24.9721 5.4811 25.9553 5.27957 27.017 5.27957C28.1182 5.27957 29.1504 5.48599 30.114 5.89892C31.0775 6.31184 31.9131 6.87226 32.621 7.58017C33.329 8.28809 33.8894 9.12372 34.3023 10.0872C34.7152 11.0508 34.9216 12.0732 34.9216 13.1547C34.9216 14.2361 34.7152 15.2537 34.3023 16.2074C33.8894 17.1611 33.329 17.9919 32.621 18.6997C31.9131 19.4076 31.0775 19.968 30.114 20.3809C29.1504 20.7938 28.1182 21.0003 27.017 21.0003C25.9552 21.0003 24.9672 20.7987 24.0528 20.3956C23.1385 19.9925 22.3372 19.4469 21.649 18.7587V20.6463H18.6995V0H21.6785ZM22.0177 15.1898C22.2831 15.8191 22.6518 16.3697 23.1237 16.8416C23.5957 17.3135 24.1462 17.6872 24.7754 17.9624C25.4047 18.2377 26.0831 18.3754 26.8106 18.3754C27.5185 18.3754 28.187 18.2377 28.8162 17.9624C29.4454 17.6872 29.991 17.3136 30.4532 16.8416C30.9153 16.3697 31.284 15.8191 31.5593 15.1898C31.8345 14.5606 31.9722 13.8823 31.9722 13.1547C31.9722 12.4272 31.8345 11.7439 31.5593 11.1048C31.284 10.4657 30.9153 9.91028 30.4532 9.43836C29.9911 8.9665 29.4455 8.59776 28.8162 8.33234C28.187 8.06691 27.5185 7.9341 26.8106 7.9341C26.1028 7.9341 25.4342 8.06684 24.805 8.33234C24.1758 8.59783 23.6252 8.9665 23.1532 9.43836C22.6814 9.91028 22.3078 10.4657 22.0325 11.1048C21.7572 11.7439 21.6196 12.4272 21.6196 13.1547C21.6195 13.8823 21.7522 14.5606 22.0177 15.1898Z" fill="#333333"/>
<path d="M36.6025 10.1167C36.9957 9.17288 37.5365 8.34214 38.2247 7.62444C38.9128 6.90673 39.7289 6.34142 40.6728 5.9285C41.6166 5.51557 42.6391 5.30915 43.7402 5.30915C44.8217 5.30915 45.8245 5.50578 46.7487 5.899C47.6729 6.29228 48.4692 6.83795 49.1378 7.53601C49.8063 8.234 50.3275 9.05991 50.701 10.0135C51.0746 10.9672 51.2614 12.0045 51.2614 13.1253V14.0987H39.0211C39.1194 14.7082 39.3161 15.2735 39.611 15.7945C39.906 16.3156 40.2746 16.7679 40.717 17.1513C41.1594 17.5348 41.6609 17.8347 42.2213 18.0509C42.7817 18.2672 43.3764 18.3754 44.0057 18.3754C45.7951 18.3754 47.2404 17.638 48.3415 16.1632L50.4946 17.7559C49.7474 18.7587 48.8233 19.5453 47.7222 20.1155C46.621 20.6857 45.3822 20.9708 44.0058 20.9708C42.8849 20.9708 41.8379 20.7741 40.8646 20.3809C39.8912 19.9877 39.0457 19.4371 38.328 18.7292C37.6103 18.0213 37.045 17.1905 36.6321 16.2369C36.2192 15.2833 36.0127 14.246 36.0127 13.1252C36.0126 12.0634 36.2093 11.0606 36.6025 10.1167ZM40.7465 8.95164C39.9108 9.6497 39.3554 10.5788 39.0801 11.7389H48.253C47.9974 10.5788 47.4517 9.6497 46.616 8.95164C45.7803 8.25364 44.8021 7.90461 43.6813 7.90461C42.5605 7.90461 41.5822 8.25364 40.7465 8.95164Z" fill="#333333"/>
<path d="M56.8359 9.29086C56.2067 9.97907 55.892 10.9131 55.892 12.0929V20.6465H52.913V5.60406H55.8625V7.46224C56.2361 6.85268 56.7228 6.3709 57.3225 6.01698C57.9222 5.66299 58.635 5.48599 59.4609 5.48599H60.4932V8.25852H59.2544C58.2713 8.25859 57.4651 8.60266 56.8359 9.29086Z" fill="#333333"/>
</svg>
