<svg width="24" height="24" viewBox="0 0 24 24" fill="none" xmlns="http://www.w3.org/2000/svg">
<path d="M12.1491 14.2646V10.9859H23.1782C23.286 11.5574 23.3416 12.2333 23.3416 12.965C23.3416 15.4249 22.6703 18.4667 20.507 20.6339C18.4027 22.829 15.7141 23.9997 12.1525 23.9997C5.55107 23.9997 0 18.613 0 11.9999C0 5.3867 5.55107 0 12.1525 0C15.8045 0 18.4062 1.43552 20.3609 3.30658L18.0514 5.62015C16.6497 4.30309 14.7507 3.27871 12.1491 3.27871C7.32839 3.27871 3.55811 7.17065 3.55811 11.9999C3.55811 16.8291 7.32839 20.721 12.1491 20.721C15.2759 20.721 17.0567 19.4632 18.1975 18.3204C19.1227 17.3935 19.7313 16.0695 19.9713 14.2612L12.1491 14.2646Z" fill="#333333"/>
</svg>
