<svg width="32" height="32" viewBox="0 0 32 32" fill="none" xmlns="http://www.w3.org/2000/svg">
<path d="M0.20096 18.6994L13.2644 31.7982C6.59331 30.6675 1.3286 25.3885 0.20096 18.6994Z" fill="#333333"/>
<path d="M0 15.1432L16.8109 31.9997C17.8106 31.9461 18.786 31.8003 19.7286 31.5707L0.427831 12.2176C0.198799 13.1628 0.0534197 14.1408 0 15.1432Z" fill="#333333"/>
<path d="M1.26465 9.70196L22.2375 30.7317C23.0014 30.4029 23.7346 30.0162 24.4315 29.577L2.41627 7.50208C1.9782 8.20087 1.59249 8.93602 1.26465 9.70196Z" fill="#333333"/>
<path d="M3.83707 5.57229C6.76545 2.16044 11.1036 0 15.9451 0C24.764 0 31.9132 7.16853 31.9132 16.0114C31.9132 20.8659 29.7586 25.2159 26.356 28.1522L3.83707 5.57229Z" fill="#333333"/>
</svg>
