<svg width="15" height="16" viewBox="0 0 15 16" fill="none" xmlns="http://www.w3.org/2000/svg">
<path d="M11.856 10.6363L14.5779 12.4541C13.6994 13.7562 11.5824 15.9996 7.92441 15.9996C3.38795 15.9996 0 12.4866 0 7.99978C0 3.24247 3.41675 0 7.53197 0C11.676 0 13.703 3.30379 14.3655 5.08913L14.7291 5.99803L4.05402 10.4271C4.8713 12.0321 6.14223 12.8509 7.92441 12.8509C9.71019 12.8509 10.9487 11.9708 11.856 10.6363ZM3.47796 7.75813L10.6139 4.78977C10.2214 3.7907 9.04052 3.09459 7.65078 3.09459C5.8686 3.09459 3.38795 4.67074 3.47796 7.75813Z" fill="#333333"/>
</svg>
