<svg width="113" height="20" viewBox="0 0 113 20" fill="none" xmlns="http://www.w3.org/2000/svg">
<path d="M22.6971 5.58362C18.6118 5.58362 15.4196 8.67119 15.4196 12.8045C15.4196 16.9378 18.5311 19.999 22.6971 19.999C26.8631 19.999 30.0287 16.885 30.0287 12.7781C30.0287 8.69759 26.9172 5.58362 22.6971 5.58362ZM22.7247 17.0202C20.3982 17.0202 18.6934 15.2213 18.6934 12.8055C18.6934 10.3623 20.3706 8.56447 22.6971 8.56447C25.0511 8.56447 26.7549 10.3897 26.7549 12.8055C26.7549 15.2213 25.0511 17.0202 22.7247 17.0202ZM30.9209 8.72503H32.9502V19.7317H36.1964V5.85194H30.9209V8.72503ZM7.24992 8.56344C8.95471 8.56344 10.3073 9.61025 10.8208 11.1672H14.2569C13.6342 7.83881 10.8749 5.58362 7.27748 5.58362C3.19212 5.58362 0 8.67119 0 12.8055C0 16.9399 3.11149 20 7.27748 20C10.7942 20 13.6076 17.7448 14.2303 14.3889H10.8208C10.3338 15.9459 8.98124 17.0202 7.27648 17.0202C4.92244 17.0202 3.27276 15.2213 3.27276 12.8055C3.2738 10.3623 4.89692 8.56344 7.24992 8.56344ZM92.6013 11.463L90.2207 11.1144C89.0848 10.9538 88.2731 10.5778 88.2731 9.69156C88.2731 8.72503 89.3287 8.24228 90.7619 8.24228C92.331 8.24228 93.3323 8.91306 93.5486 10.0137H96.6869C96.3347 7.22191 94.1704 5.58463 90.8435 5.58463C87.4074 5.58463 85.1351 7.32966 85.1351 9.79928C85.1351 12.1612 86.6233 13.5312 89.6256 13.9601L92.0061 14.3087C93.1701 14.4692 93.8192 14.9266 93.8192 15.7853C93.8192 16.886 92.6832 17.3423 91.1141 17.3423C89.1928 17.3423 88.1108 16.5638 87.9485 15.3829H84.7563C85.0545 18.0944 87.1911 20 91.0865 20C94.6309 20 96.9838 18.3892 96.9838 15.6237C96.9838 13.1541 95.28 11.8654 92.6013 11.463ZM34.5733 0.134153C33.383 0.134153 32.49 0.992937 32.49 2.17389C32.49 3.35484 33.3821 4.21362 34.5733 4.21362C35.7635 4.21362 36.6569 3.35484 36.6569 2.17389C36.6569 0.992937 35.7635 0.134153 34.5733 0.134153ZM82.2134 10.6042C82.2134 7.59794 80.3741 5.58463 76.4784 5.58463C72.7993 5.58463 70.7433 7.43738 70.3371 10.283H73.5567C73.719 9.18237 74.5847 8.26972 76.4244 8.26972C78.0751 8.26972 78.8865 8.99434 78.8865 9.88059C78.8865 11.0351 77.3981 11.3298 75.5587 11.5179C73.0699 11.7862 69.9859 12.6449 69.9859 15.8667C69.9859 18.3638 71.8529 19.9736 74.8289 19.9736C77.1551 19.9736 78.616 19.0071 79.347 17.4765C79.4553 18.8455 80.4833 19.7317 81.9174 19.7317H83.8111V16.8596H82.2144V10.6042H82.2134ZM79.0212 14.0942C79.0212 15.9469 77.3981 17.3159 75.4228 17.3159C74.2052 17.3159 73.1772 16.8057 73.1772 15.7325C73.1772 14.3635 74.8276 13.9875 76.3428 13.8269C77.8036 13.6928 78.615 13.3706 79.0212 12.7527V14.0942ZM61.7887 5.58362C59.9757 5.58362 58.4608 6.33569 57.3789 7.59694V0H54.1326V19.7317H57.3246V17.9064C58.4065 19.2215 59.9493 20 61.7887 20C65.6841 20 68.6334 16.9399 68.6334 12.8055C68.6334 8.67119 65.6301 5.58362 61.7887 5.58362ZM61.3019 17.0202C58.9753 17.0202 57.2706 15.2213 57.2706 12.8055C57.2706 10.3897 59.002 8.56447 61.3282 8.56447C63.6824 8.56447 65.3319 10.3633 65.3319 12.8055C65.3319 15.2213 63.6281 17.0202 61.3019 17.0202ZM46.368 5.58362C44.258 5.58362 42.8778 6.44241 42.0664 7.65078V5.85194H38.8466V19.7307H42.0928V12.1876C42.0928 10.0666 43.4454 8.56344 45.4473 8.56344C47.3143 8.56344 48.477 9.87856 48.477 11.7852V19.7317H51.7232V11.5443C51.7245 8.05325 49.9124 5.58362 46.368 5.58362ZM112.459 12.3492C112.459 8.37644 109.537 5.58463 105.614 5.58463C101.448 5.58463 98.3906 8.69862 98.3906 12.8055C98.3906 17.1279 101.664 20 105.668 20C109.05 20 111.701 18.0131 112.377 15.1949H108.995C108.508 16.4297 107.318 17.1279 105.721 17.1279C103.638 17.1279 102.068 15.8392 101.717 13.584H112.458V12.3492H112.459ZM101.907 11.275C102.422 9.34194 103.882 8.40287 105.56 8.40287C107.399 8.40287 108.806 9.44966 109.131 11.275H101.907Z" fill="#333333"/>
</svg>
