<svg width="75" height="20" viewBox="0 0 75 20" fill="none" xmlns="http://www.w3.org/2000/svg">
<path d="M0 19.1384H11.6439V15.959H3.84577V0.899481H0V19.1384ZM14.1196 19.1384H17.9033V5.45922H14.1196V19.1384ZM16.0203 3.83838C17.1217 3.83838 18.072 3.00123 18.072 1.91473C18.072 0.837139 17.1217 0 16.0203 0C14.9278 0 13.9776 0.837139 13.9776 1.91473C13.9776 3.00123 14.9278 3.83838 16.0203 3.83838ZM24.7178 11.2301C24.7265 9.46681 25.7746 8.43374 27.3022 8.43374C28.8211 8.43374 29.7359 9.43118 29.727 11.1055V19.1384H33.5106V10.4286C33.5106 7.24037 31.6455 5.28111 28.8033 5.28111C26.7782 5.28111 25.3127 6.27855 24.7 7.87267H24.54V5.45922H20.934V19.1384H24.7178V11.2301ZM42.7453 19.4057C46.1292 19.4057 48.3941 17.758 48.9269 15.2199L45.4364 14.9884C45.0544 16.0304 44.0686 16.5736 42.8163 16.5736C40.9245 16.5736 39.7255 15.3179 39.7255 13.2785V13.2696H49.0157V12.2276C49.0157 7.57878 46.2091 5.28111 42.6031 5.28111C38.5886 5.28111 35.9864 8.13984 35.9864 12.3612C35.9864 16.6983 38.5532 19.4057 42.7453 19.4057ZM39.7255 10.9184C39.7966 9.35993 40.9867 8.11314 42.6654 8.11314C44.2995 8.11314 45.4364 9.28869 45.4542 10.9184H39.7255ZM55.4284 19.3968C57.4444 19.3968 58.7501 18.5151 59.4162 17.2415H59.5228V19.1384H63.111V9.91209C63.111 6.65259 60.331 5.28111 57.3823 5.28111C54.025 5.28111 51.9023 6.84852 51.3783 9.34213L54.8776 9.62711C55.1352 8.71873 55.9434 8.05079 57.3024 8.05079C58.6079 8.05079 59.3185 8.692 59.3274 9.84084C59.3363 10.7403 58.3948 10.8739 56.0233 11.1055C53.3233 11.3548 50.8986 12.2632 50.8986 15.3179C50.8986 18.0252 52.826 19.3968 55.4284 19.3968ZM56.5119 16.7784C55.3483 16.7784 54.5135 16.2352 54.5135 15.1932C54.5135 14.1245 55.3928 13.599 56.725 13.412C57.5509 13.2963 58.901 13.1003 59.3539 12.7975V14.2492C59.3539 15.683 58.1727 16.7784 56.5119 16.7784ZM66.0463 19.1384H69.83V11.3993C69.8387 9.72507 71.0468 8.57623 72.5744 8.57623C73.0894 8.57623 73.507 8.71873 73.8621 8.89684L74.999 5.76202C74.5017 5.45922 73.8621 5.26329 73.1339 5.26329C71.5974 5.26329 70.354 6.15387 69.8565 7.84596H69.7145V5.45922H66.0463V19.1384Z" fill="#333333"/>
</svg>
