<svg width="15" height="23" viewBox="0 0 15 23" fill="none" xmlns="http://www.w3.org/2000/svg">
<path d="M15.0003 0.473566V14.5462C15.0003 20.3351 11.5924 22.6993 7.56364 22.6993C3.77124 22.6993 1.48874 20.1583 0.627951 18.0803L3.61954 16.8328C4.15224 18.1086 5.45753 19.6141 7.56011 19.6141C10.1389 19.6141 11.737 18.0202 11.737 15.0198V13.8924H11.6171C10.848 14.8431 9.36635 15.6736 7.49661 15.6736C3.58426 15.6736 0 12.2597 0 7.86684C0 3.44219 3.58426 0 7.49661 0C9.36282 0 10.8445 0.830507 11.6171 1.7529H11.737V0.4771H15.0003V0.473566ZM11.9805 7.86684C11.9805 5.10673 10.1425 3.08878 7.80353 3.08878C5.43284 3.08878 3.44668 5.10673 3.44668 7.86684C3.44668 10.5987 5.43284 12.5884 7.80353 12.5884C10.1425 12.5884 11.9805 10.5987 11.9805 7.86684Z" fill="#333333"/>
</svg>
