<svg width="719" height="306" viewBox="0 0 719 306" fill="none" xmlns="http://www.w3.org/2000/svg">
<path d="M0.500001 0.50001H718.5V1.2403H1.23983V305.5H0.500001V0.50001ZM6.4186 6.05219H718.5V6.79249H7.15842V305.5H6.4186V6.05219ZM12.3372 11.6044H718.5V12.3447H13.077V305.5H12.3372V11.6044ZM18.2558 17.1566H718.5V17.8969H18.9956V305.5H18.2558V17.1566ZM24.1744 22.7087H718.5V23.449H24.9142V305.5H24.1744V22.7087ZM30.093 28.2609H718.5V29.0012H30.8328V305.5H30.093V28.2609ZM36.0116 33.8131H718.5V34.5534H36.7514V305.5H36.0116V33.8131ZM41.9302 39.3653H718.5V40.1056H42.67V305.5H41.9302V39.3653ZM47.8488 44.9175H718.5V45.6578H48.5886V305.5H47.8488V44.9175ZM53.7674 50.4697H718.5V51.21H54.5072V305.5H53.7674V50.4697ZM59.686 56.0219H718.5V56.7621H60.4258V305.5H59.686V56.0219ZM65.6046 61.574H718.5V62.3143H66.3444V305.5H65.6046V61.574ZM71.5232 67.1262H718.5V67.8665H72.263V305.5H71.5232V67.1262ZM77.4418 72.6784H718.5V73.4187H78.1816V305.5H77.4418V72.6784ZM83.3604 78.2306H718.5V78.9709H84.1002V305.5H83.3604V78.2306ZM89.279 83.7828H718.5V84.5231H90.0188V305.5H89.279V83.7828ZM95.1976 89.335H718.5V90.0752H95.9374V305.5H95.1976V89.335ZM101.116 94.8871H718.5V95.6274H101.856V305.5H101.116V94.8871ZM107.035 100.439H718.5V101.18H107.775V305.5H107.035V100.439Z" stroke="url(#paint0_linear_333_1228)" stroke-dasharray="12 12"/>
<defs>
<linearGradient id="paint0_linear_333_1228" x1="359.5" y1="-204.101" x2="418.206" y2="89.1466" gradientUnits="userSpaceOnUse">
<stop offset="0.08" stop-color="#C4E538"/>
<stop offset="1" stop-color="#192C28"/>
</linearGradient>
</defs>
</svg>
